<svg width="369" height="193" viewBox="0 0 369 193" fill="none" xmlns="http://www.w3.org/2000/svg">
<path d="M45.56 192.08H45.08L44.6 191.12L45.08 190.88L45.56 192.08ZM60.92 8.71999C60.6 9.03999 60.44 9.35999 60.44 9.68L58.04 9.19999C58.84 8.23999 59.24 7.75999 59.24 7.75999C59.4 7.75999 59.64 7.91999 59.96 8.23999C60.44 8.39999 60.76 8.56 60.92 8.71999ZM108.44 43.28C108.12 45.52 107.64 48.64 107 52.64C107 52.8 106.68 53.68 106.04 55.28C105.56 56.4 105.56 57.12 106.04 57.44C105.4 57.6 104.28 58.08 102.68 58.88C101.24 59.52 100.36 59.84 100.04 59.84C98.28 59.84 96.84 59.28 95.72 58.16C95.24 57.52 94.92 56.4 94.76 54.8C94.6 53.2 94.36 52.16 94.04 51.68C93.88 51.04 93.32 50.48 92.36 50C91.56 49.52 91.16 48.88 91.16 48.08C91.16 45.68 92.28 44.48 94.52 44.48C95.16 44.48 95.88 44.88 96.68 45.68C100.36 43.44 103 42.32 104.6 42.32C105.24 42.32 106.52 42.64 108.44 43.28ZM58.28 12.08H56.84L57.32 10.64C57.96 11.28 58.28 11.76 58.28 12.08ZM76.52 38.24C76.04 38.08 75.4 38 74.6 38C74.6 37.68 74.76 37.2 75.08 36.56C75.08 36.4 75.56 36.96 76.52 38.24ZM101.48 68.72H101L100.52 67.76L101 67.52L101.48 68.72ZM74.84 42.56H73.4V41.84H74.84V42.56ZM39.32 6.79999L37.88 7.75999L37.64 7.28L39.08 6.32L39.32 6.79999ZM72.44 41.36H70.76V40.64H72.44V41.36ZM101.48 72.56H100.76V69.44H101.48V72.56ZM71.96 43.04C71.96 43.04 71.72 43.12 71.24 43.28C70.76 43.44 70.36 43.52 70.04 43.52C68.92 43.52 68.36 42.88 68.36 41.6C68.68 42.4 69.88 42.88 71.96 43.04ZM69.56 44.96L68.36 45.44V44.72L69.32 44.24L69.56 44.96ZM65.72 40.88C64.6 41.52 63.4 41.84 62.12 41.84C62.28 41.36 63 40.88 64.28 40.4L65.72 40.88ZM76.04 52.4C74.92 53.04 73.4 54.56 71.48 56.96C70.52 56.32 69.48 56.32 68.36 56.96C67.72 56.16 67.4 55.2 67.4 54.08C67.4 52.32 68.68 50.56 71.24 48.8C71.72 48.8 72.28 48.88 72.92 49.04C73.4 48.56 74.04 48.32 74.84 48.32C74.52 48.64 73.88 49.12 72.92 49.76C72.92 49.92 73.08 50.24 73.4 50.72L74.6 49.52C74.92 49.52 75.4 49.76 76.04 50.24V52.4ZM62.12 51.92H61.4V50.72H62.12V51.92ZM95.24 91.52C94.6 91.84 94.2 92 94.04 92C94.04 91.84 94.12 91.52 94.28 91.04C94.44 90.56 94.52 90.24 94.52 90.08C94.52 90.24 94.6 90.48 94.76 90.8C95.08 91.12 95.24 91.36 95.24 91.52ZM65 61.04L63.8 61.52V61.04L64.76 60.56L65 61.04ZM22.04 25.04L19.64 26.48L19.4 25.76L21.8 24.56L22.04 25.04ZM101 74.96C100.68 74.64 100.44 74.64 100.28 74.96C99.64 77.04 99 79.28 98.36 81.68C97.72 83.92 96.76 85.2 95.48 85.52C94.2 87.12 93 89.52 91.88 92.72C90.92 95.92 90.52 98.4 90.68 100.16C89.88 100.48 89.48 101.04 89.48 101.84C89.8 102.32 90.12 102.72 90.44 103.04C90.92 104 90.6 104.48 89.48 104.48C89.32 104.48 89.08 104.32 88.76 104C87.32 106.4 86.68 108.8 86.84 111.2C84.92 115.36 82.04 124.08 78.2 137.36C77.88 138.64 77.8 140 77.96 141.44C77.8 141.6 77.48 141.92 77 142.4C77.16 142.4 77.32 142.48 77.48 142.64C77.8 142.8 78.04 142.96 78.2 143.12C77.88 143.6 77.56 144.48 77.24 145.76C76.92 146.88 76.6 147.76 76.28 148.4C76.6 147.12 76.52 145.04 76.04 142.16C75.08 144.88 73.64 151.12 71.72 160.88C71.72 162.48 71.64 164.72 71.48 167.6C71.16 168.08 70.84 168.88 70.52 170C70.68 168.72 70.76 170.48 70.76 175.28C70.76 176.56 70.44 179.28 69.8 183.44C69.8 181.68 69.64 177.2 69.32 170C69 169.68 68.68 169.2 68.36 168.56C68.2 167.44 68.2 165.76 68.36 163.52C68.04 163.52 67.8 163.68 67.64 164C67.32 165.44 66.84 167.6 66.2 170.48C66.2 170.48 65.56 170.48 64.28 170.48C64.28 170.48 64.2 170.32 64.04 170C63.88 169.52 63.8 169.2 63.8 169.04H65C65.32 168.88 65.48 168.56 65.48 168.08C65.48 167.92 65.24 167.2 64.76 165.92C64.44 164.64 64.36 163.68 64.52 163.04C64.2 162.72 63.88 162.24 63.56 161.6C63.08 161.6 62.76 161.68 62.6 161.84C62.6 162.32 62.92 162.88 63.56 163.52C63.56 164.32 63.72 165.52 64.04 167.12H63.56C63.4 169.36 63.08 172.32 62.6 176C62.6 176.32 62.2 173.68 61.4 168.08C61.24 168.88 60.76 170.08 59.96 171.68C60.12 171.84 60.52 171.92 61.16 171.92C61.16 171.76 61.16 174.24 61.16 179.36C60.36 178.56 59.96 177.68 59.96 176.72C59.16 175.76 58.76 175.76 58.76 176.72C58.76 176.72 58.76 176.48 58.76 176C58.92 175.68 58.68 175.52 58.04 175.52C57.08 175.52 56.6 176 56.6 176.96C56.6 177.28 56.84 179.28 57.32 182.96C57.8 186.64 58.12 189.28 58.28 190.88C57.8 191.2 57.4 191.36 57.08 191.36C56.12 184.96 55.16 176.48 54.2 165.92C54.52 165.12 54.68 163.6 54.68 161.36C54.36 161.04 53.64 160.96 52.52 161.12C52.52 158.56 52.76 154.72 53.24 149.6C53.24 149.44 53.48 148.96 53.96 148.16C54.6 147.2 54.92 146.48 54.92 146C54.76 144.56 55.24 139.6 56.36 131.12C56.2 130.96 55.96 130.88 55.64 130.88C55.32 131.2 55.16 131.76 55.16 132.56C55.16 131.44 55.4 130.16 55.88 128.72C55.72 128.56 55.56 128.4 55.4 128.24C55.4 127.92 55.32 127.68 55.16 127.52C55 127.68 54.68 127.92 54.2 128.24C53.88 131.44 54.04 133.2 54.68 133.52C54.68 134 54.36 134.24 53.72 134.24C53.72 134.72 53.88 135.36 54.2 136.16V137.6H52.52C52.36 137.76 52.2 139.6 52.04 143.12C51.88 143.12 51.72 143.36 51.56 143.84C51.4 144.32 51.24 145.52 51.08 147.44C50.92 149.2 50.84 150.48 50.84 151.28C50.84 151.28 50.84 151.76 50.84 152.72C50.84 152.4 50.68 152 50.36 151.52C49.88 152.48 49.48 153.44 49.16 154.4C49.16 154.4 49 154.16 48.68 153.68C48.36 153.84 48.04 154.48 47.72 155.6L48.2 156.08C48.68 155.6 49 155.36 49.16 155.36C48.84 156.16 48.28 157.36 47.48 158.96C47.32 158.96 47.08 158.8 46.76 158.48C46.44 158 46.2 157.76 46.04 157.76C46.36 156 46.52 154.4 46.52 152.96C47 152.96 47.8 152.64 48.92 152C48.92 151.52 48.84 151.28 48.68 151.28C48.36 151.44 48.2 151.6 48.2 151.76C48.2 151.44 48.04 151.12 47.72 150.8C46.92 151.6 46.44 152 46.28 152V148.88C46.44 149.52 46.68 149.28 47 148.16C47 146.4 47.56 144 48.68 140.96C49.32 139.2 49.64 138.08 49.64 137.6C49.64 136.64 49.08 135.84 47.96 135.2C48.44 134.88 48.84 134.32 49.16 133.52C49.32 133.36 49.24 133.2 48.92 133.04C48.12 133.04 47.72 133.36 47.72 134C47.72 133.04 48.2 132.32 49.16 131.84C49 131.68 48.6 131.6 47.96 131.6C48.6 129.52 48.92 127.84 48.92 126.56C48.44 126.08 47.96 125.84 47.48 125.84C47.48 125.84 47.56 126.48 47.72 127.76C47.56 128.72 46.84 130 45.56 131.6C45.56 132.08 45.8 132.64 46.28 133.28C45.96 133.76 45.32 134.56 44.36 135.68L45.08 136.16H43.88C43.88 136.32 43.88 133.68 43.88 128.24C43.24 127.92 42.04 128.08 40.28 128.72L41 127.76L40.28 127.28L40.04 127.52L38.12 127.04C38.92 127.04 39.48 126.88 39.8 126.56C39.32 126.4 38.6 126.08 37.64 125.6C40.36 125.6 41.72 125.6 41.72 125.6C40.92 124.96 39.88 124.64 38.6 124.64C38.6 124.64 38.12 124.88 37.16 125.36C36.52 126.48 35.48 128.16 34.04 130.4C34.04 130.72 33.96 131.2 33.8 131.84C33.8 132 33.88 132.16 34.04 132.32C34.36 132.8 34.2 133.04 33.56 133.04C33.56 133.2 33.64 133.84 33.8 134.96C33.48 134.64 32.84 134.48 31.88 134.48C31.88 134.64 32.04 134.08 32.36 132.8C32.36 132.16 32.36 131.44 32.36 130.64C32.52 130 32.84 129.04 33.32 127.76C33.8 126.48 34.04 125.68 34.04 125.36C34.04 123.6 33.08 122.72 31.16 122.72C30.68 122.72 30.12 122.96 29.48 123.44C29.32 122.48 28.52 121.92 27.08 121.76C25.8 121.6 24.52 121.44 23.24 121.28L22.28 120.32C22.92 120 23.88 119.12 25.16 117.68C24.84 117.68 22.44 117.68 17.96 117.68C17.96 116.56 18.36 116 19.16 116C19.64 116 19.88 116.08 19.88 116.24C19.88 116.4 20.04 116.48 20.36 116.48C21.48 116.48 22.84 116.08 24.44 115.28C26.2 114.32 27.16 113.44 27.32 112.64C26.04 112.48 23.64 112.4 20.12 112.4C19.8 112.4 19.64 112.24 19.64 111.92C19.8 111.6 19.72 111.44 19.4 111.44C19.08 111.44 18.92 111.52 18.92 111.68C19.08 111.84 19 111.92 18.68 111.92C18.36 111.92 18.12 111.76 17.96 111.44C17.8 110.96 17.56 110.72 17.24 110.72C16.92 110.72 16.76 110.8 16.76 110.96C16.76 110.96 16.6 110.96 16.28 110.96C14.68 109.2 13.24 108.32 11.96 108.32C12.28 108.32 12.68 108.08 13.16 107.6C12.68 106.64 12.04 105.36 11.24 103.76C11.88 103.76 12.68 104 13.64 104.48H14.12C12.84 102.56 11.56 101.6 10.28 101.6C9.96 101.6 9.64 101.76 9.32 102.08C9 101.6 8.84 101.04 8.84 100.4C9 100.4 9.24 100.56 9.56 100.88C10.04 101.04 10.36 101.12 10.52 101.12C10.68 100.96 10.76 100.72 10.76 100.4C10.76 97.52 9.64 95.12 7.4 93.2C8.04 93.36 8.92 93.12 10.04 92.48C9.88 92.32 9.56 92 9.08 91.52C8.76 91.04 8.52 90.64 8.36 90.32C7.72 91.12 7.48 91.52 7.64 91.52V89.12C7.96 89.44 8.52 89.84 9.32 90.32C9.32 89.2 9.56 87.52 10.04 85.28C10.52 83.04 10.76 81.84 10.76 81.68C10.76 81.36 10.52 80.8 10.04 80C9.72 79.36 9.8 78.32 10.28 76.88C9.96 76.56 9.4 76.4 8.6 76.4C8.76 76.72 8.76 77.36 8.6 78.32C8.12 78 7.64 78 7.16 78.32C7.64 76.72 8.28 74.4 9.08 71.36C10.04 68.16 11.08 63.52 12.2 57.44C12.52 57.28 13.32 55.92 14.6 53.36C14.12 52.88 13.72 52.88 13.4 53.36C12.6 55.44 11.4 57.68 9.8 60.08C8.36 64.56 7 69.04 5.72 73.52C3.8 80.08 3.08 85.04 3.56 88.4C2.92 89.84 2.6 90.4 2.6 90.08C2.6 90.88 2.76 92 3.08 93.44C3.24 94.08 3.72 94.64 4.52 95.12C4.52 94.8 4.04 95.36 3.08 96.8C2.76 97.28 2.6 98 2.6 98.96C2.6 100.72 3.72 102.72 5.96 104.96C5.48 104.48 4.84 104 4.04 103.52C3.88 105.44 3.8 106.32 3.8 106.16C3.16 106.16 2.36 105.84 1.4 105.2C1.4 103.6 1.32 101.04 1.16 97.52C1 94 0.92 92.08 0.92 91.76C0.92 87.76 1.8 81.84 3.56 74C4.04 71.6 4.28 70.48 4.28 70.64C4.44 70.64 4.6 70.48 4.76 70.16C5.24 67.76 5.48 66.56 5.48 66.56C5.48 66.4 6.04 64.72 7.16 61.52C7.96 59.76 9 57.12 10.28 53.6C10.76 52.16 11.56 50 12.68 47.12C13.32 46.64 14.04 45.84 14.84 44.72C14.84 43.6 15.08 42 15.56 39.92C15.72 39.92 15.96 40.08 16.28 40.4C17.08 39.76 17.56 39.12 17.72 38.48C17.4 38.16 16.92 38.32 16.28 38.96C17.4 35.28 18.52 32.72 19.64 31.28C24.76 24.08 27.64 20.48 28.28 20.48C28.76 20.48 29.08 20.64 29.24 20.96C29.4 21.28 29.48 21.44 29.48 21.44C29.64 21.28 29.96 20.48 30.44 19.04C31.24 18.4 32.12 17.76 33.08 17.12C34.2 16.32 34.68 15.36 34.52 14.24C36.28 14.4 37.4 14.16 37.88 13.52C37.72 14.96 37.64 15.76 37.64 15.92C38.92 15.12 40.36 13.92 41.96 12.32C41.96 12.32 42.12 12.32 42.44 12.32C42.76 12.48 43.08 12.56 43.4 12.56C43.4 12.56 46.84 9.99999 53.72 4.87999C52.92 7.11999 51.24 9.43999 48.68 11.84C49 11.52 49.16 11.92 49.16 13.04H47.96C47.48 13.52 47.24 13.84 47.24 14C48.04 13.84 49.4 13.84 51.32 14C50.52 17.2 50.12 19.12 50.12 19.76C50.12 20.56 50.2 21.04 50.36 21.2C50.84 20.56 51.48 19.52 52.28 18.08C52.76 17.76 53.4 17.2 54.2 16.4C54.36 15.76 55 14.8 56.12 13.52C55.32 16.08 54.28 19.76 53 24.56C53.16 25.52 53.24 26.88 53.24 28.64C52.28 31.36 51.8 32.32 51.8 31.52C51.8 32 51.96 32.48 52.28 32.96C52.44 32.8 52.68 32.72 53 32.72C53.48 32.56 53.72 32.4 53.72 32.24C53.88 31.44 53.48 31.04 52.52 31.04C53.32 29.28 54.28 27.12 55.4 24.56C55.4 24.88 55.56 25.68 55.88 26.96C56.36 28.24 56.6 29.12 56.6 29.6C56.6 29.92 56.28 30.72 55.64 32C55.16 33.12 54.84 33.92 54.68 34.4C54.2 36.96 52.52 40.32 49.64 44.48C46.12 49.92 44.12 53.2 43.64 54.32C42.68 56.24 41.88 58.16 41.24 60.08C41.56 60.88 41.72 61.28 41.72 61.28C41.08 61.28 40.6 61.2 40.28 61.04C39.64 62.16 39.56 63.2 40.04 64.16C39.72 64.32 39.4 64.24 39.08 63.92C36.84 66.96 35.16 70.08 34.04 73.28C33.24 78.24 31.64 85.44 29.24 94.88C28.28 97.92 27.8 99.12 27.8 98.48C27.8 99.92 28.36 100.72 29.48 100.88C30.6 101.04 31.64 101.2 32.6 101.36C31.8 101.04 30.76 101.36 29.48 102.32C29.48 102.64 29.56 102.96 29.72 103.28C30.04 103.28 30.6 103.2 31.4 103.04C32.36 102.88 33.08 102.8 33.56 102.8C33.56 102.96 33.24 103.28 32.6 103.76C33.4 104.56 33.96 104.96 34.28 104.96C35.4 104.96 37.32 104.32 40.04 103.04C42.76 101.76 44.44 100.96 45.08 100.64C47.32 99.36 48.92 97.92 49.88 96.32C51 96.32 51.88 96.64 52.52 97.28C52.04 98.24 51.32 99.04 50.36 99.68C50.36 99.68 49.64 100.56 48.2 102.32V102.8C48.84 102.48 49.96 102 51.56 101.36C51.72 100.88 52.2 100.16 53 99.2C54.76 98.24 56.12 97.28 57.08 96.32C56.44 93.12 56.12 91.6 56.12 91.76C57.24 87.12 58.92 79.84 61.16 69.92C61.32 69.76 61.24 69.52 60.92 69.2C60.6 69.52 60.36 69.68 60.2 69.68V67.76C60.84 68.24 61.24 68.48 61.4 68.48C61.88 66.88 61.72 65.68 60.92 64.88C62.84 64.88 64.12 65.36 64.76 66.32C65.24 66.32 65.48 65.92 65.48 65.12C67.72 64.96 69.16 64.56 69.8 63.92C70.12 63.92 70.2 64 70.04 64.16C70.04 64.48 70.04 64.64 70.04 64.64C70.04 63.68 70.2 62.24 70.52 60.32C71.16 59.36 72.44 57.92 74.36 56C75.96 56.8 76.76 57.2 76.76 57.2C76.6 57.2 77.24 56.72 78.68 55.76C79.32 55.76 80.2 55.6 81.32 55.28C81.96 55.92 82.28 56.64 82.28 57.44C82.28 58.4 81.72 59.12 80.6 59.6C79.48 60.08 78.44 60.48 77.48 60.8C77.8 61.28 78.28 61.52 78.92 61.52C79.08 61.52 79.4 61.44 79.88 61.28C80.36 61.12 80.76 61.04 81.08 61.04C81.72 61.04 83.64 61.84 86.84 63.44C87.32 63.44 87.56 63.2 87.56 62.72C88.68 63.84 89.8 64.56 90.92 64.88C91.24 65.04 91.16 65.2 90.68 65.36C91 65.84 91.64 66.08 92.6 66.08C92.6 67.04 92.36 67.76 91.88 68.24C92.68 68.56 93.32 68.64 93.8 68.48C93.48 68.8 92.84 69.2 91.88 69.68C91.88 70.48 92.12 70.88 92.6 70.88C92.92 70.88 93.16 70.88 93.32 70.88C93.64 70.72 93.8 70.64 93.8 70.64C93.8 71.6 93.48 72.08 92.84 72.08C92.52 72.08 92.36 72 92.36 71.84C92.36 71.52 92.28 71.36 92.12 71.36C91.96 71.52 91.88 71.84 91.88 72.32C91.88 73.76 93.08 75.68 95.48 78.08C95.96 78.08 96.44 77.84 96.92 77.36C97.4 76.88 97.32 76.64 96.68 76.64C96.2 76.64 95.88 76.72 95.72 76.88C95.72 77.04 95.72 77.12 95.72 77.12C96.52 76 97.24 74.4 97.88 72.32C97.72 71.52 97.56 70.08 97.4 68H98.84C99.8 70.4 100.52 72.72 101 74.96ZM8.84 80.96L8.36 81.44L7.4 80.48L7.88 80L8.84 80.96ZM76.76 152H76.04V148.88H76.76V152ZM8.12 83.36H7.4V81.68H8.12V83.36ZM7.64 86.72V85.28C7 85.28 6.6 85.44 6.44 85.76C6.76 85.28 6.92 84.88 6.92 84.56C7.72 85.04 7.96 85.76 7.64 86.72ZM49.88 129.92L48.68 131.12L48.44 130.64L49.4 129.68L49.88 129.92ZM6.68 90.32H5.96V89.12H6.68V90.32ZM9.08 95.84C8.44 96 8.12 96.16 8.12 96.32V95.12C8.12 95.6 8.44 95.84 9.08 95.84ZM68.84 157.76L68.36 160.16H67.64L68.12 157.76H68.84ZM47.24 139.04H46.52V138.08H47.24V139.04ZM68.6 160.88C68.28 161.2 68.12 161.76 68.12 162.56C68.12 162.4 68.04 162.08 67.88 161.6C67.72 161.12 67.64 160.72 67.64 160.4C68.12 160.72 68.44 160.88 68.6 160.88ZM69.56 169.28H68.84V167.84H69.56V169.28ZM65.96 173.36H65.24V171.92H65.96V173.36ZM59.96 168.32C59.8 168.48 59.56 168.72 59.24 169.04C59.08 169.36 59 169.6 59 169.76C59 168.48 58.84 167.52 58.52 166.88C58.2 167.2 58.04 167.52 58.04 167.84C58.04 166.88 57.96 165.2 57.8 162.8C58.12 164.08 58.84 165.92 59.96 168.32ZM44.84 154.4H44.12V153.44H44.84V154.4ZM53.48 161.6L52.52 163.76L52.04 163.28L53 161.6H53.48ZM58.52 171.44H57.8V170.24H58.52V171.44ZM44.36 159.68C44.04 160.32 43.64 161.04 43.16 161.84V160.64C43.16 160 43.56 159.68 44.36 159.68ZM53.24 171.92H52.52V170.72H53.24V171.92ZM59.24 177.44L58.76 178.64L58.28 178.4L58.76 177.2L59.24 177.44ZM43.64 162.56C43.64 162.88 43.4 163.36 42.92 164C42.44 163.52 42.2 163.12 42.2 162.8C43.16 162.8 43.64 162.72 43.64 162.56ZM45.56 180.56C45.08 181.04 44.84 181.52 44.84 182C44.84 181.52 44.6 181.28 44.12 181.28C44.12 181.6 44.12 182.96 44.12 185.36C44.12 184.88 43.96 184.56 43.64 184.4L43.16 184.88C43.48 185.84 43.96 187.36 44.6 189.44V190.16C44.12 188.56 43.48 186.96 42.68 185.36V180.08C43.96 180.72 44.92 180.88 45.56 180.56ZM74.12 64.88L73.88 64.16L72.44 64.64V65.36L74.12 64.88ZM16.76 63.44V62H16.04V63.44H16.76ZM55.4 100.88C54.6 100.88 54.12 100.96 53.96 101.12C53.16 100.32 52.84 99.92 53 99.92C53 100.24 53.16 100.56 53.48 100.88C53.16 101.04 52.36 102.24 51.08 104.48C51.56 104 51.96 104 52.28 104.48C52.92 103.68 53.96 102.48 55.4 100.88ZM27.08 75.2L26.36 74.96L25.64 76.4L26.36 76.88L27.08 75.2ZM20.12 71.36V70.16H19.4V71.36H20.12ZM15.8 68V65.12H15.08V68H15.8ZM26.84 78.56C26.84 78.56 26.76 78.56 26.6 78.56C26.44 78.72 26.12 78.8 25.64 78.8C25.32 78.8 25.16 78.56 25.16 78.08C25.16 77.6 25.08 77.28 24.92 77.12C24.28 78.4 24.04 79.2 24.2 79.52H25.88L26.84 78.56ZM15.56 69.68V68.48H14.84V69.68H15.56ZM50.84 102.8C50.04 103.12 49.4 104.08 48.92 105.68C49.24 105.36 49.72 105.2 50.36 105.2C50.36 103.92 50.52 103.12 50.84 102.8ZM24.68 83.6V80.96H23.96V83.6H24.68ZM14.84 71.84C14.52 72.48 13.96 73.92 13.16 76.16C14.12 76.96 14.6 76.8 14.6 75.68C14.6 75.2 14.52 74.64 14.36 74C14.68 72.4 14.84 71.68 14.84 71.84ZM23.96 88.4C23.96 88.24 23.88 87.92 23.72 87.44C23.56 86.96 23.48 86.64 23.48 86.48C23.48 88.56 23.48 89.6 23.48 89.6C23.48 88.96 23.64 88.56 23.96 88.4ZM50.6 117.92L50.12 117.68L49.64 118.64L50.12 118.88L50.6 117.92ZM46.52 113.84L46.04 113.36L44.12 114.8L44.6 115.28L46.52 113.84ZM26.36 90.08C26.2 90.08 25.96 90 25.64 89.84C26.12 89.36 26.36 88.72 26.36 87.92C25.72 88.56 24.76 89.52 23.48 90.8C23.16 90.48 22.84 90.32 22.52 90.32C22.84 93.52 23 96.72 23 99.92C23.16 99.76 23.64 98.88 24.44 97.28C24.92 97.28 25.16 97.6 25.16 98.24C25.16 97.92 24.76 97.04 23.96 95.6C24.6 95.6 24.92 95.92 24.92 96.56C25.88 91.92 26.36 89.76 26.36 90.08ZM21.56 72.32C20.92 72.8 19.96 73.52 18.68 74.48C18.84 75.44 18.76 76.8 18.44 78.56C17.32 80.96 16.84 82.64 17 83.6C16.2 84.72 15.8 86.08 15.8 87.68C15.8 88 16.68 90.48 18.44 95.12C18.28 95.44 18.12 95.92 17.96 96.56C17.8 97.04 17.72 97.36 17.72 97.52C17.72 98.8 17.96 100.24 18.44 101.84C18.76 102.8 19.48 104.08 20.6 105.68C19.64 101.52 19.16 99.76 19.16 100.4C19.16 100.72 19.56 100.08 20.36 98.48C19.24 96.72 18.68 95.92 18.68 96.08C18.84 96.08 19.24 96.4 19.88 97.04C19.88 96.72 20.12 96.24 20.6 95.6C19.64 94.96 19.32 94.16 19.64 93.2C19.96 91.76 20.12 91.2 20.12 91.52C19.64 91.2 19.4 90.88 19.4 90.56C19.4 84.32 19.56 79.92 19.88 77.36C20.36 76.24 20.92 74.56 21.56 72.32ZM27.32 98.24V96.56C26.2 96.56 25.64 97.12 25.64 98.24H27.32ZM14.6 77.36C14.28 77.36 13.88 77.2 13.4 76.88C13.4 77.04 13.16 77.44 12.68 78.08C12.36 78.56 12.2 78.88 12.2 79.04C11.88 81.92 11.72 85.04 11.72 88.4C11.72 88.56 11.8 89.68 11.96 91.76C12.12 93.84 12.2 95.28 12.2 96.08C12.36 92.24 12.76 86.48 13.4 78.8C13.72 78.48 14.12 78 14.6 77.36ZM49.88 121.04C49.4 121.2 48.84 121.52 48.2 122V124.16C48.2 124 48.68 123.92 49.64 123.92C49.64 123.6 49.72 123.12 49.88 122.48C49.88 121.84 49.88 121.36 49.88 121.04ZM22.52 98.48L22.04 95.84H21.32L21.8 98.48H22.52ZM76.28 154.64H75.56L75.08 156.8H75.8L76.28 154.64ZM45.56 120.32H41.96C41.16 120.96 40.04 121.68 38.6 122.48C41.16 124.24 42.44 125.12 42.44 125.12H44.6C44.76 123.84 45.08 122.24 45.56 120.32ZM47.72 157.52L47 156.8L46.76 157.28L47.24 158L47.72 157.52ZM47 159.92H46.28L45.8 161.36L46.28 161.6L47 159.92ZM53.24 169.76V167.84H52.52V169.76H53.24ZM49.16 172.64C48.84 171.84 48.52 171.2 48.2 170.72C47.88 170.24 47.72 169.36 47.72 168.08C47.72 167.44 47.88 167.12 48.2 167.12C47.72 166.96 47.56 166.72 47.72 166.4C47.88 165.6 48.2 164.4 48.68 162.8L47.48 163.52C46.68 163.04 46.36 162.8 46.52 162.8C46.52 163.12 46.44 163.6 46.28 164.24C46.12 164.88 46.04 165.36 46.04 165.68C46.04 167.28 46.44 171.6 47.24 178.64C48.36 179.44 48.92 179.76 48.92 179.6L49.16 178.16C48.36 178.16 47.96 177.92 47.96 177.44C48.44 176.96 48.68 176.64 48.68 176.48C48.36 176.48 47.88 176.08 47.24 175.28C47.4 174.8 47.72 174.08 48.2 173.12C48.52 173.12 48.84 172.96 49.16 172.64ZM45.08 179.6C43.96 177.52 43.4 175.2 43.4 172.64C43.4 170.08 43.32 168.56 43.16 168.08C43.16 170.32 43.08 171.6 42.92 171.92C42.12 173.52 41.72 174.16 41.72 173.84C41.72 174.16 41.8 174.96 41.96 176.24C42.28 177.68 42.44 178.72 42.44 179.36C42.44 178.72 42.6 178 42.92 177.2C43.08 177.2 43.4 177.44 43.88 177.92C43.88 178.72 44.28 179.28 45.08 179.6ZM24.68 94.88H23.96V91.76H24.68V94.88ZM250.741 69.92H249.781V68H250.741V69.92ZM177.301 3.92L176.101 4.39999V3.92L177.061 3.19999L177.301 3.92ZM250.261 78.8H249.301V77.6H250.261V78.8ZM140.341 30.32L139.861 31.52L139.141 31.28L139.861 30.08L140.341 30.32ZM138.661 36.32L137.941 37.76L137.221 37.28L137.941 36.08L138.661 36.32ZM136.501 39.2H135.061V38.48H136.501V39.2ZM251.461 56.48C251.461 55.84 251.221 56.16 250.741 57.44C250.901 57.76 250.741 59.2 250.261 61.76C249.941 62.24 249.781 62.72 249.781 63.2C249.781 61.12 249.461 58.24 248.821 54.56C248.661 54.08 248.421 53.6 248.101 53.12C246.821 42.88 242.661 33.6 235.621 25.28L234.421 26.48C234.741 26.64 235.141 26.88 235.621 27.2C237.541 30.72 239.541 34.24 241.621 37.76C243.701 41.28 244.981 44.48 245.461 47.36C245.941 49.28 246.661 55.84 247.621 67.04C248.901 67.84 249.541 68.72 249.541 69.68C249.541 69.84 249.301 71.12 248.821 73.52C248.341 75.92 248.021 77.76 247.861 79.04C248.021 79.2 248.181 79.52 248.341 80C248.021 84.16 247.221 90.72 245.941 99.68C244.661 107.68 243.061 114 241.141 118.64C240.821 119.44 240.981 120.4 241.621 121.52C239.221 128.72 234.341 136.8 226.981 145.76C224.101 149.44 221.861 152.64 220.261 155.36C218.501 156.96 215.861 159.36 212.341 162.56C215.861 156.96 219.861 150.88 224.341 144.32L223.621 143.6C223.461 143.76 223.381 144.24 223.381 145.04C222.901 144.56 222.501 144.32 222.181 144.32C222.341 144.32 222.581 144.08 222.901 143.6C223.221 143.12 223.541 142.8 223.861 142.64L223.621 139.76C223.461 139.76 222.261 140.48 220.021 141.92C220.501 142.24 221.301 142.72 222.421 143.36C221.301 143.68 219.701 144.4 217.621 145.52C212.821 150.8 208.421 155.12 204.421 158.48C203.781 158.96 202.341 159.76 200.101 160.88C198.821 161.52 197.701 162.88 196.741 164.96C196.901 164.48 197.221 163.6 197.701 162.32C197.381 162.16 196.421 162.08 194.821 162.08C194.341 162.08 193.621 162.56 192.661 163.52C192.981 163.2 193.381 162.8 193.861 162.32C194.341 161.84 194.421 161.12 194.101 160.16C193.781 160.32 193.221 160.56 192.421 160.88C191.461 162.16 187.781 166.64 181.381 174.32C181.541 174.32 181.621 174.48 181.621 174.8C181.301 175.76 179.701 177.2 176.821 179.12C177.621 178.16 178.901 176.96 180.661 175.52C180.821 175.36 180.741 175.12 180.421 174.8C178.661 175.6 177.301 176.32 176.341 176.96C171.061 180 166.581 182.72 162.901 185.12C163.061 185.44 163.141 186 163.141 186.8C162.661 186.8 161.541 187.2 159.781 188C158.021 188.8 156.901 189.2 156.421 189.2C156.101 189.2 155.861 189.04 155.701 188.72C155.541 188.4 155.221 188.24 154.741 188.24C152.821 188.24 151.301 188.8 150.181 189.92C150.981 190.24 151.781 190.4 152.581 190.4C152.101 190.4 151.141 190.56 149.701 190.88C150.501 191.68 150.901 192.08 150.901 192.08C152.181 192.08 153.541 192.32 154.981 192.8H148.981C148.821 191.68 148.341 190.8 147.541 190.16C146.261 190.64 144.661 190.64 142.741 190.16C142.581 190.16 142.101 190.32 141.301 190.64C140.661 190.96 140.181 191.12 139.861 191.12C139.541 191.12 138.741 190.56 137.461 189.44C136.181 188.48 135.141 187.84 134.341 187.52C130.981 186.72 129.461 186.32 129.781 186.32C129.461 186.32 128.901 186.56 128.101 187.04C127.301 187.52 126.661 187.76 126.181 187.76C125.701 187.76 125.061 187.2 124.261 186.08C123.621 184.96 122.901 184.16 122.101 183.68C121.301 183.36 120.101 182.72 118.501 181.76C117.221 180.16 116.181 175.6 115.381 168.08C115.381 167.28 114.341 164.4 112.261 159.44C112.261 158.8 112.181 157.92 112.021 156.8C111.061 155.2 110.021 152.88 108.901 149.84C107.941 146.64 107.381 144.16 107.221 142.4C106.741 136.96 106.501 133.36 106.501 131.6C106.501 130.48 107.221 123.12 108.661 109.52C108.821 109.04 108.741 108.8 108.421 108.8C108.901 108 109.301 107.04 109.621 105.92C109.941 104.48 109.541 103.68 108.421 103.52C110.021 102.56 111.061 99.36 111.541 93.92C111.541 93.44 111.701 92.48 112.021 91.04C112.341 89.6 112.501 88.56 112.501 87.92C112.501 88.08 112.661 88.4 112.981 88.88L114.181 87.68C112.901 86.88 111.781 86.48 110.821 86.48C114.021 78.64 118.181 70.32 123.301 61.52C124.741 58.96 127.141 55.12 130.501 50C131.621 48.72 133.701 45.92 136.741 41.6C137.221 41.44 137.861 40.88 138.661 39.92C139.461 38.96 141.141 37.28 143.701 34.88C144.181 34.72 144.821 34.48 145.621 34.16C149.941 30.64 156.581 25.12 165.541 17.6C165.701 17.44 165.941 16.96 166.261 16.16C166.741 15.2 167.221 14.72 167.701 14.72C168.021 14.72 168.101 14.8 167.941 14.96C167.941 15.12 168.181 15.2 168.661 15.2C169.781 15.2 170.501 13.84 170.821 11.12C171.141 8.23999 172.101 6.79999 173.701 6.79999C174.021 6.79999 174.421 6.87999 174.901 7.03999C175.381 7.19999 175.861 7.28 176.341 7.28C176.821 7.28 176.981 7.36 176.821 7.51999C176.501 7.83999 176.421 8.07999 176.581 8.23999C177.221 7.43999 178.181 6.23999 179.461 4.63999C179.941 4.47999 180.501 4.31999 181.141 4.16C183.541 1.43999 186.261 0.0799904 189.301 0.0799904C189.621 0.0799904 190.181 0.239993 190.981 0.559999C191.781 0.879994 192.421 1.03999 192.901 1.03999C193.221 1.03999 194.021 0.959993 195.301 0.799995C196.581 0.639997 197.381 0.559999 197.701 0.559999C206.981 0.559999 216.261 5.52 225.541 15.44C225.221 15.92 225.221 16.88 225.541 18.32C227.461 19.92 230.181 22.4 233.701 25.76C233.701 25.28 233.941 24.64 234.421 23.84C233.941 23.2 232.981 22.48 231.541 21.68C230.261 20.72 229.621 19.92 229.621 19.28C229.621 18.96 229.781 18.56 230.101 18.08C230.741 18.24 231.621 18.48 232.741 18.8C243.301 29.84 249.141 41.12 250.261 52.64C250.261 52.8 250.421 53.36 250.741 54.32C251.221 55.28 251.461 56 251.461 56.48ZM220.741 146.72L219.541 147.92L219.061 147.44L220.261 146.24L220.741 146.72ZM238.021 168.56C238.181 170.64 237.301 171.68 235.381 171.68H233.221C231.461 171.68 230.581 170.8 230.581 169.04C230.581 169.2 230.821 168.88 231.301 168.08C231.141 167.44 231.061 165.92 231.061 163.52H232.741C234.661 165.44 235.941 166.4 236.581 166.4C236.901 166.4 237.221 166.24 237.541 165.92C237.861 165.6 238.021 165.44 238.021 165.44V168.56ZM227.221 168.8C227.221 168.64 226.581 169.68 225.301 171.92C225.301 172.56 225.061 173.52 224.581 174.8C222.181 177.68 219.861 179.12 217.621 179.12C217.461 179.12 216.821 178.96 215.701 178.64C214.741 178.48 214.021 178.48 213.541 178.64C213.701 178 213.461 177.04 212.821 175.76C212.341 174.32 212.101 173.36 212.101 172.88C212.101 173.52 212.901 171.6 214.501 167.12C215.301 166.64 215.941 166 216.421 165.2C215.781 164.72 215.221 164.64 214.741 164.96C218.101 163.36 219.861 162.56 220.021 162.56C220.501 162.56 221.301 162.72 222.421 163.04C223.541 163.36 224.341 163.52 224.821 163.52V164.48C224.981 165.28 224.981 165.68 224.821 165.68C226.421 167.28 227.221 168.32 227.221 168.8ZM126.901 48.56C127.061 49.84 125.941 52.24 123.541 55.76C122.101 57.84 120.581 60 118.981 62.24C118.181 63.52 116.821 66.16 114.901 70.16C113.941 72.72 112.341 76.32 110.101 80.96C109.781 81.44 109.301 82.24 108.661 83.36C108.181 84.48 107.541 86.48 106.741 89.36C105.941 92.08 105.461 93.84 105.301 94.64C105.141 95.28 104.661 95.6 103.861 95.6V93.92C103.861 94.24 105.461 89.92 108.661 80.96C112.981 69.6 119.061 58.8 126.901 48.56ZM210.181 173.84H209.701L208.981 172.64L209.701 172.4L210.181 173.84ZM137.941 31.28C137.461 32.24 136.581 33.68 135.301 35.6C132.101 38.96 127.861 44.16 122.581 51.2C121.781 52.48 120.821 53.76 119.701 55.04C117.461 57.44 115.461 60.4 113.701 63.92C112.421 66.8 111.061 69.68 109.621 72.56C104.341 82.48 101.381 92.32 100.741 102.08C100.581 104.32 100.181 108 99.5413 113.12C98.9013 118.08 98.5813 120.72 98.5813 121.04C98.5813 121.36 98.9013 122.8 99.5413 125.36C100.181 127.92 100.501 129.44 100.501 129.92C100.501 131.04 100.341 131.84 100.021 132.32C99.8613 132.64 99.5413 133.04 99.0613 133.52C98.9013 134.96 98.9813 136.32 99.3013 137.6C98.9813 137.12 98.6613 136 98.3413 134.24C98.3413 134.08 97.6213 133.68 96.1813 133.04C95.2213 129.68 94.7413 127.36 94.7413 126.08C94.7413 127.52 95.3013 122.48 96.4213 110.96C96.5813 108.88 97.2213 105.04 98.3413 99.44C98.1813 98.64 98.1013 97.6 98.1013 96.32C100.661 84.64 106.661 70.8 116.101 54.8C117.221 53.2 118.981 51.04 121.381 48.32C125.061 44.64 130.581 38.96 137.941 31.28ZM175.141 180.08L173.701 181.28L173.221 180.56L174.661 179.36L175.141 180.08ZM106.021 155.84C105.701 155.52 105.221 155.6 104.581 156.08C105.221 157.2 105.541 158.24 105.541 159.2C104.901 158.72 104.021 155.68 102.901 150.08C102.421 150.72 101.621 150.72 100.501 150.08C100.501 147.84 100.181 144.56 99.5413 140.24C100.341 140.24 100.901 140.4 101.221 140.72C101.541 140.72 101.861 140.48 102.181 140C102.181 139.52 102.101 138.72 101.941 137.6C101.781 136.32 101.701 135.36 101.701 134.72C101.701 122.56 102.181 115.68 103.141 114.08C103.141 133.76 103.701 147.28 104.821 154.64C105.621 155.6 106.021 156 106.021 155.84ZM195.781 35.12C194.021 33.36 192.981 32.48 192.661 32.48H190.261C191.381 32.96 193.221 33.84 195.781 35.12ZM169.141 36.56C167.381 37.84 164.981 39.68 161.941 42.08C161.781 42.24 161.621 42.64 161.461 43.28C161.301 43.92 160.981 44.24 160.501 44.24L161.941 44.72C162.901 42.64 164.341 41.2 166.261 40.4C168.181 39.6 169.141 38.32 169.141 36.56ZM159.781 46.88L158.821 46.64C157.861 47.76 156.501 49.44 154.741 51.68C155.381 51.04 156.261 50.16 157.381 49.04C158.501 47.92 159.301 47.2 159.781 46.88ZM229.621 132.32C229.301 132.16 228.901 132.08 228.421 132.08C227.941 132.08 227.541 132.16 227.221 132.32C227.541 132.64 227.781 133.04 227.941 133.52C228.101 133.36 228.341 133.2 228.661 133.04C229.141 132.72 229.461 132.48 229.621 132.32ZM149.941 56.96L149.221 56.48L148.261 58.16L148.741 58.64L149.941 56.96ZM148.021 58.64H147.301L146.821 60.08L147.541 60.56L148.021 58.64ZM143.461 63.2C142.821 63.68 142.101 64.16 141.301 64.64V67.04C142.741 65.6 143.461 64.32 143.461 63.2ZM141.301 67.04C139.381 68.32 138.261 69.36 137.941 70.16C138.261 70.48 138.661 70.72 139.141 70.88C139.781 69.12 140.501 67.84 141.301 67.04ZM208.261 66.08C208.261 60.48 206.821 54.24 203.941 47.36C203.301 45.6 202.341 43.52 201.061 41.12C199.461 40.64 197.381 39.92 194.821 38.96C194.181 38.64 192.821 37.76 190.741 36.32C188.821 34.88 187.701 34.16 187.381 34.16C186.581 34.16 185.061 35.28 182.821 37.52C182.661 36.88 182.341 36.08 181.861 35.12C180.261 37.36 179.461 38.96 179.461 39.92C179.141 39.6 178.821 39.44 178.501 39.44C176.421 39.44 170.421 44.4 160.501 54.32C159.061 55.76 156.501 58.64 152.821 62.96C147.061 70 142.661 77.76 139.621 86.24C138.981 88.64 138.021 91.76 136.741 95.6C136.741 96.08 136.741 96.72 136.741 97.52C136.101 98.48 135.461 99.76 134.821 101.36C133.701 105.52 133.141 108.48 133.141 110.24C132.981 110.72 132.581 111.52 131.941 112.64C131.621 112.32 131.461 111.84 131.461 111.2L130.741 116.48C130.901 116.48 131.141 116.4 131.461 116.24C131.781 116.08 132.181 116 132.661 116C132.821 116 133.141 116.24 133.621 116.72V130.4C133.461 131.36 132.261 132.88 130.021 134.96C129.061 133.52 128.741 131.28 129.061 128.24C129.541 125.2 129.461 123.36 128.821 122.72C127.221 129.76 126.421 133.12 126.421 132.8C126.421 133.6 126.821 134.72 127.621 136.16C128.101 137.12 128.021 138.08 127.381 139.04C127.541 139.2 128.501 140.16 130.261 141.92L129.781 142.16C130.261 142.64 130.821 143.2 131.461 143.84C132.901 147.2 134.581 152.24 136.501 158.96C137.141 163.28 138.821 165.44 141.541 165.44C141.861 165.44 143.781 165.12 147.301 164.48C150.821 163.84 152.741 163.52 153.061 163.52C153.541 163.52 154.021 163.68 154.501 164C155.141 164.16 155.461 164.24 155.461 164.24C154.981 163.6 154.741 162.88 154.741 162.08C154.741 158.88 156.661 157.28 160.501 157.28C160.821 157.28 161.221 157.36 161.701 157.52C162.341 157.68 162.821 157.76 163.141 157.76C163.301 157.76 167.221 155.84 174.901 152V150.32C174.581 150.32 173.301 151.04 171.061 152.48L169.861 151.28C171.301 150.16 174.981 147.52 180.901 143.36C181.381 141.44 181.621 140.56 181.621 140.72C180.821 140.72 180.341 140.64 180.181 140.48C180.341 140.32 180.981 140.24 182.101 140.24C182.101 138.96 182.421 137.2 183.061 134.96C184.661 132.4 186.901 129.76 189.781 127.04C188.981 127.04 188.501 126.96 188.341 126.8C188.981 126.48 189.861 126 190.981 125.36C198.341 113.04 202.421 103.04 203.221 95.36C203.221 95.2 203.941 91.44 205.381 84.08C206.661 77.2 207.301 73.2 207.301 72.08C207.301 71.76 206.981 71.28 206.341 70.64C205.701 70 205.381 69.52 205.381 69.2C205.381 67.76 206.341 66.72 208.261 66.08ZM178.741 160.64L178.501 159.92L177.541 160.64V161.36L178.741 160.64ZM130.021 118.64V116.96H129.061V118.64H130.021ZM177.301 161.12H175.621C169.221 164.64 164.741 166.4 162.181 166.4C161.701 166.4 161.461 166.24 161.461 165.92C161.621 165.6 161.541 165.44 161.221 165.44C160.901 165.44 159.301 166.16 156.421 167.6C153.701 169.04 152.181 169.76 151.861 169.76C151.541 169.76 150.661 169.76 149.221 169.76C147.941 169.76 146.901 169.76 146.101 169.76V172.4C147.061 173.36 147.541 173.84 147.541 173.84C148.021 173.84 148.661 173.76 149.461 173.6C150.261 173.44 150.821 173.36 151.141 173.36C153.381 173.36 155.781 172.4 158.341 170.48C157.381 172.4 156.901 173.36 156.901 173.36C157.061 173.36 157.621 173.84 158.581 174.8C160.341 174.48 162.741 173.36 165.781 171.44C168.181 169.84 170.501 168.24 172.741 166.64C172.901 166.16 173.141 165.6 173.461 164.96C174.581 164.32 175.861 163.04 177.301 161.12ZM130.261 144.56V143.84H129.061V144.56H130.261ZM130.981 161.12L130.501 158.72H129.541L130.261 161.12H130.981ZM102.421 143.84V140.72H101.701V143.84H102.421ZM166.021 57.44L163.861 59.6L163.381 59.12L165.541 56.96L166.021 57.44ZM163.141 59.84L160.981 62L160.501 61.52L162.661 59.36L163.141 59.84ZM198.421 99.92L197.221 102.32L196.741 102.08L197.701 99.92H198.421ZM157.861 64.4C157.381 64.88 156.501 65.84 155.221 67.28C154.101 68.72 153.301 69.76 152.821 70.4C152.661 68.48 152.981 67.52 153.781 67.52C154.261 67.52 154.501 67.6 154.501 67.76C154.501 67.92 154.661 68 154.981 68C154.981 68 154.821 67.76 154.501 67.28C154.981 66.16 156.101 65.2 157.861 64.4ZM152.341 71.12L151.621 72.32L151.141 72.08L151.621 70.88L152.341 71.12ZM145.861 78.8C145.541 78.96 145.381 79.44 145.381 80.24L143.701 79.52C144.501 79.52 145.221 79.28 145.861 78.8ZM142.261 86.96H141.541V85.76H142.261V86.96ZM176.821 141.2C173.621 144.4 171.781 146 171.301 146C170.981 146 170.821 145.92 170.821 145.76C170.981 145.6 170.821 145.52 170.341 145.52C170.021 145.52 169.461 145.84 168.661 146.48C170.581 145.52 173.301 143.76 176.821 141.2ZM164.821 151.76C164.821 153.2 164.501 154.08 163.861 154.4H161.221C161.541 153.92 162.741 153.04 164.821 151.76ZM129.541 136.88H128.821L128.341 135.68L128.821 135.44L129.541 136.88ZM139.861 140.96C139.861 142.4 139.301 143.12 138.181 143.12C137.861 143.12 137.381 142.8 136.741 142.16C136.261 142.64 136.021 143.12 136.021 143.6C136.021 145.68 136.661 149.44 137.941 154.88C136.501 154.4 135.621 153.6 135.301 152.48C134.181 148.96 133.621 144.88 133.621 140.24C133.621 139.92 133.701 139.28 133.861 138.32C134.021 137.36 134.101 136.56 134.101 135.92C135.221 135.92 135.781 135.76 135.781 135.44C138.501 138.16 139.861 140 139.861 140.96ZM305.248 192.08H304.768L304.288 191.12L304.768 190.88L305.248 192.08ZM320.608 8.71999C320.288 9.03999 320.128 9.35999 320.128 9.68L317.728 9.19999C318.528 8.23999 318.928 7.75999 318.928 7.75999C319.088 7.75999 319.328 7.91999 319.648 8.23999C320.128 8.39999 320.448 8.56 320.608 8.71999ZM368.128 43.28C367.808 45.52 367.328 48.64 366.688 52.64C366.688 52.8 366.368 53.68 365.728 55.28C365.248 56.4 365.248 57.12 365.728 57.44C365.088 57.6 363.968 58.08 362.368 58.88C360.928 59.52 360.048 59.84 359.728 59.84C357.968 59.84 356.528 59.28 355.408 58.16C354.928 57.52 354.608 56.4 354.448 54.8C354.288 53.2 354.048 52.16 353.728 51.68C353.568 51.04 353.008 50.48 352.048 50C351.248 49.52 350.848 48.88 350.848 48.08C350.848 45.68 351.968 44.48 354.208 44.48C354.848 44.48 355.568 44.88 356.368 45.68C360.048 43.44 362.688 42.32 364.288 42.32C364.928 42.32 366.208 42.64 368.128 43.28ZM317.968 12.08H316.528L317.008 10.64C317.648 11.28 317.968 11.76 317.968 12.08ZM336.208 38.24C335.728 38.08 335.088 38 334.288 38C334.288 37.68 334.448 37.2 334.768 36.56C334.768 36.4 335.248 36.96 336.208 38.24ZM361.168 68.72H360.688L360.208 67.76L360.688 67.52L361.168 68.72ZM334.528 42.56H333.088V41.84H334.528V42.56ZM299.008 6.79999L297.568 7.75999L297.328 7.28L298.768 6.32L299.008 6.79999ZM332.128 41.36H330.448V40.64H332.128V41.36ZM361.168 72.56H360.448V69.44H361.168V72.56ZM331.648 43.04C331.648 43.04 331.408 43.12 330.928 43.28C330.448 43.44 330.048 43.52 329.728 43.52C328.608 43.52 328.048 42.88 328.048 41.6C328.368 42.4 329.568 42.88 331.648 43.04ZM329.248 44.96L328.048 45.44V44.72L329.008 44.24L329.248 44.96ZM325.408 40.88C324.288 41.52 323.088 41.84 321.808 41.84C321.968 41.36 322.688 40.88 323.968 40.4L325.408 40.88ZM335.728 52.4C334.608 53.04 333.088 54.56 331.168 56.96C330.208 56.32 329.168 56.32 328.048 56.96C327.408 56.16 327.088 55.2 327.088 54.08C327.088 52.32 328.368 50.56 330.928 48.8C331.408 48.8 331.968 48.88 332.608 49.04C333.088 48.56 333.728 48.32 334.528 48.32C334.208 48.64 333.568 49.12 332.608 49.76C332.608 49.92 332.768 50.24 333.088 50.72L334.288 49.52C334.608 49.52 335.088 49.76 335.728 50.24V52.4ZM321.808 51.92H321.088V50.72H321.808V51.92ZM354.928 91.52C354.288 91.84 353.888 92 353.728 92C353.728 91.84 353.808 91.52 353.968 91.04C354.128 90.56 354.208 90.24 354.208 90.08C354.208 90.24 354.288 90.48 354.448 90.8C354.768 91.12 354.928 91.36 354.928 91.52ZM324.688 61.04L323.488 61.52V61.04L324.448 60.56L324.688 61.04ZM281.728 25.04L279.328 26.48L279.088 25.76L281.488 24.56L281.728 25.04ZM360.688 74.96C360.368 74.64 360.128 74.64 359.968 74.96C359.328 77.04 358.688 79.28 358.048 81.68C357.408 83.92 356.448 85.2 355.168 85.52C353.888 87.12 352.688 89.52 351.568 92.72C350.608 95.92 350.208 98.4 350.368 100.16C349.568 100.48 349.168 101.04 349.168 101.84C349.488 102.32 349.808 102.72 350.128 103.04C350.608 104 350.288 104.48 349.168 104.48C349.008 104.48 348.768 104.32 348.448 104C347.008 106.4 346.368 108.8 346.528 111.2C344.608 115.36 341.728 124.08 337.888 137.36C337.568 138.64 337.488 140 337.648 141.44C337.488 141.6 337.168 141.92 336.688 142.4C336.848 142.4 337.008 142.48 337.168 142.64C337.488 142.8 337.728 142.96 337.888 143.12C337.568 143.6 337.248 144.48 336.928 145.76C336.608 146.88 336.288 147.76 335.968 148.4C336.288 147.12 336.208 145.04 335.728 142.16C334.768 144.88 333.328 151.12 331.408 160.88C331.408 162.48 331.328 164.72 331.168 167.6C330.848 168.08 330.528 168.88 330.208 170C330.368 168.72 330.448 170.48 330.448 175.28C330.448 176.56 330.128 179.28 329.488 183.44C329.488 181.68 329.328 177.2 329.008 170C328.688 169.68 328.368 169.2 328.048 168.56C327.888 167.44 327.888 165.76 328.048 163.52C327.728 163.52 327.488 163.68 327.328 164C327.008 165.44 326.528 167.6 325.888 170.48C325.888 170.48 325.248 170.48 323.968 170.48C323.968 170.48 323.888 170.32 323.728 170C323.568 169.52 323.488 169.2 323.488 169.04H324.688C325.008 168.88 325.168 168.56 325.168 168.08C325.168 167.92 324.928 167.2 324.448 165.92C324.128 164.64 324.048 163.68 324.208 163.04C323.888 162.72 323.568 162.24 323.247 161.6C322.768 161.6 322.448 161.68 322.288 161.84C322.288 162.32 322.608 162.88 323.247 163.52C323.247 164.32 323.408 165.52 323.728 167.12H323.247C323.088 169.36 322.768 172.32 322.288 176C322.288 176.32 321.888 173.68 321.088 168.08C320.928 168.88 320.448 170.08 319.648 171.68C319.808 171.84 320.208 171.92 320.848 171.92C320.848 171.76 320.848 174.24 320.848 179.36C320.048 178.56 319.648 177.68 319.648 176.72C318.848 175.76 318.448 175.76 318.448 176.72C318.448 176.72 318.448 176.48 318.448 176C318.608 175.68 318.368 175.52 317.728 175.52C316.768 175.52 316.288 176 316.288 176.96C316.288 177.28 316.528 179.28 317.008 182.96C317.488 186.64 317.808 189.28 317.968 190.88C317.488 191.2 317.088 191.36 316.768 191.36C315.808 184.96 314.848 176.48 313.888 165.92C314.208 165.12 314.367 163.6 314.367 161.36C314.048 161.04 313.328 160.96 312.208 161.12C312.208 158.56 312.448 154.72 312.928 149.6C312.928 149.44 313.168 148.96 313.648 148.16C314.288 147.2 314.608 146.48 314.608 146C314.448 144.56 314.927 139.6 316.047 131.12C315.888 130.96 315.648 130.88 315.328 130.88C315.008 131.2 314.848 131.76 314.848 132.56C314.848 131.44 315.088 130.16 315.568 128.72C315.408 128.56 315.248 128.4 315.088 128.24C315.088 127.92 315.008 127.68 314.848 127.52C314.688 127.68 314.368 127.92 313.888 128.24C313.568 131.44 313.728 133.2 314.367 133.52C314.367 134 314.048 134.24 313.408 134.24C313.408 134.72 313.568 135.36 313.888 136.16V137.6H312.208C312.048 137.76 311.888 139.6 311.728 143.12C311.568 143.12 311.408 143.36 311.248 143.84C311.088 144.32 310.928 145.52 310.768 147.44C310.608 149.2 310.528 150.48 310.528 151.28C310.528 151.28 310.528 151.76 310.528 152.72C310.528 152.4 310.368 152 310.048 151.52C309.568 152.48 309.168 153.44 308.848 154.4C308.848 154.4 308.688 154.16 308.368 153.68C308.048 153.84 307.728 154.48 307.408 155.6L307.888 156.08C308.368 155.6 308.688 155.36 308.848 155.36C308.528 156.16 307.968 157.36 307.168 158.96C307.008 158.96 306.768 158.8 306.448 158.48C306.128 158 305.888 157.76 305.728 157.76C306.048 156 306.208 154.4 306.208 152.96C306.688 152.96 307.488 152.64 308.608 152C308.608 151.52 308.528 151.28 308.368 151.28C308.048 151.44 307.888 151.6 307.888 151.76C307.888 151.44 307.728 151.12 307.408 150.8C306.608 151.6 306.128 152 305.968 152V148.88C306.128 149.52 306.368 149.28 306.688 148.16C306.688 146.4 307.248 144 308.368 140.96C309.008 139.2 309.328 138.08 309.328 137.6C309.328 136.64 308.768 135.84 307.648 135.2C308.128 134.88 308.528 134.32 308.848 133.52C309.008 133.36 308.928 133.2 308.608 133.04C307.808 133.04 307.408 133.36 307.408 134C307.408 133.04 307.888 132.32 308.848 131.84C308.688 131.68 308.288 131.6 307.648 131.6C308.288 129.52 308.608 127.84 308.608 126.56C308.128 126.08 307.648 125.84 307.168 125.84C307.168 125.84 307.248 126.48 307.408 127.76C307.248 128.72 306.528 130 305.248 131.6C305.248 132.08 305.488 132.64 305.968 133.28C305.648 133.76 305.008 134.56 304.048 135.68L304.768 136.16H303.568C303.568 136.32 303.568 133.68 303.568 128.24C302.928 127.92 301.728 128.08 299.968 128.72L300.688 127.76L299.968 127.28L299.728 127.52L297.808 127.04C298.608 127.04 299.168 126.88 299.488 126.56C299.008 126.4 298.288 126.08 297.328 125.6C300.048 125.6 301.408 125.6 301.408 125.6C300.608 124.96 299.568 124.64 298.288 124.64C298.288 124.64 297.808 124.88 296.848 125.36C296.208 126.48 295.168 128.16 293.728 130.4C293.728 130.72 293.648 131.2 293.488 131.84C293.488 132 293.568 132.16 293.728 132.32C294.048 132.8 293.888 133.04 293.248 133.04C293.248 133.2 293.328 133.84 293.488 134.96C293.168 134.64 292.528 134.48 291.568 134.48C291.568 134.64 291.728 134.08 292.048 132.8C292.048 132.16 292.048 131.44 292.048 130.64C292.208 130 292.528 129.04 293.008 127.76C293.488 126.48 293.728 125.68 293.728 125.36C293.728 123.6 292.768 122.72 290.848 122.72C290.368 122.72 289.808 122.96 289.168 123.44C289.008 122.48 288.208 121.92 286.768 121.76C285.488 121.6 284.208 121.44 282.928 121.28L281.968 120.32C282.608 120 283.568 119.12 284.848 117.68C284.528 117.68 282.128 117.68 277.648 117.68C277.648 116.56 278.048 116 278.848 116C279.328 116 279.568 116.08 279.568 116.24C279.568 116.4 279.728 116.48 280.048 116.48C281.168 116.48 282.528 116.08 284.128 115.28C285.888 114.32 286.848 113.44 287.008 112.64C285.728 112.48 283.328 112.4 279.808 112.4C279.488 112.4 279.328 112.24 279.328 111.92C279.488 111.6 279.408 111.44 279.088 111.44C278.768 111.44 278.608 111.52 278.608 111.68C278.768 111.84 278.688 111.92 278.368 111.92C278.048 111.92 277.808 111.76 277.648 111.44C277.488 110.96 277.248 110.72 276.928 110.72C276.608 110.72 276.448 110.8 276.448 110.96C276.448 110.96 276.288 110.96 275.968 110.96C274.368 109.2 272.928 108.32 271.648 108.32C271.968 108.32 272.368 108.08 272.848 107.6C272.368 106.64 271.728 105.36 270.928 103.76C271.568 103.76 272.368 104 273.328 104.48H273.808C272.528 102.56 271.248 101.6 269.968 101.6C269.648 101.6 269.328 101.76 269.008 102.08C268.688 101.6 268.527 101.04 268.527 100.4C268.688 100.4 268.928 100.56 269.248 100.88C269.728 101.04 270.048 101.12 270.208 101.12C270.368 100.96 270.448 100.72 270.448 100.4C270.448 97.52 269.328 95.12 267.088 93.2C267.728 93.36 268.608 93.12 269.728 92.48C269.568 92.32 269.248 92 268.768 91.52C268.448 91.04 268.208 90.64 268.048 90.32C267.408 91.12 267.168 91.52 267.328 91.52V89.12C267.648 89.44 268.208 89.84 269.008 90.32C269.008 89.2 269.248 87.52 269.728 85.28C270.208 83.04 270.448 81.84 270.448 81.68C270.448 81.36 270.208 80.8 269.728 80C269.408 79.36 269.488 78.32 269.968 76.88C269.648 76.56 269.088 76.4 268.288 76.4C268.448 76.72 268.448 77.36 268.288 78.32C267.808 78 267.328 78 266.848 78.32C267.328 76.72 267.968 74.4 268.768 71.36C269.728 68.16 270.768 63.52 271.888 57.44C272.208 57.28 273.008 55.92 274.288 53.36C273.808 52.88 273.408 52.88 273.088 53.36C272.288 55.44 271.088 57.68 269.488 60.08C268.048 64.56 266.688 69.04 265.408 73.52C263.488 80.08 262.768 85.04 263.248 88.4C262.608 89.84 262.288 90.4 262.288 90.08C262.288 90.88 262.448 92 262.768 93.44C262.928 94.08 263.408 94.64 264.208 95.12C264.208 94.8 263.728 95.36 262.768 96.8C262.448 97.28 262.288 98 262.288 98.96C262.288 100.72 263.408 102.72 265.648 104.96C265.168 104.48 264.528 104 263.728 103.52C263.568 105.44 263.488 106.32 263.488 106.16C262.848 106.16 262.048 105.84 261.088 105.2C261.088 103.6 261.008 101.04 260.848 97.52C260.688 94 260.607 92.08 260.607 91.76C260.607 87.76 261.488 81.84 263.248 74C263.728 71.6 263.968 70.48 263.968 70.64C264.128 70.64 264.288 70.48 264.448 70.16C264.928 67.76 265.168 66.56 265.168 66.56C265.168 66.4 265.728 64.72 266.848 61.52C267.648 59.76 268.688 57.12 269.968 53.6C270.448 52.16 271.248 50 272.368 47.12C273.008 46.64 273.728 45.84 274.528 44.72C274.528 43.6 274.768 42 275.248 39.92C275.408 39.92 275.648 40.08 275.968 40.4C276.768 39.76 277.248 39.12 277.408 38.48C277.088 38.16 276.608 38.32 275.968 38.96C277.088 35.28 278.208 32.72 279.328 31.28C284.448 24.08 287.328 20.48 287.967 20.48C288.448 20.48 288.768 20.64 288.928 20.96C289.088 21.28 289.168 21.44 289.168 21.44C289.328 21.28 289.648 20.48 290.128 19.04C290.928 18.4 291.808 17.76 292.768 17.12C293.888 16.32 294.368 15.36 294.208 14.24C295.968 14.4 297.088 14.16 297.568 13.52C297.408 14.96 297.328 15.76 297.328 15.92C298.608 15.12 300.048 13.92 301.648 12.32C301.648 12.32 301.808 12.32 302.128 12.32C302.448 12.48 302.768 12.56 303.088 12.56C303.088 12.56 306.528 9.99999 313.408 4.87999C312.608 7.11999 310.928 9.43999 308.368 11.84C308.688 11.52 308.848 11.92 308.848 13.04H307.648C307.168 13.52 306.928 13.84 306.928 14C307.728 13.84 309.088 13.84 311.008 14C310.208 17.2 309.808 19.12 309.808 19.76C309.808 20.56 309.888 21.04 310.048 21.2C310.528 20.56 311.168 19.52 311.968 18.08C312.448 17.76 313.088 17.2 313.888 16.4C314.048 15.76 314.688 14.8 315.808 13.52C315.008 16.08 313.968 19.76 312.688 24.56C312.848 25.52 312.928 26.88 312.928 28.64C311.968 31.36 311.488 32.32 311.488 31.52C311.488 32 311.648 32.48 311.968 32.96C312.128 32.8 312.368 32.72 312.688 32.72C313.168 32.56 313.408 32.4 313.408 32.24C313.568 31.44 313.168 31.04 312.208 31.04C313.008 29.28 313.968 27.12 315.088 24.56C315.088 24.88 315.248 25.68 315.568 26.96C316.048 28.24 316.288 29.12 316.288 29.6C316.288 29.92 315.968 30.72 315.328 32C314.848 33.12 314.528 33.92 314.367 34.4C313.888 36.96 312.208 40.32 309.328 44.48C305.808 49.92 303.808 53.2 303.328 54.32C302.368 56.24 301.568 58.16 300.928 60.08C301.248 60.88 301.408 61.28 301.408 61.28C300.768 61.28 300.288 61.2 299.968 61.04C299.328 62.16 299.248 63.2 299.728 64.16C299.408 64.32 299.088 64.24 298.768 63.92C296.528 66.96 294.848 70.08 293.728 73.28C292.928 78.24 291.328 85.44 288.928 94.88C287.968 97.92 287.488 99.12 287.488 98.48C287.488 99.92 288.048 100.72 289.168 100.88C290.288 101.04 291.328 101.2 292.288 101.36C291.488 101.04 290.448 101.36 289.168 102.32C289.168 102.64 289.248 102.96 289.408 103.28C289.728 103.28 290.288 103.2 291.088 103.04C292.048 102.88 292.768 102.8 293.248 102.8C293.248 102.96 292.928 103.28 292.288 103.76C293.088 104.56 293.648 104.96 293.968 104.96C295.088 104.96 297.008 104.32 299.728 103.04C302.448 101.76 304.128 100.96 304.768 100.64C307.008 99.36 308.608 97.92 309.568 96.32C310.688 96.32 311.568 96.64 312.208 97.28C311.728 98.24 311.008 99.04 310.048 99.68C310.048 99.68 309.328 100.56 307.888 102.32V102.8C308.528 102.48 309.648 102 311.248 101.36C311.408 100.88 311.888 100.16 312.688 99.2C314.448 98.24 315.808 97.28 316.768 96.32C316.128 93.12 315.808 91.6 315.808 91.76C316.928 87.12 318.608 79.84 320.848 69.92C321.008 69.76 320.928 69.52 320.608 69.2C320.288 69.52 320.048 69.68 319.888 69.68V67.76C320.528 68.24 320.928 68.48 321.088 68.48C321.568 66.88 321.408 65.68 320.608 64.88C322.528 64.88 323.808 65.36 324.448 66.32C324.928 66.32 325.168 65.92 325.168 65.12C327.408 64.96 328.848 64.56 329.488 63.92C329.808 63.92 329.888 64 329.728 64.16C329.728 64.48 329.728 64.64 329.728 64.64C329.728 63.68 329.888 62.24 330.208 60.32C330.848 59.36 332.128 57.92 334.048 56C335.648 56.8 336.448 57.2 336.448 57.2C336.288 57.2 336.928 56.72 338.368 55.76C339.008 55.76 339.888 55.6 341.008 55.28C341.648 55.92 341.968 56.64 341.968 57.44C341.968 58.4 341.408 59.12 340.288 59.6C339.168 60.08 338.128 60.48 337.168 60.8C337.488 61.28 337.968 61.52 338.608 61.52C338.768 61.52 339.088 61.44 339.568 61.28C340.048 61.12 340.448 61.04 340.768 61.04C341.408 61.04 343.328 61.84 346.528 63.44C347.008 63.44 347.248 63.2 347.248 62.72C348.368 63.84 349.488 64.56 350.608 64.88C350.928 65.04 350.848 65.2 350.368 65.36C350.688 65.84 351.328 66.08 352.288 66.08C352.288 67.04 352.048 67.76 351.568 68.24C352.368 68.56 353.008 68.64 353.488 68.48C353.168 68.8 352.528 69.2 351.568 69.68C351.568 70.48 351.808 70.88 352.288 70.88C352.608 70.88 352.848 70.88 353.008 70.88C353.328 70.72 353.488 70.64 353.488 70.64C353.488 71.6 353.168 72.08 352.528 72.08C352.208 72.08 352.048 72 352.048 71.84C352.048 71.52 351.968 71.36 351.808 71.36C351.648 71.52 351.568 71.84 351.568 72.32C351.568 73.76 352.768 75.68 355.168 78.08C355.648 78.08 356.128 77.84 356.608 77.36C357.088 76.88 357.008 76.64 356.368 76.64C355.888 76.64 355.568 76.72 355.408 76.88C355.408 77.04 355.408 77.12 355.408 77.12C356.208 76 356.928 74.4 357.568 72.32C357.408 71.52 357.248 70.08 357.088 68H358.528C359.488 70.4 360.208 72.72 360.688 74.96ZM268.527 80.96L268.048 81.44L267.088 80.48L267.568 80L268.527 80.96ZM336.448 152H335.728V148.88H336.448V152ZM267.808 83.36H267.088V81.68H267.808V83.36ZM267.328 86.72V85.28C266.688 85.28 266.288 85.44 266.128 85.76C266.448 85.28 266.608 84.88 266.608 84.56C267.408 85.04 267.648 85.76 267.328 86.72ZM309.568 129.92L308.368 131.12L308.128 130.64L309.088 129.68L309.568 129.92ZM266.368 90.32H265.648V89.12H266.368V90.32ZM268.768 95.84C268.128 96 267.808 96.16 267.808 96.32V95.12C267.808 95.6 268.128 95.84 268.768 95.84ZM328.528 157.76L328.048 160.16H327.328L327.808 157.76H328.528ZM306.928 139.04H306.208V138.08H306.928V139.04ZM328.288 160.88C327.968 161.2 327.808 161.76 327.808 162.56C327.808 162.4 327.728 162.08 327.568 161.6C327.408 161.12 327.328 160.72 327.328 160.4C327.808 160.72 328.128 160.88 328.288 160.88ZM329.248 169.28H328.528V167.84H329.248V169.28ZM325.648 173.36H324.928V171.92H325.648V173.36ZM319.648 168.32C319.488 168.48 319.248 168.72 318.928 169.04C318.768 169.36 318.688 169.6 318.688 169.76C318.688 168.48 318.528 167.52 318.208 166.88C317.888 167.2 317.728 167.52 317.728 167.84C317.728 166.88 317.648 165.2 317.488 162.8C317.808 164.08 318.528 165.92 319.648 168.32ZM304.528 154.4H303.808V153.44H304.528V154.4ZM313.168 161.6L312.208 163.76L311.728 163.28L312.688 161.6H313.168ZM318.208 171.44H317.488V170.24H318.208V171.44ZM304.048 159.68C303.728 160.32 303.328 161.04 302.848 161.84V160.64C302.848 160 303.248 159.68 304.048 159.68ZM312.928 171.92H312.208V170.72H312.928V171.92ZM318.928 177.44L318.448 178.64L317.968 178.4L318.448 177.2L318.928 177.44ZM303.328 162.56C303.328 162.88 303.088 163.36 302.608 164C302.128 163.52 301.888 163.12 301.888 162.8C302.848 162.8 303.328 162.72 303.328 162.56ZM305.248 180.56C304.768 181.04 304.528 181.52 304.528 182C304.528 181.52 304.288 181.28 303.808 181.28C303.808 181.6 303.808 182.96 303.808 185.36C303.808 184.88 303.648 184.56 303.328 184.4L302.848 184.88C303.168 185.84 303.648 187.36 304.288 189.44V190.16C303.808 188.56 303.168 186.96 302.368 185.36V180.08C303.648 180.72 304.608 180.88 305.248 180.56ZM333.808 64.88L333.568 64.16L332.128 64.64V65.36L333.808 64.88ZM276.448 63.44V62H275.728V63.44H276.448ZM315.088 100.88C314.288 100.88 313.808 100.96 313.648 101.12C312.848 100.32 312.528 99.92 312.688 99.92C312.688 100.24 312.848 100.56 313.168 100.88C312.848 101.04 312.048 102.24 310.768 104.48C311.248 104 311.648 104 311.968 104.48C312.608 103.68 313.648 102.48 315.088 100.88ZM286.768 75.2L286.048 74.96L285.328 76.4L286.048 76.88L286.768 75.2ZM279.808 71.36V70.16H279.088V71.36H279.808ZM275.488 68V65.12H274.768V68H275.488ZM286.528 78.56C286.528 78.56 286.448 78.56 286.288 78.56C286.128 78.72 285.808 78.8 285.328 78.8C285.008 78.8 284.848 78.56 284.848 78.08C284.848 77.6 284.768 77.28 284.608 77.12C283.968 78.4 283.728 79.2 283.888 79.52H285.568L286.528 78.56ZM275.248 69.68V68.48H274.528V69.68H275.248ZM310.528 102.8C309.728 103.12 309.088 104.08 308.608 105.68C308.928 105.36 309.408 105.2 310.048 105.2C310.048 103.92 310.208 103.12 310.528 102.8ZM284.367 83.6V80.96H283.648V83.6H284.367ZM274.528 71.84C274.208 72.48 273.648 73.92 272.848 76.16C273.808 76.96 274.288 76.8 274.288 75.68C274.288 75.2 274.208 74.64 274.048 74C274.368 72.4 274.528 71.68 274.528 71.84ZM283.648 88.4C283.648 88.24 283.568 87.92 283.408 87.44C283.248 86.96 283.168 86.64 283.168 86.48C283.168 88.56 283.168 89.6 283.168 89.6C283.168 88.96 283.328 88.56 283.648 88.4ZM310.288 117.92L309.808 117.68L309.328 118.64L309.808 118.88L310.288 117.92ZM306.208 113.84L305.728 113.36L303.808 114.8L304.288 115.28L306.208 113.84ZM286.048 90.08C285.888 90.08 285.648 90 285.328 89.84C285.808 89.36 286.048 88.72 286.048 87.92C285.408 88.56 284.448 89.52 283.168 90.8C282.848 90.48 282.528 90.32 282.208 90.32C282.528 93.52 282.688 96.72 282.688 99.92C282.848 99.76 283.328 98.88 284.128 97.28C284.608 97.28 284.848 97.6 284.848 98.24C284.848 97.92 284.448 97.04 283.648 95.6C284.288 95.6 284.608 95.92 284.608 96.56C285.568 91.92 286.048 89.76 286.048 90.08ZM281.248 72.32C280.608 72.8 279.648 73.52 278.368 74.48C278.528 75.44 278.448 76.8 278.128 78.56C277.008 80.96 276.528 82.64 276.688 83.6C275.888 84.72 275.488 86.08 275.488 87.68C275.488 88 276.368 90.48 278.128 95.12C277.968 95.44 277.808 95.92 277.648 96.56C277.488 97.04 277.408 97.36 277.408 97.52C277.408 98.8 277.648 100.24 278.128 101.84C278.448 102.8 279.168 104.08 280.288 105.68C279.328 101.52 278.848 99.76 278.848 100.4C278.848 100.72 279.248 100.08 280.048 98.48C278.928 96.72 278.368 95.92 278.368 96.08C278.528 96.08 278.928 96.4 279.568 97.04C279.568 96.72 279.808 96.24 280.288 95.6C279.328 94.96 279.008 94.16 279.328 93.2C279.648 91.76 279.808 91.2 279.808 91.52C279.328 91.2 279.088 90.88 279.088 90.56C279.088 84.32 279.248 79.92 279.568 77.36C280.048 76.24 280.608 74.56 281.248 72.32ZM287.008 98.24V96.56C285.888 96.56 285.328 97.12 285.328 98.24H287.008ZM274.288 77.36C273.968 77.36 273.568 77.2 273.088 76.88C273.088 77.04 272.848 77.44 272.368 78.08C272.048 78.56 271.888 78.88 271.888 79.04C271.568 81.92 271.408 85.04 271.408 88.4C271.408 88.56 271.488 89.68 271.648 91.76C271.808 93.84 271.888 95.28 271.888 96.08C272.048 92.24 272.448 86.48 273.088 78.8C273.408 78.48 273.808 78 274.288 77.36ZM309.568 121.04C309.088 121.2 308.528 121.52 307.888 122V124.16C307.888 124 308.368 123.92 309.328 123.92C309.328 123.6 309.408 123.12 309.568 122.48C309.568 121.84 309.568 121.36 309.568 121.04ZM282.208 98.48L281.728 95.84H281.008L281.488 98.48H282.208ZM335.968 154.64H335.248L334.768 156.8H335.488L335.968 154.64ZM305.248 120.32H301.648C300.848 120.96 299.728 121.68 298.288 122.48C300.848 124.24 302.128 125.12 302.128 125.12H304.288C304.448 123.84 304.768 122.24 305.248 120.32ZM307.408 157.52L306.688 156.8L306.448 157.28L306.928 158L307.408 157.52ZM306.688 159.92H305.968L305.488 161.36L305.968 161.6L306.688 159.92ZM312.928 169.76V167.84H312.208V169.76H312.928ZM308.848 172.64C308.528 171.84 308.208 171.2 307.888 170.72C307.568 170.24 307.408 169.36 307.408 168.08C307.408 167.44 307.568 167.12 307.888 167.12C307.408 166.96 307.248 166.72 307.408 166.4C307.568 165.6 307.888 164.4 308.368 162.8L307.168 163.52C306.368 163.04 306.048 162.8 306.208 162.8C306.208 163.12 306.128 163.6 305.968 164.24C305.808 164.88 305.728 165.36 305.728 165.68C305.728 167.28 306.128 171.6 306.928 178.64C308.048 179.44 308.608 179.76 308.608 179.6L308.848 178.16C308.048 178.16 307.648 177.92 307.648 177.44C308.128 176.96 308.368 176.64 308.368 176.48C308.048 176.48 307.568 176.08 306.928 175.28C307.088 174.8 307.408 174.08 307.888 173.12C308.208 173.12 308.528 172.96 308.848 172.64ZM304.768 179.6C303.648 177.52 303.088 175.2 303.088 172.64C303.088 170.08 303.008 168.56 302.848 168.08C302.848 170.32 302.768 171.6 302.608 171.92C301.808 173.52 301.408 174.16 301.408 173.84C301.408 174.16 301.488 174.96 301.648 176.24C301.968 177.68 302.128 178.72 302.128 179.36C302.128 178.72 302.288 178 302.608 177.2C302.768 177.2 303.088 177.44 303.568 177.92C303.568 178.72 303.968 179.28 304.768 179.6ZM284.367 94.88H283.648V91.76H284.367V94.88Z" fill="white"/>
</svg>
