<svg xmlns="http://www.w3.org/2000/svg" width="40" height="40" fill="none" viewBox="0 0 40 40"><mask id="mask0" width="40" height="40" x="0" y="0" mask-type="alpha" maskUnits="userSpaceOnUse"><path fill="#C4C4C4" d="M0 2C0 0.895431 0.895431 0 2 0H38C39.1046 0 40 0.895431 40 2V38C40 39.1046 39.1046 40 38 40H2C0.895431 40 0 39.1046 0 38V2Z"/></mask><g mask="url(#mask0)"><mask id="mask1" width="40" height="40" x="0" y="0" mask-type="alpha" maskUnits="userSpaceOnUse"><rect width="40" height="40" fill="url(#paint0_linear)"/></mask><g mask="url(#mask1)"><rect width="40" height="40" fill="#00CBA6"/><g style="mix-blend-mode:multiply" opacity=".15"><rect width="73.65" height="34.623" x="47.936" y="80.205" fill="#00CB3C" transform="rotate(-109.677 47.9364 80.2047)"/></g><g style="mix-blend-mode:multiply" opacity=".05"><rect width="83.561" height="39.283" x="-4.012" y="54.58" fill="#46310F" transform="rotate(-66.9 -4.01184 54.5804)"/></g><g style="mix-blend-mode:multiply" opacity=".15"><rect width="73.65" height="40.667" x=".236" y="-26.802" fill="#06010C" transform="rotate(44.8998 0.23584 -26.802)"/></g></g></g><defs><linearGradient id="paint0_linear" x1="40" x2="40" y1="40" y2="0" gradientUnits="userSpaceOnUse"><stop stop-color="#FFC9B3"/><stop offset="1" stop-color="#FFD2C2"/></linearGradient></defs></svg>