<svg width="106" height="24" viewBox="0 0 106 24" fill="none" xmlns="http://www.w3.org/2000/svg">
<rect width="106" height="24" rx="2" fill="#6ADD0E" fill-opacity="0.2"/>
<circle cx="18" cy="12" r="3" fill="#6ADD0E"/>
<path d="M35.316 14.68C34.98 15.136 34.544 15.508 34.008 15.796C33.472 16.076 32.828 16.216 32.076 16.216C31.428 16.216 30.828 16.108 30.276 15.892C29.732 15.668 29.26 15.36 28.86 14.968C28.468 14.568 28.16 14.096 27.936 13.552C27.712 13 27.6 12.396 27.6 11.74C27.6 11.076 27.712 10.472 27.936 9.928C28.168 9.376 28.484 8.908 28.884 8.524C29.292 8.132 29.772 7.828 30.324 7.612C30.876 7.396 31.476 7.288 32.124 7.288C32.412 7.288 32.704 7.316 33 7.372C33.296 7.428 33.58 7.512 33.852 7.624C34.124 7.736 34.372 7.876 34.596 8.044C34.82 8.204 35.012 8.392 35.172 8.608L34.236 9.328C34.028 9.04 33.732 8.804 33.348 8.62C32.972 8.428 32.564 8.332 32.124 8.332C31.628 8.332 31.18 8.424 30.78 8.608C30.388 8.784 30.052 9.028 29.772 9.34C29.492 9.652 29.276 10.016 29.124 10.432C28.972 10.84 28.896 11.276 28.896 11.74C28.896 12.22 28.968 12.668 29.112 13.084C29.264 13.5 29.476 13.864 29.748 14.176C30.028 14.48 30.364 14.72 30.756 14.896C31.156 15.072 31.6 15.16 32.088 15.16C32.568 15.16 33.004 15.064 33.396 14.872C33.788 14.68 34.112 14.4 34.368 14.032L35.316 14.68ZM42.2875 13.144C42.2875 13.584 42.2075 13.988 42.0475 14.356C41.8955 14.724 41.6795 15.044 41.3995 15.316C41.1275 15.58 40.8035 15.788 40.4275 15.94C40.0515 16.084 39.6475 16.156 39.2155 16.156C38.7835 16.156 38.3795 16.084 38.0035 15.94C37.6275 15.788 37.3035 15.58 37.0315 15.316C36.7595 15.044 36.5435 14.724 36.3835 14.356C36.2315 13.988 36.1555 13.584 36.1555 13.144C36.1555 12.704 36.2315 12.304 36.3835 11.944C36.5435 11.576 36.7595 11.26 37.0315 10.996C37.3035 10.732 37.6275 10.528 38.0035 10.384C38.3795 10.232 38.7835 10.156 39.2155 10.156C39.6475 10.156 40.0515 10.232 40.4275 10.384C40.8035 10.528 41.1275 10.732 41.3995 10.996C41.6795 11.26 41.8955 11.576 42.0475 11.944C42.2075 12.304 42.2875 12.704 42.2875 13.144ZM41.1115 13.144C41.1115 12.872 41.0675 12.612 40.9795 12.364C40.8995 12.116 40.7795 11.9 40.6195 11.716C40.4595 11.524 40.2595 11.372 40.0195 11.26C39.7875 11.148 39.5195 11.092 39.2155 11.092C38.9115 11.092 38.6395 11.148 38.3995 11.26C38.1675 11.372 37.9715 11.524 37.8115 11.716C37.6515 11.9 37.5275 12.116 37.4395 12.364C37.3595 12.612 37.3195 12.872 37.3195 13.144C37.3195 13.416 37.3595 13.676 37.4395 13.924C37.5275 14.172 37.6515 14.392 37.8115 14.584C37.9715 14.776 38.1675 14.928 38.3995 15.04C38.6395 15.152 38.9115 15.208 39.2155 15.208C39.5195 15.208 39.7875 15.152 40.0195 15.04C40.2595 14.928 40.4595 14.776 40.6195 14.584C40.7795 14.392 40.8995 14.172 40.9795 13.924C41.0675 13.676 41.1115 13.416 41.1115 13.144ZM45.1557 11.248C45.2997 10.944 45.5277 10.688 45.8397 10.48C46.1597 10.264 46.5357 10.156 46.9677 10.156C47.3517 10.156 47.6957 10.244 47.9997 10.42C48.3117 10.596 48.5557 10.888 48.7317 11.296C48.9237 10.928 49.1917 10.648 49.5357 10.456C49.8797 10.256 50.2557 10.156 50.6637 10.156C51.0317 10.156 51.3477 10.22 51.6117 10.348C51.8757 10.468 52.0957 10.632 52.2717 10.84C52.4477 11.048 52.5757 11.292 52.6557 11.572C52.7437 11.852 52.7877 12.152 52.7877 12.472V16H51.6597V12.844C51.6597 12.612 51.6397 12.392 51.5997 12.184C51.5597 11.976 51.4917 11.792 51.3957 11.632C51.2997 11.472 51.1717 11.344 51.0117 11.248C50.8517 11.152 50.6477 11.104 50.3997 11.104C50.1437 11.104 49.9237 11.16 49.7397 11.272C49.5557 11.376 49.4037 11.516 49.2837 11.692C49.1717 11.86 49.0877 12.052 49.0317 12.268C48.9837 12.484 48.9597 12.704 48.9597 12.928V16H47.8317V12.616C47.8317 12.392 47.8117 12.188 47.7717 12.004C47.7317 11.82 47.6637 11.664 47.5677 11.536C47.4717 11.4 47.3477 11.296 47.1957 11.224C47.0437 11.144 46.8557 11.104 46.6317 11.104C46.2157 11.104 45.8677 11.276 45.5877 11.62C45.3157 11.956 45.1797 12.408 45.1797 12.976V16H44.0517V11.536C44.0517 11.384 44.0477 11.188 44.0397 10.948C44.0317 10.708 44.0197 10.496 44.0037 10.312H45.0717C45.0877 10.456 45.0997 10.62 45.1077 10.804C45.1157 10.98 45.1197 11.128 45.1197 11.248H45.1557ZM56.0203 18.88H54.8923V10.312H55.9963V11.2H56.0323C56.2163 10.896 56.4843 10.648 56.8363 10.456C57.1963 10.256 57.6123 10.156 58.0843 10.156C58.5083 10.156 58.8923 10.232 59.2363 10.384C59.5883 10.536 59.8883 10.748 60.1363 11.02C60.3923 11.292 60.5883 11.612 60.7243 11.98C60.8603 12.34 60.9283 12.728 60.9283 13.144C60.9283 13.56 60.8603 13.952 60.7243 14.32C60.5883 14.688 60.3963 15.008 60.1483 15.28C59.9003 15.552 59.6003 15.768 59.2483 15.928C58.8963 16.08 58.5003 16.156 58.0603 16.156C57.6523 16.156 57.2683 16.068 56.9083 15.892C56.5483 15.716 56.2643 15.468 56.0563 15.148H56.0203V18.88ZM59.7643 13.144C59.7643 12.88 59.7243 12.624 59.6443 12.376C59.5643 12.128 59.4443 11.908 59.2843 11.716C59.1243 11.524 58.9243 11.372 58.6843 11.26C58.4523 11.148 58.1803 11.092 57.8683 11.092C57.5803 11.092 57.3163 11.148 57.0763 11.26C56.8443 11.372 56.6443 11.524 56.4763 11.716C56.3083 11.908 56.1763 12.128 56.0803 12.376C55.9923 12.624 55.9483 12.884 55.9483 13.156C55.9483 13.428 55.9923 13.688 56.0803 13.936C56.1763 14.184 56.3083 14.404 56.4763 14.596C56.6443 14.78 56.8443 14.928 57.0763 15.04C57.3163 15.152 57.5803 15.208 57.8683 15.208C58.1803 15.208 58.4523 15.152 58.6843 15.04C58.9243 14.92 59.1243 14.764 59.2843 14.572C59.4443 14.38 59.5643 14.16 59.6443 13.912C59.7243 13.664 59.7643 13.408 59.7643 13.144ZM63.8498 16H62.7218V6.928H63.8498V16ZM70.179 12.652C70.171 12.428 70.131 12.22 70.059 12.028C69.995 11.828 69.895 11.656 69.759 11.512C69.631 11.368 69.467 11.256 69.267 11.176C69.075 11.088 68.847 11.044 68.583 11.044C68.343 11.044 68.115 11.088 67.899 11.176C67.691 11.256 67.507 11.368 67.347 11.512C67.195 11.656 67.067 11.828 66.963 12.028C66.867 12.22 66.811 12.428 66.795 12.652H70.179ZM71.319 13.108C71.319 13.172 71.319 13.236 71.319 13.3C71.319 13.364 71.315 13.428 71.307 13.492H66.795C66.803 13.732 66.855 13.96 66.951 14.176C67.055 14.384 67.191 14.568 67.359 14.728C67.527 14.88 67.719 15 67.935 15.088C68.159 15.176 68.395 15.22 68.643 15.22C69.027 15.22 69.359 15.136 69.639 14.968C69.919 14.8 70.139 14.596 70.299 14.356L71.091 14.992C70.787 15.392 70.427 15.688 70.011 15.88C69.603 16.064 69.147 16.156 68.643 16.156C68.211 16.156 67.811 16.084 67.443 15.94C67.075 15.796 66.759 15.596 66.495 15.34C66.231 15.076 66.023 14.76 65.871 14.392C65.719 14.024 65.643 13.616 65.643 13.168C65.643 12.728 65.715 12.324 65.859 11.956C66.011 11.58 66.219 11.26 66.483 10.996C66.747 10.732 67.059 10.528 67.419 10.384C67.779 10.232 68.167 10.156 68.583 10.156C68.999 10.156 69.375 10.224 69.711 10.36C70.055 10.496 70.343 10.692 70.575 10.948C70.815 11.204 70.999 11.516 71.127 11.884C71.255 12.244 71.319 12.652 71.319 13.108ZM75.8779 11.236H74.3659V14.2C74.3659 14.544 74.4299 14.792 74.5579 14.944C74.6859 15.088 74.8899 15.16 75.1699 15.16C75.2739 15.16 75.3859 15.148 75.5059 15.124C75.6259 15.1 75.7339 15.064 75.8299 15.016L75.8659 15.94C75.7299 15.988 75.5779 16.024 75.4099 16.048C75.2499 16.08 75.0819 16.096 74.9059 16.096C74.3699 16.096 73.9579 15.948 73.6699 15.652C73.3899 15.356 73.2499 14.912 73.2499 14.32V11.236H72.1579V10.312H73.2499V8.68H74.3659V10.312H75.8779V11.236ZM81.4071 12.652C81.3991 12.428 81.3591 12.22 81.2871 12.028C81.2231 11.828 81.1231 11.656 80.9871 11.512C80.8591 11.368 80.6951 11.256 80.4951 11.176C80.3031 11.088 80.0751 11.044 79.8111 11.044C79.5711 11.044 79.3431 11.088 79.1271 11.176C78.9191 11.256 78.7351 11.368 78.5751 11.512C78.4231 11.656 78.2951 11.828 78.1911 12.028C78.0951 12.22 78.0391 12.428 78.0231 12.652H81.4071ZM82.5471 13.108C82.5471 13.172 82.5471 13.236 82.5471 13.3C82.5471 13.364 82.5431 13.428 82.5351 13.492H78.0231C78.0311 13.732 78.0831 13.96 78.1791 14.176C78.2831 14.384 78.4191 14.568 78.5871 14.728C78.7551 14.88 78.9471 15 79.1631 15.088C79.3871 15.176 79.6231 15.22 79.8711 15.22C80.2551 15.22 80.5871 15.136 80.8671 14.968C81.1471 14.8 81.3671 14.596 81.5271 14.356L82.3191 14.992C82.0151 15.392 81.6551 15.688 81.2391 15.88C80.8311 16.064 80.3751 16.156 79.8711 16.156C79.4391 16.156 79.0391 16.084 78.6711 15.94C78.3031 15.796 77.9871 15.596 77.7231 15.34C77.4591 15.076 77.2511 14.76 77.0991 14.392C76.9471 14.024 76.8711 13.616 76.8711 13.168C76.8711 12.728 76.9431 12.324 77.0871 11.956C77.2391 11.58 77.4471 11.26 77.7111 10.996C77.9751 10.732 78.2871 10.528 78.6471 10.384C79.0071 10.232 79.3951 10.156 79.8111 10.156C80.2271 10.156 80.6031 10.224 80.9391 10.36C81.2831 10.496 81.5711 10.692 81.8031 10.948C82.0431 11.204 82.2271 11.516 82.3551 11.884C82.4831 12.244 82.5471 12.652 82.5471 13.108ZM88.858 15.1C88.642 15.444 88.346 15.708 87.97 15.892C87.602 16.068 87.214 16.156 86.806 16.156C86.366 16.156 85.97 16.08 85.618 15.928C85.266 15.768 84.966 15.552 84.718 15.28C84.47 15.008 84.278 14.688 84.142 14.32C84.006 13.952 83.938 13.56 83.938 13.144C83.938 12.728 84.006 12.34 84.142 11.98C84.278 11.612 84.47 11.292 84.718 11.02C84.974 10.748 85.278 10.536 85.63 10.384C85.982 10.232 86.37 10.156 86.794 10.156C87.258 10.156 87.662 10.256 88.006 10.456C88.35 10.648 88.622 10.884 88.822 11.164H88.846V6.928H89.974V16H88.882V15.1H88.858ZM85.114 13.144C85.114 13.408 85.154 13.664 85.234 13.912C85.314 14.16 85.434 14.38 85.594 14.572C85.754 14.764 85.95 14.92 86.182 15.04C86.414 15.152 86.686 15.208 86.998 15.208C87.286 15.208 87.546 15.152 87.778 15.04C88.018 14.928 88.222 14.78 88.39 14.596C88.558 14.404 88.686 14.184 88.774 13.936C88.87 13.688 88.918 13.428 88.918 13.156C88.918 12.884 88.87 12.624 88.774 12.376C88.686 12.128 88.558 11.908 88.39 11.716C88.222 11.524 88.018 11.372 87.778 11.26C87.546 11.148 87.286 11.092 86.998 11.092C86.686 11.092 86.414 11.148 86.182 11.26C85.95 11.372 85.754 11.524 85.594 11.716C85.434 11.908 85.314 12.128 85.234 12.376C85.154 12.624 85.114 12.88 85.114 13.144Z" fill="#6ADD0E"/>
</svg>
