<svg width="494" height="302" viewBox="0 0 494 302" fill="none" xmlns="http://www.w3.org/2000/svg">
<path opacity="0.18" d="M493.672 257.871C493.212 264.867 489.137 271.679 482.017 278.19C475.428 284.209 466.23 289.948 454.88 295.269H40.0781C31.6711 289.71 24.3289 282.69 18.4 274.54C16.2338 271.559 14.2579 268.444 12.4839 265.214C-39.1853 171.229 83.6007 -8.52936 124.886 0.314668C143.841 4.37201 132.643 45.4128 163.831 65.3278C222.857 103.009 335.762 2.66197 369.003 32.8195C386.804 48.978 357.018 80.1056 368.135 127.845C387.02 208.893 496.222 219.351 493.672 257.871Z" fill="url(#paint0_linear)"/>
<path opacity="0.07" d="M391.003 27.5761L367.99 61.8688C367.851 62.0772 367.666 62.2506 367.449 62.3757C367.231 62.5007 366.988 62.574 366.738 62.5897C366.488 62.6055 366.238 62.5633 366.007 62.4665C365.776 62.3698 365.57 62.2209 365.406 62.0316L355.57 50.6633L344.117 55.5916C343.825 55.7102 343.505 55.7455 343.193 55.6936C342.882 55.6417 342.591 55.5046 342.353 55.2975C342.114 55.0904 341.938 54.8213 341.843 54.5202C341.749 54.219 341.739 53.8975 341.816 53.5912L345.218 40.4279L334.926 30.2526C334.696 30.0264 334.539 29.7369 334.474 29.421C334.41 29.1052 334.44 28.7772 334.563 28.4789C334.685 28.1805 334.893 27.9253 335.161 27.7456C335.429 27.5659 335.744 27.4699 336.066 27.4698L391.003 27.5761Z" fill="#3AD75A"/>
<path d="M352.682 35.4252L354.289 37.9814L342.868 42.8955C342.574 43.0213 342.251 43.0623 341.936 43.0139C341.62 42.9656 341.324 42.8298 341.082 42.622C340.839 42.4141 340.66 42.1426 340.564 41.838C340.468 41.5334 340.459 41.2081 340.538 40.8987L343.94 27.746L333.645 17.5708C333.415 17.3441 333.257 17.054 333.193 16.7374C333.128 16.4209 333.16 16.0924 333.283 15.7937C333.406 15.4951 333.615 15.2399 333.884 15.0607C334.153 14.8816 334.469 14.7866 334.792 14.788L389.725 14.9048L352.682 35.4252Z" fill="url(#paint1_linear)"/>
<path d="M343.939 27.746L389.72 14.9013L354.284 37.9815L342.71 42.9629C342.431 43.0834 342.123 43.123 341.822 43.0773C341.521 43.0315 341.239 42.9022 341.008 42.7041C340.777 42.506 340.607 42.247 340.516 41.9566C340.425 41.6662 340.417 41.3561 340.494 41.0616L343.939 27.746Z" fill="url(#paint2_linear)"/>
<path d="M389.73 14.9048L366.718 49.1975C366.579 49.4056 366.393 49.5788 366.176 49.7035C365.959 49.8283 365.716 49.9012 365.467 49.9166C365.217 49.932 364.967 49.8895 364.736 49.7924C364.505 49.6953 364.3 49.5463 364.137 49.3569L354.298 37.985L353.59 36.8839C353.472 36.6968 353.394 36.4877 353.359 36.2693C353.325 36.0509 353.336 35.8279 353.391 35.6138C353.446 35.3997 353.544 35.1991 353.679 35.0242C353.815 34.8493 353.984 34.7039 354.177 34.5968L389.73 14.9048Z" fill="url(#paint3_linear)"/>
<path opacity="0.42" d="M472.86 298.54C472.856 298.883 472.781 299.221 472.639 299.533C472.498 299.845 472.293 300.124 472.039 300.353C471.499 300.842 470.795 301.111 470.067 301.107H27.1254C25.5889 301.107 24.332 299.953 24.332 298.54C24.3347 298.197 24.4092 297.859 24.5507 297.547C24.6921 297.235 24.8975 296.956 25.1534 296.728C25.6934 296.238 26.3969 295.969 27.1254 295.973H470.063C471.603 295.973 472.86 297.128 472.86 298.54Z" fill="#3AD75A"/>
<path opacity="0.08" d="M55.414 288.018C46.9169 279.27 47.625 267.515 47.7064 266.637C48.5172 256.225 55.5237 251.718 52.8471 246.252C50.1175 240.679 41.4505 242.555 39.9989 238.296C38.0233 232.5 51.1159 220.364 66.1982 216.915C67.894 216.53 89.0127 212.008 100.632 224.375C111.842 236.306 105.748 254.95 100.632 270.617C96.738 282.488 93.7215 291.771 84.442 295.478C74.5607 299.429 62.3391 295.141 55.414 288.018Z" fill="#3AD75A"/>
<path d="M82.2318 239.287C86.0095 241.086 91.0829 237.107 93.0974 235.542C96.2307 233.092 98.2842 230.231 104.324 217.078C110.01 204.687 109.812 203.688 109.327 203.246C107.472 201.56 100.238 207.091 89.8544 215.025C81.6689 221.284 79.6544 223.787 78.8436 227.165C77.8169 231.481 78.663 237.588 82.2318 239.287Z" fill="url(#paint4_linear)"/>
<path d="M27.3407 243.175C28.0275 244.878 36.3581 239.875 45.5102 242.637C54.209 245.264 54.9844 252.295 62.8159 253.081C66.1297 253.414 69.9534 252.553 72.3503 250.829C73.3307 250.182 74.0816 249.241 74.4958 248.142C76.1669 243.097 67.8893 234.688 59.2223 232.058C49.21 228.999 40.0296 234.023 34.8889 236.837C33.1236 237.797 31.4293 238.882 29.819 240.084C28.1939 241.327 27.0716 242.506 27.3407 243.175Z" fill="url(#paint5_linear)"/>
<path d="M85.9032 252.281C86.7281 253.881 91.5007 253.64 94.8924 252.058C97.0167 251.066 97.3034 250.153 98.7125 249.36C104.763 245.958 114.436 254.317 115.115 253.403C115.795 252.49 107.493 239.949 97.3636 241.493C90.3394 242.576 84.7596 250.061 85.9032 252.281Z" fill="#2C7742"/>
<path d="M74.4669 296.204H83.1658C85.1724 296.204 87.0968 295.406 88.5157 293.987C89.9346 292.569 90.7317 290.644 90.7317 288.638L93.996 259.606H63.6367L66.901 288.638C66.901 290.644 67.6981 292.569 69.117 293.987C70.5359 295.406 72.4603 296.204 74.4669 296.204Z" fill="url(#paint6_linear)"/>
<path d="M73.8789 296.204H83.1655C85.1721 296.204 87.0965 295.406 88.5154 293.987C89.9343 292.569 90.7314 290.644 90.7314 288.638L93.9957 259.606H91.5705L82.2025 288.638C80.7899 292.716 78.0566 296.204 73.8789 296.204Z" fill="#2C7742"/>
<path d="M80.5124 259.815C79.5246 255.46 78.5333 249.077 81.1249 240.233C81.2594 239.775 81.3999 239.328 81.5462 238.891C83.7837 232.192 90.0433 224.538 94.9999 218.431" stroke="#2C7742" stroke-width="0.24075" stroke-miterlimit="10"/>
<path d="M80.5173 259.815C77.9717 256.37 70.6643 247.59 61.4591 241.599C56.5025 238.37 52.9939 237.457 49.8288 237.4C47.9098 237.37 45.9981 237.642 44.1641 238.208" stroke="#2C7742" stroke-width="0.24075" stroke-miterlimit="10"/>
<path d="M80.5195 259.617C83.4755 255.503 87.1404 251.948 91.3427 249.119C96.0939 245.933 98.8165 245.6 100.388 245.579C102.336 245.546 104.267 245.932 106.053 246.708" stroke="#2C7742" stroke-width="0.24075" stroke-miterlimit="10"/>
<g opacity="0.47">
<g opacity="0.47">
<path opacity="0.47" d="M315.023 264.527C316.971 263.111 318.851 261.624 320.667 260.059C320.696 260.035 320.733 260.023 320.77 260.026C320.808 260.029 320.843 260.047 320.867 260.075C320.891 260.104 320.903 260.141 320.9 260.178C320.897 260.216 320.88 260.251 320.851 260.275C318.975 261.801 317.027 263.21 315.023 264.527Z" fill="#3AD75A"/>
<path opacity="0.47" d="M325.891 255.145C327.543 253.424 329.121 251.628 330.625 249.757C330.684 249.682 330.771 249.634 330.866 249.623C330.961 249.613 331.056 249.64 331.131 249.7C331.206 249.759 331.254 249.846 331.264 249.941C331.275 250.036 331.247 250.132 331.188 250.206C329.627 252.047 327.982 253.809 326.252 255.492C326.204 255.532 326.143 255.553 326.08 255.55C326.017 255.547 325.958 255.521 325.913 255.477C325.869 255.432 325.843 255.373 325.84 255.31C325.837 255.248 325.858 255.186 325.898 255.138L325.891 255.145Z" fill="#3AD75A"/>
<path opacity="0.47" d="M334.822 243.95C336.124 241.951 337.32 239.886 338.405 237.762C338.476 237.647 338.587 237.564 338.716 237.528C338.845 237.492 338.984 237.506 339.103 237.567C339.223 237.628 339.315 237.732 339.361 237.858C339.408 237.984 339.405 238.122 339.354 238.247C338.206 240.376 336.948 242.444 335.583 244.442C335.55 244.492 335.508 244.535 335.458 244.568C335.409 244.602 335.353 244.625 335.295 244.637C335.236 244.648 335.176 244.649 335.117 244.637C335.059 244.626 335.003 244.603 334.953 244.57C334.903 244.537 334.861 244.494 334.827 244.445C334.794 244.395 334.771 244.34 334.759 244.281C334.747 244.223 334.747 244.162 334.758 244.104C334.77 244.045 334.793 243.989 334.826 243.94L334.822 243.95Z" fill="#3AD75A"/>
<path opacity="0.47" d="M341.303 231.247C342.152 229.026 342.872 226.757 343.459 224.453C343.48 224.37 343.517 224.291 343.569 224.222C343.62 224.153 343.685 224.095 343.759 224.051C343.833 224.007 343.915 223.978 344 223.965C344.085 223.953 344.172 223.957 344.255 223.979C344.339 224 344.417 224.037 344.486 224.089C344.555 224.14 344.613 224.205 344.657 224.279C344.702 224.353 344.731 224.435 344.743 224.52C344.755 224.605 344.751 224.692 344.73 224.775C344.094 227.117 343.323 229.42 342.421 231.672C342.364 231.82 342.249 231.94 342.104 232.004C341.958 232.068 341.793 232.071 341.644 232.014C341.496 231.956 341.377 231.842 341.312 231.696C341.248 231.55 341.245 231.385 341.303 231.236V231.247Z" fill="#3AD75A"/>
<path opacity="0.47" d="M344.798 217.457C345.108 215.109 345.268 212.744 345.28 210.376C345.28 210.179 345.358 209.99 345.498 209.851C345.637 209.711 345.826 209.633 346.023 209.633C346.22 209.633 346.41 209.711 346.549 209.851C346.688 209.99 346.767 210.179 346.767 210.376C346.733 212.809 346.544 215.236 346.204 217.645C346.178 217.833 346.08 218.003 345.929 218.117C345.778 218.232 345.588 218.283 345.4 218.257C345.212 218.232 345.042 218.133 344.927 217.982C344.813 217.832 344.762 217.641 344.788 217.454L344.798 217.457Z" fill="#3AD75A"/>
<path opacity="0.47" d="M344.848 203.278C344.548 200.929 344.101 198.602 343.51 196.31C343.483 196.208 343.478 196.102 343.492 195.998C343.507 195.894 343.542 195.794 343.595 195.703C343.649 195.613 343.72 195.533 343.804 195.47C343.888 195.407 343.983 195.361 344.085 195.335C344.187 195.308 344.293 195.302 344.397 195.317C344.501 195.332 344.601 195.367 344.692 195.42C344.783 195.474 344.862 195.544 344.925 195.628C344.988 195.712 345.034 195.808 345.06 195.91C345.665 198.271 346.108 200.669 346.388 203.09C346.4 203.288 346.336 203.483 346.209 203.636C346.082 203.788 345.902 203.887 345.705 203.911C345.508 203.935 345.309 203.882 345.149 203.765C344.989 203.647 344.88 203.473 344.844 203.278H344.848Z" fill="#3AD75A"/>
<path opacity="0.47" d="M341.413 189.498C340.612 187.258 339.719 185.055 338.733 182.888C338.683 182.789 338.653 182.682 338.646 182.571C338.639 182.461 338.654 182.35 338.691 182.246C338.728 182.141 338.785 182.045 338.86 181.964C338.935 181.882 339.025 181.816 339.126 181.771C339.226 181.725 339.335 181.7 339.446 181.697C339.557 181.694 339.667 181.714 339.769 181.755C339.872 181.796 339.966 181.857 340.044 181.935C340.123 182.013 340.185 182.106 340.227 182.208C341.223 184.418 342.127 186.66 342.939 188.935C342.974 189.036 342.99 189.142 342.985 189.249C342.979 189.355 342.953 189.46 342.907 189.556C342.862 189.652 342.797 189.739 342.718 189.81C342.639 189.882 342.547 189.937 342.446 189.973C342.346 190.008 342.24 190.024 342.133 190.019C342.027 190.013 341.922 189.987 341.826 189.941C341.73 189.896 341.643 189.831 341.572 189.752C341.5 189.673 341.445 189.581 341.409 189.481L341.413 189.498Z" fill="#3AD75A"/>
<path opacity="0.47" d="M335.521 176.515C334.372 174.431 333.143 172.394 331.836 170.405C331.776 170.315 331.735 170.214 331.714 170.108C331.694 170.002 331.694 169.893 331.716 169.787C331.737 169.682 331.779 169.581 331.84 169.492C331.9 169.403 331.977 169.326 332.067 169.266C332.157 169.207 332.258 169.166 332.364 169.145C332.47 169.125 332.579 169.125 332.685 169.147C332.79 169.168 332.891 169.21 332.98 169.271C333.07 169.331 333.146 169.408 333.206 169.498C334.544 171.519 335.801 173.59 336.976 175.712C337.083 175.905 337.109 176.132 337.049 176.344C336.988 176.557 336.845 176.736 336.652 176.843C336.459 176.95 336.232 176.976 336.02 176.915C335.808 176.854 335.628 176.712 335.521 176.519V176.515Z" fill="#3AD75A"/>
<path opacity="0.47" d="M327.678 164.602C326.217 162.714 324.683 160.897 323.076 159.153C322.931 158.997 322.855 158.79 322.864 158.577C322.873 158.365 322.965 158.164 323.122 158.02C323.278 157.876 323.485 157.8 323.698 157.809C323.91 157.817 324.11 157.91 324.255 158.066C325.907 159.846 327.476 161.69 328.963 163.6C329.029 163.684 329.078 163.78 329.106 163.883C329.135 163.985 329.143 164.093 329.13 164.199C329.118 164.304 329.084 164.407 329.032 164.5C328.979 164.592 328.909 164.674 328.825 164.74C328.741 164.806 328.645 164.854 328.543 164.883C328.44 164.912 328.333 164.92 328.227 164.907C328.121 164.894 328.018 164.861 327.926 164.808C327.833 164.756 327.751 164.686 327.685 164.602H327.678Z" fill="#3AD75A"/>
<path opacity="0.47" d="M318.031 154.104C316.282 152.492 314.465 150.958 312.579 149.502C312.427 149.379 312.329 149.202 312.306 149.008C312.283 148.814 312.336 148.619 312.455 148.464C312.573 148.308 312.747 148.205 312.94 148.177C313.133 148.148 313.33 148.195 313.489 148.309C315.422 149.77 317.288 151.317 319.086 152.95C319.24 153.091 319.331 153.287 319.34 153.495C319.349 153.703 319.275 153.907 319.134 154.06C318.993 154.214 318.797 154.305 318.589 154.314C318.381 154.323 318.177 154.249 318.024 154.108L318.031 154.104Z" fill="#3AD75A"/>
<path opacity="0.47" d="M306.729 145.423C304.716 144.158 302.646 142.99 300.519 141.918C300.36 141.836 300.239 141.695 300.183 141.524C300.127 141.354 300.14 141.169 300.219 141.008C300.299 140.847 300.438 140.724 300.607 140.665C300.777 140.606 300.963 140.616 301.125 140.693C303.307 141.752 305.434 142.922 307.497 144.198C307.578 144.248 307.648 144.313 307.703 144.39C307.758 144.467 307.798 144.554 307.819 144.646C307.841 144.738 307.845 144.833 307.829 144.926C307.814 145.02 307.781 145.109 307.731 145.19C307.681 145.27 307.616 145.34 307.539 145.395C307.463 145.45 307.376 145.49 307.284 145.512C307.192 145.533 307.096 145.537 307.003 145.522C306.91 145.506 306.82 145.473 306.74 145.423H306.729Z" fill="#3AD75A"/>
<path opacity="0.47" d="M293.992 139.043C291.767 138.197 289.499 137.468 287.198 136.859C287.049 136.82 286.921 136.724 286.842 136.591C286.764 136.459 286.742 136.3 286.78 136.151C286.819 136.002 286.915 135.874 287.048 135.795C287.18 135.717 287.339 135.695 287.488 135.733C289.839 136.319 292.158 137.029 294.435 137.857C294.512 137.886 294.584 137.929 294.645 137.985C294.706 138.041 294.756 138.109 294.791 138.184C294.826 138.259 294.846 138.34 294.849 138.423C294.853 138.506 294.84 138.588 294.812 138.666C294.783 138.744 294.74 138.816 294.684 138.877C294.628 138.938 294.56 138.987 294.485 139.022C294.41 139.057 294.329 139.077 294.246 139.081C294.163 139.084 294.081 139.072 294.003 139.043H293.992Z" fill="#3AD75A"/>
<path opacity="0.47" d="M280.212 135.383C277.855 135.012 275.481 134.762 273.099 134.636C272.988 134.622 272.885 134.567 272.813 134.481C272.74 134.395 272.703 134.285 272.707 134.173C272.712 134.061 272.759 133.955 272.839 133.876C272.919 133.797 273.026 133.751 273.138 133.747C275.554 133.828 277.965 134.034 280.361 134.363C280.427 134.372 280.492 134.395 280.55 134.429C280.609 134.463 280.66 134.508 280.7 134.562C280.741 134.616 280.771 134.678 280.788 134.743C280.805 134.808 280.809 134.877 280.8 134.944C280.79 135.011 280.768 135.075 280.734 135.133C280.699 135.192 280.654 135.243 280.6 135.283C280.546 135.324 280.485 135.354 280.419 135.371C280.354 135.388 280.286 135.392 280.219 135.383H280.212Z" fill="#3AD75A"/>
<path opacity="0.47" d="M265.93 134.593C263.542 134.692 261.16 134.903 258.786 135.227C258.722 135.228 258.661 135.206 258.612 135.165C258.564 135.124 258.532 135.067 258.522 135.004C258.513 134.941 258.527 134.877 258.561 134.824C258.595 134.771 258.647 134.731 258.708 134.713C261.085 134.326 263.479 134.049 265.891 133.881C265.938 133.878 265.985 133.884 266.029 133.899C266.073 133.914 266.114 133.937 266.149 133.968C266.184 133.998 266.213 134.035 266.234 134.077C266.255 134.119 266.267 134.164 266.27 134.211C266.273 134.257 266.267 134.304 266.253 134.348C266.238 134.392 266.215 134.433 266.184 134.468C266.153 134.503 266.116 134.532 266.075 134.553C266.033 134.574 265.987 134.586 265.941 134.59L265.93 134.593Z" fill="#3AD75A"/>
<path opacity="0.47" d="M251.715 136.498C249.378 137.025 247.052 137.631 244.758 138.328C244.747 138.331 244.736 138.33 244.726 138.325C244.716 138.32 244.708 138.311 244.705 138.3C244.702 138.289 244.703 138.277 244.708 138.267C244.713 138.257 244.722 138.25 244.733 138.247C247.006 137.468 249.308 136.767 251.644 136.183C251.666 136.175 251.688 136.173 251.711 136.175C251.733 136.177 251.755 136.183 251.775 136.194C251.794 136.205 251.812 136.22 251.825 136.238C251.839 136.255 251.849 136.276 251.854 136.298C251.86 136.32 251.861 136.343 251.857 136.365C251.853 136.387 251.845 136.408 251.832 136.427C251.82 136.446 251.804 136.462 251.785 136.474C251.766 136.486 251.744 136.494 251.722 136.498H251.715Z" fill="#3AD75A"/>
</g>
</g>
<path opacity="0.22" d="M180.072 41.706V164.535C180.072 170.89 173.968 176.091 166.509 176.091H72.0283C69.4642 176.105 66.9382 175.47 64.6854 174.246C60.9502 172.182 58.4648 168.581 58.4648 164.542V41.706C58.4648 37.6522 60.9432 34.0657 64.6854 32.0016C66.9375 30.7746 69.4636 30.1376 72.0283 30.15H166.509C173.968 30.15 180.072 35.3509 180.072 41.706Z" fill="url(#paint7_linear)"/>
<path opacity="0.08" d="M180.068 77.8963V164.535C180.068 170.89 173.964 176.091 166.505 176.091H72.0244C64.5647 176.091 58.4609 170.89 58.4609 164.535V105.583C65.3967 99.9604 74.0566 95.3153 83.2724 96.0588C96.018 97.0961 96.2162 107.388 108.866 110.281C133.603 115.945 159.749 82.7609 180.068 77.8963Z" fill="#3AD75A"/>
<path opacity="0.22" d="M64.9789 33.2195V173.021C64.9785 173.445 64.8765 173.863 64.6815 174.239C60.9463 172.175 58.4609 168.574 58.4609 164.535V41.706C58.4609 37.6522 60.9392 34.0657 64.6815 32.0016C64.8765 32.378 64.9785 32.7956 64.9789 33.2195Z" fill="url(#paint8_linear)"/>
<path opacity="0.22" d="M127.491 32.43V172.228C127.491 173.917 125.877 175.297 123.89 175.297H123.207V30.15H126.301C126.662 30.4125 126.957 30.755 127.164 31.1505C127.37 31.546 127.482 31.984 127.491 32.43Z" fill="url(#paint9_linear)"/>
<path d="M180.064 73.2513H58.457V79.0116H180.064V73.2513Z" fill="white"/>
<path d="M180.064 61.7307H58.457V67.491H180.064V61.7307Z" fill="white"/>
<path d="M180.064 50.2101H58.457V55.9704H180.064V50.2101Z" fill="white"/>
<path d="M180.064 38.6895H58.457V44.4498H180.064V38.6895Z" fill="white"/>
<path d="M123.209 30.15H115.324V175.297H123.209V30.15Z" fill="white"/>
<path d="M144.105 201.097V221.688C144.105 223.429 144.797 225.098 146.028 226.329C147.259 227.56 148.929 228.252 150.669 228.252H261.528V200.835C261.528 190.773 253.063 182.35 242.055 180.778H167.306C158.625 180.778 151.02 185.027 147.044 191.237C145.138 194.173 144.118 197.596 144.105 201.097Z" fill="url(#paint10_linear)"/>
<path d="M218.016 200.835V228.255H261.528V200.835C261.528 190.773 253.062 182.35 242.055 180.778C241.305 180.665 240.54 180.59 239.768 180.552C238.994 180.592 238.23 180.667 237.477 180.778C226.477 182.347 218.016 190.773 218.016 200.835Z" fill="url(#paint11_linear)"/>
<path d="M238.515 253.488H275.293C275.671 253.487 276.041 253.383 276.364 253.186C276.686 252.99 276.949 252.708 277.123 252.373C277.297 252.038 277.376 251.661 277.351 251.284C277.326 250.907 277.198 250.544 276.982 250.234L261.528 228.255H218.016L234.171 251.233C234.661 251.93 235.311 252.498 236.067 252.891C236.824 253.283 237.663 253.488 238.515 253.488Z" fill="#3AD75A"/>
<path opacity="0.26" d="M144.105 201.097V221.688C144.105 223.429 144.797 225.098 146.028 226.329C147.259 227.56 148.929 228.252 150.669 228.252H218.016V223.2C214.982 222.917 210.974 223.678 207.072 224.262C193.994 226.167 166.357 230.189 154.132 218.831C147.094 212.292 144.438 199.953 147.051 191.251C145.145 194.182 144.123 197.6 144.105 201.097Z" fill="#2A4C95"/>
<path d="M166.023 137.652V180.845H170.874V137.652C170.874 137.009 170.618 136.392 170.164 135.937C169.709 135.482 169.092 135.227 168.449 135.227C167.805 135.227 167.189 135.482 166.734 135.937C166.279 136.392 166.023 137.009 166.023 137.652Z" fill="#2A4C95"/>
<path d="M165.531 140.966V156.438C169.78 158.484 173.016 158.533 175.363 158.02C180.808 156.827 182.904 152.302 187.755 152.408C191.423 152.486 194.443 155.138 196.606 157.751C196.673 157.832 196.763 157.891 196.865 157.918C196.967 157.946 197.074 157.941 197.173 157.905C197.272 157.869 197.358 157.803 197.418 157.717C197.478 157.63 197.509 157.527 197.509 157.422V143.614C197.511 143.503 197.476 143.395 197.409 143.306C195.228 140.413 191.908 137.032 187.762 136.933C182.897 136.831 180.798 141.352 175.37 142.545C173.012 143.09 169.794 143.026 165.531 140.966Z" fill="url(#paint12_linear)"/>
<path d="M175.636 228.146H192.782V293.187C192.782 294.032 192.447 294.843 191.849 295.44C191.252 296.038 190.441 296.374 189.596 296.374H178.815C177.97 296.374 177.16 296.038 176.562 295.44C175.965 294.843 175.629 294.032 175.629 293.187V228.146H175.636Z" fill="url(#paint13_linear)"/>
<path opacity="0.1" d="M370.533 176.073V203.21C370.534 203.853 370.28 204.47 369.827 204.925C369.373 205.38 368.758 205.637 368.115 205.639H323.265C322.621 205.638 322.004 205.382 321.548 204.927C321.093 204.471 320.837 203.854 320.836 203.21V176.073C320.835 175.754 320.898 175.438 321.02 175.143C321.142 174.849 321.321 174.581 321.546 174.356C321.772 174.13 322.04 173.952 322.335 173.83C322.63 173.709 322.946 173.647 323.265 173.648H368.115C368.433 173.647 368.748 173.709 369.042 173.831C369.336 173.953 369.603 174.131 369.827 174.356C370.052 174.581 370.23 174.848 370.351 175.142C370.472 175.436 370.534 175.751 370.533 176.069V176.073Z" fill="#3AD75A"/>
<path d="M353.27 207.356C353.27 207.392 353.27 207.424 353.252 207.452C353.249 207.439 353.249 207.426 353.252 207.413L353.27 207.356Z" fill="#98CFF4"/>
<path d="M363.869 171.081V198.218C363.87 198.861 363.616 199.478 363.162 199.933C362.709 200.388 362.094 200.645 361.451 200.647H316.601C315.957 200.646 315.34 200.39 314.884 199.935C314.429 199.479 314.173 198.862 314.172 198.218V171.081C314.171 170.762 314.234 170.446 314.356 170.151C314.478 169.857 314.657 169.589 314.882 169.364C315.108 169.138 315.376 168.96 315.671 168.838C315.966 168.717 316.282 168.655 316.601 168.656H361.451C361.769 168.655 362.084 168.718 362.378 168.839C362.672 168.961 362.938 169.139 363.163 169.364C363.388 169.589 363.566 169.856 363.687 170.15C363.808 170.444 363.87 170.759 363.869 171.077V171.081Z" fill="#3AD75A"/>
<path opacity="0.26" d="M363.006 200.091C362.573 200.455 362.025 200.655 361.459 200.654H316.609C316.041 200.655 315.49 200.456 315.055 200.091L339.027 184.651L363.006 200.091Z" fill="#2A4C95"/>
<path d="M362.992 169.215L340.769 188.365C340.284 188.784 339.664 189.014 339.023 189.014C338.383 189.014 337.763 188.784 337.278 188.365L337.097 188.209L315.055 169.233C315.492 168.87 316.041 168.672 316.609 168.673H361.463C362.02 168.671 362.561 168.862 362.992 169.215Z" fill="#3AD75A"/>
<path d="M362.997 169.215L360.544 172.161L341.896 195.843C340.717 197.259 337.35 197.259 336.168 195.843L317.687 172.408L317.333 171.998L315.031 169.243L337.092 188.217C337.511 188.578 338.024 188.814 338.571 188.898C339.118 188.982 339.678 188.91 340.186 188.691C340.464 188.574 340.722 188.414 340.951 188.217L362.997 169.215Z" fill="#2C7742"/>
<path opacity="0.13" d="M331.169 272.196H305.777C305.489 272.196 305.207 272.116 304.961 271.966C304.716 271.815 304.517 271.599 304.387 271.343C304.257 271.086 304.201 270.798 304.224 270.511C304.247 270.225 304.35 269.95 304.52 269.718L306.556 266.914L307.331 265.851C307.435 265.706 307.524 265.551 307.596 265.388C307.706 265.124 307.769 264.844 307.784 264.559V255.396C307.775 252.439 308.899 249.589 310.924 247.434C312.185 246.096 313.771 245.106 315.527 244.563C316.364 244.309 317.23 244.165 318.105 244.134C318.228 244.134 318.356 244.134 318.48 244.134C318.604 244.134 318.731 244.134 318.855 244.134C319.712 244.162 320.562 244.302 321.383 244.552H321.443C321.525 244.573 321.605 244.599 321.684 244.63L321.871 244.694C321.925 244.694 321.978 244.729 322.031 244.754C322.834 245.056 323.596 245.457 324.3 245.947C325.813 247.009 327.045 248.422 327.892 250.065C328.739 251.707 329.176 253.531 329.165 255.379V264.425C329.164 264.934 329.325 265.43 329.625 265.841L331.813 268.85L332.443 269.714C332.613 269.948 332.714 270.224 332.736 270.512C332.757 270.8 332.699 271.089 332.567 271.346C332.435 271.603 332.235 271.818 331.988 271.968C331.741 272.118 331.458 272.197 331.169 272.196Z" fill="#3AD75A"/>
<path d="M314.21 277.553C316.931 277.553 319.138 275.346 319.138 272.624C319.138 269.902 316.931 267.696 314.21 267.696C311.488 267.696 309.281 269.902 309.281 272.624C309.281 275.346 311.488 277.553 314.21 277.553Z" fill="#FF851A"/>
<path d="M326.903 272.196H301.511C301.223 272.196 300.941 272.116 300.696 271.966C300.45 271.815 300.252 271.599 300.122 271.343C299.991 271.086 299.935 270.798 299.958 270.511C299.982 270.225 300.084 269.95 300.254 269.718L302.29 266.914L303.065 265.851C303.169 265.706 303.258 265.551 303.331 265.388C303.44 265.124 303.504 264.844 303.518 264.559V255.396C303.509 252.439 304.633 249.589 306.659 247.434C307.919 246.096 309.505 245.106 311.261 244.563C312.098 244.309 312.965 244.165 313.839 244.134C313.963 244.134 314.09 244.134 314.214 244.134C314.338 244.134 314.466 244.134 314.589 244.134C315.447 244.162 316.297 244.302 317.117 244.552H317.177C317.259 244.573 317.34 244.599 317.418 244.63L317.606 244.694C317.659 244.694 317.712 244.729 317.765 244.754C318.568 245.056 319.331 245.457 320.035 245.947C321.547 247.009 322.779 248.422 323.626 250.065C324.474 251.707 324.91 253.531 324.899 255.379V264.425C324.898 264.934 325.059 265.43 325.359 265.841L327.547 268.85L328.178 269.714C328.347 269.948 328.448 270.224 328.47 270.512C328.492 270.8 328.434 271.089 328.302 271.346C328.17 271.603 327.969 271.818 327.722 271.968C327.476 272.118 327.192 272.197 326.903 272.196Z" fill="url(#paint14_linear)"/>
<path d="M317.111 242.003V244.538C315.201 243.962 313.162 243.962 311.252 244.538V241.989C311.238 241.596 311.304 241.203 311.445 240.836C311.586 240.469 311.8 240.133 312.073 239.85C312.346 239.567 312.674 239.342 313.036 239.188C313.398 239.035 313.788 238.956 314.181 238.956C314.575 238.956 314.965 239.035 315.327 239.188C315.689 239.342 316.017 239.567 316.29 239.85C316.563 240.133 316.777 240.469 316.918 240.836C317.059 241.203 317.125 241.596 317.111 241.989V242.003Z" fill="#FF851A"/>
<path d="M327.536 268.85C327.03 268.645 326.414 268.163 325.33 267.933C320.526 266.903 315.991 267.629 315.821 267.052C315.668 266.538 319.715 266.475 321.606 264.506C323.854 262.148 324.201 248.482 317.106 244.542H317.166C317.315 244.588 317.453 244.63 317.594 244.683C317.647 244.683 317.701 244.719 317.754 244.743C318.557 245.045 319.319 245.446 320.023 245.936C321.535 246.999 322.768 248.412 323.615 250.054C324.462 251.697 324.899 253.52 324.888 255.368V264.414C324.887 264.923 325.048 265.419 325.348 265.83L327.536 268.85Z" fill="#FF851A"/>
<path opacity="0.39" d="M363.003 183.373C368.499 183.373 372.955 178.917 372.955 173.421C372.955 167.925 368.499 163.469 363.003 163.469C357.507 163.469 353.051 167.925 353.051 173.421C353.051 178.917 357.507 183.373 363.003 183.373Z" fill="#2A4C95"/>
<path d="M363.007 180.385C368.505 180.385 372.962 175.928 372.962 170.429C372.962 164.931 368.505 160.474 363.007 160.474C357.508 160.474 353.051 164.931 353.051 170.429C353.051 175.928 357.508 180.385 363.007 180.385Z" fill="url(#paint15_linear)"/>
<path d="M368.163 169.077C368.2 169.735 368.004 170.386 367.61 170.914L367.387 171.18L363.394 175.91C363.348 175.964 363.291 176.007 363.227 176.037C363.162 176.066 363.093 176.081 363.022 176.081C362.951 176.081 362.881 176.066 362.817 176.037C362.753 176.007 362.696 175.964 362.65 175.91L358.727 171.265L358.674 171.212L358.395 170.883C358.443 169.73 358.881 168.627 359.637 167.756C360.394 166.884 361.424 166.295 362.559 166.085C363.694 165.876 364.866 166.057 365.884 166.601C366.902 167.144 367.705 168.017 368.163 169.077Z" fill="white"/>
<g opacity="0.09">
<path opacity="0.09" d="M270.135 154.239C280.248 154.239 288.447 146.041 288.447 135.928C288.447 125.815 280.248 117.617 270.135 117.617C260.022 117.617 251.824 125.815 251.824 135.928C251.824 146.041 260.022 154.239 270.135 154.239Z" fill="#3AD75A"/>
</g>
<path d="M261.647 154.71C271.76 154.71 279.958 146.512 279.958 136.399C279.958 126.286 271.76 118.087 261.647 118.087C251.534 118.087 243.336 126.286 243.336 136.399C243.336 146.512 251.534 154.71 261.647 154.71Z" fill="url(#paint16_linear)"/>
<path d="M251.816 149.243C251.816 149.243 254.698 128.673 271.423 125.214C271.423 125.214 273.643 131.86 268.347 132.709C263.638 133.467 263.156 134.175 263.493 135.255C263.673 135.832 265.019 135.74 265.89 135.492C265.955 135.483 266.022 135.493 266.082 135.52C266.143 135.547 266.194 135.591 266.231 135.646C266.268 135.701 266.288 135.765 266.291 135.831C266.293 135.897 266.277 135.963 266.244 136.02C265.723 136.7 264.877 137.79 261.319 138.59C260.087 138.908 258.977 139.586 258.133 140.537C256.83 141.936 254.794 144.506 251.816 149.243Z" fill="white"/>
<defs>
<linearGradient id="paint0_linear" x1="246.858" y1="-39.1967" x2="246.858" y2="424.845" gradientUnits="userSpaceOnUse">
<stop stop-color="white"/>
<stop offset="0.42" stop-color="#9AFFAF"/>
<stop offset="1" stop-color="#21FB4E"/>
</linearGradient>
<linearGradient id="paint1_linear" x1="242.134" y1="139.571" x2="297.184" y2="81.1186" gradientUnits="userSpaceOnUse">
<stop stop-color="#FF851A"/>
<stop offset="0.4" stop-color="#FF9A23"/>
<stop offset="1" stop-color="#FFB52F"/>
</linearGradient>
<linearGradient id="paint2_linear" x1="136898" y1="23899.5" x2="144006" y2="18076.1" gradientUnits="userSpaceOnUse">
<stop stop-color="#FF851A"/>
<stop offset="0.4" stop-color="#FF9A23"/>
<stop offset="1" stop-color="#FFB52F"/>
</linearGradient>
<linearGradient id="paint3_linear" x1="92616.6" y1="40780.3" x2="98225.4" y2="34951.5" gradientUnits="userSpaceOnUse">
<stop stop-color="#FF851A"/>
<stop offset="0.4" stop-color="#FF9A23"/>
<stop offset="1" stop-color="#FFB52F"/>
</linearGradient>
<linearGradient id="paint4_linear" x1="380135" y1="44180.8" x2="383694" y2="38746.2" gradientUnits="userSpaceOnUse">
<stop stop-color="#FF851A"/>
<stop offset="0.4" stop-color="#FF9A23"/>
<stop offset="1" stop-color="#FFB52F"/>
</linearGradient>
<linearGradient id="paint5_linear" x1="74.7118" y1="242.127" x2="27.3017" y2="242.127" gradientUnits="userSpaceOnUse">
<stop stop-color="#61D2A7"/>
<stop offset="0.48" stop-color="#4EB98E"/>
<stop offset="1" stop-color="#36996E"/>
</linearGradient>
<linearGradient id="paint6_linear" x1="26024.5" y1="39437.3" x2="36093.4" y2="39437.3" gradientUnits="userSpaceOnUse">
<stop stop-color="#31C850"/>
<stop offset="1" stop-color="#219639"/>
</linearGradient>
<linearGradient id="paint7_linear" x1="119.268" y1="170.302" x2="119.268" y2="-132.47" gradientUnits="userSpaceOnUse">
<stop stop-color="white"/>
<stop offset="0.16" stop-color="#D4EAFE"/>
<stop offset="0.46" stop-color="#85C4FD"/>
<stop offset="0.71" stop-color="#4CA9FC"/>
<stop offset="0.9" stop-color="#2897FB"/>
<stop offset="1" stop-color="#1B91FB"/>
</linearGradient>
<linearGradient id="paint8_linear" x1="4115.44" y1="137867" x2="4115.44" y2="19315.1" gradientUnits="userSpaceOnUse">
<stop stop-color="white"/>
<stop offset="0.16" stop-color="#D4EAFE"/>
<stop offset="0.46" stop-color="#85C4FD"/>
<stop offset="0.71" stop-color="#4CA9FC"/>
<stop offset="0.9" stop-color="#2897FB"/>
<stop offset="1" stop-color="#1B91FB"/>
</linearGradient>
<linearGradient id="paint9_linear" x1="3559.62" y1="143431" x2="3559.62" y2="83925.4" gradientUnits="userSpaceOnUse">
<stop stop-color="white"/>
<stop offset="0.16" stop-color="#D4EAFE"/>
<stop offset="0.46" stop-color="#85C4FD"/>
<stop offset="0.71" stop-color="#4CA9FC"/>
<stop offset="0.9" stop-color="#2897FB"/>
<stop offset="1" stop-color="#1B91FB"/>
</linearGradient>
<linearGradient id="paint10_linear" x1="100554" y1="51001.5" x2="139499" y2="51001.5" gradientUnits="userSpaceOnUse">
<stop stop-color="#31C850"/>
<stop offset="1" stop-color="#219639"/>
</linearGradient>
<linearGradient id="paint11_linear" x1="-431168" y1="54239.1" x2="-440219" y2="51332" gradientUnits="userSpaceOnUse">
<stop stop-color="#3CD15B"/>
<stop offset="1" stop-color="#2C7742"/>
</linearGradient>
<linearGradient id="paint12_linear" x1="197.519" y1="147.622" x2="165.531" y2="147.622" gradientUnits="userSpaceOnUse">
<stop stop-color="#FFB52F"/>
<stop offset="0.6" stop-color="#FF9A23"/>
<stop offset="1" stop-color="#FF851A"/>
</linearGradient>
<linearGradient id="paint13_linear" x1="-173153" y1="93557.9" x2="-173153" y2="75703.3" gradientUnits="userSpaceOnUse">
<stop stop-color="#31C850"/>
<stop offset="1" stop-color="#2C7742"/>
</linearGradient>
<linearGradient id="paint14_linear" x1="39619.8" y1="34535.1" x2="37819.5" y2="34535.1" gradientUnits="userSpaceOnUse">
<stop stop-color="#FF851A"/>
<stop offset="0.4" stop-color="#FF9A23"/>
<stop offset="1" stop-color="#FFB52F"/>
</linearGradient>
<linearGradient id="paint15_linear" x1="29701.4" y1="20540.3" x2="29701.4" y2="17919.5" gradientUnits="userSpaceOnUse">
<stop stop-color="#FF851A"/>
<stop offset="0.4" stop-color="#FF9A23"/>
<stop offset="1" stop-color="#FFB52F"/>
</linearGradient>
<linearGradient id="paint16_linear" x1="41842.6" y1="32294.5" x2="45630.8" y2="32294.5" gradientUnits="userSpaceOnUse">
<stop stop-color="#61D2A7"/>
<stop offset="0.48" stop-color="#4EB98E"/>
<stop offset="1" stop-color="#36996E"/>
</linearGradient>
</defs>
</svg>
