<svg xmlns="http://www.w3.org/2000/svg" width="390" height="130" fill="none" viewBox="0 0 390 130"><mask id="mask0" width="390" height="130" x="0" y="0" mask-type="alpha" maskUnits="userSpaceOnUse"><path fill="url(#paint0_linear)" d="M0 4C0 1.79086 1.79086 0 4 0H386C388.209 0 390 1.79086 390 4V130H0V4Z"/></mask><g mask="url(#mask0)"><path fill="url(#paint1_linear)" d="M0 4C0 1.79086 1.79086 0 4 0H386C388.209 0 390 1.79086 390 4V130H0V4Z"/><rect width="282.11" height="132.622" x="164.129" y="139.016" fill="#0C2E16" opacity=".3" transform="rotate(-20.9049 164.129 139.016)"/><rect width="320.075" height="150.47" x="257.994" y="-62.024" fill="#224D83" opacity=".3" transform="rotate(21.8721 257.994 -62.0237)"/><rect width="282.11" height="155.771" x="570.002" y="-52.436" fill="#5C05C7" opacity=".3" transform="rotate(133.672 570.002 -52.4361)"/></g><defs><linearGradient id="paint0_linear" x1="408.105" x2="-141.47" y1="117.163" y2="190.471" gradientUnits="userSpaceOnUse"><stop offset=".036" stop-color="#7D84AF"/><stop offset=".797" stop-color="#7D84AF"/></linearGradient><linearGradient id="paint1_linear" x1="408.105" x2="-141.47" y1="117.163" y2="190.471" gradientUnits="userSpaceOnUse"><stop offset=".036" stop-color="#7D84AF"/><stop offset=".797" stop-color="#7D84AF"/></linearGradient></defs></svg>