<svg width="390" height="130" viewBox="0 0 390 130" fill="none" xmlns="http://www.w3.org/2000/svg">
<mask id="mask0" mask-type="alpha" maskUnits="userSpaceOnUse" x="0" y="0" width="390" height="130">
<path d="M0 4C0 1.79086 1.79086 0 4 0H386C388.209 0 390 1.79086 390 4V130H0V4Z" fill="url(#paint0_linear)"/>
</mask>
<g mask="url(#mask0)">
<path d="M0 4C0 1.79086 1.79086 0 4 0H386C388.209 0 390 1.79086 390 4V130H0V4Z" fill="url(#paint1_linear)"/>
<rect opacity="0.3" x="164.129" y="139.016" width="282.11" height="132.622" transform="rotate(-20.9049 164.129 139.016)" fill="#0C2E16"/>
<rect opacity="0.3" x="257.994" y="-62.0237" width="320.075" height="150.47" transform="rotate(21.8721 257.994 -62.0237)" fill="#224D83"/>
<rect opacity="0.3" x="570.002" y="-52.4361" width="282.11" height="155.771" transform="rotate(133.672 570.002 -52.4361)" fill="#5C05C7"/>
</g>
<defs>
<linearGradient id="paint0_linear" x1="408.105" y1="117.163" x2="-141.47" y2="190.471" gradientUnits="userSpaceOnUse">
<stop offset="0.0364583" stop-color="#7D84AF"/>
<stop offset="0.796875" stop-color="#7D84AF"/>
</linearGradient>
<linearGradient id="paint1_linear" x1="408.105" y1="117.163" x2="-141.47" y2="190.471" gradientUnits="userSpaceOnUse">
<stop offset="0.0364583" stop-color="#7D84AF"/>
<stop offset="0.796875" stop-color="#7D84AF"/>
</linearGradient>
</defs>
</svg>
