<svg xmlns="http://www.w3.org/2000/svg" width="1440" height="480" fill="none" viewBox="0 0 1440 480"><rect width="1440" height="480" fill="#07834E"/><g clip-path="url(#clip0)"><path fill="#fff" fill-rule="evenodd" d="M152.727 -152.941C152.727 -282.891 250.41 -388.235 370.909 -388.235C491.407 -388.235 589.091 -282.891 589.091 -152.941C589.091 -22.9917 491.407 82.353 370.909 82.353H152.727V-152.941ZM1363.64 792.941V1263.53C1363.64 1393.48 1265.95 1498.82 1145.45 1498.82V1263.53H927.272V792.941C927.272 662.992 1024.96 557.647 1145.45 557.647H1363.64V792.941ZM152.727 317.647V788.235C152.727 918.185 55.0437 1023.53 -65.4549 1023.53V788.235H-283.637V317.647C-283.637 187.698 -185.953 82.353 -65.4549 82.353H152.727V317.647ZM1363.64 322.353C1363.64 192.404 1461.32 87.0589 1581.82 87.0589C1702.32 87.0589 1800 192.404 1800 322.353C1800 452.302 1702.32 557.647 1581.82 557.647H1363.64V322.353Z" clip-rule="evenodd" opacity=".06"/></g><defs><clipPath id="clip0"><rect width="1440" height="480" fill="#fff"/></clipPath></defs></svg>