<svg width="1442" height="719" viewBox="0 0 1442 719" fill="none" xmlns="http://www.w3.org/2000/svg">
<path d="M1001.59 703.205C1250.99 735.899 1380.62 712.726 1440 680.032V443H0V688.206L267.216 639.164C623.505 593.393 764.061 662.338 1001.59 703.205Z" fill="#07834E"/>
<path d="M1442 0H0V443H1442V0Z" fill="#07834E"/>
<g clip-path="url(#clip0)">
<path opacity="0.06" fill-rule="evenodd" clip-rule="evenodd" d="M99.3636 -160.706C99.3636 -290.655 197.047 -396 317.545 -396C438.044 -396 535.727 -290.655 535.727 -160.706C535.727 -30.7565 438.044 74.5882 317.545 74.5882H99.3636V-160.706ZM1310.27 785.176V1255.76C1310.27 1385.71 1212.59 1491.06 1092.09 1491.06V1255.76H873.909V785.176C873.909 655.227 971.592 549.882 1092.09 549.882H1310.27V785.176ZM99.3636 309.882V780.47C99.3636 910.42 1.68039 1015.76 -118.818 1015.76V780.47H-337V309.882C-337 179.933 -239.317 74.5882 -118.818 74.5882H99.3636V309.882ZM1310.27 314.588C1310.27 184.639 1407.96 79.2941 1528.45 79.2941C1648.95 79.2941 1746.64 184.639 1746.64 314.588C1746.64 444.538 1648.95 549.882 1528.45 549.882H1310.27V314.588Z" fill="white"/>
</g>
<defs>
<clipPath id="clip0">
<rect width="1440" height="719" fill="white"/>
</clipPath>
</defs>
</svg>
