<svg xmlns="http://www.w3.org/2000/svg" width="1440" height="719" fill="none" viewBox="0 0 1440 719"><g clip-path="url(#clip0)"><path fill="#07834E" d="M0 0H1440V614H0V0Z"/><path fill="#07834E" d="M1001.59 703.108C1250.99 736.003 1380.62 712.687 1440 679.791V614H0V688.016L267.216 638.672C623.505 592.618 764.061 661.988 1001.59 703.108Z"/><path fill="#fff" fill-rule="evenodd" d="M99.3636 -160.706C99.3636 -290.655 197.047 -396 317.545 -396C438.044 -396 535.727 -290.655 535.727 -160.706C535.727 -30.7565 438.044 74.5882 317.545 74.5882H99.3636V-160.706ZM1310.27 785.176V1255.76C1310.27 1385.71 1212.59 1491.06 1092.09 1491.06V1255.76H873.909V785.176C873.909 655.227 971.592 549.882 1092.09 549.882H1310.27V785.176ZM99.3636 309.882V780.47C99.3636 910.42 1.68039 1015.76 -118.818 1015.76V780.47H-337V309.882C-337 179.933 -239.317 74.5882 -118.818 74.5882H99.3636V309.882ZM1310.27 314.588C1310.27 184.639 1407.96 79.2941 1528.45 79.2941C1648.95 79.2941 1746.64 184.639 1746.64 314.588C1746.64 444.538 1648.95 549.882 1528.45 549.882H1310.27V314.588Z" clip-rule="evenodd" opacity=".06"/></g><defs><clipPath id="clip0"><rect width="1440" height="719" fill="#fff"/></clipPath></defs></svg>