<svg width="106" height="24" viewBox="0 0 106 24" fill="none" xmlns="http://www.w3.org/2000/svg">
<rect width="106" height="24" rx="2" fill="#FD5262" fill-opacity="0.2"/>
<circle cx="18" cy="12" r="3" fill="#FD5262"/>
<path d="M29.22 16H28.032V7.504H29.22V16ZM32.4498 10.312C32.4658 10.456 32.4778 10.62 32.4858 10.804C32.4938 10.98 32.4978 11.128 32.4978 11.248H32.5338C32.6058 11.096 32.7018 10.956 32.8218 10.828C32.9498 10.692 33.0938 10.576 33.2538 10.48C33.4138 10.376 33.5898 10.296 33.7818 10.24C33.9738 10.184 34.1738 10.156 34.3818 10.156C34.7498 10.156 35.0658 10.22 35.3298 10.348C35.5938 10.468 35.8138 10.632 35.9898 10.84C36.1658 11.048 36.2938 11.292 36.3738 11.572C36.4618 11.852 36.5058 12.152 36.5058 12.472V16H35.3778V12.844C35.3778 12.612 35.3578 12.392 35.3178 12.184C35.2858 11.976 35.2218 11.792 35.1258 11.632C35.0298 11.472 34.8978 11.344 34.7298 11.248C34.5618 11.152 34.3458 11.104 34.0818 11.104C33.6338 11.104 33.2658 11.276 32.9778 11.62C32.6978 11.956 32.5578 12.408 32.5578 12.976V16H31.4298V11.536C31.4298 11.384 31.4258 11.188 31.4178 10.948C31.4098 10.708 31.3978 10.496 31.3818 10.312H32.4498ZM42.5982 11.752C42.4782 11.568 42.2982 11.416 42.0582 11.296C41.8182 11.168 41.5622 11.104 41.2902 11.104C40.9942 11.104 40.7302 11.16 40.4982 11.272C40.2742 11.384 40.0822 11.536 39.9222 11.728C39.7622 11.912 39.6382 12.128 39.5502 12.376C39.4702 12.624 39.4302 12.884 39.4302 13.156C39.4302 13.428 39.4702 13.688 39.5502 13.936C39.6382 14.184 39.7622 14.404 39.9222 14.596C40.0822 14.78 40.2782 14.928 40.5102 15.04C40.7422 15.152 41.0062 15.208 41.3022 15.208C41.5902 15.208 41.8502 15.152 42.0822 15.04C42.3222 14.928 42.5182 14.776 42.6702 14.584L43.4262 15.268C43.1862 15.548 42.8862 15.768 42.5262 15.928C42.1662 16.08 41.7582 16.156 41.3022 16.156C40.8622 16.156 40.4542 16.084 40.0782 15.94C39.7102 15.796 39.3902 15.596 39.1182 15.34C38.8462 15.076 38.6302 14.76 38.4702 14.392C38.3182 14.024 38.2422 13.612 38.2422 13.156C38.2422 12.708 38.3182 12.3 38.4702 11.932C38.6222 11.564 38.8342 11.248 39.1062 10.984C39.3782 10.72 39.6982 10.516 40.0662 10.372C40.4422 10.228 40.8462 10.156 41.2782 10.156C41.6782 10.156 42.0742 10.236 42.4662 10.396C42.8662 10.556 43.1822 10.788 43.4142 11.092L42.5982 11.752ZM50.5039 13.144C50.5039 13.584 50.4239 13.988 50.2639 14.356C50.1119 14.724 49.8959 15.044 49.6159 15.316C49.3439 15.58 49.0199 15.788 48.6439 15.94C48.2679 16.084 47.8639 16.156 47.4319 16.156C46.9999 16.156 46.5959 16.084 46.2199 15.94C45.8439 15.788 45.5199 15.58 45.2479 15.316C44.9759 15.044 44.7599 14.724 44.5999 14.356C44.4479 13.988 44.3719 13.584 44.3719 13.144C44.3719 12.704 44.4479 12.304 44.5999 11.944C44.7599 11.576 44.9759 11.26 45.2479 10.996C45.5199 10.732 45.8439 10.528 46.2199 10.384C46.5959 10.232 46.9999 10.156 47.4319 10.156C47.8639 10.156 48.2679 10.232 48.6439 10.384C49.0199 10.528 49.3439 10.732 49.6159 10.996C49.8959 11.26 50.1119 11.576 50.2639 11.944C50.4239 12.304 50.5039 12.704 50.5039 13.144ZM49.3279 13.144C49.3279 12.872 49.2839 12.612 49.1959 12.364C49.1159 12.116 48.9959 11.9 48.8359 11.716C48.6759 11.524 48.4759 11.372 48.2359 11.26C48.0039 11.148 47.7359 11.092 47.4319 11.092C47.1279 11.092 46.8559 11.148 46.6159 11.26C46.3839 11.372 46.1879 11.524 46.0279 11.716C45.8679 11.9 45.7439 12.116 45.6559 12.364C45.5759 12.612 45.5359 12.872 45.5359 13.144C45.5359 13.416 45.5759 13.676 45.6559 13.924C45.7439 14.172 45.8679 14.392 46.0279 14.584C46.1879 14.776 46.3839 14.928 46.6159 15.04C46.8559 15.152 47.1279 15.208 47.4319 15.208C47.7359 15.208 48.0039 15.152 48.2359 15.04C48.4759 14.928 48.6759 14.776 48.8359 14.584C48.9959 14.392 49.1159 14.172 49.1959 13.924C49.2839 13.676 49.3279 13.416 49.3279 13.144ZM53.3721 11.248C53.5161 10.944 53.7441 10.688 54.0561 10.48C54.3761 10.264 54.7521 10.156 55.1841 10.156C55.5681 10.156 55.9121 10.244 56.2161 10.42C56.5281 10.596 56.7721 10.888 56.9481 11.296C57.1401 10.928 57.4081 10.648 57.7521 10.456C58.0961 10.256 58.4721 10.156 58.8801 10.156C59.2481 10.156 59.5641 10.22 59.8281 10.348C60.0921 10.468 60.3121 10.632 60.4881 10.84C60.6641 11.048 60.7921 11.292 60.8721 11.572C60.9601 11.852 61.0041 12.152 61.0041 12.472V16H59.8761V12.844C59.8761 12.612 59.8561 12.392 59.8161 12.184C59.7761 11.976 59.7081 11.792 59.6121 11.632C59.5161 11.472 59.3881 11.344 59.2281 11.248C59.0681 11.152 58.8641 11.104 58.6161 11.104C58.3601 11.104 58.1401 11.16 57.9561 11.272C57.7721 11.376 57.6201 11.516 57.5001 11.692C57.3881 11.86 57.3041 12.052 57.2481 12.268C57.2001 12.484 57.1761 12.704 57.1761 12.928V16H56.0481V12.616C56.0481 12.392 56.0281 12.188 55.9881 12.004C55.9481 11.82 55.8801 11.664 55.7841 11.536C55.6881 11.4 55.5641 11.296 55.4121 11.224C55.2601 11.144 55.0721 11.104 54.8481 11.104C54.4321 11.104 54.0841 11.276 53.8041 11.62C53.5321 11.956 53.3961 12.408 53.3961 12.976V16H52.2681V11.536C52.2681 11.384 52.2641 11.188 52.2561 10.948C52.2481 10.708 52.2361 10.496 52.2201 10.312H53.2881C53.3041 10.456 53.3161 10.62 53.3241 10.804C53.3321 10.98 53.3361 11.128 53.3361 11.248H53.3721ZM64.2367 18.88H63.1087V10.312H64.2127V11.2H64.2487C64.4327 10.896 64.7007 10.648 65.0527 10.456C65.4127 10.256 65.8287 10.156 66.3007 10.156C66.7247 10.156 67.1087 10.232 67.4527 10.384C67.8047 10.536 68.1047 10.748 68.3527 11.02C68.6087 11.292 68.8047 11.612 68.9407 11.98C69.0767 12.34 69.1447 12.728 69.1447 13.144C69.1447 13.56 69.0767 13.952 68.9407 14.32C68.8047 14.688 68.6127 15.008 68.3647 15.28C68.1167 15.552 67.8167 15.768 67.4647 15.928C67.1127 16.08 66.7167 16.156 66.2767 16.156C65.8687 16.156 65.4847 16.068 65.1247 15.892C64.7647 15.716 64.4807 15.468 64.2727 15.148H64.2367V18.88ZM67.9807 13.144C67.9807 12.88 67.9407 12.624 67.8607 12.376C67.7807 12.128 67.6607 11.908 67.5007 11.716C67.3407 11.524 67.1407 11.372 66.9007 11.26C66.6687 11.148 66.3967 11.092 66.0847 11.092C65.7967 11.092 65.5327 11.148 65.2927 11.26C65.0607 11.372 64.8607 11.524 64.6927 11.716C64.5247 11.908 64.3927 12.128 64.2967 12.376C64.2087 12.624 64.1647 12.884 64.1647 13.156C64.1647 13.428 64.2087 13.688 64.2967 13.936C64.3927 14.184 64.5247 14.404 64.6927 14.596C64.8607 14.78 65.0607 14.928 65.2927 15.04C65.5327 15.152 65.7967 15.208 66.0847 15.208C66.3967 15.208 66.6687 15.152 66.9007 15.04C67.1407 14.92 67.3407 14.764 67.5007 14.572C67.6607 14.38 67.7807 14.16 67.8607 13.912C67.9407 13.664 67.9807 13.408 67.9807 13.144ZM72.0662 16H70.9382V6.928H72.0662V16ZM78.3954 12.652C78.3874 12.428 78.3474 12.22 78.2754 12.028C78.2114 11.828 78.1114 11.656 77.9754 11.512C77.8474 11.368 77.6834 11.256 77.4834 11.176C77.2914 11.088 77.0634 11.044 76.7994 11.044C76.5594 11.044 76.3314 11.088 76.1154 11.176C75.9074 11.256 75.7234 11.368 75.5634 11.512C75.4114 11.656 75.2834 11.828 75.1794 12.028C75.0834 12.22 75.0274 12.428 75.0114 12.652H78.3954ZM79.5354 13.108C79.5354 13.172 79.5354 13.236 79.5354 13.3C79.5354 13.364 79.5314 13.428 79.5234 13.492H75.0114C75.0194 13.732 75.0714 13.96 75.1674 14.176C75.2714 14.384 75.4074 14.568 75.5754 14.728C75.7434 14.88 75.9354 15 76.1514 15.088C76.3754 15.176 76.6114 15.22 76.8594 15.22C77.2434 15.22 77.5754 15.136 77.8554 14.968C78.1354 14.8 78.3554 14.596 78.5154 14.356L79.3074 14.992C79.0034 15.392 78.6434 15.688 78.2274 15.88C77.8194 16.064 77.3634 16.156 76.8594 16.156C76.4274 16.156 76.0274 16.084 75.6594 15.94C75.2914 15.796 74.9754 15.596 74.7114 15.34C74.4474 15.076 74.2394 14.76 74.0874 14.392C73.9354 14.024 73.8594 13.616 73.8594 13.168C73.8594 12.728 73.9314 12.324 74.0754 11.956C74.2274 11.58 74.4354 11.26 74.6994 10.996C74.9634 10.732 75.2754 10.528 75.6354 10.384C75.9954 10.232 76.3834 10.156 76.7994 10.156C77.2154 10.156 77.5914 10.224 77.9274 10.36C78.2714 10.496 78.5594 10.692 78.7914 10.948C79.0314 11.204 79.2154 11.516 79.3434 11.884C79.4714 12.244 79.5354 12.652 79.5354 13.108ZM84.0943 11.236H82.5823V14.2C82.5823 14.544 82.6463 14.792 82.7743 14.944C82.9023 15.088 83.1063 15.16 83.3863 15.16C83.4903 15.16 83.6023 15.148 83.7223 15.124C83.8423 15.1 83.9503 15.064 84.0463 15.016L84.0823 15.94C83.9463 15.988 83.7943 16.024 83.6263 16.048C83.4663 16.08 83.2983 16.096 83.1223 16.096C82.5863 16.096 82.1743 15.948 81.8863 15.652C81.6063 15.356 81.4663 14.912 81.4663 14.32V11.236H80.3743V10.312H81.4663V8.68H82.5823V10.312H84.0943V11.236ZM89.6235 12.652C89.6155 12.428 89.5755 12.22 89.5035 12.028C89.4395 11.828 89.3395 11.656 89.2035 11.512C89.0755 11.368 88.9115 11.256 88.7115 11.176C88.5195 11.088 88.2915 11.044 88.0275 11.044C87.7875 11.044 87.5595 11.088 87.3435 11.176C87.1355 11.256 86.9515 11.368 86.7915 11.512C86.6395 11.656 86.5115 11.828 86.4075 12.028C86.3115 12.22 86.2555 12.428 86.2395 12.652H89.6235ZM90.7635 13.108C90.7635 13.172 90.7635 13.236 90.7635 13.3C90.7635 13.364 90.7595 13.428 90.7515 13.492H86.2395C86.2475 13.732 86.2995 13.96 86.3955 14.176C86.4995 14.384 86.6355 14.568 86.8035 14.728C86.9715 14.88 87.1635 15 87.3795 15.088C87.6035 15.176 87.8395 15.22 88.0875 15.22C88.4715 15.22 88.8035 15.136 89.0835 14.968C89.3635 14.8 89.5835 14.596 89.7435 14.356L90.5355 14.992C90.2315 15.392 89.8715 15.688 89.4555 15.88C89.0475 16.064 88.5915 16.156 88.0875 16.156C87.6555 16.156 87.2555 16.084 86.8875 15.94C86.5195 15.796 86.2035 15.596 85.9395 15.34C85.6755 15.076 85.4675 14.76 85.3155 14.392C85.1635 14.024 85.0875 13.616 85.0875 13.168C85.0875 12.728 85.1595 12.324 85.3035 11.956C85.4555 11.58 85.6635 11.26 85.9275 10.996C86.1915 10.732 86.5035 10.528 86.8635 10.384C87.2235 10.232 87.6115 10.156 88.0275 10.156C88.4435 10.156 88.8195 10.224 89.1555 10.36C89.4995 10.496 89.7875 10.692 90.0195 10.948C90.2595 11.204 90.4435 11.516 90.5715 11.884C90.6995 12.244 90.7635 12.652 90.7635 13.108Z" fill="#FD5262"/>
</svg>
