<svg width="390" height="130" viewBox="0 0 390 130" fill="none" xmlns="http://www.w3.org/2000/svg">
<mask id="mask0" mask-type="alpha" maskUnits="userSpaceOnUse" x="0" y="0" width="390" height="130">
<path d="M0 4C0 1.79086 1.79086 0 4 0H386C388.209 0 390 1.79086 390 4V130H0V4Z" fill="url(#paint0_linear)"/>
</mask>
<g mask="url(#mask0)">
<path d="M0 4C0 1.79086 1.79086 0 4 0H386C388.209 0 390 1.79086 390 4V130H0V4Z" fill="url(#paint1_linear)"/>
<g style="mix-blend-mode:darken">
<rect x="328.156" y="-10.656" width="282.11" height="132.622" transform="rotate(35.0459 328.156 -10.656)" fill="#2C7742"/>
</g>
<g style="mix-blend-mode:overlay">
<rect x="300.25" y="-48.5166" width="335.903" height="132.622" transform="rotate(9.03215 300.25 -48.5166)" fill="#979797"/>
</g>
<g style="mix-blend-mode:soft-light">
<rect x="633.57" y="-37.481" width="282.11" height="155.771" transform="rotate(143.687 633.57 -37.481)" fill="#31C851"/>
</g>
</g>
<defs>
<linearGradient id="paint0_linear" x1="408.105" y1="117.163" x2="-141.47" y2="190.471" gradientUnits="userSpaceOnUse">
<stop offset="0.0364583" stop-color="#07834E"/>
<stop offset="0.796875" stop-color="#26B14F"/>
</linearGradient>
<linearGradient id="paint1_linear" x1="408.105" y1="117.163" x2="-141.47" y2="190.471" gradientUnits="userSpaceOnUse">
<stop offset="0.0364583" stop-color="#07834E"/>
<stop offset="0.796875" stop-color="#26B14F"/>
</linearGradient>
</defs>
</svg>
