<svg xmlns="http://www.w3.org/2000/svg" width="400" height="188" fill="none" viewBox="0 0 400 188"><path fill="#EEE" fill-rule="evenodd" d="M85.1852 160.087H253.704C254.657 160.087 255.587 159.984 256.481 159.789C257.376 159.984 258.306 160.087 259.259 160.087H355.556C362.715 160.087 368.518 154.295 368.518 147.15C368.518 140.006 362.715 134.214 355.556 134.214H344.444C337.285 134.214 331.481 128.422 331.481 121.277C331.481 114.133 337.285 108.341 344.444 108.341H379.63C386.789 108.341 392.593 102.549 392.593 95.4041C392.593 88.2594 386.789 82.4675 379.63 82.4675H338.889C346.048 82.4675 351.852 76.6756 351.852 69.5309C351.852 62.3863 346.048 56.5944 338.889 56.5944H220.37C227.53 56.5944 233.333 50.8025 233.333 43.6578C233.333 36.5131 227.53 30.7212 220.37 30.7212H114.815C107.656 30.7212 101.852 36.5131 101.852 43.6578C101.852 50.8025 107.656 56.5944 114.815 56.5944H40.7407C33.5815 56.5944 27.7778 62.3863 27.7778 69.5309C27.7778 76.6756 33.5815 82.4675 40.7407 82.4675H87.037C94.1963 82.4675 100 88.2594 100 95.4041C100 102.549 94.1963 108.341 87.037 108.341H12.963C5.80372 108.341 0 114.133 0 121.277C0 128.422 5.80372 134.214 12.963 134.214H85.1852C78.0259 134.214 72.2222 140.006 72.2222 147.15C72.2222 154.295 78.0259 160.087 85.1852 160.087ZM400 147.151C400 154.296 394.196 160.088 387.037 160.088C379.878 160.088 374.074 154.296 374.074 147.151C374.074 140.006 379.878 134.214 387.037 134.214C394.196 134.214 400 140.006 400 147.151Z" clip-rule="evenodd"/><path fill="#fff" fill-rule="evenodd" d="M280.696 145.441C276.19 149.062 271.273 152.343 266.006 155.233L266.311 181.261C266.335 183.302 264.696 184.976 262.651 185C261.819 185.009 261.008 184.739 260.349 184.233L236.9 166.228C228.11 168.247 218.838 169.328 209.258 169.328C153.007 169.328 107.406 132.094 107.406 86.1638C107.406 40.2337 153.007 3 209.258 3C265.509 3 311.11 40.2337 311.11 86.1638C311.11 98.8763 307.617 110.923 301.371 121.698C300.219 123.685 298.974 125.629 297.639 127.526M292.951 133.575C291.259 135.562 289.463 137.487 287.57 139.344L292.951 133.575Z" clip-rule="evenodd"/><path fill="#BBB" d="M282.147 147.246C283.144 146.445 283.303 144.987 282.502 143.99C281.701 142.993 280.243 142.834 279.246 143.635L282.147 147.246ZM266.006 155.233L264.892 153.203L263.674 153.871L263.69 155.261L266.006 155.233ZM266.311 181.261L263.995 181.288L266.311 181.261ZM262.651 185L262.624 182.684L262.651 185ZM260.349 184.233L261.76 182.396L260.349 184.233ZM236.9 166.228L238.31 164.391L237.445 163.727L236.381 163.971L236.9 166.228ZM301.371 121.698L303.375 122.859L301.371 121.698ZM295.745 126.193C295.009 127.239 295.26 128.684 296.307 129.42C297.353 130.156 298.798 129.905 299.534 128.858L295.745 126.193ZM294.715 135.076C295.544 134.102 295.427 132.64 294.453 131.811C293.479 130.982 292.017 131.099 291.188 132.073L294.715 135.076ZM285.949 137.69C285.035 138.585 285.021 140.052 285.917 140.965C286.812 141.879 288.279 141.893 289.192 140.997L285.949 137.69ZM279.246 143.635C274.848 147.169 270.043 150.376 264.892 153.203L267.121 157.264C272.502 154.311 277.532 150.955 282.147 147.246L279.246 143.635ZM263.69 155.261L263.995 181.288L268.627 181.234L268.322 155.206L263.69 155.261ZM263.995 181.288C264.004 182.045 263.395 182.675 262.624 182.684L262.678 187.316C265.998 187.277 268.666 184.558 268.627 181.234L263.995 181.288ZM262.624 182.684C262.311 182.687 262.007 182.586 261.76 182.396L258.939 186.07C260.01 186.893 261.327 187.332 262.678 187.316L262.624 182.684ZM261.76 182.396L238.31 164.391L235.489 168.066L258.939 186.07L261.76 182.396ZM236.381 163.971C227.762 165.951 218.664 167.011 209.258 167.011V171.644C219.012 171.644 228.458 170.544 237.418 168.486L236.381 163.971ZM209.258 167.011C153.825 167.011 109.722 130.398 109.722 86.1638H105.09C105.09 133.79 152.189 171.644 209.258 171.644V167.011ZM109.722 86.1638C109.722 41.9297 153.825 5.3162 209.258 5.3162V0.683798C152.189 0.683798 105.09 38.5377 105.09 86.1638H109.722ZM209.258 5.3162C264.691 5.3162 308.794 41.9297 308.794 86.1638H313.426C313.426 38.5377 266.327 0.683798 209.258 0.683798V5.3162ZM308.794 86.1638C308.794 98.4413 305.422 110.09 299.367 120.536L303.375 122.859C309.811 111.755 313.426 99.3112 313.426 86.1638H308.794ZM299.367 120.536C298.25 122.464 297.041 124.35 295.745 126.193L299.534 128.858C300.906 126.907 302.188 124.906 303.375 122.859L299.367 120.536ZM291.188 132.073C289.541 134.007 287.793 135.881 285.949 137.69L289.192 140.997C291.134 139.093 292.977 137.118 294.715 135.076L291.188 132.073Z"/><path fill="#EEE" fill-rule="evenodd" d="M172.222 97.2527C178.359 97.2527 183.334 92.2882 183.334 86.1642C183.334 80.0402 178.359 75.0757 172.222 75.0757C166.086 75.0757 161.111 80.0402 161.111 86.1642C161.111 92.2882 166.086 97.2527 172.222 97.2527ZM207.408 97.2529C213.544 97.2529 218.519 92.2884 218.519 86.1644C218.519 80.0403 213.544 75.0759 207.408 75.0759C201.271 75.0759 196.296 80.0403 196.296 86.1644C196.296 92.2884 201.271 97.2529 207.408 97.2529ZM253.703 86.1644C253.703 92.2884 248.728 97.2529 242.592 97.2529C236.455 97.2529 231.48 92.2884 231.48 86.1644C231.48 80.0403 236.455 75.0759 242.592 75.0759C248.728 75.0759 253.703 80.0403 253.703 86.1644Z" clip-rule="evenodd"/><path fill="#BBB" d="M181.017 86.1642C181.017 91.0045 177.084 94.9365 172.222 94.9365V99.5689C179.634 99.5689 185.65 93.5718 185.65 86.1642H181.017ZM172.222 77.3919C177.084 77.3919 181.017 81.3238 181.017 86.1642H185.65C185.65 78.7565 179.634 72.7595 172.222 72.7595V77.3919ZM163.428 86.1642C163.428 81.3238 167.361 77.3919 172.222 77.3919V72.7595C164.811 72.7595 158.795 78.7565 158.795 86.1642H163.428ZM172.222 94.9365C167.361 94.9365 163.428 91.0045 163.428 86.1642H158.795C158.795 93.5718 164.811 99.5689 172.222 99.5689V94.9365ZM216.202 86.1644C216.202 91.0047 212.269 94.9367 207.408 94.9367V99.5691C214.819 99.5691 220.835 93.572 220.835 86.1644H216.202ZM207.408 77.3921C212.269 77.3921 216.202 81.324 216.202 86.1644H220.835C220.835 78.7567 214.819 72.7597 207.408 72.7597V77.3921ZM198.613 86.1644C198.613 81.324 202.546 77.3921 207.408 77.3921V72.7597C199.996 72.7597 193.98 78.7567 193.98 86.1644H198.613ZM207.408 94.9367C202.546 94.9367 198.613 91.0047 198.613 86.1644H193.98C193.98 93.572 199.996 99.5691 207.408 99.5691V94.9367ZM242.592 99.5691C250.003 99.5691 256.019 93.572 256.019 86.1644H251.386C251.386 91.0047 247.453 94.9367 242.592 94.9367V99.5691ZM229.164 86.1644C229.164 93.572 235.18 99.5691 242.592 99.5691V94.9367C237.73 94.9367 233.797 91.0047 233.797 86.1644H229.164ZM242.592 72.7597C235.18 72.7597 229.164 78.7567 229.164 86.1644H233.797C233.797 81.324 237.73 77.3921 242.592 77.3921V72.7597ZM256.019 86.1644C256.019 78.7567 250.003 72.7597 242.592 72.7597V77.3921C247.453 77.3921 251.386 81.324 251.386 86.1644H256.019Z"/><path stroke="#EEE" stroke-linecap="round" stroke-width="4.8" d="M134.56 59.0171C132.878 61.8482 131.421 64.7864 130.207 67.8158"/><path stroke="#EEE" stroke-linecap="round" stroke-width="4.8" d="M168.558 29.0083C156.424 34.7879 146.179 42.9635 138.775 52.7507"/></svg>