<svg xmlns="http://www.w3.org/2000/svg" width="390" height="130" fill="none" viewBox="0 0 390 130"><mask id="mask0" width="390" height="130" x="0" y="0" mask-type="alpha" maskUnits="userSpaceOnUse"><path fill="url(#paint0_linear)" d="M0 4C0 1.79086 1.79086 0 4 0H386C388.209 0 390 1.79086 390 4V130H0V4Z"/></mask><g mask="url(#mask0)"><path fill="url(#paint1_linear)" d="M0 4C0 1.79086 1.79086 0 4 0H386C388.209 0 390 1.79086 390 4V130H0V4Z"/><g style="mix-blend-mode:multiply" opacity=".15"><rect width="282.11" height="132.622" x="408.129" y="287.22" fill="#2C7742" transform="rotate(-109.677 408.129 287.22)"/></g><g style="mix-blend-mode:multiply" opacity=".15"><rect width="320.075" height="150.47" x="209.146" y="189.068" fill="#FCB749" transform="rotate(-66.9 209.146 189.068)"/></g><g style="mix-blend-mode:multiply" opacity=".15"><rect width="282.11" height="155.771" x="225.418" y="-122.662" fill="#5C05C7" transform="rotate(44.8998 225.418 -122.662)"/></g></g><defs><linearGradient id="paint0_linear" x1="408.105" x2="-141.47" y1="117.163" y2="190.471" gradientUnits="userSpaceOnUse"><stop offset=".036" stop-color="#0BB"/><stop offset=".797" stop-color="#19BEBE"/></linearGradient><linearGradient id="paint1_linear" x1="408.105" x2="-141.47" y1="117.163" y2="190.471" gradientUnits="userSpaceOnUse"><stop offset=".036" stop-color="#FFB3D9"/><stop offset=".797" stop-color="#FFFE86"/></linearGradient></defs></svg>