<svg width="390" height="130" viewBox="0 0 390 130" fill="none" xmlns="http://www.w3.org/2000/svg">
<mask id="mask0" mask-type="alpha" maskUnits="userSpaceOnUse" x="0" y="0" width="390" height="130">
<path d="M0 4C0 1.79086 1.79086 0 4 0H386C388.209 0 390 1.79086 390 4V130H0V4Z" fill="url(#paint0_linear)"/>
</mask>
<g mask="url(#mask0)">
<path d="M0 4C0 1.79086 1.79086 0 4 0H386C388.209 0 390 1.79086 390 4V130H0V4Z" fill="url(#paint1_linear)"/>
<g style="mix-blend-mode:multiply" opacity="0.15">
<rect x="408.129" y="287.22" width="282.11" height="132.622" transform="rotate(-109.677 408.129 287.22)" fill="#2C7742"/>
</g>
<g style="mix-blend-mode:multiply" opacity="0.15">
<rect x="209.146" y="189.068" width="320.075" height="150.47" transform="rotate(-66.9 209.146 189.068)" fill="#FCB749"/>
</g>
<g style="mix-blend-mode:multiply" opacity="0.15">
<rect x="225.418" y="-122.662" width="282.11" height="155.771" transform="rotate(44.8998 225.418 -122.662)" fill="#5C05C7"/>
</g>
</g>
<defs>
<linearGradient id="paint0_linear" x1="408.105" y1="117.163" x2="-141.47" y2="190.471" gradientUnits="userSpaceOnUse">
<stop offset="0.0364583" stop-color="#00BBBB"/>
<stop offset="0.796875" stop-color="#19BEBE"/>
</linearGradient>
<linearGradient id="paint1_linear" x1="408.105" y1="117.163" x2="-141.47" y2="190.471" gradientUnits="userSpaceOnUse">
<stop offset="0.0364583" stop-color="#00BBBB"/>
<stop offset="0.796875" stop-color="#19BEBE"/>
</linearGradient>
</defs>
</svg>
