<svg xmlns="http://www.w3.org/2000/svg" width="390" height="130" fill="none" viewBox="0 0 390 130"><mask id="mask0" width="390" height="130" x="0" y="0" mask-type="alpha" maskUnits="userSpaceOnUse"><path fill="url(#paint0_linear)" d="M0 4C0 1.79086 1.79086 0 4 0H386C388.209 0 390 1.79086 390 4V130H0V4Z"/></mask><g mask="url(#mask0)"><path fill="url(#paint1_linear)" d="M0 4C0 1.79086 1.79086 0 4 0H386C388.209 0 390 1.79086 390 4V130H0V4Z"/><rect width="282.11" height="132.622" x="400.232" y="269.972" fill="#0C2E16" opacity=".3" transform="rotate(-96.1966 400.232 269.972)"/><rect width="320.075" height="150.47" x="229.613" y="128.139" fill="#224D83" opacity=".3" transform="rotate(-53.4196 229.613 128.139)"/><rect width="282.11" height="155.771" x="318.105" y="-171.209" fill="#5C05C7" opacity=".3" transform="rotate(58.3802 318.105 -171.209)"/></g><defs><linearGradient id="paint0_linear" x1="408.105" x2="-141.47" y1="117.163" y2="190.471" gradientUnits="userSpaceOnUse"><stop offset=".036" stop-color="#7D84AF"/><stop offset=".797" stop-color="#7D84AF"/></linearGradient><linearGradient id="paint1_linear" x1="408.105" x2="-141.47" y1="117.163" y2="190.471" gradientUnits="userSpaceOnUse"><stop offset=".036" stop-color="#ACD8FD"/><stop offset=".797" stop-color="#FBFCFE"/></linearGradient></defs></svg>