<svg xmlns="http://www.w3.org/2000/svg" width="390" height="130" fill="none" viewBox="0 0 390 130"><mask id="mask0" width="390" height="130" x="0" y="0" mask-type="alpha" maskUnits="userSpaceOnUse"><path fill="url(#paint0_linear)" d="M0 4C0 1.79086 1.79086 0 4 0H386C388.209 0 390 1.79086 390 4V130H0V4Z"/></mask><g mask="url(#mask0)"><path fill="url(#paint1_linear)" d="M0 4C0 1.79086 1.79086 0 4 0H386C388.209 0 390 1.79086 390 4V130H0V4Z"/><g style="mix-blend-mode:overlay"><rect width="335.903" height="132.622" x="378.748" y="208.521" fill="#979797" transform="rotate(-93.3924 378.748 208.521)"/></g><g style="mix-blend-mode:soft-light"><rect width="282.11" height="155.771" x="317.809" y="-119.368" fill="#31C851" transform="rotate(41.2623 317.809 -119.368)"/></g></g><defs><linearGradient id="paint0_linear" x1="408.105" x2="-141.47" y1="117.163" y2="190.471" gradientUnits="userSpaceOnUse"><stop offset=".036" stop-color="#07834E"/><stop offset=".797" stop-color="#26B14F"/></linearGradient><linearGradient id="paint1_linear" x1="408.105" x2="-141.47" y1="117.163" y2="190.471" gradientUnits="userSpaceOnUse"><stop offset=".036" stop-color="#FFB3D9"/><stop offset=".797" stop-color="#FFFE86"/></linearGradient></defs></svg>