<svg xmlns="http://www.w3.org/2000/svg" width="390" height="130" fill="none" viewBox="0 0 390 130"><mask id="mask0" width="390" height="130" x="0" y="0" mask-type="alpha" maskUnits="userSpaceOnUse"><path fill="url(#paint0_linear)" d="M0 4C0 1.79086 1.79086 0 4 0H386C388.209 0 390 1.79086 390 4V130H0V4Z"/></mask><g mask="url(#mask0)"><path fill="url(#paint1_linear)" d="M0 4C0 1.79086 1.79086 0 4 0H386C388.209 0 390 1.79086 390 4V130H0V4Z"/><g style="mix-blend-mode:multiply" opacity=".15"><rect width="282.11" height="132.622" x="77.508" y="-106.287" fill="#2C7742" transform="rotate(49.5016 77.5078 -106.287)"/></g><g style="mix-blend-mode:multiply" opacity=".15"><rect width="320.075" height="150.47" x="298.383" y="-85.274" fill="#FCB749" transform="rotate(92.2785 298.383 -85.2744)"/></g><g style="mix-blend-mode:multiply" opacity=".15"><rect width="282.11" height="155.771" x="393.982" y="211.881" fill="#5C05C7" transform="rotate(-155.922 393.982 211.881)"/></g></g><defs><linearGradient id="paint0_linear" x1="408.105" x2="-141.47" y1="117.163" y2="190.471" gradientUnits="userSpaceOnUse"><stop offset=".036" stop-color="#E2A184"/><stop offset=".797" stop-color="#FDA57D"/></linearGradient><linearGradient id="paint1_linear" x1="408.105" x2="-141.47" y1="117.163" y2="190.471" gradientUnits="userSpaceOnUse"><stop offset=".036" stop-color="#D7A2F9"/><stop offset=".797" stop-color="#F0D8FF"/></linearGradient></defs></svg>