<svg xmlns="http://www.w3.org/2000/svg" width="1440" height="891" fill="none" viewBox="0 0 1440 891"><g clip-path="url(#clip0)"><path fill="#fff" fill-rule="evenodd" d="M187.283 31.4564C187.283 -88.6415 277.561 -186 388.924 -186C500.288 -186 590.565 -88.6415 590.565 31.4564C590.565 151.554 500.288 248.913 388.924 248.913H187.283V31.4564ZM1306.39 905.631V1340.54C1306.39 1460.64 1216.11 1558 1104.75 1558V1340.54H903.11V905.631C903.11 785.533 993.387 688.175 1104.75 688.175H1306.39V905.631ZM187.283 466.369V901.282C187.283 1021.38 97.0049 1118.74 -14.3586 1118.74V901.282H-216V466.369C-216 346.271 -125.722 248.913 -14.3586 248.913H187.283V466.369ZM1306.39 470.718C1306.39 350.62 1396.67 253.262 1508.03 253.262C1619.4 253.262 1709.68 350.62 1709.68 470.718C1709.68 590.816 1619.4 688.175 1508.03 688.175H1306.39V470.718Z" clip-rule="evenodd" opacity=".24"/></g><defs><clipPath id="clip0"><rect width="1440" height="1094" fill="#fff"/></clipPath></defs></svg>