<svg width="64" height="64" viewBox="0 0 64 64" fill="none" xmlns="http://www.w3.org/2000/svg">
<path d="M8.09143 53.6021C2.12795 46.6227 -1.01072 37.1951 0.291824 27.5547C1.57868 17.9295 7.32245 8.10654 16.2991 3.37756C25.2757 -1.36664 37.4851 -1.00169 47.2307 3.77291C56.9919 8.5323 64.2894 17.6862 63.9912 25.8364C63.7087 33.9867 58.9207 43.0018 52.2667 50.1333C45.6127 57.2496 37.0928 62.4823 29.968 63.7747C22.8589 65.0824 14.0549 60.5663 8.09143 53.6021Z" fill="#FEF5EF"/>
<path d="M42.5503 34.9357H45.6245C45.0661 38.1933 43.3854 41.159 40.8662 43.3134L40.8658 43.3137C38.3684 45.4552 35.2406 46.6736 32.2973 46.6736C30.3796 46.6736 28.3634 46.1562 26.4695 45.1688C24.5038 44.1423 22.7988 42.6799 21.485 40.8934C21.418 40.8021 21.3338 40.7248 21.237 40.6661L21.0293 41.0079L21.237 40.6661C21.1401 40.6072 21.0326 40.568 20.9206 40.5507C20.8085 40.5334 20.6942 40.5383 20.5841 40.5652C20.474 40.5921 20.3702 40.6404 20.2787 40.7074L20.2787 40.7074C20.1873 40.7744 20.1099 40.8587 20.0511 40.9556C19.9922 41.0525 19.953 41.16 19.9357 41.272C19.9184 41.384 19.9233 41.4984 19.9502 41.6085C19.9771 41.7186 20.0254 41.8224 20.0924 41.9139L20.0928 41.9145C21.563 43.9139 23.471 45.5506 25.6709 46.6993L25.6711 46.6994C27.7992 47.8092 30.0897 48.4 32.2973 48.4C35.6695 48.4 39.1975 47.0182 41.9891 44.6246C44.8907 42.1429 46.7993 38.7027 47.373 34.9357H50.852C50.852 34.9357 50.852 34.9357 50.852 34.9357C51.0077 34.9357 51.1604 34.8936 51.2941 34.8139C51.4279 34.7341 51.5375 34.6197 51.6115 34.4828C51.6855 34.3458 51.7211 34.1913 51.7144 34.0358C51.7078 33.8803 51.6592 33.7294 51.5739 33.5992L51.5739 33.5992L47.423 27.2702C47.3445 27.1505 47.2374 27.0521 47.1113 26.9841C46.9853 26.916 46.8444 26.8804 46.7011 26.8804C46.5579 26.8804 46.417 26.916 46.2909 26.9841C46.1649 27.0521 46.0578 27.1505 45.9793 27.2702L41.8284 33.5992L41.8284 33.5992C41.743 33.7294 41.6945 33.8803 41.6879 34.0358C41.6813 34.1913 41.7168 34.3458 41.7908 34.4827C41.8648 34.6197 41.9744 34.7341 42.1081 34.8138C42.2418 34.8936 42.3946 34.9357 42.5503 34.9357ZM20.4151 41.6775C21.8491 43.6278 23.7102 45.2242 25.856 46.3448L20.4151 41.6775ZM44.1487 33.2088L46.7011 29.317L49.2536 33.2088H44.1487Z" fill="#F58634" stroke="#FFBB89" stroke-width="0.8"/>
<path d="M22.8202 30.4008L22.8202 30.4008L18.6693 36.7298C18.6693 36.7298 18.6693 36.7298 18.6693 36.7298C18.5907 36.8495 18.4836 36.9479 18.3577 37.0159C18.2316 37.084 18.0907 37.1196 17.9474 37.1196C17.8042 37.1196 17.6633 37.084 17.5373 37.0159C17.4113 36.9479 17.3042 36.8495 17.2256 36.7298C17.2256 36.7298 17.2256 36.7298 17.2256 36.7298L13.0747 30.4008L13.0747 30.4008C12.9893 30.2706 12.9408 30.1197 12.9342 29.9642C12.9275 29.8086 12.9631 29.6542 13.0371 29.5172C13.1111 29.3803 13.2207 29.2658 13.3544 29.1861L13.3544 29.1861C13.4881 29.1064 13.6409 29.0643 13.7966 29.0643C13.7966 29.0643 13.7966 29.0643 13.7966 29.0643H17.2756C17.8492 25.2974 19.7578 21.8573 22.6593 19.3755L22.8202 30.4008ZM22.8202 30.4008C22.9055 30.2706 22.9541 30.1197 22.9607 29.9642C22.9674 29.8086 22.9318 29.6542 22.8578 29.5172C22.7838 29.3803 22.6742 29.2658 22.5405 29.1861L22.3356 29.5296M22.8202 30.4008L22.3356 29.5296M22.3356 29.5296L22.5405 29.1861C22.4068 29.1064 22.254 29.0643 22.0983 29.0643C22.0983 29.0643 22.0983 29.0643 22.0983 29.0643H19.024M22.3356 29.5296L19.024 29.0643M19.024 29.0643C19.5825 25.8067 21.2632 22.841 23.7824 20.6866L23.7828 20.6863C26.2802 18.5448 29.408 17.3264 32.3513 17.3264C34.269 17.3264 36.2852 17.8437 38.1791 18.8312C40.1449 19.8577 41.85 21.3202 43.1638 23.1069C43.2991 23.2912 43.502 23.4144 43.728 23.4493C43.9543 23.4843 44.1852 23.4279 44.3699 23.2926C44.5546 23.1573 44.678 22.9542 44.7129 22.728C44.7479 22.5017 44.6915 22.2708 44.5562 22.0861L44.5558 22.0855C43.0856 20.0861 41.1776 18.4494 38.9777 17.3006L38.9775 17.3005C36.8493 16.1908 34.5588 15.6 32.3513 15.6C28.9791 15.6 25.4511 16.9818 22.6595 19.3754L19.024 29.0643ZM15.395 30.7907H20.4999L17.9475 34.6827L15.395 30.7907Z" fill="#F58634" stroke="#FFBB89" stroke-width="0.8"/>
<path d="M40.9152 24.9463L40.9154 24.9464C41.0602 25.0176 41.1821 25.128 41.2674 25.265C41.3526 25.402 41.3978 25.5602 41.3976 25.7215M40.9152 24.9463L40.9976 25.7213M40.9152 24.9463L32.7048 20.9139L32.7047 20.9138M40.9152 24.9463L32.7047 20.9138M41.3976 25.7215L40.9976 25.7213M41.3976 25.7215V25.7213H40.9976M41.3976 25.7215V33.4025C41.3976 34.4791 41.0512 35.6518 40.4998 36.6948C39.9483 37.7377 39.174 38.6845 38.284 39.2913M40.9976 25.7213V33.4025C40.9976 35.3957 39.7067 37.8372 38.0586 38.9608M38.284 39.2913L38.0586 38.9608M38.284 39.2913L38.284 39.2913M38.284 39.2913L38.284 39.2913M38.0586 38.9608L38.284 39.2913M38.0586 38.9608L38.284 39.2913M32.7047 20.9138C32.5864 20.8558 32.4563 20.8256 32.3245 20.8256M32.7047 20.9138L32.3245 20.8256M32.3245 20.8256C32.1928 20.8256 32.0629 20.8558 31.9446 20.9137M32.3245 20.8256L31.9446 20.9137M31.9446 20.9137C31.9445 20.9138 31.9444 20.9138 31.9444 20.9138M31.9446 20.9137L31.9444 20.9138M31.9444 20.9138L23.7347 24.9343L31.9444 20.9138ZM32.8107 43.0241L32.5853 42.6937L32.8106 43.0242C32.8106 43.0242 32.8106 43.0242 32.8107 43.0241ZM31.8379 43.0242L32.0632 42.6937L31.8378 43.0241C31.8378 43.0242 31.8379 43.0242 31.8379 43.0242ZM26.3646 39.2913L26.5899 38.9608L26.3646 39.2913L26.3646 39.2913ZM37.3113 37.865L37.3112 37.865L32.3243 41.2659L27.3372 37.8646L27.3371 37.8646C26.7192 37.4435 26.1244 36.7184 25.683 35.8837C25.2416 35.049 24.9774 34.1496 24.9774 33.4025V26.248L32.324 22.6501L39.6711 26.2588V33.4025C39.6711 34.1657 39.4117 35.0615 38.9743 35.8885C38.537 36.7155 37.9425 37.4346 37.3113 37.865ZM23.7346 24.9344L23.9105 25.2936L23.7346 24.9344Z" fill="#F58634" stroke="#FFBB89" stroke-width="0.8"/>
<path d="M30.7272 34.7985L30.7273 34.7985C30.8885 34.9559 31.1049 35.044 31.3302 35.044C31.5555 35.044 31.7719 34.9559 31.9331 34.7985L31.9332 34.7985L36.3996 30.4383C36.4814 30.3599 36.5469 30.2662 36.5925 30.1624C36.6385 30.0578 36.6633 29.9451 36.6653 29.8309C36.6674 29.7166 36.6468 29.6031 36.6047 29.4969C36.5626 29.3907 36.4998 29.2939 36.42 29.2121L36.1337 29.4915L36.42 29.2121C36.3401 29.1303 36.2449 29.0652 36.1397 29.0206C36.0345 28.9759 35.9215 28.9526 35.8073 28.9519C35.693 28.9513 35.5797 28.9733 35.474 29.0167C35.3693 29.0598 35.274 29.1231 35.1936 29.203L31.3302 32.9748L29.4532 31.1424L29.4533 31.1424L29.4496 31.1389C29.2852 30.9823 29.0657 30.8969 28.8386 30.901C28.6116 30.9052 28.3954 30.9986 28.2368 31.1611C28.0782 31.3235 27.9899 31.542 27.9912 31.769C27.9926 31.9961 28.0833 32.2135 28.2437 32.3741L28.2437 32.3741L28.2473 32.3776L30.7272 34.7985Z" fill="#F58634" stroke="#FFBB89" stroke-width="0.8"/>
</svg>
