<svg width="64" height="64" viewBox="0 0 64 64" fill="none" xmlns="http://www.w3.org/2000/svg">
<path d="M8.09143 53.6021C2.12796 46.6227 -1.01072 37.1951 0.291832 27.5547C1.57869 17.9295 7.32246 8.10655 16.2991 3.37756C25.2757 -1.36663 37.4851 -1.00169 47.2307 3.77291C56.9919 8.53231 64.2894 17.6862 63.9912 25.8364C63.7087 33.9867 58.9207 43.0018 52.2667 50.1333C45.6127 57.2496 37.0928 62.4823 29.968 63.7747C22.8589 65.0824 14.0549 60.5663 8.09143 53.6021Z" fill="#FEF5EF"/>
<mask id="path-2-outside-1" maskUnits="userSpaceOnUse" x="13.6666" y="15" width="32" height="34" fill="black">
<rect fill="white" x="13.6666" y="15" width="32" height="34"/>
<path d="M43.2749 17.4722H35.0661C34.854 17.0312 34.5218 16.6591 34.1076 16.3986C33.6933 16.1382 33.214 16 32.7246 16C32.2353 16 31.756 16.1382 31.3417 16.3986C30.9275 16.6591 30.5952 17.0312 30.3832 17.4722H22.1746C21.7459 17.4727 21.3348 17.6433 21.0317 17.9465C20.7285 18.2497 20.558 18.6608 20.5577 19.0895V30.3171C18.7837 31.4949 16.9074 32.5109 14.9514 33.3527L14.9028 33.3736C14.8327 33.4037 14.7729 33.4538 14.731 33.5175C14.689 33.5812 14.6666 33.6559 14.6666 33.7322V39.0925C14.6666 41.8352 15.979 44.2455 18.4618 46.0627C19.6047 46.8974 20.8725 47.546 22.2182 47.9843C22.2885 48.0049 22.3632 48.0052 22.4337 47.9853C23.7312 47.5777 24.9627 46.984 26.0896 46.2227H43.2749C43.7036 46.2222 44.1147 46.0517 44.4178 45.7486C44.7209 45.4454 44.8914 45.0344 44.8919 44.6057V19.0895C44.8915 18.6608 44.721 18.2497 44.4179 17.9465C44.1147 17.6433 43.7037 17.4727 43.2749 17.4722ZM30.9068 19.7026V18.5985C30.9048 18.3585 30.9503 18.1205 31.0407 17.8981C31.1312 17.6758 31.2647 17.4736 31.4338 17.3031C31.6028 17.1327 31.8038 16.9974 32.0254 16.9051C32.247 16.8128 32.4846 16.7652 32.7246 16.7652C32.9647 16.7652 33.2023 16.8128 33.4239 16.9051C33.6454 16.9974 33.8465 17.1327 34.0155 17.3031C34.1845 17.4736 34.3181 17.6758 34.4086 17.8981C34.499 18.1205 34.5445 18.3585 34.5425 18.5985V19.7026C34.5425 19.8061 34.5836 19.9053 34.6568 19.9785C34.73 20.0517 34.8292 20.0928 34.9327 20.0928H38.5907V22.2566H26.8585V20.0928H30.5165C30.62 20.0928 30.7193 20.0517 30.7925 19.9785C30.8657 19.9053 30.9068 19.8061 30.9068 19.7026ZM39.3713 22.6468V21.6312H41.0428C41.102 21.6313 41.1587 21.6548 41.2006 21.6967C41.2424 21.7385 41.2659 21.7952 41.266 21.8544V38.5389H39.3062C38.8775 38.5393 38.4665 38.7098 38.1633 39.013C37.8602 39.3161 37.6897 39.7272 37.6892 40.1559V42.0637H29.664C30.0515 41.1211 30.2491 40.1113 30.2453 39.0922V33.7318C30.2453 33.6555 30.223 33.5809 30.181 33.5172C30.1391 33.4535 30.0793 33.4034 30.0092 33.3733L29.9607 33.3525C27.9416 32.4833 26.0074 31.4287 24.1832 30.2021V21.8544C24.1832 21.7952 24.2068 21.7385 24.2486 21.6967C24.2904 21.6548 24.3472 21.6313 24.4063 21.6312H26.0778V22.6468C26.0778 22.7503 26.119 22.8496 26.1921 22.9227C26.2653 22.9959 26.3646 23.037 26.4681 23.037H38.9811C39.0846 23.037 39.1838 22.9959 39.257 22.9227C39.3302 22.8496 39.3713 22.7503 39.3713 22.6468ZM40.7295 39.3193L38.4697 41.5791V40.1559C38.4699 39.9341 38.5582 39.7215 38.715 39.5647C38.8718 39.4079 39.0844 39.3197 39.3062 39.3194L40.7295 39.3193ZM21.3381 19.0895C21.3384 18.8677 21.4266 18.6551 21.5834 18.4983C21.7402 18.3415 21.9528 18.2533 22.1746 18.253H30.1499C30.1344 18.3677 30.1264 18.4832 30.1262 18.5989V19.3123H26.4683C26.3648 19.3123 26.2655 19.3535 26.1923 19.4266C26.1192 19.4998 26.078 19.5991 26.078 19.7026V20.8507H24.4065C24.1404 20.8511 23.8853 20.9569 23.6972 21.1451C23.509 21.3332 23.4032 21.5883 23.4029 21.8544V29.6623C23.1634 29.4919 22.9259 29.3187 22.6903 29.1427C22.6228 29.092 22.5406 29.0647 22.4562 29.0647C22.3717 29.0647 22.2896 29.092 22.222 29.1427C21.9309 29.3611 21.6363 29.5749 21.3383 29.7841L21.3381 19.0895ZM22.3295 47.2007C21.1127 46.7831 19.9646 46.1872 18.9228 45.4326C16.6165 43.7446 15.4471 41.6113 15.4471 39.0922V33.9882C17.9269 32.9046 20.2778 31.5472 22.456 29.9413C24.6342 31.5472 26.9851 32.9046 29.4649 33.9882V39.0922C29.4649 41.602 28.2602 43.7295 25.8842 45.416C24.7922 46.1804 23.5948 46.7816 22.3295 47.2007ZM44.1113 44.6056C44.1111 44.8274 44.0229 45.04 43.8661 45.1969C43.7093 45.3537 43.4967 45.4419 43.2749 45.4422H27.123C28.0461 44.6617 28.7717 43.7902 29.29 42.8441H37.842C37.8914 42.8438 37.9408 42.8402 37.9898 42.8334C38.0583 42.8498 38.13 42.8473 38.1972 42.8261C38.2643 42.8048 38.3244 42.7656 38.3709 42.7127C38.4694 42.6601 38.5595 42.5932 38.6384 42.5142L41.7168 39.4358C41.8217 39.3315 41.9049 39.2074 41.9615 39.0707C42.0181 38.934 42.0471 38.7874 42.0467 38.6394V21.8544C42.0464 21.5883 41.9405 21.3332 41.7524 21.1451C41.5642 20.9569 41.3091 20.8511 41.043 20.8507H39.3715V19.7026C39.3715 19.5991 39.3304 19.4998 39.2572 19.4266C39.184 19.3535 39.0848 19.3123 38.9813 19.3123H35.3231V18.5985C35.3229 18.4829 35.315 18.3673 35.2994 18.2527H43.2749C43.4967 18.253 43.7094 18.3413 43.8661 18.4982C44.0229 18.655 44.1111 18.8677 44.1112 19.0895L44.1113 44.6056Z"/>
</mask>
<path d="M43.2749 17.4722H35.0661C34.854 17.0312 34.5218 16.6591 34.1076 16.3986C33.6933 16.1382 33.214 16 32.7246 16C32.2353 16 31.756 16.1382 31.3417 16.3986C30.9275 16.6591 30.5952 17.0312 30.3832 17.4722H22.1746C21.7459 17.4727 21.3348 17.6433 21.0317 17.9465C20.7285 18.2497 20.558 18.6608 20.5577 19.0895V30.3171C18.7837 31.4949 16.9074 32.5109 14.9514 33.3527L14.9028 33.3736C14.8327 33.4037 14.7729 33.4538 14.731 33.5175C14.689 33.5812 14.6666 33.6559 14.6666 33.7322V39.0925C14.6666 41.8352 15.979 44.2455 18.4618 46.0627C19.6047 46.8974 20.8725 47.546 22.2182 47.9843C22.2885 48.0049 22.3632 48.0052 22.4337 47.9853C23.7312 47.5777 24.9627 46.984 26.0896 46.2227H43.2749C43.7036 46.2222 44.1147 46.0517 44.4178 45.7486C44.7209 45.4454 44.8914 45.0344 44.8919 44.6057V19.0895C44.8915 18.6608 44.721 18.2497 44.4179 17.9465C44.1147 17.6433 43.7037 17.4727 43.2749 17.4722ZM30.9068 19.7026V18.5985C30.9048 18.3585 30.9503 18.1205 31.0407 17.8981C31.1312 17.6758 31.2647 17.4736 31.4338 17.3031C31.6028 17.1327 31.8038 16.9974 32.0254 16.9051C32.247 16.8128 32.4846 16.7652 32.7246 16.7652C32.9647 16.7652 33.2023 16.8128 33.4239 16.9051C33.6454 16.9974 33.8465 17.1327 34.0155 17.3031C34.1845 17.4736 34.3181 17.6758 34.4086 17.8981C34.499 18.1205 34.5445 18.3585 34.5425 18.5985V19.7026C34.5425 19.8061 34.5836 19.9053 34.6568 19.9785C34.73 20.0517 34.8292 20.0928 34.9327 20.0928H38.5907V22.2566H26.8585V20.0928H30.5165C30.62 20.0928 30.7193 20.0517 30.7925 19.9785C30.8657 19.9053 30.9068 19.8061 30.9068 19.7026ZM39.3713 22.6468V21.6312H41.0428C41.102 21.6313 41.1587 21.6548 41.2006 21.6967C41.2424 21.7385 41.2659 21.7952 41.266 21.8544V38.5389H39.3062C38.8775 38.5393 38.4665 38.7098 38.1633 39.013C37.8602 39.3161 37.6897 39.7272 37.6892 40.1559V42.0637H29.664C30.0515 41.1211 30.2491 40.1113 30.2453 39.0922V33.7318C30.2453 33.6555 30.223 33.5809 30.181 33.5172C30.1391 33.4535 30.0793 33.4034 30.0092 33.3733L29.9607 33.3525C27.9416 32.4833 26.0074 31.4287 24.1832 30.2021V21.8544C24.1832 21.7952 24.2068 21.7385 24.2486 21.6967C24.2904 21.6548 24.3472 21.6313 24.4063 21.6312H26.0778V22.6468C26.0778 22.7503 26.119 22.8496 26.1921 22.9227C26.2653 22.9959 26.3646 23.037 26.4681 23.037H38.9811C39.0846 23.037 39.1838 22.9959 39.257 22.9227C39.3302 22.8496 39.3713 22.7503 39.3713 22.6468ZM40.7295 39.3193L38.4697 41.5791V40.1559C38.4699 39.9341 38.5582 39.7215 38.715 39.5647C38.8718 39.4079 39.0844 39.3197 39.3062 39.3194L40.7295 39.3193ZM21.3381 19.0895C21.3384 18.8677 21.4266 18.6551 21.5834 18.4983C21.7402 18.3415 21.9528 18.2533 22.1746 18.253H30.1499C30.1344 18.3677 30.1264 18.4832 30.1262 18.5989V19.3123H26.4683C26.3648 19.3123 26.2655 19.3535 26.1923 19.4266C26.1192 19.4998 26.078 19.5991 26.078 19.7026V20.8507H24.4065C24.1404 20.8511 23.8853 20.9569 23.6972 21.1451C23.509 21.3332 23.4032 21.5883 23.4029 21.8544V29.6623C23.1634 29.4919 22.9259 29.3187 22.6903 29.1427C22.6228 29.092 22.5406 29.0647 22.4562 29.0647C22.3717 29.0647 22.2896 29.092 22.222 29.1427C21.9309 29.3611 21.6363 29.5749 21.3383 29.7841L21.3381 19.0895ZM22.3295 47.2007C21.1127 46.7831 19.9646 46.1872 18.9228 45.4326C16.6165 43.7446 15.4471 41.6113 15.4471 39.0922V33.9882C17.9269 32.9046 20.2778 31.5472 22.456 29.9413C24.6342 31.5472 26.9851 32.9046 29.4649 33.9882V39.0922C29.4649 41.602 28.2602 43.7295 25.8842 45.416C24.7922 46.1804 23.5948 46.7816 22.3295 47.2007ZM44.1113 44.6056C44.1111 44.8274 44.0229 45.04 43.8661 45.1969C43.7093 45.3537 43.4967 45.4419 43.2749 45.4422H27.123C28.0461 44.6617 28.7717 43.7902 29.29 42.8441H37.842C37.8914 42.8438 37.9408 42.8402 37.9898 42.8334C38.0583 42.8498 38.13 42.8473 38.1972 42.8261C38.2643 42.8048 38.3244 42.7656 38.3709 42.7127C38.4694 42.6601 38.5595 42.5932 38.6384 42.5142L41.7168 39.4358C41.8217 39.3315 41.9049 39.2074 41.9615 39.0707C42.0181 38.934 42.0471 38.7874 42.0467 38.6394V21.8544C42.0464 21.5883 41.9405 21.3332 41.7524 21.1451C41.5642 20.9569 41.3091 20.8511 41.043 20.8507H39.3715V19.7026C39.3715 19.5991 39.3304 19.4998 39.2572 19.4266C39.184 19.3535 39.0848 19.3123 38.9813 19.3123H35.3231V18.5985C35.3229 18.4829 35.315 18.3673 35.2994 18.2527H43.2749C43.4967 18.253 43.7094 18.3413 43.8661 18.4982C44.0229 18.655 44.1111 18.8677 44.1112 19.0895L44.1113 44.6056Z" fill="#F58634"/>
<path d="M43.2749 17.4722H35.0661C34.854 17.0312 34.5218 16.6591 34.1076 16.3986C33.6933 16.1382 33.214 16 32.7246 16C32.2353 16 31.756 16.1382 31.3417 16.3986C30.9275 16.6591 30.5952 17.0312 30.3832 17.4722H22.1746C21.7459 17.4727 21.3348 17.6433 21.0317 17.9465C20.7285 18.2497 20.558 18.6608 20.5577 19.0895V30.3171C18.7837 31.4949 16.9074 32.5109 14.9514 33.3527L14.9028 33.3736C14.8327 33.4037 14.7729 33.4538 14.731 33.5175C14.689 33.5812 14.6666 33.6559 14.6666 33.7322V39.0925C14.6666 41.8352 15.979 44.2455 18.4618 46.0627C19.6047 46.8974 20.8725 47.546 22.2182 47.9843C22.2885 48.0049 22.3632 48.0052 22.4337 47.9853C23.7312 47.5777 24.9627 46.984 26.0896 46.2227H43.2749C43.7036 46.2222 44.1147 46.0517 44.4178 45.7486C44.7209 45.4454 44.8914 45.0344 44.8919 44.6057V19.0895C44.8915 18.6608 44.721 18.2497 44.4179 17.9465C44.1147 17.6433 43.7037 17.4727 43.2749 17.4722ZM30.9068 19.7026V18.5985C30.9048 18.3585 30.9503 18.1205 31.0407 17.8981C31.1312 17.6758 31.2647 17.4736 31.4338 17.3031C31.6028 17.1327 31.8038 16.9974 32.0254 16.9051C32.247 16.8128 32.4846 16.7652 32.7246 16.7652C32.9647 16.7652 33.2023 16.8128 33.4239 16.9051C33.6454 16.9974 33.8465 17.1327 34.0155 17.3031C34.1845 17.4736 34.3181 17.6758 34.4086 17.8981C34.499 18.1205 34.5445 18.3585 34.5425 18.5985V19.7026C34.5425 19.8061 34.5836 19.9053 34.6568 19.9785C34.73 20.0517 34.8292 20.0928 34.9327 20.0928H38.5907V22.2566H26.8585V20.0928H30.5165C30.62 20.0928 30.7193 20.0517 30.7925 19.9785C30.8657 19.9053 30.9068 19.8061 30.9068 19.7026ZM39.3713 22.6468V21.6312H41.0428C41.102 21.6313 41.1587 21.6548 41.2006 21.6967C41.2424 21.7385 41.2659 21.7952 41.266 21.8544V38.5389H39.3062C38.8775 38.5393 38.4665 38.7098 38.1633 39.013C37.8602 39.3161 37.6897 39.7272 37.6892 40.1559V42.0637H29.664C30.0515 41.1211 30.2491 40.1113 30.2453 39.0922V33.7318C30.2453 33.6555 30.223 33.5809 30.181 33.5172C30.1391 33.4535 30.0793 33.4034 30.0092 33.3733L29.9607 33.3525C27.9416 32.4833 26.0074 31.4287 24.1832 30.2021V21.8544C24.1832 21.7952 24.2068 21.7385 24.2486 21.6967C24.2904 21.6548 24.3472 21.6313 24.4063 21.6312H26.0778V22.6468C26.0778 22.7503 26.119 22.8496 26.1921 22.9227C26.2653 22.9959 26.3646 23.037 26.4681 23.037H38.9811C39.0846 23.037 39.1838 22.9959 39.257 22.9227C39.3302 22.8496 39.3713 22.7503 39.3713 22.6468ZM40.7295 39.3193L38.4697 41.5791V40.1559C38.4699 39.9341 38.5582 39.7215 38.715 39.5647C38.8718 39.4079 39.0844 39.3197 39.3062 39.3194L40.7295 39.3193ZM21.3381 19.0895C21.3384 18.8677 21.4266 18.6551 21.5834 18.4983C21.7402 18.3415 21.9528 18.2533 22.1746 18.253H30.1499C30.1344 18.3677 30.1264 18.4832 30.1262 18.5989V19.3123H26.4683C26.3648 19.3123 26.2655 19.3535 26.1923 19.4266C26.1192 19.4998 26.078 19.5991 26.078 19.7026V20.8507H24.4065C24.1404 20.8511 23.8853 20.9569 23.6972 21.1451C23.509 21.3332 23.4032 21.5883 23.4029 21.8544V29.6623C23.1634 29.4919 22.9259 29.3187 22.6903 29.1427C22.6228 29.092 22.5406 29.0647 22.4562 29.0647C22.3717 29.0647 22.2896 29.092 22.222 29.1427C21.9309 29.3611 21.6363 29.5749 21.3383 29.7841L21.3381 19.0895ZM22.3295 47.2007C21.1127 46.7831 19.9646 46.1872 18.9228 45.4326C16.6165 43.7446 15.4471 41.6113 15.4471 39.0922V33.9882C17.9269 32.9046 20.2778 31.5472 22.456 29.9413C24.6342 31.5472 26.9851 32.9046 29.4649 33.9882V39.0922C29.4649 41.602 28.2602 43.7295 25.8842 45.416C24.7922 46.1804 23.5948 46.7816 22.3295 47.2007ZM44.1113 44.6056C44.1111 44.8274 44.0229 45.04 43.8661 45.1969C43.7093 45.3537 43.4967 45.4419 43.2749 45.4422H27.123C28.0461 44.6617 28.7717 43.7902 29.29 42.8441H37.842C37.8914 42.8438 37.9408 42.8402 37.9898 42.8334C38.0583 42.8498 38.13 42.8473 38.1972 42.8261C38.2643 42.8048 38.3244 42.7656 38.3709 42.7127C38.4694 42.6601 38.5595 42.5932 38.6384 42.5142L41.7168 39.4358C41.8217 39.3315 41.9049 39.2074 41.9615 39.0707C42.0181 38.934 42.0471 38.7874 42.0467 38.6394V21.8544C42.0464 21.5883 41.9405 21.3332 41.7524 21.1451C41.5642 20.9569 41.3091 20.8511 41.043 20.8507H39.3715V19.7026C39.3715 19.5991 39.3304 19.4998 39.2572 19.4266C39.184 19.3535 39.0848 19.3123 38.9813 19.3123H35.3231V18.5985C35.3229 18.4829 35.315 18.3673 35.2994 18.2527H43.2749C43.4967 18.253 43.7094 18.3413 43.8661 18.4982C44.0229 18.655 44.1111 18.8677 44.1112 19.0895L44.1113 44.6056Z" stroke="#FFBB89" stroke-width="0.711111" mask="url(#path-2-outside-1)"/>
<path d="M38.5198 25.954C38.3691 25.954 38.2246 26.0139 38.1181 26.1204C38.0116 26.2269 37.9517 26.3714 37.9517 26.5221C37.9517 26.6727 38.0116 26.8172 38.1181 26.9237C38.2246 27.0302 38.3691 27.0901 38.5198 27.0901H38.9808C39.1315 27.0901 39.2759 27.0302 39.3825 26.9237C39.489 26.8172 39.5488 26.6727 39.5488 26.5221C39.5488 26.3714 39.489 26.2269 39.3825 26.1204C39.2759 26.0139 39.1315 25.954 38.9808 25.954H38.5198Z" fill="#F58634" stroke="#FFBB89" stroke-width="0.355556"/>
<path d="M30.9734 27.0901H37.0833C37.234 27.0901 37.3785 27.0302 37.485 26.9237C37.5915 26.8172 37.6513 26.6727 37.6513 26.5221C37.6513 26.3714 37.5915 26.2269 37.485 26.1204C37.3785 26.0139 37.234 25.954 37.0833 25.954H30.9734C30.8227 25.954 30.6782 26.0139 30.5717 26.1204C30.4652 26.2269 30.4054 26.3714 30.4054 26.5221C30.4054 26.6727 30.4652 26.8172 30.5717 26.9237C30.6782 27.0302 30.8227 27.0901 30.9734 27.0901Z" fill="#F58634" stroke="#FFBB89" stroke-width="0.355556"/>
<path d="M26.4687 27.0901H28.8587C29.0094 27.0901 29.1539 27.0302 29.2604 26.9237C29.3669 26.8172 29.4268 26.6727 29.4268 26.5221C29.4268 26.3714 29.3669 26.2269 29.2604 26.1204C29.1539 26.0139 29.0094 25.954 28.8587 25.954H26.4687C26.3181 25.954 26.1736 26.0139 26.0671 26.1204C25.9606 26.2269 25.9007 26.3714 25.9007 26.5221C25.9007 26.6727 25.9606 26.8172 26.0671 26.9237C26.1736 27.0302 26.3181 27.0901 26.4687 27.0901Z" fill="#F58634" stroke="#FFBB89" stroke-width="0.355556"/>
<path d="M38.9808 29.2614H37.6886C37.5379 29.2614 37.3935 29.3213 37.2869 29.4278C37.1804 29.5343 37.1206 29.6788 37.1206 29.8294C37.1206 29.9801 37.1804 30.1246 37.2869 30.2311C37.3935 30.3376 37.5379 30.3975 37.6886 30.3975L38.9808 30.3975C39.1314 30.3975 39.2759 30.3376 39.3824 30.2311C39.489 30.1246 39.5488 29.9801 39.5488 29.8294C39.5488 29.6788 39.489 29.5343 39.3824 29.4278C39.2759 29.3213 39.1314 29.2614 38.9808 29.2614Z" fill="#F58634" stroke="#FFBB89" stroke-width="0.355556"/>
<path d="M36.8575 29.8294C36.8575 29.6788 36.7976 29.5343 36.6911 29.4278C36.5846 29.3213 36.4401 29.2614 36.2894 29.2614H34.5283C34.3777 29.2614 34.2332 29.3213 34.1267 29.4278C34.0201 29.5343 33.9603 29.6788 33.9603 29.8294C33.9603 29.9801 34.0201 30.1246 34.1267 30.2311C34.2332 30.3376 34.3777 30.3975 34.5283 30.3975L36.2894 30.3975C36.4401 30.3975 36.5846 30.3376 36.6911 30.2311C36.7976 30.1246 36.8575 29.9801 36.8575 29.8294Z" fill="#F58634" stroke="#FFBB89" stroke-width="0.355556"/>
<path d="M33.5422 29.8294C33.5422 29.6788 33.4823 29.5343 33.3758 29.4278C33.2693 29.3213 33.1248 29.2614 32.9741 29.2614H26.4687C26.3181 29.2614 26.1736 29.3213 26.0671 29.4278C25.9606 29.5343 25.9007 29.6788 25.9007 29.8294C25.9007 29.9801 25.9606 30.1246 26.0671 30.2311C26.1736 30.3376 26.3181 30.3975 26.4687 30.3975L32.9741 30.3975C33.1248 30.3975 33.2693 30.3376 33.3758 30.2311C33.4823 30.1246 33.5422 29.9801 33.5422 29.8294Z" fill="#F58634" stroke="#FFBB89" stroke-width="0.355556"/>
<path d="M38.9808 32.7747H36.2346C36.084 32.7747 35.9395 32.8346 35.833 32.9411C35.7264 33.0476 35.6666 33.1921 35.6666 33.3428C35.6666 33.4934 35.7264 33.6379 35.833 33.7444C35.9395 33.8509 36.084 33.9108 36.2346 33.9108H38.9808C39.1315 33.9108 39.276 33.8509 39.3825 33.7444C39.489 33.6379 39.5489 33.4934 39.5489 33.3428C39.5489 33.1921 39.489 33.0476 39.3825 32.9411C39.276 32.8346 39.1315 32.7747 38.9808 32.7747Z" fill="#F58634" stroke="#FFBB89" stroke-width="0.355556"/>
<path d="M31.3238 32.7747C31.1732 32.7747 31.0287 32.8346 30.9222 32.9411C30.8157 33.0476 30.7558 33.1921 30.7558 33.3428C30.7558 33.4934 30.8157 33.6379 30.9222 33.7444C31.0287 33.8509 31.1732 33.9108 31.3238 33.9108H34.836C34.9866 33.9108 35.1311 33.8509 35.2376 33.7444C35.3441 33.6379 35.404 33.4934 35.404 33.3428C35.404 33.1921 35.3441 33.0476 35.2376 32.9411C35.1311 32.8346 34.9866 32.7747 34.836 32.7747H31.3238Z" fill="#F58634" stroke="#FFBB89" stroke-width="0.355556"/>
<path d="M38.9814 36.0221H31.2339C31.0832 36.0221 30.9387 36.082 30.8322 36.1885C30.7257 36.295 30.6659 36.4395 30.6659 36.5901C30.6659 36.7408 30.7257 36.8853 30.8322 36.9918C30.9387 37.0983 31.0832 37.1581 31.2339 37.1581L38.9814 37.1581C39.132 37.1581 39.2765 37.0983 39.383 36.9918C39.4896 36.8853 39.5494 36.7408 39.5494 36.5901C39.5494 36.4395 39.4896 36.295 39.383 36.1885C39.2765 36.082 39.132 36.0221 38.9814 36.0221Z" fill="#F58634" stroke="#FFBB89" stroke-width="0.355556"/>
<path d="M25.6851 36.0504C25.561 36.0435 25.4388 36.0776 25.3368 36.1463H25.3272L25.2762 36.1929L21.5006 39.6515L19.6708 37.6672C19.6207 37.6116 19.5601 37.5665 19.4926 37.5344C19.4246 37.5021 19.3509 37.4836 19.2757 37.48C19.2005 37.4765 19.1254 37.4879 19.0547 37.5136C18.9839 37.5393 18.919 37.5788 18.8637 37.6298C18.8084 37.6809 18.7637 37.7424 18.7324 37.8108C18.701 37.8792 18.6836 37.9532 18.6811 38.0284C18.6785 38.1036 18.691 38.1786 18.7177 38.2489C18.7442 38.3189 18.7843 38.3829 18.8357 38.4373L21.0492 40.8376C21.0492 40.8376 21.0492 40.8376 21.0492 40.8376C21.1511 40.9481 21.2926 41.0137 21.4428 41.0201C21.593 41.0264 21.7396 40.973 21.8504 40.8715L21.8504 40.8715L26.0436 37.0307L26.0436 37.0308L26.0463 37.0281C26.1537 36.9255 26.2166 36.7849 26.2215 36.6365C26.2265 36.4881 26.1731 36.3436 26.0728 36.234L26.0728 36.234C25.9726 36.1245 25.8334 36.0585 25.6851 36.0504Z" fill="#F58634" stroke="#FFBB89" stroke-width="0.355556"/>
</svg>
