<svg width="64" height="64" viewBox="0 0 64 64" fill="none" xmlns="http://www.w3.org/2000/svg">
<path d="M8.09143 53.6021C2.12795 46.6227 -1.01072 37.1951 0.291828 27.5547C1.57868 17.9294 7.32245 8.10654 16.2991 3.37756C25.2757 -1.36664 37.4851 -1.00169 47.2307 3.77291C56.9919 8.5323 64.2894 17.6862 63.9912 25.8364C63.7087 33.9867 58.9207 43.0018 52.2667 50.1333C45.6127 57.2496 37.0928 62.4823 29.968 63.7747C22.8589 65.0824 14.0549 60.5663 8.09143 53.6021Z" fill="#FEF5EF"/>
<path d="M31.7094 19.9451L31.7094 19.9451C32.1976 19.9936 32.6161 19.6125 32.6161 19.125C32.6161 18.6683 32.2477 18.3006 31.7917 18.3006C31.335 18.3006 30.9673 18.669 30.9673 19.125C30.9673 19.5492 31.287 19.9032 31.7094 19.9451Z" fill="#F58634" stroke="#FFBB89" stroke-width="0.4"/>
<path d="M31.5547 48.1653L31.5549 48.1653C31.632 48.1884 31.7118 48.2 31.7917 48.2C31.8716 48.2 31.9515 48.1884 32.0288 48.1652C39.7085 45.8615 45.1167 38.7864 45.1167 30.5744V20.375C45.1167 19.9194 44.7473 19.55 44.2917 19.55C42.679 19.55 41.3667 18.2377 41.3667 16.625C41.3667 16.1694 40.9973 15.8 40.5417 15.8H23.0417C22.5861 15.8 22.2167 16.1694 22.2167 16.625C22.2167 18.2377 20.9044 19.55 19.2917 19.55C18.8361 19.55 18.4667 19.9194 18.4667 20.375V30.5744C18.4667 38.6102 23.7046 45.8112 31.5547 48.1653ZM43.4667 30.5744C43.4667 37.9315 38.7864 44.3041 31.7917 46.5118C24.853 44.3211 20.1167 37.8904 20.1167 30.5744V21.1255C21.9795 20.7848 23.4515 19.3128 23.7922 17.45H39.7912C40.1319 19.3128 41.6039 20.7848 43.4667 21.1255V30.5744Z" fill="#F58634" stroke="#FFBB89" stroke-width="0.4"/>
<path d="M42.1227 21.5974L42.1227 21.5974C42.4227 21.7289 42.6167 22.0254 42.6167 22.3531V30.5744C42.6167 37.3654 38.4135 43.2774 32.0669 45.5233M42.1227 21.5974L32.0002 45.3348M42.1227 21.5974C40.8653 21.0468 39.8699 20.0514 39.3193 18.794L39.3193 18.794C39.1878 18.4939 38.8913 18.3 38.5636 18.3H34.2904C33.8349 18.3 33.4654 18.6694 33.4654 19.125C33.4654 19.5806 33.8349 19.95 34.2904 19.95H38.0472C38.7098 21.1937 39.723 22.2069 40.9667 22.8695V30.5744C40.9667 36.5826 37.3765 41.767 31.7917 43.8674C26.2069 41.767 22.6167 36.5826 22.6167 30.5744V22.8695C23.8604 22.2069 24.8736 21.1937 25.5362 19.95H29.2929C29.7485 19.95 30.1179 19.5806 30.1179 19.125C30.1179 18.6694 29.7485 18.3 29.2929 18.3H25.0198C24.6921 18.3 24.3956 18.494 24.2641 18.794L24.2641 18.794C23.7135 20.0513 22.718 21.0468 21.4607 21.5974L21.4607 21.5974C21.1607 21.7289 20.9667 22.0255 20.9667 22.3531V30.5744C20.9667 37.3599 25.1645 43.2755 31.5165 45.5233M42.1227 21.5974L31.5832 45.3348M32.0669 45.5233L32.0002 45.3348M32.0669 45.5233C32.0669 45.5233 32.0669 45.5233 32.0669 45.5233L32.0002 45.3348M32.0669 45.5233C31.9779 45.5548 31.8848 45.5706 31.7917 45.5706C31.6986 45.5706 31.6055 45.5548 31.5165 45.5233M32.0002 45.3348C31.9328 45.3586 31.8623 45.3706 31.7917 45.3706C31.7211 45.3706 31.6506 45.3586 31.5832 45.3348M31.5165 45.5233L31.5832 45.3348M31.5165 45.5233C31.5165 45.5233 31.5164 45.5233 31.5164 45.5233L31.5832 45.3348" fill="#F58634" stroke="#FFBB89" stroke-width="0.4"/>
<path d="M31.7917 24.925C28.5796 24.925 25.9667 27.5379 25.9667 30.75C25.9667 33.9621 28.5796 36.575 31.7917 36.575C35.0038 36.575 37.6167 33.9621 37.6167 30.75C37.6167 27.5379 35.0038 24.925 31.7917 24.925ZM31.7917 34.925C29.4898 34.925 27.6167 33.0519 27.6167 30.75C27.6167 28.4481 29.4898 26.575 31.7917 26.575C34.0936 26.575 35.9667 28.4481 35.9667 30.75C35.9667 33.0519 34.0936 34.925 31.7917 34.925Z" fill="#F58634" stroke="#FFBB89" stroke-width="0.4"/>
<path d="M34.875 28.9166L34.8749 28.9165C34.5527 28.5945 34.0305 28.5945 33.7082 28.9165L33.7082 28.9166L31.1666 31.4582L30.5 30.7916L30.4999 30.7916C30.1777 30.4695 29.6555 30.4696 29.3332 30.7916L29.3332 30.7916C29.011 31.1138 29.011 31.6362 29.3332 31.9584L29.3332 31.9584L30.5832 33.2084L30.5833 33.2085C30.7444 33.3693 30.9557 33.45 31.1666 33.45C31.3775 33.45 31.5889 33.3693 31.7499 33.2084L31.75 33.2084L34.875 30.0834C35.1972 29.7612 35.1971 29.2388 34.875 28.9166Z" fill="#F58634" stroke="#FFBB89" stroke-width="0.4"/>
</svg>
