<svg xmlns="http://www.w3.org/2000/svg" width="22" height="18" fill="none" viewBox="0 0 22 18"><path fill="#9FA3A3" d="M21.2899 3.02547H18.518V0.71637C18.518 0.526377 18.4431 0.344165 18.31 0.20982C18.1768 0.0754744 17.9962 0 17.8078 0H0.710136C0.521796 0 0.34117 0.0754744 0.207994 0.20982C0.0748176 0.344165 0 0.526377 0 0.71637V14.2486C0 14.4386 0.0748176 14.6208 0.207994 14.7552C0.34117 14.8895 0.521796 14.965 0.710136 14.965H3.24532V17.2836C3.24532 17.4736 3.32014 17.6558 3.45331 17.7902C3.58649 17.9245 3.76712 18 3.95545 18H21.2899C21.4782 18 21.6588 17.9245 21.792 17.7902C21.9252 17.6558 22 17.4736 22 17.2836V3.74184C22 3.55185 21.9252 3.36964 21.792 3.23529C21.6588 3.10095 21.4782 3.02547 21.2899 3.02547ZM1.42027 13.5322V1.43274H17.0977V13.5322H1.42027ZM20.5797 16.5577H4.66559V14.965H17.8078C17.9962 14.965 18.1768 14.8895 18.31 14.7552C18.4431 14.6208 18.518 14.4386 18.518 14.2486V4.45821H20.5797V16.5577Z"/><path fill="#9FA3A3" d="M11.3429 6.55715C11.7573 6.55715 12.1623 6.43321 12.5068 6.201C12.8513 5.96879 13.1198 5.63874 13.2784 5.25258C13.4369 4.86643 13.4784 4.44152 13.3976 4.03158C13.3168 3.62164 13.1172 3.24509 12.8243 2.94954C12.5313 2.65399 12.158 2.45272 11.7516 2.37117C11.3453 2.28963 10.9241 2.33148 10.5413 2.49143C10.1585 2.65138 9.83129 2.92225 9.6011 3.26978C9.37091 3.61731 9.24805 4.02589 9.24805 4.44386C9.24867 5.00415 9.46959 5.5413 9.86232 5.93749C10.2551 6.33367 10.7875 6.55652 11.3429 6.55715Z"/><path fill="#9FA3A3" d="M13.2837 7.72949C13.2172 7.64539 13.1328 7.57749 13.0367 7.53082C12.9406 7.48415 12.8353 7.45992 12.7286 7.45992C12.622 7.45992 12.5167 7.48415 12.4206 7.53082C12.3245 7.57749 12.2401 7.64539 12.1735 7.72949L10.99 9.21715L8.22992 5.15772C8.16471 5.06168 8.07728 4.98312 7.97519 4.92884C7.87311 4.87456 7.75946 4.84619 7.64406 4.84619C7.52866 4.84619 7.41501 4.87456 7.31293 4.92884C7.21084 4.98312 7.12341 5.06168 7.0582 5.15772L2.90627 11.266C2.83296 11.3735 2.79016 11.4992 2.7825 11.6295C2.77483 11.7597 2.80259 11.8896 2.86277 12.0052C2.92295 12.1207 3.01328 12.2174 3.12398 12.285C3.23469 12.3525 3.36158 12.3882 3.49095 12.3883H15.497C15.6305 12.388 15.7613 12.3498 15.8743 12.2779C15.9872 12.2061 16.0778 12.1036 16.1357 11.9822C16.1935 11.8607 16.2162 11.7253 16.2012 11.5915C16.1862 11.4576 16.1341 11.3307 16.0509 11.2254L13.2837 7.72949Z"/></svg>