<svg width="137" height="45" viewBox="0 0 137 45" fill="none" xmlns="http://www.w3.org/2000/svg">
<path opacity="0.95" d="M5.56582 0.000559538H131.435C132.889 -0.0199403 134.291 0.537098 135.334 1.54945C136.377 2.56179 136.976 3.94676 137 5.40046V39.5995C136.976 41.0532 136.377 42.4382 135.334 43.4506C134.291 44.4629 132.889 45.0199 131.435 44.9994H5.56582C4.11226 45.0202 2.70984 44.4633 1.66636 43.4509C0.622879 42.4385 0.0235831 41.0534 0 39.5995V5.40046C0.0235831 3.9466 0.622879 2.56149 1.66636 1.54912C2.70984 0.536741 4.11226 -0.0201872 5.56582 0.000559538Z" fill="#0D0D0D"/>
<path d="M29.9871 21.4745C30.0083 20.49 30.2801 19.5272 30.7767 18.6769C31.2733 17.8266 31.9784 17.117 32.8254 16.6151C32.2669 15.8564 31.5434 15.2346 30.7094 14.7966C29.8755 14.3585 28.9529 14.1157 28.0115 14.0865C25.9896 13.8796 24.0232 15.2653 22.9933 15.2653C21.9413 15.2644 20.3499 14.1114 18.6439 14.1392C17.5477 14.1674 16.4769 14.4757 15.5336 15.0349C14.5902 15.5941 13.8056 16.3855 13.2545 17.3338C10.9261 21.2491 12.6606 27.0084 14.8968 30.1753C16.019 31.7237 17.3176 33.4606 19.0337 33.3977C20.7037 33.3349 21.3345 32.363 23.3471 32.363C25.3597 32.363 25.9333 33.3977 27.6789 33.3617C29.4782 33.3349 30.6004 31.805 31.6857 30.2391C32.487 29.1404 33.1041 27.9184 33.5126 26.6213C32.4841 26.2051 31.6011 25.4947 30.9742 24.5791C30.3473 23.6635 30.0042 22.5833 29.988 21.4736" fill="white"/>
<path d="M26.6957 12.0068C27.1782 11.4481 27.5454 10.7994 27.7762 10.0981C28.007 9.39684 28.0969 8.65681 28.0405 7.92065C26.5556 8.06642 25.1774 8.75766 24.1723 9.86074C23.6911 10.3909 23.3206 11.0119 23.0827 11.6873C22.8448 12.3626 22.7442 13.0788 22.7869 13.7936C23.53 13.8037 24.2659 13.6482 24.9414 13.3384C25.6169 13.0285 26.2149 12.5721 26.692 12.0022" fill="white"/>
<path d="M54.2138 33.1732H51.8779L50.5987 29.2681H46.1458L44.9313 33.1732H42.6582L47.0639 19.8809H49.7914L54.2138 33.1732ZM50.2163 27.6301L49.059 24.1648C48.938 23.8044 48.7062 22.9767 48.3727 21.663H48.3266C48.1871 22.2302 47.9737 23.0672 47.68 24.1648L46.5356 27.6301H50.2163Z" fill="white"/>
<path d="M65.5406 28.2695C65.5794 28.9719 65.478 29.675 65.2424 30.3379C65.0067 31.0007 64.6416 31.61 64.1681 32.1302C63.7772 32.5413 63.3044 32.8658 62.7804 33.0828C62.2564 33.2999 61.6927 33.4046 61.1256 33.3904C60.577 33.437 60.026 33.3355 59.53 33.0965C59.0339 32.8575 58.6112 32.4896 58.3058 32.0314V37.0627H56.1075V26.7386C56.1075 25.7122 56.0798 24.6683 56.0244 23.5883H57.9539L58.0749 25.109H58.1118C58.4631 24.5515 58.9571 24.0981 59.5426 23.7958C60.128 23.4935 60.7837 23.3533 61.4415 23.3897C61.9964 23.3811 62.5462 23.4973 63.0502 23.7297C63.5543 23.962 63.9997 24.3045 64.3538 24.732C65.1805 25.7193 65.6044 26.9823 65.5406 28.2685V28.2695ZM63.3054 28.3415C63.3418 27.5241 63.1152 26.7165 62.6589 26.0374C62.442 25.7355 62.1544 25.4914 61.8212 25.3266C61.488 25.1618 61.1194 25.0814 60.7479 25.0923C60.2104 25.0941 59.6895 25.2781 59.2701 25.6143C58.833 25.9575 58.5284 26.4417 58.4083 26.9844C58.3496 27.1953 58.3155 27.4123 58.3067 27.6311V29.233C58.2914 29.8837 58.5272 30.5153 58.9653 30.9967C59.1823 31.2335 59.4482 31.4205 59.7444 31.5447C60.0407 31.669 60.3603 31.7275 60.6814 31.7163C61.0539 31.7312 61.4244 31.6548 61.7607 31.4938C62.0969 31.3328 62.3888 31.092 62.6109 30.7925C63.1053 30.0737 63.3494 29.212 63.3054 28.3406V28.3415Z" fill="white"/>
<path d="M76.895 28.2694C76.9343 28.9716 76.8335 29.6746 76.5985 30.3374C76.3635 31.0002 75.999 31.6097 75.5262 32.1302C75.1346 32.5419 74.661 32.8668 74.1359 33.0839C73.6109 33.301 73.0461 33.4054 72.4782 33.3903C71.9296 33.437 71.3785 33.3355 70.8825 33.0965C70.3865 32.8574 69.9637 32.4896 69.6583 32.0313V37.0626H67.4601V26.7386C67.4601 25.7122 67.4324 24.6683 67.377 23.5883H69.3064L69.4302 25.1099H69.4671C69.8093 24.6135 70.2599 24.2016 70.7849 23.9052C71.3098 23.6089 71.8953 23.436 72.497 23.3996C73.0987 23.3632 73.7007 23.4642 74.2576 23.6951C74.8144 23.9259 75.3114 24.2805 75.7109 24.732C76.5369 25.7199 76.9597 26.9832 76.895 28.2694ZM74.6598 28.3415C74.6962 27.5241 74.4696 26.7165 74.0133 26.0374C73.7962 25.735 73.5081 25.4907 73.1743 25.3259C72.8406 25.1611 72.4715 25.0809 72.0995 25.0923C71.562 25.0941 71.0411 25.2781 70.6217 25.6143C70.1881 25.9603 69.8849 26.4434 69.7618 26.9844C69.703 27.1953 69.6689 27.4123 69.6602 27.631V29.233C69.6448 29.8837 69.8807 30.5153 70.3187 30.9966C70.5358 31.2335 70.8016 31.4205 71.0979 31.5447C71.3941 31.6689 71.7138 31.7275 72.0348 31.7163C72.4075 31.7322 72.7784 31.6562 73.1148 31.4952C73.4513 31.3341 73.743 31.0928 73.9643 30.7925C74.4625 30.0754 74.707 29.2124 74.6589 28.3406L74.6598 28.3415Z" fill="white"/>
<path d="M89.6015 29.4482C89.6172 29.9702 89.5162 30.4891 89.3059 30.9671C89.0956 31.4452 88.7814 31.8703 88.386 32.2114C87.3269 33.0415 86.0004 33.4547 84.6573 33.3727C83.4222 33.4286 82.1957 33.1408 81.1143 32.5412L81.6241 30.7684C82.5899 31.3205 83.6844 31.6073 84.7968 31.5998C85.4834 31.6426 86.1642 31.4521 86.729 31.0594C86.9526 30.8914 87.1326 30.6721 87.2536 30.42C87.3747 30.1679 87.4333 29.8903 87.4245 29.6108C87.4283 29.3575 87.38 29.1062 87.2826 28.8724C87.1852 28.6387 87.0408 28.4274 86.8583 28.2518C86.3032 27.7845 85.6586 27.4352 84.964 27.2254C82.5431 26.3523 81.3461 25.083 81.3461 23.4182C81.3371 22.9038 81.4471 22.3944 81.6676 21.9296C81.888 21.4648 82.213 21.0574 82.617 20.739C83.5809 20.0043 84.7732 19.6336 85.9837 19.6923C87.0546 19.6542 88.1193 19.8701 89.0908 20.3224L88.5366 22.05C87.7201 21.6336 86.8141 21.4236 85.8978 21.4384C85.2463 21.4031 84.6032 21.5973 84.0801 21.9872C83.9068 22.1363 83.768 22.3214 83.6735 22.5296C83.5789 22.7378 83.5307 22.9641 83.5323 23.1928C83.529 23.4427 83.5843 23.6899 83.6939 23.9146C83.8035 24.1392 83.9642 24.335 84.1632 24.4862C84.7697 24.9311 85.4427 25.2775 86.1573 25.5126C87.1388 25.8449 88.03 26.4002 88.761 27.1348C89.3288 27.7676 89.6311 28.5947 89.6052 29.4445" fill="white"/>
<path d="M96.8733 25.1909H94.4525V29.8435C94.4525 31.0223 94.8792 31.6163 95.7326 31.6163C96.0599 31.6215 96.3866 31.5883 96.7061 31.5175L96.7708 33.137C96.2186 33.3086 95.6419 33.3876 95.0639 33.3707C94.6899 33.3915 94.3156 33.3333 93.9655 33.2C93.6154 33.0666 93.2973 32.861 93.0319 32.5965C92.4701 31.8576 92.2085 30.9336 92.2995 30.0097V25.1817H90.8623V23.589H92.3004V21.8337L94.4525 21.2036V23.589H96.8733V25.1909Z" fill="white"/>
<path d="M107.768 28.3054C107.819 29.6366 107.353 30.9358 106.47 31.9325C106.005 32.4193 105.442 32.8013 104.819 33.0527C104.195 33.3041 103.524 33.4192 102.852 33.3903C102.208 33.4188 101.565 33.3091 100.966 33.0685C100.368 32.8279 99.828 32.4619 99.3828 31.9953C98.5073 31.0335 98.0431 29.767 98.0897 28.4671C98.0384 27.1255 98.5145 25.8172 99.416 24.8225C99.8796 24.3449 100.439 23.9712 101.058 23.7261C101.677 23.481 102.34 23.3701 103.005 23.4007C103.654 23.3735 104.302 23.4847 104.905 23.7268C105.508 23.9689 106.052 24.3364 106.502 24.805C107.367 25.7604 107.822 27.0176 107.768 28.3054ZM105.496 28.3507C105.517 27.5567 105.312 26.7731 104.905 26.091C104.702 25.7425 104.411 25.4534 104.061 25.2525C103.711 25.0515 103.315 24.9458 102.911 24.9458C102.508 24.9458 102.111 25.0515 101.761 25.2525C101.411 25.4534 101.12 25.7425 100.917 26.091C100.505 26.7869 100.302 27.5868 100.332 28.3951C100.308 29.1883 100.511 29.9719 100.917 30.6539C101.118 31.0035 101.409 31.2935 101.758 31.4947C102.108 31.6958 102.505 31.8008 102.908 31.799C103.311 31.7972 103.707 31.6887 104.055 31.4845C104.403 31.2803 104.69 30.9877 104.889 30.6363C105.301 29.9464 105.51 29.1536 105.492 28.3498L105.496 28.3507Z" fill="white"/>
<path d="M114.906 25.4608C114.676 25.4236 114.443 25.4057 114.21 25.4072C113.865 25.3896 113.521 25.4577 113.209 25.6053C112.896 25.753 112.625 25.9756 112.42 26.2534C112.04 26.8087 111.848 27.4713 111.873 28.1436V33.174H109.675V26.6036C109.675 25.495 109.657 24.4889 109.61 23.5891H111.52L111.603 25.4248H111.667C111.876 24.8219 112.256 24.2933 112.762 23.9041C113.224 23.5717 113.778 23.3924 114.348 23.3914C114.531 23.3928 114.714 23.4049 114.895 23.4274L114.905 25.4599" fill="white"/>
<path d="M124.718 27.9267C124.723 28.2496 124.696 28.5721 124.635 28.8893H118.05C118.036 29.2993 118.115 29.7071 118.281 30.0825C118.446 30.4579 118.693 30.7915 119.005 31.0585C119.624 31.5219 120.384 31.7572 121.157 31.7246C122.064 31.7349 122.965 31.5825 123.819 31.2747L124.162 32.7529C123.109 33.1704 121.983 33.3724 120.851 33.3469C120.192 33.3834 119.532 33.2858 118.912 33.06C118.292 32.8342 117.724 32.4849 117.242 32.0332C116.797 31.5657 116.452 31.0128 116.227 30.4079C116.003 29.803 115.903 29.1588 115.934 28.5142C115.89 27.2024 116.325 25.9194 117.159 24.9057C117.577 24.4007 118.106 23.999 118.704 23.732C119.303 23.4651 119.955 23.34 120.61 23.3666C121.234 23.3297 121.857 23.4515 122.422 23.7206C122.986 23.9897 123.474 24.3974 123.838 24.9057C124.444 25.7951 124.752 26.8537 124.719 27.9294L124.718 27.9267ZM122.622 27.3779C122.651 26.801 122.502 26.2289 122.195 25.7399C122.01 25.4495 121.751 25.2138 121.444 25.0572C121.137 24.9006 120.795 24.8289 120.451 24.8493C120.112 24.8424 119.777 24.9173 119.473 25.0677C119.17 25.2181 118.907 25.4395 118.707 25.7131C118.337 26.1912 118.112 26.7661 118.061 27.3687L122.624 27.3779H122.622Z" fill="white"/>
<path d="M49.1605 15.1296H48.0097L47.3834 13.2126H45.1907L44.5876 15.1296H43.4746L45.6359 8.59521H46.9715L49.1605 15.1296ZM47.1849 12.4024L46.6187 10.6924C46.5632 10.5214 46.4515 10.1076 46.2751 9.45994H46.2566C46.1827 9.73709 46.0894 10.1436 45.9324 10.6933L45.3782 12.4033L47.1849 12.4024Z" fill="white"/>
<path d="M54.5774 10.4133L52.7394 15.1296H51.6929L49.9121 10.4179H51.0713L51.897 12.9123C52.0365 13.3262 52.1565 13.7226 52.2498 14.1004H52.2775C52.3607 13.7586 52.4817 13.3613 52.6304 12.9123L53.4469 10.4179H54.5774" fill="white"/>
<path d="M58.4923 15.1286L58.4092 14.5891H58.3815C58.2144 14.803 57.9982 14.9734 57.7512 15.0859C57.5043 15.1985 57.2338 15.2499 56.9628 15.2358C56.7727 15.2494 56.5819 15.2236 56.4022 15.1601C56.2225 15.0966 56.0579 14.9967 55.9186 14.8666C55.7793 14.7365 55.6683 14.5791 55.5926 14.4042C55.5169 14.2293 55.478 14.0406 55.4785 13.85C55.4785 12.6888 56.5176 12.0864 58.3169 12.0864V11.994C58.3169 11.3732 57.9733 11.0702 57.3055 11.0702C56.8568 11.0616 56.4153 11.1836 56.0345 11.4212L55.811 10.7367C56.3203 10.4517 56.8978 10.3118 57.481 10.332C57.7438 10.2974 58.011 10.3244 58.2616 10.411C58.5121 10.4976 58.7391 10.6413 58.9245 10.8308C59.1099 11.0203 59.2487 11.2503 59.3298 11.5027C59.4109 11.7551 59.4322 12.023 59.392 12.285V14.0219C59.3817 14.3984 59.4065 14.7751 59.4659 15.1471L58.4923 15.1296V15.1286ZM58.3427 12.7802C57.142 12.7802 56.5435 13.0574 56.5435 13.7345C56.534 13.834 56.5467 13.9342 56.5805 14.0282C56.6143 14.1221 56.6684 14.2074 56.739 14.278C56.8096 14.3486 56.8949 14.4028 56.9888 14.4366C57.0828 14.4704 57.183 14.4831 57.2824 14.4736C57.5508 14.4857 57.8131 14.3909 58.0119 14.2099C58.2106 14.029 58.3295 13.7767 58.3427 13.5082V12.7802Z" fill="white"/>
<path d="M61.7936 9.63928C61.7087 9.64239 61.624 9.62818 61.5448 9.5975C61.4655 9.56683 61.3934 9.52035 61.3326 9.46088C61.2719 9.40141 61.2239 9.3302 61.1916 9.25159C61.1593 9.17298 61.1433 9.08861 61.1446 9.00362C61.1459 8.91863 61.1645 8.8348 61.1993 8.75723C61.234 8.67965 61.2842 8.60997 61.3467 8.55241C61.4093 8.49486 61.4828 8.45063 61.563 8.42243C61.6432 8.39424 61.7283 8.38265 61.813 8.38839C61.8977 8.38308 61.9826 8.39521 62.0624 8.42404C62.1421 8.45286 62.2152 8.49776 62.2769 8.55596C62.3386 8.61416 62.3878 8.68442 62.4213 8.76239C62.4548 8.84035 62.4719 8.92436 62.4716 9.00922C62.473 9.09641 62.456 9.18291 62.4218 9.26312C62.3877 9.34334 62.337 9.41548 62.2732 9.47488C62.2094 9.53427 62.1338 9.5796 62.0513 9.60792C61.9689 9.63624 61.8814 9.64693 61.7946 9.63928H61.7936ZM61.2746 10.4135H62.3506V15.1205H61.2736L61.2746 10.4135Z" fill="white"/>
<path d="M64.2676 8.25342H65.3436V15.1204H64.2676V8.25342Z" fill="white"/>
<path d="M69.9289 15.1287L69.8457 14.5891H69.818C69.6509 14.803 69.4347 14.9734 69.1877 15.086C68.9408 15.1985 68.6703 15.2499 68.3993 15.2358C68.2092 15.2494 68.0184 15.2236 67.8387 15.1601C67.6591 15.0966 67.4944 14.9967 67.3551 14.8666C67.2158 14.7365 67.1048 14.5791 67.0291 14.4042C66.9534 14.2293 66.9146 14.0407 66.915 13.85C66.915 12.6888 67.9541 12.0864 69.7534 12.0864V11.994C69.7534 11.3732 69.4098 11.0702 68.742 11.0702C68.2933 11.0616 67.8518 11.1836 67.4711 11.4212L67.2485 10.7284C67.7577 10.4434 68.3353 10.3035 68.9184 10.3237C69.1812 10.2891 69.4485 10.3161 69.699 10.4027C69.9496 10.4893 70.1765 10.633 70.3619 10.8225C70.5473 11.012 70.6861 11.242 70.7673 11.4944C70.8484 11.7468 70.8697 12.0147 70.8294 12.2767V14.0136C70.8216 14.3898 70.8432 14.766 70.8941 15.1388H69.9289V15.1296V15.1287ZM69.7802 12.7793C68.5794 12.7793 67.9809 13.0565 67.9809 13.7336C67.9715 13.833 67.9841 13.9333 68.0179 14.0273C68.0517 14.1212 68.1059 14.2065 68.1765 14.2771C68.247 14.3477 68.3324 14.4019 68.4263 14.4357C68.5202 14.4695 68.6204 14.4821 68.7198 14.4727C68.988 14.4848 69.25 14.3902 69.4487 14.2097C69.6474 14.0291 69.7665 13.7773 69.7802 13.5091V12.7793Z" fill="white"/>
<path d="M75.2094 15.2377C74.9018 15.2537 74.5959 15.1839 74.3256 15.0361C74.0554 14.8883 73.8315 14.6683 73.679 14.4007H73.6605L73.5958 15.1296H72.6777C72.7054 14.7518 72.7147 14.3287 72.7147 13.8603V8.25342H73.8V11.1063H73.8184C73.981 10.8472 74.2111 10.6373 74.4841 10.4993C74.757 10.3612 75.0624 10.3002 75.3674 10.3228C76.5358 10.3228 77.3522 11.2947 77.3522 12.7082C77.3852 13.0165 77.3552 13.3282 77.2641 13.6245C77.173 13.9208 77.0228 14.1955 76.8224 14.432C76.6221 14.6685 76.3758 14.8618 76.0985 15.0003C75.8213 15.1388 75.5188 15.2196 75.2094 15.2377ZM74.985 11.1404C74.8249 11.1445 74.6672 11.1801 74.5209 11.2452C74.3746 11.3103 74.2425 11.4036 74.1323 11.5198C74.022 11.636 73.9358 11.7727 73.8784 11.9223C73.8211 12.0718 73.7938 12.2312 73.7981 12.3913V13.2228C73.7966 13.3772 73.8258 13.5303 73.8839 13.6733C73.9419 13.8163 74.0278 13.9464 74.1364 14.056C74.2451 14.1657 74.3744 14.2526 74.5169 14.312C74.6593 14.3713 74.8122 14.4018 74.9665 14.4016C75.7738 14.4016 76.2596 13.7623 76.2596 12.7461C76.2559 11.7871 75.7544 11.1404 74.985 11.1404Z" fill="white"/>
<path d="M78.9443 8.25342H80.0222V15.1204H78.9443V8.25342Z" fill="white"/>
<path d="M85.8918 13.0233H82.659C82.6552 13.2194 82.6932 13.414 82.7707 13.5942C82.8481 13.7743 82.9631 13.9359 83.108 14.068C83.2529 14.2001 83.4244 14.2996 83.6109 14.3601C83.7974 14.4205 83.9947 14.4404 84.1895 14.4184C84.6354 14.4216 85.0783 14.3453 85.4974 14.1929L85.6646 14.9219C85.1492 15.1284 84.5967 15.2266 84.0417 15.2101C83.7201 15.2408 83.3956 15.2008 83.091 15.0929C82.7865 14.985 82.5092 14.8118 82.2786 14.5854C82.0479 14.3591 81.8696 14.085 81.756 13.7825C81.6424 13.4799 81.5963 13.1562 81.6209 12.834C81.5934 12.5145 81.6321 12.1929 81.7347 11.8891C81.8372 11.5854 82.0014 11.3061 82.2169 11.0687C82.4323 10.8313 82.6945 10.641 82.9868 10.5097C83.2792 10.3783 83.5956 10.3088 83.9161 10.3054C84.2018 10.3013 84.485 10.3583 84.7469 10.4726C85.0088 10.5868 85.2433 10.7557 85.4347 10.9678C85.6261 11.18 85.77 11.4306 85.8568 11.7029C85.9436 11.9751 85.9712 12.2628 85.9379 12.5466C85.9442 12.7069 85.9287 12.8673 85.8918 13.0233ZM84.9099 12.2759C84.9099 11.547 84.5294 11.0343 83.8431 11.0343C83.5265 11.0545 83.2292 11.1938 83.0108 11.424C82.7924 11.6543 82.6691 11.9586 82.6655 12.2759H84.9099Z" fill="white"/>
<path d="M92.427 15.2367C92.1103 15.2468 91.7949 15.1905 91.5012 15.0713C91.2075 14.9521 90.942 14.7728 90.7218 14.5448C90.5016 14.3168 90.3315 14.0452 90.2226 13.7475C90.1137 13.4498 90.0683 13.1325 90.0893 12.8162C90.0651 12.4887 90.1106 12.1597 90.2227 11.851C90.3348 11.5423 90.511 11.2609 90.7397 11.0252C90.9684 10.7896 91.2444 10.6051 91.5496 10.4838C91.8548 10.3626 92.1821 10.3074 92.5102 10.3218C92.8269 10.3092 93.1427 10.3636 93.437 10.4813C93.7313 10.5991 93.9975 10.7776 94.2181 11.0053C94.4387 11.2329 94.6088 11.5046 94.7173 11.8024C94.8259 12.1003 94.8704 12.4178 94.8479 12.734C94.8705 13.0616 94.824 13.3902 94.7115 13.6987C94.5989 14.0071 94.4228 14.2885 94.1945 14.5244C93.9663 14.7604 93.691 14.9458 93.3865 15.0685C93.082 15.1912 92.7551 15.2485 92.427 15.2367ZM92.4732 11.0877C91.6937 11.0877 91.1931 11.7991 91.1931 12.7793C91.1931 13.7595 91.7029 14.4533 92.464 14.4533C93.2251 14.4533 93.7386 13.6939 93.7386 12.7534C93.7386 11.8129 93.2371 11.0877 92.4769 11.0877H92.4732Z" fill="white"/>
<path d="M100.649 15.1288H99.5731V12.4201C99.5731 11.5831 99.2387 11.1692 98.5903 11.1692C98.4434 11.1719 98.2984 11.204 98.1642 11.2639C98.0299 11.3237 97.909 11.4099 97.8087 11.5173C97.7084 11.6248 97.6307 11.7514 97.5803 11.8895C97.5299 12.0276 97.5078 12.1744 97.5152 12.3212V15.1205H96.4373V11.7632C96.4373 11.3493 96.4281 10.8994 96.4004 10.4135H97.3462L97.3924 11.1424H97.4201C97.5816 10.8812 97.8088 10.6669 98.0789 10.521C98.3491 10.3751 98.6528 10.3027 98.9598 10.3109C99.9758 10.3109 100.648 11.0666 100.648 12.3V15.1288" fill="white"/>
<path d="M107.708 11.2052H106.52V13.4917C106.52 14.0765 106.733 14.3647 107.15 14.3647C107.312 14.3657 107.474 14.3506 107.633 14.3195L107.66 15.1112C107.392 15.1988 107.111 15.2386 106.829 15.2285C105.976 15.2285 105.475 14.7666 105.475 13.5813V11.2052H104.765V10.4227H105.469V9.55795L106.527 9.24292V10.4134H107.72V11.2052" fill="white"/>
<path d="M113.422 15.1296H112.346V12.4385C112.346 11.5922 112.011 11.1691 111.362 11.1691C111.216 11.1639 111.07 11.1896 110.935 11.2444C110.799 11.2993 110.677 11.3821 110.575 11.4875C110.474 11.5929 110.396 11.7184 110.346 11.856C110.296 11.9936 110.276 12.1401 110.287 12.286V15.1204H109.211V8.25342H110.287V11.0795H110.305C110.46 10.8353 110.676 10.6361 110.931 10.5018C111.187 10.3675 111.473 10.3029 111.762 10.3145C112.792 10.3145 113.425 11.0887 113.425 12.3211V15.1296" fill="white"/>
<path d="M118.931 13.0233H115.691C115.687 13.2194 115.725 13.414 115.803 13.5942C115.88 13.7743 115.995 13.9359 116.14 14.068C116.285 14.2001 116.457 14.2996 116.643 14.3601C116.83 14.4205 117.027 14.4404 117.222 14.4184C117.668 14.4216 118.111 14.3453 118.53 14.1929L118.697 14.9219C118.181 15.1284 117.629 15.2266 117.074 15.2101C116.752 15.2408 116.428 15.2008 116.123 15.0929C115.819 14.985 115.541 14.8118 115.311 14.5854C115.08 14.3591 114.902 14.085 114.788 13.7825C114.675 13.4799 114.628 13.1562 114.653 12.834C114.626 12.5139 114.665 12.1916 114.768 11.8874C114.871 11.5831 115.035 11.3035 115.252 11.066C115.468 10.8285 115.731 10.6384 116.024 10.5075C116.317 10.3766 116.635 10.3078 116.956 10.3054C117.241 10.3013 117.525 10.3583 117.787 10.4726C118.048 10.5868 118.283 10.7557 118.474 10.9678C118.666 11.18 118.81 11.4306 118.896 11.7029C118.983 11.9751 119.011 12.2628 118.978 12.5466C118.984 12.7069 118.968 12.8673 118.931 13.0233ZM117.948 12.2759C117.948 11.547 117.567 11.0343 116.881 11.0343C116.564 11.0531 116.266 11.1918 116.047 11.4224C115.828 11.653 115.705 11.9581 115.703 12.2759H117.948Z" fill="white"/>
</svg>
