<svg width="18" height="18" viewBox="0 0 18 18" fill="none" xmlns="http://www.w3.org/2000/svg">
<path d="M16.6415 12.9396C17.2868 11.683 17.6604 10.2566 17.6604 8.83019C17.6604 3.97358 13.6868 0 8.83019 0C3.97358 0 0 3.97358 0 8.83019C0 13.6868 3.97358 17.6604 8.83019 17.6604C10.2566 17.6604 11.683 17.3208 12.9396 16.6415C13.4151 17.4566 14.2981 18 15.283 18C16.7774 18 18 16.7774 18 15.283C18 14.2981 17.4566 13.4151 16.6415 12.9396ZM8.83019 0.679245C13.3132 0.679245 16.9811 4.34717 16.9811 8.83019C16.9811 10.1547 16.6415 11.5132 16.0302 12.6679C15.7925 12.6 15.5547 12.566 15.283 12.566C14.8075 12.566 14.366 12.7019 13.9925 12.9057C13.2113 11.9887 12.1925 11.2755 11.0377 10.9019C12.1925 10.1547 12.9057 8.86415 12.9057 7.4717C12.9057 5.23019 11.0717 3.39623 8.83019 3.39623C6.58868 3.39623 4.75472 5.23019 4.75472 7.4717C4.75472 8.86415 5.46792 10.1547 6.62264 10.9019C4.95849 11.4792 3.56604 12.6679 2.75094 14.2642C1.46038 12.8038 0.645283 10.9019 0.645283 8.83019C0.679245 4.34717 4.34717 0.679245 8.83019 0.679245ZM9.95094 10.6642L8.83019 11.0717L7.70943 10.6642C6.35094 10.1887 5.43396 8.89811 5.43396 7.4717C5.43396 5.60377 6.96226 4.07547 8.83019 4.07547C10.6981 4.07547 12.2264 5.60377 12.2264 7.4717C12.2264 8.89811 11.3094 10.1887 9.95094 10.6642ZM8.83019 16.9811C6.69057 16.9811 4.72075 16.1321 3.26038 14.7736C4.07547 12.9736 5.70566 11.683 7.64151 11.3094L8.83019 11.0717L10.0189 11.3094C11.3434 11.5811 12.5321 12.2604 13.4491 13.2792C12.9057 13.7887 12.566 14.5019 12.566 15.283C12.566 15.5208 12.6 15.7925 12.6679 16.0302C11.4792 16.6415 10.1887 16.9811 8.83019 16.9811ZM15.283 17.3208C14.1623 17.3208 13.2453 16.4038 13.2453 15.283C13.2453 14.1623 14.1623 13.2453 15.283 13.2453C16.4038 13.2453 17.3208 14.1623 17.3208 15.283C17.3208 16.4038 16.4038 17.3208 15.283 17.3208ZM16.7094 14.8075L15.9962 15.4868L16.166 16.4717L15.283 15.9962L14.4 16.4717L14.5698 15.4868L13.8566 14.8075L14.8415 14.6717L15.283 13.7887L15.7245 14.6717L16.7094 14.8075Z" fill="white"/>
</svg>
