<svg width="14" height="14" viewBox="0 0 14 14" fill="none" xmlns="http://www.w3.org/2000/svg">
<path d="M13.8131 1.46361C13.754 1.40444 13.6838 1.35751 13.6066 1.32548C13.5293 1.29346 13.4465 1.27698 13.3629 1.27698C13.2792 1.27698 13.1964 1.29346 13.1192 1.32548C13.0419 1.35751 12.9718 1.40444 12.9127 1.46361L6.99945 7.37682L4.90429 5.28166C4.78489 5.16226 4.62294 5.09518 4.45408 5.09518C4.28522 5.09518 4.12327 5.16226 4.00387 5.28166C3.88446 5.40107 3.81738 5.56301 3.81738 5.73188C3.81738 5.90074 3.88446 6.06268 4.00387 6.18209L6.54924 8.72746C6.60834 8.78662 6.67852 8.83356 6.75577 8.86558C6.83302 8.89761 6.91582 8.91409 6.99945 8.91409C7.08307 8.91409 7.16588 8.89761 7.24313 8.86558C7.32038 8.83356 7.39056 8.78662 7.44966 8.72746L13.8131 2.36403C13.8723 2.30493 13.9192 2.23475 13.9512 2.1575C13.9832 2.08025 13.9997 1.99745 13.9997 1.91382C13.9997 1.8302 13.9832 1.74739 13.9512 1.67014C13.9192 1.59289 13.8723 1.52271 13.8131 1.46361Z" fill="#FDA57D"/>
<path d="M13.8595 5.6015C13.8428 5.51961 13.8102 5.44181 13.7634 5.37254C13.7166 5.30328 13.6566 5.2439 13.5869 5.19781C13.5172 5.15172 13.4391 5.11982 13.357 5.10392C13.2749 5.08802 13.1906 5.08844 13.1087 5.10515C13.0268 5.12187 12.949 5.15455 12.8797 5.20133C12.8104 5.24811 12.7511 5.30807 12.705 5.3778C12.6589 5.44753 12.627 5.52565 12.6111 5.6077C12.5952 5.68976 12.5956 5.77414 12.6123 5.85604C12.8745 7.13637 12.6909 8.46787 12.092 9.62947C11.4931 10.7911 10.5149 11.7129 9.3199 12.2419C8.12485 12.7709 6.78481 12.8753 5.52226 12.5377C4.25972 12.2001 3.15061 11.4409 2.37908 10.386C1.60754 9.33113 1.22 8.04412 1.28079 6.73863C1.34157 5.43314 1.84703 4.1877 2.71325 3.2091C3.57946 2.23049 4.75433 1.57758 6.04278 1.35877C7.33124 1.13995 8.65578 1.36839 9.7965 2.00617C9.94417 2.08886 10.1186 2.10951 10.2815 2.06356C10.3622 2.04081 10.4376 2.0024 10.5034 1.95052C10.5692 1.89863 10.6242 1.83429 10.6651 1.76117C10.7061 1.68805 10.7322 1.60758 10.742 1.52436C10.7519 1.44114 10.7453 1.35679 10.7225 1.27613C10.6998 1.19547 10.6613 1.12009 10.6095 1.05427C10.5576 0.988462 10.4932 0.933514 10.4201 0.892566C9.07931 0.141648 7.52864 -0.147158 6.0074 0.0707125C4.48616 0.288583 3.07889 1.00102 2.00275 2.09809C0.926614 3.19516 0.241413 4.61589 0.0528835 6.14105C-0.135646 7.6662 0.182974 9.21102 0.959579 10.5371C1.73618 11.8632 2.92761 12.8969 4.35001 13.4786C5.7724 14.0604 7.34672 14.1579 8.83002 13.756C10.3133 13.3542 11.6232 12.4754 12.5574 11.2553C13.4917 10.0351 13.9985 8.5414 13.9995 7.00464C13.9993 6.53345 13.9524 6.06345 13.8595 5.6015Z" fill="#FDA57D"/>
</svg>
