<svg xmlns="http://www.w3.org/2000/svg" width="30" height="30" fill="none" viewBox="0 0 30 30"><path fill="#EE3934" d="M15 0C6.71557 0 0 6.71557 0 15C0 23.2844 6.71557 30 15 30C23.2844 30 30 23.285 30 15C30 6.71557 23.2844 0 15 0ZM15 5.81678C15.9346 5.81678 16.6925 6.57401 16.6925 7.50866L16.2604 17.6049C16.2171 18.5173 15.5069 18.8647 15 18.8647C14.4319 18.8647 13.7897 18.5655 13.7396 17.6049L13.3069 7.50866C13.3075 6.57401 14.0654 5.81678 15 5.81678ZM16.5274 23.9823C16.1287 24.3847 15.5706 24.6141 15 24.6141C14.4288 24.6141 13.8706 24.3847 13.4682 23.9823C13.0658 23.5805 12.8365 23.0223 12.8365 22.4505C12.8365 21.8837 13.0658 21.3261 13.4682 20.9225C13.8706 20.5207 14.4288 20.287 15 20.287C15.5706 20.287 16.125 20.5207 16.5274 20.9225C16.9342 21.3255 17.1635 21.8837 17.1635 22.4505C17.1635 23.023 16.9342 23.5805 16.5274 23.9823Z"/></svg>