<svg xmlns="http://www.w3.org/2000/svg" width="13" height="12" fill="none" viewBox="0 0 13 12"><path fill="#07834E" fill-rule="evenodd" d="M8.00727 7.98858C9.27078 7.98858 10.2951 6.96669 10.2951 5.70613V2.28245C10.2951 1.02189 9.27078 0 8.00727 0H2.28779C1.02428 0 0 1.02189 0 2.28245V9.41511C0 9.57268 0.128035 9.70041 0.285974 9.70041C0.361538 9.69997 0.433723 9.66911 0.486156 9.61482L1.63005 8.4736C1.95854 8.15452 2.40135 7.97986 2.85974 7.98858H8.00727ZM1.14286 7.41792V2.28241C1.14286 1.65213 1.65499 1.14118 2.28675 1.14118H8.00623C8.63798 1.14118 9.15012 1.65213 9.15012 2.28241V5.70608C9.15012 6.33636 8.63798 6.84731 8.00623 6.84731H2.8587C2.23994 6.84731 1.63787 7.04753 1.14286 7.41792ZM11.4391 6.8474V2.2825C12.0664 2.28876 12.5716 2.79788 12.5716 3.42373V11.7147C12.5716 11.8723 12.4435 12 12.2856 12C12.21 11.9996 12.1378 11.9687 12.0854 11.9144L10.9415 10.7732C10.6186 10.4507 10.1802 10.27 9.72326 10.2711H3.43184C2.80008 10.2711 2.28794 9.76013 2.28794 9.12985H9.15131C10.4148 9.12985 11.4391 8.10797 11.4391 6.8474Z" clip-rule="evenodd"/></svg>