<svg width="339" height="320" viewBox="0 0 339 320" fill="none" xmlns="http://www.w3.org/2000/svg">
<path opacity="0.49" d="M252.43 74.1036C176.617 74.5619 130.408 15.023 94.352 3.54288C40.1565 -13.6361 -31.296 30.8859 14.795 154.029C60.8859 277.173 84.7583 308.505 167.764 319.039C234.19 327.423 292.653 279.235 315.984 240.776C352.446 180.614 328.25 73.6512 252.43 74.1036Z" fill="url(#paint0_linear)"/>
<g opacity="0.5">
<path opacity="0.5" d="M337.497 101.014V100.874V100.772V100.67C337.057 99.5172 336.257 98.5359 335.216 97.8714L334.935 97.706L301.124 78.3291L267.478 58.914L267.198 58.7486C266.787 58.4844 266.314 58.3334 265.826 58.311C265.338 58.2887 264.853 58.3958 264.42 58.6214H264.356H264.292L259.844 61.166L262.393 62.2474L253.472 109.322C253.253 110.614 253.422 111.942 253.956 113.139V113.241V113.33C254.396 114.483 255.196 115.464 256.238 116.129L323.491 154.882L322.866 157.834L327.072 155.404H327.136C327.59 155.136 327.977 154.767 328.267 154.325C328.556 153.884 328.74 153.383 328.805 152.859L337.905 104.678C338.12 103.443 337.978 102.172 337.497 101.014Z" fill="white"/>
<path opacity="0.5" d="M319.871 157.796L251.993 118.661C250.903 117.866 250.062 116.777 249.57 115.521C249.078 114.266 248.955 112.897 249.215 111.574L258.136 64.0798C258.659 61.3444 260.685 60.0848 262.788 61.268L330.666 100.403C331.756 101.199 332.596 102.288 333.088 103.543C333.581 104.798 333.704 106.167 333.444 107.49L324.523 154.984C324.064 157.733 321.923 158.979 319.871 157.796Z" fill="url(#paint1_linear)"/>
<path d="M330.434 100.251L296.775 80.8484L286.223 136.676L319.588 157.643C320.035 157.962 320.559 158.155 321.106 158.204C321.653 158.252 322.203 158.154 322.7 157.919C323.196 157.684 323.62 157.322 323.929 156.868C324.238 156.415 324.42 155.888 324.456 155.341L333.556 107.159C333.754 105.83 333.564 104.472 333.011 103.247C332.457 102.023 331.563 100.982 330.434 100.251Z" fill="url(#paint2_linear)"/>
<path d="M263.107 61.4332L296.765 80.8355L286.289 136.307L252.261 118.813C251.132 118.081 250.237 117.041 249.684 115.816C249.13 114.592 248.941 113.234 249.139 111.905L258.238 63.7233C258.277 63.1773 258.46 62.6515 258.77 62.1999C259.08 61.7483 259.504 61.3872 260 61.154C260.496 60.9207 261.045 60.8236 261.591 60.8726C262.137 60.9217 262.66 61.1152 263.107 61.4332Z" fill="url(#paint3_linear)"/>
<path d="M249.57 115.543C250.086 116.904 251.035 118.057 252.272 118.826L319.589 157.643C320.071 157.966 320.631 158.152 321.21 158.181C321.789 158.21 322.366 158.081 322.877 157.809L292.711 102.337L249.57 115.543Z" fill="url(#paint4_linear)"/>
<path d="M333.123 103.546C332.608 102.185 331.658 101.032 330.421 100.263L263.105 61.446C262.623 61.1235 262.063 60.9377 261.483 60.9086C260.904 60.8795 260.328 61.008 259.816 61.2806L289.983 116.714L333.123 103.546Z" fill="url(#paint5_linear)"/>
</g>
<path d="M23.059 141.867L23.1992 141.524L23.3012 141.282L23.4159 141.027C24.5277 138.118 26.5473 135.642 29.1764 133.966L29.8774 133.559L114.909 84.5253L199.941 35.4915L200.642 35.0844C201.682 34.4152 202.881 34.0332 204.117 33.9774C205.353 33.9215 206.581 34.1937 207.677 34.7663L207.843 34.8554L208.009 34.9444L219.237 41.4076L212.762 44.1939L235.218 163.051C235.723 166.271 235.28 169.568 233.944 172.542L233.842 172.796L233.74 173.038C232.627 175.947 230.608 178.423 227.979 180.099L58.4253 277.874L59.9929 285.33L49.3639 279.185L49.1982 279.096C48.0585 278.423 47.0866 277.501 46.3559 276.399C45.6251 275.297 45.1546 274.044 44.9798 272.734L22.014 151.066C21.488 147.962 21.8503 144.774 23.059 141.867Z" fill="white"/>
<path d="M67.5912 285.317L239.057 186.448C244.244 183.458 247.392 175.443 246.079 168.534L223.381 48.5706C222.107 41.6621 216.818 38.4941 211.631 41.484L40.203 140.34C35.016 143.33 31.8681 151.346 33.1808 158.254L55.8406 278.218C57.1406 285.126 62.4041 288.307 67.5912 285.317Z" fill="url(#paint6_linear)"/>
<path d="M40.9004 139.946L125.932 90.9121L152.581 231.945L68.2885 284.91C62.7191 288.129 57.2135 285.521 56.0027 279.096L33.0625 157.389C31.8007 150.964 35.331 143.152 40.9004 139.946Z" fill="url(#paint7_linear)"/>
<path d="M210.962 41.878L125.93 90.9118L152.413 231.054L238.363 186.855C243.932 183.636 247.462 175.824 246.251 169.399L223.311 47.6924C222.037 41.2801 216.531 38.6719 210.962 41.878Z" fill="url(#paint8_linear)"/>
<path d="M245.169 178.56C243.874 181.995 241.482 184.91 238.364 186.855L68.287 284.91C67.0717 285.723 65.658 286.192 64.1968 286.266C62.7356 286.34 61.2817 286.016 59.9902 285.33L136.19 145.188L245.169 178.56Z" fill="url(#paint9_linear)"/>
<path d="M34.0957 148.241C35.3912 144.806 37.7826 141.891 40.9013 139.946L210.965 41.8911C212.181 41.0778 213.594 40.6092 215.055 40.5352C216.517 40.4613 217.97 40.7848 219.262 41.4713L143.087 181.601L34.0957 148.241Z" fill="url(#paint10_linear)"/>
<defs>
<linearGradient id="paint0_linear" x1="35.3666" y1="116.661" x2="448.231" y2="285.86" gradientUnits="userSpaceOnUse">
<stop stop-color="#EAF7ED"/>
<stop offset="1" stop-color="#C7EFCF"/>
</linearGradient>
<linearGradient id="paint1_linear" x1="255.066" y1="94.6034" x2="335.644" y2="110.126" gradientUnits="userSpaceOnUse">
<stop stop-color="#7BDAFF"/>
<stop offset="1" stop-color="#59BDEF"/>
</linearGradient>
<linearGradient id="paint2_linear" x1="-172079" y1="94402.1" x2="-178862" y2="92770.6" gradientUnits="userSpaceOnUse">
<stop offset="0.77" stop-color="#31C850"/>
<stop offset="0.85" stop-color="#31C850"/>
<stop offset="0.93" stop-color="#31C850"/>
<stop offset="1" stop-color="#168A59"/>
</linearGradient>
<linearGradient id="paint3_linear" x1="-173182" y1="92040.7" x2="-179983" y2="90352.8" gradientUnits="userSpaceOnUse">
<stop offset="0.77" stop-color="#31C850"/>
<stop offset="0.85" stop-color="#31C850"/>
<stop offset="0.93" stop-color="#31C850"/>
<stop offset="1" stop-color="#168A59"/>
</linearGradient>
<linearGradient id="paint4_linear" x1="158492" y1="-92856.1" x2="153996" y2="-100663" gradientUnits="userSpaceOnUse">
<stop offset="0.77" stop-color="#19A469"/>
<stop offset="0.84" stop-color="#1A9A64"/>
<stop offset="0.92" stop-color="#1BB473"/>
<stop offset="1" stop-color="#12A466"/>
</linearGradient>
<linearGradient id="paint5_linear" x1="159466" y1="-108931" x2="150114" y2="-99372.9" gradientUnits="userSpaceOnUse">
<stop stop-color="#31C850"/>
<stop offset="1" stop-color="#37F05D"/>
</linearGradient>
<linearGradient id="paint6_linear" x1="468668" y1="-324849" x2="434574" y2="-318281" gradientUnits="userSpaceOnUse">
<stop stop-color="#7BDAFF"/>
<stop offset="1" stop-color="#59BDEF"/>
</linearGradient>
<linearGradient id="paint7_linear" x1="-435429" y1="238282" x2="-452564" y2="234158" gradientUnits="userSpaceOnUse">
<stop offset="0.77" stop-color="#31C850"/>
<stop offset="0.85" stop-color="#31C850"/>
<stop offset="0.93" stop-color="#31C850"/>
<stop offset="1" stop-color="#168A59"/>
</linearGradient>
<linearGradient id="paint8_linear" x1="-438190" y1="232343" x2="-455376" y2="228075" gradientUnits="userSpaceOnUse">
<stop offset="0.77" stop-color="#31C850"/>
<stop offset="0.85" stop-color="#31C850"/>
<stop offset="0.93" stop-color="#31C850"/>
<stop offset="1" stop-color="#168A59"/>
</linearGradient>
<linearGradient id="paint9_linear" x1="399792" y1="-234697" x2="388433" y2="-254418" gradientUnits="userSpaceOnUse">
<stop offset="0.77" stop-color="#19A469"/>
<stop offset="0.84" stop-color="#1A9A64"/>
<stop offset="0.92" stop-color="#1BB473"/>
<stop offset="1" stop-color="#12A466"/>
</linearGradient>
<linearGradient id="paint10_linear" x1="402174" y1="-275470" x2="378533" y2="-251327" gradientUnits="userSpaceOnUse">
<stop stop-color="#31C850"/>
<stop offset="1" stop-color="#37F05D"/>
</linearGradient>
</defs>
</svg>
