<svg xmlns="http://www.w3.org/2000/svg" width="60" height="60" fill="none" viewBox="0 0 60 60"><path fill="#EAF7ED" d="M7.58572 50.252C1.99496 43.7088 -0.947548 34.8704 0.27359 25.8325C1.48002 16.8089 6.8648 7.59988 15.2804 3.16646C23.6959 -1.28122 35.1423 -0.939087 44.2788 3.5371C53.4299 7.99903 60.2713 16.5808 59.9917 24.2217C59.7269 31.8625 55.2381 40.3142 49 47C42.7619 53.6715 34.7745 58.5771 28.095 59.7888C21.4302 61.0148 13.1765 56.7809 7.58572 50.252Z"/><path fill="#168A59" d="M42.4245 41.5972C42.4227 41.5908 42.4205 41.5845 42.4187 41.5781L39.1101 31.8129C38.9623 31.3765 38.5318 31.0832 38.0391 31.0832H34.1494C35.7074 28.6987 37.1537 25.9917 37.1537 24.1568C37.1537 20.2105 34.05 17 30.2353 17C26.4205 17 23.317 20.2105 23.317 24.1568C23.317 25.992 24.7631 28.6989 26.321 31.0832H22.4314C21.9388 31.0832 21.5084 31.3765 21.3605 31.8129L18.0458 41.5972C17.9489 41.9266 18.0073 42.2745 18.2061 42.5522C18.4069 42.8327 18.7302 43 19.071 43H41.3995C41.7403 43 42.064 42.8324 42.2647 42.5522C42.4635 42.2745 42.5218 41.9263 42.4245 41.5972ZM24.2595 24.1568C24.2595 20.7481 26.9402 17.975 30.2353 17.975C33.5303 17.975 36.2112 20.7481 36.2112 24.1568C36.2112 27.0448 31.7898 32.8783 30.4345 34.5973C30.3667 34.6833 30.2807 34.6963 30.2354 34.6963C30.19 34.6963 30.1039 34.6833 30.0361 34.5973C28.681 32.8783 24.2595 27.0456 24.2595 24.1568ZM41.5072 41.972C41.4931 41.9917 41.4602 42.025 41.3995 42.025H19.071C19.0106 42.025 18.9777 41.9917 18.9635 41.972C18.9434 41.9437 18.938 41.9136 18.9414 41.9006L22.2499 32.1354C22.2575 32.1135 22.3224 32.0582 22.4314 32.0582H26.9755C27.8547 33.3355 28.7106 34.4588 29.3056 35.2136C29.5348 35.5044 29.8737 35.6713 30.2354 35.6713C30.597 35.6713 30.9357 35.5044 31.1649 35.2136C31.7599 34.4588 32.6158 33.3355 33.4949 32.0582H38.0391C38.1483 32.0582 38.2133 32.1135 38.2207 32.1354L41.5247 41.8876C41.5317 41.9174 41.5259 41.9457 41.5072 41.972ZM31.9294 37.2757C31.9294 37.5448 31.7183 37.7632 31.4582 37.7632H29.0125C28.7522 37.7632 28.5412 37.5448 28.5412 37.2757C28.5412 37.0065 28.7522 36.7882 29.0125 36.7882H31.4582C31.7183 36.7882 31.9294 37.0065 31.9294 37.2757ZM34.2341 24.1568C34.2341 21.8758 32.4402 20.0201 30.2353 20.0201C28.0303 20.0201 26.2364 21.8758 26.2364 24.1568C26.2364 26.4379 28.0303 28.2936 30.2353 28.2936C32.4402 28.2936 34.2341 26.4379 34.2341 24.1568ZM27.1789 24.1568C27.1789 22.4134 28.55 20.9951 30.2353 20.9951C31.9205 20.9951 33.2916 22.4134 33.2916 24.1568C33.2916 25.9002 31.9205 27.3186 30.2353 27.3186C28.55 27.3186 27.1789 25.9002 27.1789 24.1568Z"/></svg>