<svg xmlns="http://www.w3.org/2000/svg" width="10" height="12" fill="none" viewBox="0 0 10 12"><path fill="#000" d="M8.17403 2.15771L7.85192 10.8547C7.84639 11.004 7.71493 11.1304 7.56503 11.1304H1.99977C1.85001 11.1304 1.71839 11.0035 1.71288 10.8547L1.39077 2.15771C1.38188 1.91775 1.18015 1.73043 0.940185 1.73932C0.700223 1.7482 0.512901 1.94994 0.521788 2.1899L0.843899 10.8869C0.866719 11.503 1.38221 12 1.99977 12H7.56503C8.18227 12 8.69804 11.504 8.7209 10.8869L9.04301 2.1899C9.0519 1.94994 8.86457 1.7482 8.62461 1.73932C8.38465 1.73043 8.18292 1.91775 8.17403 2.15771Z"/><path fill="#000" d="M4.43359 3.91314V9.82623C4.43359 10.0183 4.58932 10.1741 4.78142 10.1741C4.97352 10.1741 5.12925 10.0183 5.12925 9.82623V3.91314C5.12925 3.72104 4.97352 3.56531 4.78142 3.56531C4.58932 3.56531 4.43359 3.72104 4.43359 3.91314Z"/><path fill="#000" d="M2.52554 3.92337L2.69946 9.83646C2.70511 10.0285 2.86535 10.1796 3.05736 10.1739C3.24938 10.1683 3.40046 10.008 3.39482 9.81601L3.2209 3.90291C3.21525 3.7109 3.05501 3.55981 2.863 3.56546C2.67098 3.57111 2.5199 3.73135 2.52554 3.92337Z"/><path fill="#000" d="M6.34399 3.90291L6.17008 9.81601C6.16443 10.008 6.31551 10.1683 6.50753 10.1739C6.69955 10.1796 6.85979 10.0285 6.86543 9.83646L7.03935 3.92337C7.04499 3.73135 6.89391 3.57111 6.70189 3.56546C6.50988 3.55981 6.34964 3.7109 6.34399 3.90291Z"/><path fill="#000" d="M0.434787 2.34784H9.13052C9.37065 2.34784 9.56531 2.15318 9.56531 1.91306C9.56531 1.67293 9.37065 1.47827 9.13052 1.47827H0.434787C0.194661 1.47827 0 1.67293 0 1.91306C0 2.15318 0.194661 2.34784 0.434787 2.34784Z"/><path fill="#000" d="M3.46112 1.77163L3.64216 1.13797C3.68094 1.00225 3.85687 0.869573 3.99811 0.869573H5.5663C5.70763 0.869573 5.88344 1.00214 5.92225 1.13797L6.10329 1.77163L6.93941 1.53274L6.75836 0.899083C6.61288 0.389888 6.09582 0 5.5663 0H3.99811C3.46865 0 2.95149 0.390028 2.80605 0.899083L2.625 1.53274L3.46112 1.77163Z"/></svg>