<svg width="60" height="61" viewBox="0 0 60 61" fill="none" xmlns="http://www.w3.org/2000/svg">
<path d="M7.58572 50.323C1.99496 43.7798 -0.947548 34.9415 0.27359 25.9036C1.48002 16.8799 6.8648 7.67093 15.2804 3.23751C23.6959 -1.21017 35.1423 -0.868042 44.2788 3.60815C53.4299 8.07008 60.2713 16.6518 59.9917 24.2927C59.7269 31.9336 55.2381 40.3853 49 47.071C42.7619 53.7426 34.7745 58.6482 28.095 59.8599C21.4302 61.0858 13.1765 56.852 7.58572 50.323Z" fill="#EAF7ED"/>
<path d="M44.506 40.7067L38.674 34.8747C38.4451 34.6459 38.0742 34.6459 37.8453 34.8747L37.5885 35.1315L35.9703 33.5133C36.9145 32.2204 37.5901 30.7391 37.9343 29.1689C38.0037 28.8528 37.8037 28.5403 37.4876 28.471C37.1713 28.4019 36.859 28.6017 36.7897 28.9179C35.7496 33.6606 31.4651 37.1028 26.6019 37.1028C20.8509 37.1028 16.1719 32.4239 16.1719 26.6728C16.1719 20.9217 20.8508 16.2429 26.6019 16.2429C31.6055 16.2429 35.9146 19.8046 36.8478 24.7118C36.9083 25.0296 37.2149 25.2384 37.5329 25.1779C37.8508 25.1175 38.0594 24.8107 37.999 24.4929C36.9608 19.0335 32.1676 15.071 26.6019 15.071C20.2045 15.071 15 20.2756 15 26.6729C15 33.0702 20.2045 38.2748 26.6019 38.2748C29.059 38.2748 31.4636 37.4867 33.4394 36.0456L35.0569 37.6631L34.8001 37.9199C34.5713 38.1487 34.5713 38.5197 34.8001 38.7486L40.6322 44.5807C40.9591 44.9076 41.3886 45.071 41.8181 45.071C42.2474 45.071 42.6769 44.9076 43.0038 44.5807L44.506 43.0784C45.1598 42.4246 45.1598 41.3607 44.506 40.7067ZM34.3545 35.3034C34.6617 35.0269 34.9533 34.7348 35.2281 34.4287L36.7598 35.9603L35.8856 36.8345L34.3545 35.3034ZM43.6773 42.2498L42.1751 43.752C41.9781 43.949 41.6577 43.9489 41.4608 43.752L36.0431 38.3343L38.2596 36.1178L43.6773 41.5354C43.8742 41.7324 43.8742 42.0529 43.6773 42.2498Z" fill="#168A59"/>
<path d="M23.3156 23.5088H20.8239C20.5004 23.5088 20.238 23.7711 20.238 24.0947C20.238 24.4183 20.5004 24.6807 20.8239 24.6807H21.4838V27.7976C21.4838 28.1615 21.1878 28.4575 20.8239 28.4575C20.4601 28.4575 20.1641 28.1615 20.1641 27.7976C20.1641 27.474 19.9017 27.2117 19.5781 27.2117C19.2546 27.2117 18.9922 27.474 18.9922 27.7976C18.9922 28.8077 19.8139 29.6294 20.824 29.6294C21.8341 29.6294 22.6558 28.8077 22.6558 27.7976V24.6807H23.3157C23.6393 24.6807 23.9016 24.4183 23.9016 24.0947C23.9016 23.7711 23.6393 23.5088 23.3156 23.5088Z" fill="#168A59"/>
<path d="M26.7507 23.5088C25.0632 23.5088 23.6904 24.8816 23.6904 26.5691C23.6904 28.2565 25.0633 29.6294 26.7508 29.6294C28.4382 29.6294 29.8111 28.2565 29.8111 26.5691C29.8111 24.8816 28.4382 23.5088 26.7507 23.5088ZM26.7507 28.4576C25.7095 28.4576 24.8622 27.6104 24.8622 26.5691C24.8622 25.5278 25.7094 24.6807 26.7507 24.6807C27.7921 24.6807 28.6392 25.5278 28.6392 26.5691C28.6392 27.6104 27.792 28.4576 26.7507 28.4576Z" fill="#168A59"/>
<path d="M34.2134 25.3838C34.2134 24.35 33.3723 23.5088 32.3384 23.5088H31.1357C30.8122 23.5088 30.5498 23.7711 30.5498 24.0947V26.6729V29.2511C30.5498 29.5747 30.8122 29.837 31.1357 29.837H32.3383C33.3722 29.837 34.2134 28.9959 34.2134 27.962C34.2134 27.4629 34.017 27.0092 33.698 26.6729C34.017 26.3366 34.2134 25.8829 34.2134 25.3838ZM32.3384 28.6652H31.7217V27.2589H32.3383C32.726 27.2589 33.0414 27.5743 33.0414 27.962C33.0415 28.3498 32.7261 28.6652 32.3384 28.6652ZM32.3383 26.087H31.7217V24.6807H32.3383C32.726 24.6807 33.0414 24.9961 33.0414 25.3838C33.0414 25.7716 32.726 26.087 32.3383 26.087Z" fill="#168A59"/>
<path d="M37.6183 26.0869C37.2947 26.0869 37.0323 26.3493 37.0323 26.6729L37.0322 26.7146C37.031 27.0382 37.2923 27.3016 37.6159 27.3028C37.6167 27.3028 37.6174 27.3028 37.6182 27.3028C37.9407 27.3028 38.2029 27.0419 38.2041 26.7191L38.2042 26.6729C38.2042 26.3492 37.9418 26.0869 37.6183 26.0869Z" fill="#168A59"/>
<path d="M32.7297 20.5457C29.3511 17.1672 23.8539 17.1672 20.4753 20.5457C20.2465 20.7745 20.2465 21.1455 20.4753 21.3743C20.7041 21.6032 21.075 21.6032 21.304 21.3743C24.2256 18.4528 28.9794 18.4528 31.9011 21.3743C32.0155 21.4888 32.1655 21.5459 32.3154 21.5459C32.4654 21.5459 32.6153 21.4887 32.7297 21.3743C32.9585 21.1456 32.9585 20.7745 32.7297 20.5457Z" fill="#168A59"/>
<path d="M21.3157 31.9831L21.3041 31.9714C21.0751 31.7426 20.7042 31.7426 20.4753 31.9714C20.2465 32.2002 20.2465 32.5712 20.4753 32.8001C20.4758 32.8006 20.4802 32.805 20.4807 32.8054L20.4834 32.8081C20.598 32.9233 20.7487 32.981 20.8994 32.981C21.0486 32.981 21.1979 32.9244 21.312 32.8111C21.5416 32.5833 21.5434 32.2128 21.3157 31.9831Z" fill="#168A59"/>
<path d="M32.7298 31.9715C32.501 31.7428 32.1301 31.7427 31.9011 31.9715C29.5165 34.3562 25.8091 34.8537 22.8858 33.1818C22.6048 33.0211 22.2469 33.1185 22.0862 33.3995C21.9255 33.6804 22.023 34.0383 22.3039 34.199C23.6415 34.964 25.1206 35.3363 26.5909 35.3363C28.8375 35.3363 31.0631 34.4668 32.7299 32.8002C32.9587 32.5715 32.9587 32.2004 32.7298 31.9715Z" fill="#168A59"/>
</svg>
