<svg width="88" height="88" viewBox="0 0 88 88" fill="none" xmlns="http://www.w3.org/2000/svg">
<path d="M68.2226 76.1802C58.8668 82.8247 46.7788 85.6787 34.9221 82.9797C23.0825 80.3019 11.4949 72.0531 6.61057 60.3488C1.70727 48.6428 3.52608 33.4829 10.5596 21.8833C17.5759 10.2625 29.7879 2.20025 39.9016 3.48231C50.0171 4.74484 58.0343 15.3517 66.1693 24.4328C74.2854 33.5123 82.5194 41.0661 83.3323 50.0808C84.1659 59.0778 77.5595 69.534 68.2226 76.1802Z" fill="#E8FCEE"/>
<mask id="path-2-outside-1" maskUnits="userSpaceOnUse" x="33.5723" y="27.1846" width="22" height="19" fill="black">
<rect fill="white" x="33.5723" y="27.1846" width="22" height="19"/>
<path d="M54.2238 37.7669H54.0972L52.3458 33.6341V33.6134C52.4334 33.6126 52.5215 33.6115 52.609 33.6076C52.9523 33.5926 53.2183 33.3054 53.2033 32.9659C53.1881 32.6265 52.8989 32.3655 52.5542 32.3783C52.4849 32.3814 52.4153 32.3822 52.3458 32.3829V32.1467C52.3458 31.8068 52.0673 31.5314 51.7236 31.5314C51.3799 31.5314 51.1014 31.8068 51.1014 32.1467V32.2705C48.578 31.7731 48.5738 30.3847 46.7282 30.3847H46.6181C46.4222 29.8248 45.9715 29.3817 45.4035 29.1913V28.7998C45.4035 28.4599 45.125 28.1846 44.7813 28.1846C44.4376 28.1846 44.1591 28.4599 44.1591 28.7998V29.1913C43.591 29.3817 43.1402 29.825 42.9443 30.3852C42.8907 30.3939 41.9203 30.2938 41.0491 31.0261C40.4949 31.4921 39.6491 32.0252 38.5066 32.2612V32.1472C38.5066 31.8073 38.2281 31.5319 37.8844 31.5319C37.5407 31.5319 37.2622 31.8073 37.2622 32.1472V32.3855C36.9259 32.3938 36.6557 32.6654 36.6557 33C36.6557 33.3345 36.9258 33.6061 37.2622 33.6144V33.6344L35.511 37.7669C35.4613 37.7748 35.0927 37.7107 34.7991 38.0137C34.5003 38.3216 34.5569 38.6901 34.6327 39.1775C34.7443 39.8287 35.1632 40.4178 35.8385 40.7401C36.1486 40.8863 36.3873 41.2437 36.9782 41.2437H38.7906C39.2218 41.2437 39.5275 41.0139 39.5843 40.9679C39.7555 40.8292 39.7879 40.8125 39.944 40.7334C40.8231 40.3182 41.1524 39.551 41.1939 38.601C41.2054 38.1147 40.822 37.7669 40.3846 37.7669H40.2579L38.5066 33.6345V33.5111C40.1222 33.2336 41.2621 32.4622 41.8551 31.9636C42.3314 31.5632 42.9001 31.6213 42.9366 31.6158C43.1284 32.1863 43.5834 32.6388 44.159 32.8316V39.2244C42.9164 39.3069 42.1053 40.5663 42.5628 41.7158C41.7869 41.9331 41.2167 42.6393 41.2167 43.475C41.2167 44.4833 42.0464 45.3036 43.0661 45.3036H46.5495C47.5692 45.3036 48.3988 44.4832 48.3988 43.475C48.3988 42.622 47.8051 41.9038 47.0048 41.7027C47.4514 40.5547 46.6394 39.3065 45.4034 39.2244V32.8316C45.979 32.6387 46.4343 32.186 46.6259 31.6153C46.67 31.622 47.2166 31.5573 47.6994 31.9631C48.299 32.4672 49.4575 33.2501 51.1013 33.5197V33.6342L49.3499 37.767C49.3002 37.775 48.9319 37.7109 48.6381 38.0139C48.3813 38.2786 48.4126 38.6091 48.414 38.6009C48.414 39.6628 48.9193 40.3782 49.6775 40.7402C49.9975 40.8911 50.229 41.2438 50.8173 41.2438H52.6297C53.1942 41.2436 53.3883 40.9359 53.7847 40.7326C54.6699 40.3138 54.9966 39.5482 55.0335 38.6001C55.0522 38.1482 54.686 37.7669 54.2238 37.7669ZM36.9714 40.0143L36.9713 40.0142C36.9719 40.0142 36.9895 40.0296 36.9895 40.0296C36.9849 40.0257 36.9761 40.0181 36.9714 40.0143ZM38.7947 40.0163C38.7915 40.0188 38.7901 40.0134 38.7904 40.0132C36.1275 40.0072 37.4326 40.1216 36.3651 39.6249C36.1053 39.5036 35.9198 39.2704 35.8644 38.9976H39.9042C39.785 39.5841 39.3221 39.57 38.7947 40.0163ZM38.9085 37.7669H36.8602L37.8844 35.3501L38.9085 37.7669ZM47.1542 43.4748C47.1542 43.8047 46.8829 44.0729 46.5495 44.0729H43.0661C42.7325 44.0729 42.4613 43.8046 42.4613 43.4748C42.4613 43.1451 42.7326 42.8768 43.0661 42.8768C44.3598 42.8768 45.3906 42.8768 46.5495 42.8768C46.8829 42.8768 47.1542 43.1451 47.1542 43.4748ZM45.8833 41.0481C45.8833 41.3779 45.6119 41.6462 45.2785 41.6462H44.284C43.9505 41.6462 43.6792 41.3779 43.6792 41.0481C43.6792 40.7183 43.9506 40.4501 44.284 40.4501H45.2785C45.6119 40.4501 45.8833 40.7183 45.8833 41.0481ZM44.7811 31.7025C44.3957 31.7025 44.082 31.3925 44.082 31.0112C44.082 30.6301 44.3955 30.32 44.7811 30.32C45.1667 30.32 45.4802 30.63 45.4802 31.0112C45.4802 31.3925 45.1666 31.7025 44.7811 31.7025ZM51.7235 35.3497L52.748 37.7669H50.6992L51.7235 35.3497ZM50.8109 40.0143C50.8346 40.0344 50.8265 40.0276 50.8282 40.0291C50.8283 40.0291 50.8179 40.0204 50.8109 40.0143ZM52.634 40.0163C52.6324 40.0181 52.6294 40.0134 52.6294 40.0134C50.2812 40.0078 51.0698 40.1157 50.3843 39.7178C50.0829 39.556 49.7906 39.4255 49.7036 38.9974H53.7435C53.6235 39.5891 53.1376 39.589 52.634 40.0163Z"/>
</mask>
<path d="M54.2238 37.7669H54.0972L52.3458 33.6341V33.6134C52.4334 33.6126 52.5215 33.6115 52.609 33.6076C52.9523 33.5926 53.2183 33.3054 53.2033 32.9659C53.1881 32.6265 52.8989 32.3655 52.5542 32.3783C52.4849 32.3814 52.4153 32.3822 52.3458 32.3829V32.1467C52.3458 31.8068 52.0673 31.5314 51.7236 31.5314C51.3799 31.5314 51.1014 31.8068 51.1014 32.1467V32.2705C48.578 31.7731 48.5738 30.3847 46.7282 30.3847H46.6181C46.4222 29.8248 45.9715 29.3817 45.4035 29.1913V28.7998C45.4035 28.4599 45.125 28.1846 44.7813 28.1846C44.4376 28.1846 44.1591 28.4599 44.1591 28.7998V29.1913C43.591 29.3817 43.1402 29.825 42.9443 30.3852C42.8907 30.3939 41.9203 30.2938 41.0491 31.0261C40.4949 31.4921 39.6491 32.0252 38.5066 32.2612V32.1472C38.5066 31.8073 38.2281 31.5319 37.8844 31.5319C37.5407 31.5319 37.2622 31.8073 37.2622 32.1472V32.3855C36.9259 32.3938 36.6557 32.6654 36.6557 33C36.6557 33.3345 36.9258 33.6061 37.2622 33.6144V33.6344L35.511 37.7669C35.4613 37.7748 35.0927 37.7107 34.7991 38.0137C34.5003 38.3216 34.5569 38.6901 34.6327 39.1775C34.7443 39.8287 35.1632 40.4178 35.8385 40.7401C36.1486 40.8863 36.3873 41.2437 36.9782 41.2437H38.7906C39.2218 41.2437 39.5275 41.0139 39.5843 40.9679C39.7555 40.8292 39.7879 40.8125 39.944 40.7334C40.8231 40.3182 41.1524 39.551 41.1939 38.601C41.2054 38.1147 40.822 37.7669 40.3846 37.7669H40.2579L38.5066 33.6345V33.5111C40.1222 33.2336 41.2621 32.4622 41.8551 31.9636C42.3314 31.5632 42.9001 31.6213 42.9366 31.6158C43.1284 32.1863 43.5834 32.6388 44.159 32.8316V39.2244C42.9164 39.3069 42.1053 40.5663 42.5628 41.7158C41.7869 41.9331 41.2167 42.6393 41.2167 43.475C41.2167 44.4833 42.0464 45.3036 43.0661 45.3036H46.5495C47.5692 45.3036 48.3988 44.4832 48.3988 43.475C48.3988 42.622 47.8051 41.9038 47.0048 41.7027C47.4514 40.5547 46.6394 39.3065 45.4034 39.2244V32.8316C45.979 32.6387 46.4343 32.186 46.6259 31.6153C46.67 31.622 47.2166 31.5573 47.6994 31.9631C48.299 32.4672 49.4575 33.2501 51.1013 33.5197V33.6342L49.3499 37.767C49.3002 37.775 48.9319 37.7109 48.6381 38.0139C48.3813 38.2786 48.4126 38.6091 48.414 38.6009C48.414 39.6628 48.9193 40.3782 49.6775 40.7402C49.9975 40.8911 50.229 41.2438 50.8173 41.2438H52.6297C53.1942 41.2436 53.3883 40.9359 53.7847 40.7326C54.6699 40.3138 54.9966 39.5482 55.0335 38.6001C55.0522 38.1482 54.686 37.7669 54.2238 37.7669ZM36.9714 40.0143L36.9713 40.0142C36.9719 40.0142 36.9895 40.0296 36.9895 40.0296C36.9849 40.0257 36.9761 40.0181 36.9714 40.0143ZM38.7947 40.0163C38.7915 40.0188 38.7901 40.0134 38.7904 40.0132C36.1275 40.0072 37.4326 40.1216 36.3651 39.6249C36.1053 39.5036 35.9198 39.2704 35.8644 38.9976H39.9042C39.785 39.5841 39.3221 39.57 38.7947 40.0163ZM38.9085 37.7669H36.8602L37.8844 35.3501L38.9085 37.7669ZM47.1542 43.4748C47.1542 43.8047 46.8829 44.0729 46.5495 44.0729H43.0661C42.7325 44.0729 42.4613 43.8046 42.4613 43.4748C42.4613 43.1451 42.7326 42.8768 43.0661 42.8768C44.3598 42.8768 45.3906 42.8768 46.5495 42.8768C46.8829 42.8768 47.1542 43.1451 47.1542 43.4748ZM45.8833 41.0481C45.8833 41.3779 45.6119 41.6462 45.2785 41.6462H44.284C43.9505 41.6462 43.6792 41.3779 43.6792 41.0481C43.6792 40.7183 43.9506 40.4501 44.284 40.4501H45.2785C45.6119 40.4501 45.8833 40.7183 45.8833 41.0481ZM44.7811 31.7025C44.3957 31.7025 44.082 31.3925 44.082 31.0112C44.082 30.6301 44.3955 30.32 44.7811 30.32C45.1667 30.32 45.4802 30.63 45.4802 31.0112C45.4802 31.3925 45.1666 31.7025 44.7811 31.7025ZM51.7235 35.3497L52.748 37.7669H50.6992L51.7235 35.3497ZM50.8109 40.0143C50.8346 40.0344 50.8265 40.0276 50.8282 40.0291C50.8283 40.0291 50.8179 40.0204 50.8109 40.0143ZM52.634 40.0163C52.6324 40.0181 52.6294 40.0134 52.6294 40.0134C50.2812 40.0078 51.0698 40.1157 50.3843 39.7178C50.0829 39.556 49.7906 39.4255 49.7036 38.9974H53.7435C53.6235 39.5891 53.1376 39.589 52.634 40.0163Z" fill="#50BC93"/>
<path d="M54.2238 37.7669H54.0972L52.3458 33.6341V33.6134C52.4334 33.6126 52.5215 33.6115 52.609 33.6076C52.9523 33.5926 53.2183 33.3054 53.2033 32.9659C53.1881 32.6265 52.8989 32.3655 52.5542 32.3783C52.4849 32.3814 52.4153 32.3822 52.3458 32.3829V32.1467C52.3458 31.8068 52.0673 31.5314 51.7236 31.5314C51.3799 31.5314 51.1014 31.8068 51.1014 32.1467V32.2705C48.578 31.7731 48.5738 30.3847 46.7282 30.3847H46.6181C46.4222 29.8248 45.9715 29.3817 45.4035 29.1913V28.7998C45.4035 28.4599 45.125 28.1846 44.7813 28.1846C44.4376 28.1846 44.1591 28.4599 44.1591 28.7998V29.1913C43.591 29.3817 43.1402 29.825 42.9443 30.3852C42.8907 30.3939 41.9203 30.2938 41.0491 31.0261C40.4949 31.4921 39.6491 32.0252 38.5066 32.2612V32.1472C38.5066 31.8073 38.2281 31.5319 37.8844 31.5319C37.5407 31.5319 37.2622 31.8073 37.2622 32.1472V32.3855C36.9259 32.3938 36.6557 32.6654 36.6557 33C36.6557 33.3345 36.9258 33.6061 37.2622 33.6144V33.6344L35.511 37.7669C35.4613 37.7748 35.0927 37.7107 34.7991 38.0137C34.5003 38.3216 34.5569 38.6901 34.6327 39.1775C34.7443 39.8287 35.1632 40.4178 35.8385 40.7401C36.1486 40.8863 36.3873 41.2437 36.9782 41.2437H38.7906C39.2218 41.2437 39.5275 41.0139 39.5843 40.9679C39.7555 40.8292 39.7879 40.8125 39.944 40.7334C40.8231 40.3182 41.1524 39.551 41.1939 38.601C41.2054 38.1147 40.822 37.7669 40.3846 37.7669H40.2579L38.5066 33.6345V33.5111C40.1222 33.2336 41.2621 32.4622 41.8551 31.9636C42.3314 31.5632 42.9001 31.6213 42.9366 31.6158C43.1284 32.1863 43.5834 32.6388 44.159 32.8316V39.2244C42.9164 39.3069 42.1053 40.5663 42.5628 41.7158C41.7869 41.9331 41.2167 42.6393 41.2167 43.475C41.2167 44.4833 42.0464 45.3036 43.0661 45.3036H46.5495C47.5692 45.3036 48.3988 44.4832 48.3988 43.475C48.3988 42.622 47.8051 41.9038 47.0048 41.7027C47.4514 40.5547 46.6394 39.3065 45.4034 39.2244V32.8316C45.979 32.6387 46.4343 32.186 46.6259 31.6153C46.67 31.622 47.2166 31.5573 47.6994 31.9631C48.299 32.4672 49.4575 33.2501 51.1013 33.5197V33.6342L49.3499 37.767C49.3002 37.775 48.9319 37.7109 48.6381 38.0139C48.3813 38.2786 48.4126 38.6091 48.414 38.6009C48.414 39.6628 48.9193 40.3782 49.6775 40.7402C49.9975 40.8911 50.229 41.2438 50.8173 41.2438H52.6297C53.1942 41.2436 53.3883 40.9359 53.7847 40.7326C54.6699 40.3138 54.9966 39.5482 55.0335 38.6001C55.0522 38.1482 54.686 37.7669 54.2238 37.7669ZM36.9714 40.0143L36.9713 40.0142C36.9719 40.0142 36.9895 40.0296 36.9895 40.0296C36.9849 40.0257 36.9761 40.0181 36.9714 40.0143ZM38.7947 40.0163C38.7915 40.0188 38.7901 40.0134 38.7904 40.0132C36.1275 40.0072 37.4326 40.1216 36.3651 39.6249C36.1053 39.5036 35.9198 39.2704 35.8644 38.9976H39.9042C39.785 39.5841 39.3221 39.57 38.7947 40.0163ZM38.9085 37.7669H36.8602L37.8844 35.3501L38.9085 37.7669ZM47.1542 43.4748C47.1542 43.8047 46.8829 44.0729 46.5495 44.0729H43.0661C42.7325 44.0729 42.4613 43.8046 42.4613 43.4748C42.4613 43.1451 42.7326 42.8768 43.0661 42.8768C44.3598 42.8768 45.3906 42.8768 46.5495 42.8768C46.8829 42.8768 47.1542 43.1451 47.1542 43.4748ZM45.8833 41.0481C45.8833 41.3779 45.6119 41.6462 45.2785 41.6462H44.284C43.9505 41.6462 43.6792 41.3779 43.6792 41.0481C43.6792 40.7183 43.9506 40.4501 44.284 40.4501H45.2785C45.6119 40.4501 45.8833 40.7183 45.8833 41.0481ZM44.7811 31.7025C44.3957 31.7025 44.082 31.3925 44.082 31.0112C44.082 30.6301 44.3955 30.32 44.7811 30.32C45.1667 30.32 45.4802 30.63 45.4802 31.0112C45.4802 31.3925 45.1666 31.7025 44.7811 31.7025ZM51.7235 35.3497L52.748 37.7669H50.6992L51.7235 35.3497ZM50.8109 40.0143C50.8346 40.0344 50.8265 40.0276 50.8282 40.0291C50.8283 40.0291 50.8179 40.0204 50.8109 40.0143ZM52.634 40.0163C52.6324 40.0181 52.6294 40.0134 52.6294 40.0134C50.2812 40.0078 51.0698 40.1157 50.3843 39.7178C50.0829 39.556 49.7906 39.4255 49.7036 38.9974H53.7435C53.6235 39.5891 53.1376 39.589 52.634 40.0163Z" stroke="#50BC93" stroke-width="0.511765" mask="url(#path-2-outside-1)"/>
<path d="M50.6415 47.7937H38.921C38.508 47.7937 38.1709 48.125 38.1709 48.5369C38.1709 48.9487 38.508 49.28 38.921 49.28H50.6417C51.0547 49.28 51.3918 48.9487 51.3918 48.5369C51.3918 48.125 51.0545 47.7937 50.6415 47.7937Z" fill="#50BC93" stroke="#50BC93" stroke-width="0.255882"/>
<path d="M50.6415 50.3777H38.921C38.508 50.3777 38.1709 50.709 38.1709 51.1208C38.1709 51.5327 38.508 51.864 38.921 51.864H50.6417C51.0547 51.864 51.3918 51.5327 51.3918 51.1208C51.3918 50.7089 51.0545 50.3777 50.6415 50.3777Z" fill="#50BC93" stroke="#50BC93" stroke-width="0.255882"/>
<path d="M50.6415 52.9626H38.921C38.508 52.9626 38.1709 53.2939 38.1709 53.7058C38.1709 54.1177 38.508 54.449 38.921 54.449H50.6417C51.0547 54.449 51.3918 54.1177 51.3918 53.7058C51.3918 53.2939 51.0545 52.9626 50.6415 52.9626Z" fill="#50BC93" stroke="#50BC93" stroke-width="0.255882"/>
<path d="M31.7707 59.3974V61.8217C31.7707 62.6033 32.6426 63.074 33.3059 62.6577L33.3059 62.6577L34.6543 61.8106L35.9815 62.6444L35.9816 62.6444C36.6551 63.0666 37.5379 62.5882 37.5379 61.7967V59.3973H57.4869V63.6413H52.2464C51.8334 63.6413 51.4963 63.9726 51.4963 64.3845C51.4963 64.7964 51.8334 65.1277 52.2464 65.1277H52.2517H52.257H52.2625H52.2681H52.2738H52.2796H52.2855H52.2915H52.2977H52.3039H52.3102H52.3167H52.3232H52.3298H52.3366H52.3435H52.3504H52.3575H52.3646H52.3719H52.3793H52.3867H52.3943H52.4019H52.4097H52.4176H52.4255H52.4336H52.4417H52.45H52.4584H52.4668H52.4753H52.484H52.4927H52.5015H52.5105H52.5195H52.5286H52.5378H52.5471H52.5565H52.566H52.5755H52.5852H52.595H52.6048H52.6147H52.6247H52.6349H52.6451H52.6553H52.6657H52.6762H52.6867H52.6974H52.7081H52.7189H52.7298H52.7408H52.7518H52.763H52.7742H52.7855H52.7969H52.8084H52.8199H52.8315H52.8433H52.8551H52.8669H52.8789H52.8909H52.903H52.9152H52.9275H52.9399H52.9523H52.9648H52.9774H52.99H53.0027H53.0155H53.0284H53.0414H53.0544H53.0675H53.0807H53.0939H53.1072H53.1206H53.1341H53.1476H53.1612H53.1749H53.1886H53.2024H53.2163H53.2302H53.2442H53.2583H53.2724H53.2866H53.3009H53.3153H53.3297H53.3441H53.3587H53.3733H53.3879H53.4027H53.4174H53.4323H53.4472H53.4622H53.4772H53.4923H53.5075H53.5227H53.5379H53.5533H53.5687H53.5841H53.5996H53.6152H53.6308H53.6465H53.6622H53.678H53.6938H53.7097H53.7256H53.7416H53.7577H53.7738H53.79H53.8062H53.8224H53.8388H53.8551H53.8715H53.888H53.9045H53.9211H53.9377H53.9543H53.9711H53.9878H54.0046H54.0215H54.0383H54.0553H54.0723H54.0893H54.1064H54.1235H54.1406H54.1578H54.1751H54.1924H54.2097H54.2271H54.2445H54.2619H54.2794H54.297H54.3145H54.3321H54.3498H54.3675H54.3852H54.403H54.4208H54.4386H54.4565H54.4744H54.4923H54.5103H54.5283H54.5463H54.5644H54.5825H54.6006H54.6188H54.637H54.6552H54.6735H54.6918H54.7101H54.7285H54.7469H54.7653H54.7837H54.8022H54.8207H54.8392H54.8577H54.8763H54.8949H54.9135H54.9322H54.9509H54.9696H54.9883H55.007H55.0258H55.0446H55.0634H55.0822H55.1011H55.1199H55.1388H55.1577H55.1767H55.1956H55.2146H55.2336H55.2526H55.2716H55.2906H55.3097H55.3288H55.3479H55.367H55.3861H55.4052H55.4243H55.4435H55.4627H55.4818H55.501H55.5202H55.5395H55.5587H55.5779H55.5972H55.6164H55.6357H55.655H55.6742H55.6935H55.7128H55.7321H55.7514H55.7708H55.7901H55.8094H55.8287H55.8481H55.8674H55.8868H55.9061H55.9255H55.9448H55.9642H55.9835H56.0029H56.0222H56.0416H56.061H56.0803H56.0997H56.119H56.1384H56.1577H56.1771H56.1964H56.2157H56.2351H56.2544H56.2737H56.2931H56.3124H56.3317H56.351H56.3703H56.3896H56.4088H56.4281H56.4474H56.4666H56.4859H56.5051H56.5243H56.5435H56.5627H56.5819H56.6011H56.6203H56.6394H56.6585H56.6777H56.6968H56.7159H56.7349H56.754H56.7731H56.7921H56.8111H56.8301H56.8491H56.868H56.887H56.9059H56.9248H56.9437H56.9626H56.9814H57.0002H57.019H57.0378H57.0566H57.0753H57.094H57.1127H57.1313H57.15H57.1686H57.1872H57.2057H57.2243H57.2428H57.2613H57.2797H57.2982H57.3165H57.3349H57.3533H57.3716H57.3899H57.4081H57.4263H57.4445H57.4627H57.4808H57.4989H57.5169H57.535H57.553H57.5709H57.5888H57.6067H57.6246H57.6424H57.6602H57.6779H57.6956H57.7133H57.7309H57.7485H57.7661H57.7836H57.8011H57.8185H57.8359H57.8532H57.8705H57.8878H57.905H57.9222H57.9394H57.9565H57.9735H57.9905H58.0075H58.0244H58.0413H58.0581H58.0749H58.0916H58.1083H58.1249H58.1415H58.1581H58.1746H58.191H58.2074H58.2237H58.24H58.2563H58.2724H58.2886H58.3047H58.3207H58.3367H58.3526H58.3685H58.3843H58.4H58.4157H58.4314H58.447H58.4625H58.478H58.4934H58.5088H58.5241H58.5393H58.5545H58.5696H58.5847H58.5997H58.6147H58.6295H58.6444H58.6591H58.6738H58.6884H58.703H58.7175H58.732H58.7463H58.7607H58.7749H58.7891H58.8032H58.8172H58.8312H58.8451H58.859H58.8727H58.8864H58.9001H58.9137H58.9271H58.9406H58.9539H58.9672H58.9804H58.9936H59.0066H59.0196H59.0325H59.0454H59.0581H59.0708H59.0835H59.096H59.1085H59.1208H59.1332H59.1454H59.1576H59.1696H59.1816H59.1936H59.2054H59.2172H59.2288H59.2404H59.252H59.2634H59.2747H59.286H59.2972H59.3083H59.3193H59.3303H59.3411H59.3519H59.3626H59.3732H59.3837H59.3941H59.4044H59.4147H59.4248H59.4349H59.4449H59.4548H59.4646H59.4743H59.4839H59.4935H59.5029H59.5122H59.5215H59.5307H59.5397H59.5487H59.5576H59.5664H59.5751H59.5837H59.5922H59.6006H59.6089H59.6171H59.6252H59.6332H59.6411H59.6489H59.6567H59.6643H59.6718H59.6792H59.6865H59.6938H59.7009H59.7079H59.7148H59.7216H59.7283H59.7349H59.7414H59.7478H59.7541H59.7603H59.7663H59.7723H59.7782H59.7839C61.0752 65.1277 62.1279 64.0888 62.1279 62.8085V62.803V62.7973V62.7916V62.7857V62.7797V62.7736V62.7673V62.761V62.7545V62.748V62.7413V62.7345V62.7276V62.7205V62.7134V62.7062V62.6988V62.6914V62.6838V62.6761V62.6683V62.6604V62.6524V62.6443V62.6361V62.6278V62.6194V62.6108V62.6022V62.5935V62.5846V62.5757V62.5666V62.5575V62.5482V62.5389V62.5294V62.5199V62.5102V62.5005V62.4906V62.4807V62.4706V62.4605V62.4502V62.4399V62.4295V62.419V62.4083V62.3976V62.3868V62.3759V62.3649V62.3538V62.3426V62.3314V62.32V62.3086V62.297V62.2854V62.2737V62.2618V62.2499V62.238V62.2259V62.2137V62.2015V62.1891V62.1767V62.1642V62.1516V62.139V62.1262V62.1134V62.1004V62.0874V62.0744V62.0612V62.0479V62.0346V62.0212V62.0077V61.9941V61.9805V61.9668V61.953V61.9391V61.9252V61.9111V61.897V61.8828V61.8686V61.8543V61.8399V61.8254V61.8108V61.7962V61.7815V61.7668V61.7519V61.737V61.722V61.707V61.6919V61.6767V61.6615V61.6461V61.6308V61.6153V61.5998V61.5842V61.5686V61.5529V61.5371V61.5212V61.5053V61.4894V61.4733V61.4572V61.4411V61.4249V61.4086V61.3923V61.3759V61.3594V61.3429V61.3264V61.3097V61.293V61.2763V61.2595V61.2427V61.2257V61.2088V61.1918V61.1747V61.1576V61.1404V61.1232V61.1059V61.0886V61.0712V61.0537V61.0362V61.0187V61.0011V60.9835V60.9658V60.9481V60.9303V60.9125V60.8946V60.8767V60.8587V60.8407V60.8227V60.8046V60.7865V60.7683V60.7501V60.7318V60.7135V60.6951V60.6768V60.6583V60.6399V60.6213V60.6028V60.5842V60.5656V60.5469V60.5282V60.5095V60.4907V60.4719V60.4531V60.4342V60.4153V60.3964V60.3774V60.3584V60.3393V60.3203V60.3012V60.282V60.2629V60.2437V60.2244V60.2052V60.1859V60.1666V60.1473V60.1279V60.1085V60.0891V60.0696V60.0502V60.0307V60.0112V59.9916V59.9721V59.9525V59.9329V59.9132V59.8936V59.8739V59.8542V59.8345V59.8148V59.795V59.7752V59.7555V59.7356V59.7158V59.696V59.6761V59.6563V59.6364V59.6165V59.5965V59.5766V59.5567V59.5367V59.5167V59.4968V59.4768V59.4568V59.4367V59.4167V59.3967V59.3766V59.3566V59.3365V59.3165V59.2964V59.2763V59.2562V59.2361V59.216V59.1959V59.1758V59.1557V59.1356V59.1155V59.0953V59.0752V59.0551V59.035V59.0148V58.9947V58.9746V58.9544V58.9343V58.9142V58.8941V58.874V58.8538V58.8337V58.8136V58.7935V58.7734V58.7533V58.7332V58.7131V58.6931V58.673V58.6529V58.6329V58.6128V58.5928V58.5728V58.5528V58.5328V58.5128V58.4928V58.4728V58.4529V58.4329V58.413V58.3931V58.3732V58.3533V58.3334V58.3136V58.2937V58.2739V58.2541V58.2343V58.2145V58.1948V58.175V58.1553V58.1356V58.116V58.0963V58.0767V58.0571V58.0375V58.0179V57.9984V57.9789V57.9594V57.9399V57.9205V57.9011V57.8817V57.8623V57.843V57.8237V57.8044V57.7851V57.7659V57.7467V57.7276V57.7084V57.6893V57.6702V57.6512V57.6322V57.6132V57.5943V57.5754V57.5565V57.5377V57.5189V57.5001V57.4814V57.4627V57.444V57.4254V57.4068V57.3883V57.3698V57.3513V57.3329V57.3145V57.2961V57.2778V57.2596V57.2413V57.2232V57.205V57.1869V57.1689V57.1509V57.1329V57.115V57.0971V57.0793V57.0615V57.0438V57.0261V57.0085V56.9909V56.9734V56.9559V56.9385V56.9211V56.9038V56.8865V56.8693V56.8521V56.835V56.8179V56.8009V56.7839V56.767V56.7502V56.7334V56.7166V56.7V56.6833V56.6668V56.6503V56.6338V56.6174V56.6011V56.5848V56.5686V56.5525V56.5364V56.5203V56.5044V56.4885V56.4726V56.4569V56.4412V56.4255V56.4099V56.3944V56.379V56.3636V56.3483V56.333V56.3179V56.3028V56.2877V56.2727V56.2578V56.243V56.2282V56.2136V56.1989V56.1844V56.1699V56.1555V56.1412V56.127V56.1128V56.0987V56.0847V56.0707V56.0568V56.043V56.0293V56.0157V56.0021V55.9886V55.9752V55.9619V55.9487V55.9355V55.9224V55.9094V55.8965V55.8837V55.8709V55.8582V55.8457V55.8332V55.8207V55.8084V55.7962V55.784V55.7719V55.76V55.7481V55.7363V55.7245V55.7129V55.7014V55.6899V55.6786V55.6673V55.6561V55.645V55.634V55.6231V55.6123V55.6016V55.591V55.5805V55.5701V55.5597V55.5495V55.5394V55.5293V55.5194V55.5095V55.4998V55.4901V55.4806V55.4711V55.4618V55.4526V55.4434V55.4344V55.4254V55.4166V55.4079V55.3992V55.3907V55.3823V55.374V55.3658V55.3577V55.3497V55.3418V55.334V55.3263V55.3187V55.3113V55.3039V55.2967V55.2896V55.2826V55.2757V55.2689V55.2622V55.2556V55.2492V55.2428V55.2366V55.2305V55.2245V55.2186V55.2128V55.2072V55.2017V55.1962V55.1909V55.1858V55.1807V55.1758V55.1709V55.1662V55.1617V55.1572V55.1529V55.1487V55.1446V55.1406C62.1279 54.7287 61.7908 54.3974 61.3778 54.3974C60.9648 54.3974 60.6276 54.7287 60.6276 55.1406V57.0809C60.6276 57.4479 60.3842 57.7619 60.0462 57.8704C60.0434 57.8706 60.0397 57.8709 60.035 57.8712C60.0299 57.8715 60.0241 57.8718 60.0175 57.8721C60.0037 57.8728 59.9867 57.8735 59.9662 57.8742C59.9057 57.8762 59.8187 57.8781 59.7065 57.88C59.4824 57.8838 59.16 57.8872 58.7532 57.8902C57.9396 57.8964 56.7893 57.9012 55.4136 57.9049C52.6622 57.9124 49.0097 57.9156 45.3469 57.9165C38.4663 57.9182 31.5497 57.9119 30.503 57.9109V30.6878C30.503 30.2759 30.1659 29.9446 29.7529 29.9446C29.3399 29.9446 29.0027 30.2759 29.0027 30.6878V57.9521C28.4016 58.0431 27.8435 58.2806 27.3734 58.6242C27.3985 47.0462 27.3757 39.6094 27.361 34.7934C27.3548 32.7909 27.3501 31.2416 27.3508 30.0361C27.3519 27.9697 27.369 26.9178 27.4213 26.3236C27.4475 26.0274 27.4818 25.8525 27.5242 25.7256C27.566 25.6006 27.6172 25.5169 27.6898 25.3989C27.9837 24.923 28.4572 24.57 29.0025 24.429V27.8165C29.0025 28.2284 29.3397 28.5597 29.7527 28.5597C30.1657 28.5597 30.5029 28.2284 30.5029 27.8165V24.3585H59.9211C60.3118 24.3585 60.6275 24.6727 60.6275 25.0556V52.2696C60.6275 52.6815 60.9647 53.0128 61.3777 53.0128C61.7907 53.0128 62.1279 52.6815 62.1279 52.2696V25.0556C62.1279 23.8501 61.1366 22.8721 59.9211 22.8721H59.9129H59.9041H59.8947H59.8847H59.8741H59.8629H59.8512H59.8388H59.8259H59.8124H59.7983H59.7836H59.7684H59.7525H59.7362H59.7192H59.7017H59.6836H59.665H59.6458H59.626H59.6057H59.5849H59.5635H59.5415H59.519H59.496H59.4724H59.4483H59.4237H59.3985H59.3728H59.3466H59.3198H59.2926H59.2648H59.2365H59.2076H59.1783H59.1484H59.1181H59.0872H59.0558H59.024H58.9916H58.9587H58.9254H58.8915H58.8572H58.8224H58.787H58.7512H58.715H58.6782H58.641H58.6033H58.5651H58.5265H58.4874H58.4478H58.4078H58.3673H58.3263H58.2849H58.2431H58.2008H58.1581H58.1149H58.0712H58.0271H57.9826H57.9377H57.8923H57.8465H57.8003H57.7536H57.7065H57.659H57.6111H57.5627H57.514H57.4648H57.4152H57.3652H57.3148H57.264H57.2129H57.1613H57.1093H57.0569H57.0041H56.951H56.8974H56.8435H56.7892H56.7345H56.6794H56.624H56.5682H56.512H56.4555H56.3986H56.3413H56.2836H56.2257H56.1673H56.1086H56.0496H55.9902H55.9304H55.8703H55.8099H55.7491H55.688H55.6266H55.5648H55.5027H55.4403H55.3775H55.3145H55.2511H55.1874H55.1233H55.059H54.9944H54.9294H54.8641H54.7986H54.7327H54.6665H54.6001H54.5333H54.4663H54.3989H54.3313H54.2634H54.1952H54.1267H54.058H53.9889H53.9196H53.8501H53.7802H53.7101H53.6397H53.5691H53.4982H53.4271H53.3557H53.284H53.2121H53.14H53.0676H52.995H52.9221H52.849H52.7756H52.702H52.6282H52.5542H52.4799H52.4054H52.3307H52.2558H52.1807H52.1053H52.0297H51.9539H51.878H51.8018H51.7254H51.6488H51.572H51.495H51.4178H51.3404H51.2629H51.1851H51.1072H51.0291H50.9508H50.8723H50.7937H50.7149H50.6359H50.5567H50.4774H50.398H50.3183H50.2385H50.1586H50.0785H49.9982H49.9178H49.8373H49.7566H49.6757H49.5948H49.5137H49.4324H49.351H49.2695H49.1879H49.1062H49.0243H48.9423H48.8602H48.7779H48.6956H48.6131H48.5306H48.4479H48.3651H48.2823H48.1993H48.1162H48.0331H47.9498H47.8664H47.783H47.6995H47.6159H47.5322H47.4485H47.3646H47.2807H47.1967H47.1127H47.0286H46.9444H46.8602H46.7759H46.6915H46.6071H46.5227H46.4382H46.3536H46.269H46.1844H46.0997H46.015H45.9302H45.8454H45.7606H45.6758H45.5909H45.506H45.4211H45.3361H45.2512H45.1662H45.0812H44.9962H44.9112H44.8262H44.7412H44.6562H44.5712H44.4862H44.4012H44.3163H44.2313H44.1463H44.0614H43.9765H43.8916H43.8067H43.7218H43.637H43.5522H43.4675H43.3827H43.2981H43.2134H43.1288H43.0442H42.9597H42.8753H42.7909H42.7065H42.6222H42.538H42.4538H42.3697H42.2856H42.2016H42.1177H42.0339H41.9501H41.8664H41.7828H41.6993H41.6158H41.5325H41.4492H41.366H41.2829H41.2H41.1171H41.0343H40.9516H40.869H40.7866H40.7042H40.622H40.5398H40.4578H40.3759H40.2941H40.2125H40.131H40.0496H39.9683H39.8872H39.8062H39.7254H39.6447H39.5641H39.4837H39.4034H39.3233H39.2433H39.1635H39.0838H39.0044H38.925H38.8458H38.7668H38.688H38.6093H38.5309H38.4525H38.3744H38.2965H38.2187H38.1411H38.0637H37.9865H37.9095H37.8327H37.7561H37.6796H37.6034H37.5274H37.4516H37.376H37.3006H37.2255H37.1505H37.0758H37.0012H36.9269H36.8529H36.779H36.7054H36.6321H36.5589H36.486H36.4133H36.3409H36.2688H36.1968H36.1251H36.0537H35.9825H35.9116H35.841H35.7706H35.7004H35.6305H35.5609H35.4916H35.4225H35.3538H35.2853H35.217H35.1491H35.0814H35.014H34.947H34.8802H34.8137H34.7475H34.6816H34.6159H34.5506H34.4857H34.421H34.3566H34.2925H34.2288H34.1653H34.1022H34.0394H33.977H33.9148H33.853H33.7915H33.7304H33.6696H33.6091H33.549H33.4892H33.4298H33.3707H33.3119H33.2535H33.1955H33.1378H33.0805H33.0236H32.967H32.9107H32.8549H32.7994H32.7443H32.6896H32.6352H32.5812H32.5276H32.4744H32.4216H32.3692H32.3172H32.2655H32.2143H32.1634H32.113H32.063H32.0133H31.9641H31.9153H31.8669H31.8189H31.7714H31.7242H31.6775H31.6312H31.5854H31.5399H31.4949H31.4504H31.4062H31.3625H31.3193H31.2765H31.2341H31.1922H31.1508H31.1098H31.0692H31.0292H30.9895H30.9504H30.9117H30.8734H30.8357H30.7984H30.7616H30.7253H30.6894H30.654H30.6191H30.5847H30.5508H30.5174H30.4845H30.4521H30.4201H30.3887H30.3578H30.3273H30.2974H30.268H30.2391H30.2108H30.1829H30.1556H30.1287H30.1025H30.0767H30.0515H30.0267H30.0026H29.9789H29.9558H29.9333H29.9113H29.8898H29.8689H29.8485H29.8287H29.8094H29.7907H29.7726H29.755H29.738H29.7215H29.7056H29.6903H29.6756H29.6614H29.6478H29.6348H29.6224H29.6106H29.5993H29.5887H29.5786H29.5692H29.5603H29.552C27.5099 22.8721 25.8721 24.5433 25.8721 26.4806L25.8721 44.0247L25.8721 61.5127C25.8721 63.4608 27.5607 65.1279 29.552 65.1279H49.3425C49.7555 65.1279 50.0927 64.7966 50.0927 64.3848C50.0927 63.9729 49.7555 63.6416 49.3425 63.6416L49.3388 63.6416L49.3279 63.6416L49.2851 63.6415L49.1191 63.6414L48.4904 63.6409L46.2487 63.639L39.4492 63.6333L29.552 63.6249C27.8327 63.6249 26.7093 61.6856 27.8191 60.2506L27.7179 60.1723L27.8191 60.2506C28.1969 59.7618 28.7783 59.4352 29.4423 59.4003C29.5302 59.3961 31.2785 59.3971 31.7707 59.3974ZM59.7922 59.3975C60.0565 59.3911 60.3301 59.358 60.6274 59.2437V62.8088C60.6274 63.2665 60.2502 63.6415 59.7838 63.6415H58.987V59.3913C59.1014 59.3876 59.2141 59.3893 59.3279 59.392C59.3531 59.3926 59.3785 59.3933 59.4039 59.394C59.5314 59.3973 59.6614 59.4007 59.7922 59.3975ZM33.271 59.3974H36.0375V60.9266C35.9192 60.8546 35.8155 60.7878 35.7221 60.7265C35.6843 60.7017 35.6478 60.6776 35.6125 60.6542C35.5178 60.5916 35.4318 60.5346 35.3521 60.4861C35.1269 60.3491 34.9309 60.2659 34.6543 60.2659C34.3774 60.2659 34.1809 60.3493 33.9555 60.4864C33.8755 60.5351 33.7892 60.5922 33.6943 60.6551C33.6593 60.6783 33.623 60.7022 33.5855 60.7269C33.4923 60.788 33.3889 60.8547 33.271 60.9264V59.3974Z" fill="#50BC93" stroke="#50BC93" stroke-width="0.255882"/>
</svg>
