<svg xmlns="http://www.w3.org/2000/svg" width="54" height="54" fill="none" viewBox="0 0 54 54"><rect width="54" height="54" fill="url(#paint0_linear)" rx="4"/><mask id="path-2-outside-1" width="26" height="24" x="14" y="15" fill="#000" maskUnits="userSpaceOnUse"><rect width="26" height="24" x="14" y="15" fill="#fff"/><path d="M38.0483 28.6698H38.0144L35.6544 22.7899C36.2322 22.0715 35.8899 20.9828 35.028 20.7391L28.7793 18.9725C28.6494 18.6742 28.4527 18.4137 28.2086 18.2113V17.2801C28.2086 16.5742 27.6525 16 26.969 16C26.2855 16 25.7295 16.5742 25.7295 17.2801V18.2113C25.4853 18.4137 25.2885 18.6742 25.1586 18.9725L18.9099 20.7392C18.0173 20.9916 17.6958 22.1335 18.3255 22.8395L15.9854 28.6698C15.381 28.6698 15 29.1457 15 29.6524V29.9911C15 30.5329 15.4268 30.9738 15.9516 30.9738H16.1853C17.4719 33.2306 20.6332 33.2267 21.9179 30.9738H22.1518C22.6765 30.9738 23.1033 30.533 23.1033 29.9911V29.6524C23.1033 29.1473 22.7241 28.6698 22.1178 28.6698L19.889 23.1167L25.7294 21.4654V33.323H25.6171C25.1259 33.323 24.7262 33.7356 24.7262 34.2429C24.7262 34.7434 24.7206 34.777 24.7465 34.9009H23.8689C23.3442 34.9009 22.9174 35.3417 22.9174 35.8836V36.5541C22.4012 36.5643 21.9841 37.0003 21.9841 37.5359V37.8746C21.9841 38.4164 22.4109 38.8571 22.9356 38.8571H26.1487C26.3429 38.8571 26.5002 38.6946 26.5002 38.4941C26.5002 38.2937 26.3428 38.1312 26.1487 38.1312H22.9356C22.7986 38.1312 22.6871 38.016 22.6871 37.8746V37.5359C22.6871 37.3943 22.7986 37.2792 22.9356 37.2792C23.2302 37.2792 30.5268 37.2792 31.0023 37.2792C31.1393 37.2792 31.2508 37.3943 31.2508 37.5359V37.8746C31.2508 38.016 31.1393 38.1312 31.0023 38.1312H27.7891C27.595 38.1312 27.4376 38.2937 27.4376 38.4941C27.4376 38.6946 27.595 38.8571 27.7891 38.8571H31.0023C31.527 38.8571 31.9539 38.4164 31.9539 37.8746V37.5359C31.9539 37.0004 31.5369 36.5643 31.0206 36.5541V35.8836C31.0206 35.3417 30.5938 34.9009 30.069 34.9009H29.1914C29.2169 34.7786 29.2116 34.7498 29.2116 34.2429C29.2116 33.7357 28.812 33.323 28.3207 33.323H28.2084V28.3021C28.2084 28.1016 28.0511 27.9391 27.8569 27.9391C27.6628 27.9391 27.5054 28.1016 27.5054 28.3021V33.3231H26.4324V21.7826C26.7709 21.8825 27.1603 21.8839 27.5054 21.7826V26.608C27.5054 26.8086 27.6628 26.971 27.8569 26.971C28.0511 26.971 28.2084 26.8085 28.2084 26.608V21.4654L34.1043 23.1325L31.882 28.6698C31.2774 28.6698 30.8966 29.1458 30.8966 29.6523V29.991C30.8966 30.5328 31.3235 30.9736 31.8482 30.9736H32.082C33.3684 33.23 36.5296 33.2272 37.8147 30.9736H38.0484C38.5731 30.9736 39 30.5329 39 29.991V29.6523C38.9999 29.1106 38.5731 28.6698 38.0483 28.6698ZM18.7001 23.8026V28.6699H16.7465L18.7001 23.8026ZM17.0908 31.0315H21.0124C19.9702 32.2439 18.1319 32.2429 17.0908 31.0315ZM22.1501 29.3958C22.1501 29.3958 22.1501 29.3958 22.1517 29.3958C22.2888 29.3958 22.4002 29.5109 22.4002 29.6524V29.9911C22.4002 30.1326 22.2888 30.2477 22.1517 30.2477H15.9516C15.8145 30.2477 15.7031 30.1326 15.7031 29.9911V29.6524C15.7031 29.5109 15.8145 29.3958 15.9516 29.3958C16.1167 29.3958 22.0067 29.3958 22.1501 29.3958ZM21.3567 28.6698H19.4031V23.8025L21.3567 28.6698ZM19.2859 22.5247C19.1547 22.5376 19.0447 22.5025 18.9359 22.4316C18.5548 22.1634 18.6586 21.5629 19.0956 21.4393L24.985 19.7743C24.9794 20.139 25.0682 20.5124 25.258 20.846C19.0977 22.5878 19.3633 22.5172 19.2859 22.5247ZM26.4324 17.2801H26.4325C26.4325 16.9745 26.6732 16.726 26.9689 16.726C27.2648 16.726 27.5055 16.9746 27.5055 17.2801V17.8367C27.159 17.7361 26.7764 17.7362 26.4324 17.8367V17.2801ZM30.0691 35.6269C30.2062 35.6269 30.3177 35.7421 30.3177 35.8836V36.5532H23.6205V35.8836C23.6205 35.742 23.732 35.6269 23.869 35.6269C24.1754 35.6269 29.8327 35.6269 30.0691 35.6269ZM28.3208 34.049C28.4244 34.049 28.5087 34.136 28.5087 34.243V34.707C28.5087 34.8139 28.4244 34.9009 28.3208 34.9009H25.6171C25.5135 34.9009 25.4293 34.8139 25.4293 34.707V34.243C25.4293 34.136 25.5135 34.049 25.6171 34.049C25.9396 34.049 28.0047 34.049 28.3208 34.049ZM27.052 21.1297C26.5553 21.1629 26.0938 20.8974 25.8537 20.4595C25.2148 19.2895 26.5138 17.9507 27.6523 18.6913C28.7042 19.3793 28.2791 21.0506 27.052 21.1297ZM35.2998 23.8026L37.2534 28.6699H35.2998V23.8026ZM28.68 20.8461C28.8695 20.5093 28.9587 20.1431 28.9529 19.7744L34.8423 21.4394C35.1277 21.5201 35.2963 21.8255 35.2182 22.1201C35.1455 22.3942 34.8791 22.5617 34.6586 22.5164C34.6278 22.5099 34.5969 22.5079 34.5666 22.5099C34.5299 22.5004 28.7417 20.8635 28.68 20.8461ZM34.5968 23.8023V28.6699H32.6431L34.5968 23.8023ZM32.9875 31.0315H36.9091C35.867 32.244 34.0286 32.2429 32.9875 31.0315ZM38.2969 29.9911C38.2968 30.1326 38.1854 30.2477 38.0483 30.2477H31.8482C31.7111 30.2477 31.5996 30.1326 31.5996 29.9911V29.6524C31.5996 29.5109 31.7111 29.3958 31.8482 29.3958C32.0134 29.3958 37.6361 29.3958 37.7796 29.3958C37.7799 29.3958 37.7803 29.3958 37.7806 29.3958H38.0484C38.1855 29.3958 38.2969 29.5109 38.2969 29.6524V29.9911H38.2969Z"/></mask><path fill="#fff" d="M38.0483 28.6698H38.0144L35.6544 22.7899C36.2322 22.0715 35.8899 20.9828 35.028 20.7391L28.7793 18.9725C28.6494 18.6742 28.4527 18.4137 28.2086 18.2113V17.2801C28.2086 16.5742 27.6525 16 26.969 16C26.2855 16 25.7295 16.5742 25.7295 17.2801V18.2113C25.4853 18.4137 25.2885 18.6742 25.1586 18.9725L18.9099 20.7392C18.0173 20.9916 17.6958 22.1335 18.3255 22.8395L15.9854 28.6698C15.381 28.6698 15 29.1457 15 29.6524V29.9911C15 30.5329 15.4268 30.9738 15.9516 30.9738H16.1853C17.4719 33.2306 20.6332 33.2267 21.9179 30.9738H22.1518C22.6765 30.9738 23.1033 30.533 23.1033 29.9911V29.6524C23.1033 29.1473 22.7241 28.6698 22.1178 28.6698L19.889 23.1167L25.7294 21.4654V33.323H25.6171C25.1259 33.323 24.7262 33.7356 24.7262 34.2429C24.7262 34.7434 24.7206 34.777 24.7465 34.9009H23.8689C23.3442 34.9009 22.9174 35.3417 22.9174 35.8836V36.5541C22.4012 36.5643 21.9841 37.0003 21.9841 37.5359V37.8746C21.9841 38.4164 22.4109 38.8571 22.9356 38.8571H26.1487C26.3429 38.8571 26.5002 38.6946 26.5002 38.4941C26.5002 38.2937 26.3428 38.1312 26.1487 38.1312H22.9356C22.7986 38.1312 22.6871 38.016 22.6871 37.8746V37.5359C22.6871 37.3943 22.7986 37.2792 22.9356 37.2792C23.2302 37.2792 30.5268 37.2792 31.0023 37.2792C31.1393 37.2792 31.2508 37.3943 31.2508 37.5359V37.8746C31.2508 38.016 31.1393 38.1312 31.0023 38.1312H27.7891C27.595 38.1312 27.4376 38.2937 27.4376 38.4941C27.4376 38.6946 27.595 38.8571 27.7891 38.8571H31.0023C31.527 38.8571 31.9539 38.4164 31.9539 37.8746V37.5359C31.9539 37.0004 31.5369 36.5643 31.0206 36.5541V35.8836C31.0206 35.3417 30.5938 34.9009 30.069 34.9009H29.1914C29.2169 34.7786 29.2116 34.7498 29.2116 34.2429C29.2116 33.7357 28.812 33.323 28.3207 33.323H28.2084V28.3021C28.2084 28.1016 28.0511 27.9391 27.8569 27.9391C27.6628 27.9391 27.5054 28.1016 27.5054 28.3021V33.3231H26.4324V21.7826C26.7709 21.8825 27.1603 21.8839 27.5054 21.7826V26.608C27.5054 26.8086 27.6628 26.971 27.8569 26.971C28.0511 26.971 28.2084 26.8085 28.2084 26.608V21.4654L34.1043 23.1325L31.882 28.6698C31.2774 28.6698 30.8966 29.1458 30.8966 29.6523V29.991C30.8966 30.5328 31.3235 30.9736 31.8482 30.9736H32.082C33.3684 33.23 36.5296 33.2272 37.8147 30.9736H38.0484C38.5731 30.9736 39 30.5329 39 29.991V29.6523C38.9999 29.1106 38.5731 28.6698 38.0483 28.6698ZM18.7001 23.8026V28.6699H16.7465L18.7001 23.8026ZM17.0908 31.0315H21.0124C19.9702 32.2439 18.1319 32.2429 17.0908 31.0315ZM22.1501 29.3958C22.1501 29.3958 22.1501 29.3958 22.1517 29.3958C22.2888 29.3958 22.4002 29.5109 22.4002 29.6524V29.9911C22.4002 30.1326 22.2888 30.2477 22.1517 30.2477H15.9516C15.8145 30.2477 15.7031 30.1326 15.7031 29.9911V29.6524C15.7031 29.5109 15.8145 29.3958 15.9516 29.3958C16.1167 29.3958 22.0067 29.3958 22.1501 29.3958ZM21.3567 28.6698H19.4031V23.8025L21.3567 28.6698ZM19.2859 22.5247C19.1547 22.5376 19.0447 22.5025 18.9359 22.4316C18.5548 22.1634 18.6586 21.5629 19.0956 21.4393L24.985 19.7743C24.9794 20.139 25.0682 20.5124 25.258 20.846C19.0977 22.5878 19.3633 22.5172 19.2859 22.5247ZM26.4324 17.2801H26.4325C26.4325 16.9745 26.6732 16.726 26.9689 16.726C27.2648 16.726 27.5055 16.9746 27.5055 17.2801V17.8367C27.159 17.7361 26.7764 17.7362 26.4324 17.8367V17.2801ZM30.0691 35.6269C30.2062 35.6269 30.3177 35.7421 30.3177 35.8836V36.5532H23.6205V35.8836C23.6205 35.742 23.732 35.6269 23.869 35.6269C24.1754 35.6269 29.8327 35.6269 30.0691 35.6269ZM28.3208 34.049C28.4244 34.049 28.5087 34.136 28.5087 34.243V34.707C28.5087 34.8139 28.4244 34.9009 28.3208 34.9009H25.6171C25.5135 34.9009 25.4293 34.8139 25.4293 34.707V34.243C25.4293 34.136 25.5135 34.049 25.6171 34.049C25.9396 34.049 28.0047 34.049 28.3208 34.049ZM27.052 21.1297C26.5553 21.1629 26.0938 20.8974 25.8537 20.4595C25.2148 19.2895 26.5138 17.9507 27.6523 18.6913C28.7042 19.3793 28.2791 21.0506 27.052 21.1297ZM35.2998 23.8026L37.2534 28.6699H35.2998V23.8026ZM28.68 20.8461C28.8695 20.5093 28.9587 20.1431 28.9529 19.7744L34.8423 21.4394C35.1277 21.5201 35.2963 21.8255 35.2182 22.1201C35.1455 22.3942 34.8791 22.5617 34.6586 22.5164C34.6278 22.5099 34.5969 22.5079 34.5666 22.5099C34.5299 22.5004 28.7417 20.8635 28.68 20.8461ZM34.5968 23.8023V28.6699H32.6431L34.5968 23.8023ZM32.9875 31.0315H36.9091C35.867 32.244 34.0286 32.2429 32.9875 31.0315ZM38.2969 29.9911C38.2968 30.1326 38.1854 30.2477 38.0483 30.2477H31.8482C31.7111 30.2477 31.5996 30.1326 31.5996 29.9911V29.6524C31.5996 29.5109 31.7111 29.3958 31.8482 29.3958C32.0134 29.3958 37.6361 29.3958 37.7796 29.3958C37.7799 29.3958 37.7803 29.3958 37.7806 29.3958H38.0484C38.1855 29.3958 38.2969 29.5109 38.2969 29.6524V29.9911H38.2969Z"/><path stroke="#fff" stroke-width=".2" d="M38.0483 28.6698H38.0144L35.6544 22.7899C36.2322 22.0715 35.8899 20.9828 35.028 20.7391L28.7793 18.9725C28.6494 18.6742 28.4527 18.4137 28.2086 18.2113V17.2801C28.2086 16.5742 27.6525 16 26.969 16C26.2855 16 25.7295 16.5742 25.7295 17.2801V18.2113C25.4853 18.4137 25.2885 18.6742 25.1586 18.9725L18.9099 20.7392C18.0173 20.9916 17.6958 22.1335 18.3255 22.8395L15.9854 28.6698C15.381 28.6698 15 29.1457 15 29.6524V29.9911C15 30.5329 15.4268 30.9738 15.9516 30.9738H16.1853C17.4719 33.2306 20.6332 33.2267 21.9179 30.9738H22.1518C22.6765 30.9738 23.1033 30.533 23.1033 29.9911V29.6524C23.1033 29.1473 22.7241 28.6698 22.1178 28.6698L19.889 23.1167L25.7294 21.4654V33.323H25.6171C25.1259 33.323 24.7262 33.7356 24.7262 34.2429C24.7262 34.7434 24.7206 34.777 24.7465 34.9009H23.8689C23.3442 34.9009 22.9174 35.3417 22.9174 35.8836V36.5541C22.4012 36.5643 21.9841 37.0003 21.9841 37.5359V37.8746C21.9841 38.4164 22.4109 38.8571 22.9356 38.8571H26.1487C26.3429 38.8571 26.5002 38.6946 26.5002 38.4941C26.5002 38.2937 26.3428 38.1312 26.1487 38.1312H22.9356C22.7986 38.1312 22.6871 38.016 22.6871 37.8746V37.5359C22.6871 37.3943 22.7986 37.2792 22.9356 37.2792C23.2302 37.2792 30.5268 37.2792 31.0023 37.2792C31.1393 37.2792 31.2508 37.3943 31.2508 37.5359V37.8746C31.2508 38.016 31.1393 38.1312 31.0023 38.1312H27.7891C27.595 38.1312 27.4376 38.2937 27.4376 38.4941C27.4376 38.6946 27.595 38.8571 27.7891 38.8571H31.0023C31.527 38.8571 31.9539 38.4164 31.9539 37.8746V37.5359C31.9539 37.0004 31.5369 36.5643 31.0206 36.5541V35.8836C31.0206 35.3417 30.5938 34.9009 30.069 34.9009H29.1914C29.2169 34.7786 29.2116 34.7498 29.2116 34.2429C29.2116 33.7357 28.812 33.323 28.3207 33.323H28.2084V28.3021C28.2084 28.1016 28.0511 27.9391 27.8569 27.9391C27.6628 27.9391 27.5054 28.1016 27.5054 28.3021V33.3231H26.4324V21.7826C26.7709 21.8825 27.1603 21.8839 27.5054 21.7826V26.608C27.5054 26.8086 27.6628 26.971 27.8569 26.971C28.0511 26.971 28.2084 26.8085 28.2084 26.608V21.4654L34.1043 23.1325L31.882 28.6698C31.2774 28.6698 30.8966 29.1458 30.8966 29.6523V29.991C30.8966 30.5328 31.3235 30.9736 31.8482 30.9736H32.082C33.3684 33.23 36.5296 33.2272 37.8147 30.9736H38.0484C38.5731 30.9736 39 30.5329 39 29.991V29.6523C38.9999 29.1106 38.5731 28.6698 38.0483 28.6698ZM18.7001 23.8026V28.6699H16.7465L18.7001 23.8026ZM17.0908 31.0315H21.0124C19.9702 32.2439 18.1319 32.2429 17.0908 31.0315ZM22.1501 29.3958C22.1501 29.3958 22.1501 29.3958 22.1517 29.3958C22.2888 29.3958 22.4002 29.5109 22.4002 29.6524V29.9911C22.4002 30.1326 22.2888 30.2477 22.1517 30.2477H15.9516C15.8145 30.2477 15.7031 30.1326 15.7031 29.9911V29.6524C15.7031 29.5109 15.8145 29.3958 15.9516 29.3958C16.1167 29.3958 22.0067 29.3958 22.1501 29.3958ZM21.3567 28.6698H19.4031V23.8025L21.3567 28.6698ZM19.2859 22.5247C19.1547 22.5376 19.0447 22.5025 18.9359 22.4316C18.5548 22.1634 18.6586 21.5629 19.0956 21.4393L24.985 19.7743C24.9794 20.139 25.0682 20.5124 25.258 20.846C19.0977 22.5878 19.3633 22.5172 19.2859 22.5247ZM26.4324 17.2801H26.4325C26.4325 16.9745 26.6732 16.726 26.9689 16.726C27.2648 16.726 27.5055 16.9746 27.5055 17.2801V17.8367C27.159 17.7361 26.7764 17.7362 26.4324 17.8367V17.2801ZM30.0691 35.6269C30.2062 35.6269 30.3177 35.7421 30.3177 35.8836V36.5532H23.6205V35.8836C23.6205 35.742 23.732 35.6269 23.869 35.6269C24.1754 35.6269 29.8327 35.6269 30.0691 35.6269ZM28.3208 34.049C28.4244 34.049 28.5087 34.136 28.5087 34.243V34.707C28.5087 34.8139 28.4244 34.9009 28.3208 34.9009H25.6171C25.5135 34.9009 25.4293 34.8139 25.4293 34.707V34.243C25.4293 34.136 25.5135 34.049 25.6171 34.049C25.9396 34.049 28.0047 34.049 28.3208 34.049ZM27.052 21.1297C26.5553 21.1629 26.0938 20.8974 25.8537 20.4595C25.2148 19.2895 26.5138 17.9507 27.6523 18.6913C28.7042 19.3793 28.2791 21.0506 27.052 21.1297ZM35.2998 23.8026L37.2534 28.6699H35.2998V23.8026ZM28.68 20.8461C28.8695 20.5093 28.9587 20.1431 28.9529 19.7744L34.8423 21.4394C35.1277 21.5201 35.2963 21.8255 35.2182 22.1201C35.1455 22.3942 34.8791 22.5617 34.6586 22.5164C34.6278 22.5099 34.5969 22.5079 34.5666 22.5099C34.5299 22.5004 28.7417 20.8635 28.68 20.8461ZM34.5968 23.8023V28.6699H32.6431L34.5968 23.8023ZM32.9875 31.0315H36.9091C35.867 32.244 34.0286 32.2429 32.9875 31.0315ZM38.2969 29.9911C38.2968 30.1326 38.1854 30.2477 38.0483 30.2477H31.8482C31.7111 30.2477 31.5996 30.1326 31.5996 29.9911V29.6524C31.5996 29.5109 31.7111 29.3958 31.8482 29.3958C32.0134 29.3958 37.6361 29.3958 37.7796 29.3958C37.7799 29.3958 37.7803 29.3958 37.7806 29.3958H38.0484C38.1855 29.3958 38.2969 29.5109 38.2969 29.6524V29.9911H38.2969Z" mask="url(#path-2-outside-1)"/><defs><linearGradient id="paint0_linear" x1="56.507" x2="-20.789" y1="48.668" y2="52.104" gradientUnits="userSpaceOnUse"><stop offset=".036" stop-color="#26B14F"/><stop offset=".797" stop-color="#31C850"/></linearGradient></defs></svg>