<svg xmlns="http://www.w3.org/2000/svg" width="60" height="61" fill="none" viewBox="0 0 60 61"><path fill="#EAF7ED" d="M7.58572 50.323C1.99496 43.7798 -0.947548 34.9415 0.27359 25.9036C1.48002 16.8799 6.8648 7.67093 15.2804 3.23751C23.6959 -1.21017 35.1423 -0.868042 44.2788 3.60815C53.4299 8.07008 60.2713 16.6518 59.9917 24.2927C59.7269 31.9336 55.2381 40.3853 49 47.071C42.7619 53.7426 34.7745 58.6482 28.095 59.8599C21.4302 61.0858 13.1765 56.852 7.58572 50.323Z"/><mask id="path-2-outside-1" width="22" height="30" x="19" y="15.071" fill="#000" maskUnits="userSpaceOnUse"><rect width="22" height="30" x="19" y="15.071" fill="#fff"/><path d="M39.9674 30.8874C39.4869 29.2724 39.4232 27.5513 39.7823 25.9112L39.8498 25.6043C39.9723 25.0453 40.0065 24.5138 39.9522 24.025C39.4547 19.5516 35.2348 16.1326 30.1365 16.0717C30.0925 16.0714 30.0497 16.071 30.0061 16.071C24.9291 16.071 20.5688 19.6158 20.0504 24.1898C19.9928 24.6993 20.0318 25.2529 20.1714 25.854C20.5609 27.5329 20.5059 29.2961 20.0129 30.953C19.9821 31.0553 20.0072 31.1639 20.08 31.2478C21.805 33.2348 24.5862 33.6307 25.1945 33.6952C26.1231 34.3887 27.2309 34.8788 28.4159 35.1078V35.6701C27.9259 35.7651 27.4408 35.9071 26.9698 36.0933C26.7752 36.1702 26.5746 36.2608 26.3387 36.3789C26.3384 36.379 26.3384 36.3793 26.338 36.3794C24.0005 37.5495 22.5485 39.7331 22.5485 42.0785V43.7287C22.5485 43.9179 22.7222 44.071 22.9369 44.071H37.0567C37.2713 44.071 37.445 43.9179 37.445 43.7287V42.0785C37.445 41.1465 37.2217 40.2408 36.781 39.387C36.024 37.921 34.6898 36.7513 33.0237 36.0933C32.5527 35.9071 32.0677 35.7651 31.5777 35.6701V35.1081C32.808 34.8728 33.9091 34.3758 34.8191 33.6954C35.4534 33.6266 38.2075 33.2221 39.92 31.2498C39.9928 31.1659 40.0179 31.0573 39.9871 30.955L39.9674 30.8874ZM36.6683 43.3864H23.3252V42.0785C23.3252 40.1215 24.4558 38.2894 26.3061 37.2006C26.3103 37.2104 26.3162 37.2194 26.3205 37.2292C26.3429 37.2809 26.3713 37.3295 26.3962 37.3802C26.4453 37.4801 26.4952 37.5794 26.5532 37.6746C26.5871 37.7303 26.6258 37.783 26.6628 37.837C26.721 37.9221 26.7807 38.0061 26.8462 38.0868C26.8894 38.1402 26.9357 38.1912 26.9821 38.2426C27.0502 38.318 27.1207 38.3914 27.1951 38.462C27.2463 38.5106 27.2986 38.5577 27.3527 38.604C27.4312 38.671 27.5127 38.7345 27.5967 38.7962C27.654 38.8382 27.7109 38.8801 27.7708 38.9195C27.8607 38.979 27.9547 39.0332 28.0501 39.0864C28.1106 39.1202 28.1694 39.1554 28.2319 39.1866C28.3393 39.2401 28.4513 39.2864 28.5642 39.332C28.6203 39.3546 28.6741 39.3805 28.7316 39.4011C28.9042 39.463 29.0816 39.517 29.265 39.5595L32.6665 40.3471C32.8538 40.3905 33.0435 40.4206 33.2339 40.4446C33.2887 40.4514 33.3433 40.4566 33.3983 40.4619C33.55 40.4765 33.7018 40.4851 33.8539 40.4876C33.8856 40.4881 33.9171 40.4929 33.9487 40.4929C33.9664 40.4929 33.9838 40.4915 34.0015 40.4913C34.0358 40.491 34.0699 40.4891 34.1044 40.4881C34.2108 40.4853 34.317 40.4797 34.4228 40.471C34.4643 40.4676 34.5057 40.4639 34.5472 40.4596C34.6555 40.4483 34.7634 40.4337 34.8707 40.4163C34.9012 40.4114 34.9317 40.4076 34.9623 40.4022C35.0982 40.3779 35.2331 40.349 35.3666 40.315C35.3937 40.3081 35.4202 40.2995 35.4471 40.2921C35.5531 40.2634 35.6582 40.2319 35.7621 40.1971C35.8029 40.1833 35.8435 40.1688 35.8839 40.1542C35.9785 40.1199 36.0718 40.0829 36.1641 40.0436C36.1882 40.0334 36.2132 40.0254 36.2371 40.0148C36.5235 40.6764 36.6683 41.3691 36.6683 42.0785V43.3864ZM31.1233 34.4886C30.9371 34.5171 30.801 34.6595 30.801 34.826V35.9516C30.801 36.1184 30.9371 36.2608 31.1233 36.2889C31.6588 36.3702 32.1913 36.5146 32.7059 36.7178C34.0902 37.2647 35.2192 38.2057 35.917 39.3868C35.9028 39.3933 35.8894 39.401 35.8749 39.4074C35.8258 39.429 35.7752 39.4477 35.7253 39.4676C35.6483 39.4982 35.571 39.5284 35.4923 39.5549C35.439 39.573 35.3848 39.5887 35.3307 39.6048C35.2532 39.6279 35.1752 39.6498 35.0963 39.6689C35.0402 39.6825 34.9839 39.6946 34.9274 39.7062C34.8487 39.7224 34.7694 39.7365 34.6898 39.7487C34.6325 39.7575 34.5751 39.7658 34.5172 39.7725C34.4366 39.7819 34.3559 39.7885 34.2747 39.7939C34.2174 39.7977 34.1604 39.8019 34.1031 39.8037C34.0189 39.8064 33.9347 39.8052 33.8503 39.8035C33.7961 39.8024 33.742 39.8027 33.6878 39.7998C33.5949 39.7948 33.5022 39.7849 33.4096 39.7745C33.3643 39.7695 33.3188 39.7667 33.2737 39.7604C33.1362 39.741 32.9993 39.7166 32.8637 39.6852L29.4622 38.8976C29.3092 38.8621 29.1611 38.8172 29.0172 38.7653C28.9688 38.7478 28.9237 38.7253 28.8765 38.706C28.7834 38.6681 28.6901 38.6302 28.6017 38.5857C28.548 38.5587 28.4982 38.5273 28.4466 38.498C28.3694 38.4543 28.2922 38.4109 28.2194 38.3623C28.1675 38.3276 28.1191 38.2894 28.0694 38.2523C28.0031 38.2026 27.9369 38.1526 27.8747 38.0988C27.8269 38.0574 27.7822 38.0131 27.737 37.9693C27.6799 37.9138 27.624 37.8577 27.5715 37.7987C27.5292 37.7512 27.4898 37.702 27.4505 37.6524C27.4025 37.5914 27.3563 37.5292 27.3132 37.4651C27.2778 37.4126 27.2444 37.3591 27.2125 37.3047C27.1736 37.2384 27.1378 37.1705 27.1041 37.1015C27.0766 37.0449 27.05 36.9879 27.0261 36.9296C27.0146 36.9013 27.0062 36.8718 26.9956 36.8432C27.0978 36.7962 27.1943 36.755 27.2876 36.7178C27.8023 36.5146 28.3347 36.3702 28.8702 36.2889C29.0564 36.2608 29.1926 36.1184 29.1926 35.9516V34.826C29.1926 34.6595 29.0564 34.5167 28.8702 34.4886C27.6587 34.3045 26.5249 33.8151 25.5996 33.0964C25.4972 33.0168 25.4039 32.9402 25.3159 32.865C25.2222 32.7832 25.1293 32.7007 25.0408 32.6138C25.032 32.6053 25.021 32.5963 25.0125 32.5877C24.8113 32.3879 24.6431 32.168 24.503 31.9363C24.145 31.3445 23.9889 30.6681 24.0742 29.9945C24.1884 29.0945 24.703 28.3129 25.5245 27.793C25.8939 27.559 26.3114 27.3624 26.7654 27.2087C31.297 25.6752 32.2478 23.0832 32.4473 22.0596C35.4445 22.8653 36.6896 25.2329 36.7025 25.2576C36.7457 25.3419 36.8261 25.4077 36.9247 25.4391C37.5717 25.6451 38.0063 26.1847 38.0063 26.7821C38.0063 27.3792 37.5717 27.9187 36.9247 28.1247C36.7707 28.1735 36.6683 28.3025 36.6683 28.4466V28.699C36.6683 28.8991 36.6549 29.098 36.6315 29.2953C36.6272 29.3327 36.6196 29.3692 36.6145 29.4064C36.5908 29.5756 36.5614 29.7438 36.521 29.9097C36.5157 29.9319 36.5096 29.9537 36.5041 29.9757C36.1962 31.1744 35.4619 32.2747 34.3849 33.1073C34.3595 33.127 34.338 33.1496 34.32 33.1738C33.4337 33.8368 32.3426 34.3034 31.1233 34.4886ZM39.1873 30.9627C38.1823 32.0395 36.7872 32.5621 35.8033 32.8109C36.8365 31.6801 37.445 30.2461 37.445 28.699V28.6719C38.2555 28.3166 38.783 27.5848 38.783 26.7821C38.783 25.945 38.2096 25.1851 37.3404 24.8488C37.0051 24.2711 35.4862 21.9723 32.2004 21.2923C32.0862 21.2689 31.9653 21.292 31.8724 21.3559C31.7794 21.42 31.7248 21.5177 31.7233 21.6213C31.7229 21.6534 31.6186 24.8327 26.487 26.5695C25.9712 26.744 25.4949 26.9686 25.0709 27.2371C24.0689 27.8713 23.4405 28.8234 23.3021 29.9183C23.2848 30.0547 23.2767 30.1913 23.2755 30.3275C23.2752 30.3659 23.2791 30.404 23.2799 30.4423C23.2822 30.5388 23.2856 30.6351 23.2956 30.7309C23.301 30.7813 23.3104 30.8309 23.318 30.881C23.3303 30.9642 23.343 31.0471 23.3613 31.1292C23.3732 31.1836 23.3887 31.2369 23.4033 31.2907C23.424 31.3674 23.4456 31.4437 23.4712 31.5192C23.4902 31.5745 23.5116 31.6289 23.5332 31.6834C23.5617 31.7558 23.5918 31.8275 23.625 31.8984C23.6506 31.9528 23.6775 32.0065 23.7058 32.0599C23.7422 32.129 23.7809 32.1969 23.8219 32.2642C23.8535 32.3164 23.8858 32.368 23.9201 32.419C23.9644 32.485 24.0119 32.5493 24.0606 32.6132C24.0981 32.6623 24.1353 32.7112 24.1751 32.7589C24.1912 32.7782 24.2049 32.7987 24.2214 32.8178C23.2376 32.5724 21.828 32.0495 20.8119 30.96C21.2906 29.2506 21.3323 27.441 20.9276 25.6982C20.8085 25.1834 20.7733 24.699 20.8233 24.258C21.3023 20.0306 25.3231 16.7557 30.0057 16.7557C30.0455 16.7557 30.0861 16.7557 30.1259 16.7564C34.8282 16.8122 38.7204 19.9658 39.1793 24.0919C39.2264 24.5151 39.1953 24.9805 39.0876 25.4742L39.02 25.7811C38.6461 27.4881 38.7041 29.2774 39.1873 30.9627Z"/></mask><path fill="#168A59" d="M39.9674 30.8874C39.4869 29.2724 39.4232 27.5513 39.7823 25.9112L39.8498 25.6043C39.9723 25.0453 40.0065 24.5138 39.9522 24.025C39.4547 19.5516 35.2348 16.1326 30.1365 16.0717C30.0925 16.0714 30.0497 16.071 30.0061 16.071C24.9291 16.071 20.5688 19.6158 20.0504 24.1898C19.9928 24.6993 20.0318 25.2529 20.1714 25.854C20.5609 27.5329 20.5059 29.2961 20.0129 30.953C19.9821 31.0553 20.0072 31.1639 20.08 31.2478C21.805 33.2348 24.5862 33.6307 25.1945 33.6952C26.1231 34.3887 27.2309 34.8788 28.4159 35.1078V35.6701C27.9259 35.7651 27.4408 35.9071 26.9698 36.0933C26.7752 36.1702 26.5746 36.2608 26.3387 36.3789C26.3384 36.379 26.3384 36.3793 26.338 36.3794C24.0005 37.5495 22.5485 39.7331 22.5485 42.0785V43.7287C22.5485 43.9179 22.7222 44.071 22.9369 44.071H37.0567C37.2713 44.071 37.445 43.9179 37.445 43.7287V42.0785C37.445 41.1465 37.2217 40.2408 36.781 39.387C36.024 37.921 34.6898 36.7513 33.0237 36.0933C32.5527 35.9071 32.0677 35.7651 31.5777 35.6701V35.1081C32.808 34.8728 33.9091 34.3758 34.8191 33.6954C35.4534 33.6266 38.2075 33.2221 39.92 31.2498C39.9928 31.1659 40.0179 31.0573 39.9871 30.955L39.9674 30.8874ZM36.6683 43.3864H23.3252V42.0785C23.3252 40.1215 24.4558 38.2894 26.3061 37.2006C26.3103 37.2104 26.3162 37.2194 26.3205 37.2292C26.3429 37.2809 26.3713 37.3295 26.3962 37.3802C26.4453 37.4801 26.4952 37.5794 26.5532 37.6746C26.5871 37.7303 26.6258 37.783 26.6628 37.837C26.721 37.9221 26.7807 38.0061 26.8462 38.0868C26.8894 38.1402 26.9357 38.1912 26.9821 38.2426C27.0502 38.318 27.1207 38.3914 27.1951 38.462C27.2463 38.5106 27.2986 38.5577 27.3527 38.604C27.4312 38.671 27.5127 38.7345 27.5967 38.7962C27.654 38.8382 27.7109 38.8801 27.7708 38.9195C27.8607 38.979 27.9547 39.0332 28.0501 39.0864C28.1106 39.1202 28.1694 39.1554 28.2319 39.1866C28.3393 39.2401 28.4513 39.2864 28.5642 39.332C28.6203 39.3546 28.6741 39.3805 28.7316 39.4011C28.9042 39.463 29.0816 39.517 29.265 39.5595L32.6665 40.3471C32.8538 40.3905 33.0435 40.4206 33.2339 40.4446C33.2887 40.4514 33.3433 40.4566 33.3983 40.4619C33.55 40.4765 33.7018 40.4851 33.8539 40.4876C33.8856 40.4881 33.9171 40.4929 33.9487 40.4929C33.9664 40.4929 33.9838 40.4915 34.0015 40.4913C34.0358 40.491 34.0699 40.4891 34.1044 40.4881C34.2108 40.4853 34.317 40.4797 34.4228 40.471C34.4643 40.4676 34.5057 40.4639 34.5472 40.4596C34.6555 40.4483 34.7634 40.4337 34.8707 40.4163C34.9012 40.4114 34.9317 40.4076 34.9623 40.4022C35.0982 40.3779 35.2331 40.349 35.3666 40.315C35.3937 40.3081 35.4202 40.2995 35.4471 40.2921C35.5531 40.2634 35.6582 40.2319 35.7621 40.1971C35.8029 40.1833 35.8435 40.1688 35.8839 40.1542C35.9785 40.1199 36.0718 40.0829 36.1641 40.0436C36.1882 40.0334 36.2132 40.0254 36.2371 40.0148C36.5235 40.6764 36.6683 41.3691 36.6683 42.0785V43.3864ZM31.1233 34.4886C30.9371 34.5171 30.801 34.6595 30.801 34.826V35.9516C30.801 36.1184 30.9371 36.2608 31.1233 36.2889C31.6588 36.3702 32.1913 36.5146 32.7059 36.7178C34.0902 37.2647 35.2192 38.2057 35.917 39.3868C35.9028 39.3933 35.8894 39.401 35.8749 39.4074C35.8258 39.429 35.7752 39.4477 35.7253 39.4676C35.6483 39.4982 35.571 39.5284 35.4923 39.5549C35.439 39.573 35.3848 39.5887 35.3307 39.6048C35.2532 39.6279 35.1752 39.6498 35.0963 39.6689C35.0402 39.6825 34.9839 39.6946 34.9274 39.7062C34.8487 39.7224 34.7694 39.7365 34.6898 39.7487C34.6325 39.7575 34.5751 39.7658 34.5172 39.7725C34.4366 39.7819 34.3559 39.7885 34.2747 39.7939C34.2174 39.7977 34.1604 39.8019 34.1031 39.8037C34.0189 39.8064 33.9347 39.8052 33.8503 39.8035C33.7961 39.8024 33.742 39.8027 33.6878 39.7998C33.5949 39.7948 33.5022 39.7849 33.4096 39.7745C33.3643 39.7695 33.3188 39.7667 33.2737 39.7604C33.1362 39.741 32.9993 39.7166 32.8637 39.6852L29.4622 38.8976C29.3092 38.8621 29.1611 38.8172 29.0172 38.7653C28.9688 38.7478 28.9237 38.7253 28.8765 38.706C28.7834 38.6681 28.6901 38.6302 28.6017 38.5857C28.548 38.5587 28.4982 38.5273 28.4466 38.498C28.3694 38.4543 28.2922 38.4109 28.2194 38.3623C28.1675 38.3276 28.1191 38.2894 28.0694 38.2523C28.0031 38.2026 27.9369 38.1526 27.8747 38.0988C27.8269 38.0574 27.7822 38.0131 27.737 37.9693C27.6799 37.9138 27.624 37.8577 27.5715 37.7987C27.5292 37.7512 27.4898 37.702 27.4505 37.6524C27.4025 37.5914 27.3563 37.5292 27.3132 37.4651C27.2778 37.4126 27.2444 37.3591 27.2125 37.3047C27.1736 37.2384 27.1378 37.1705 27.1041 37.1015C27.0766 37.0449 27.05 36.9879 27.0261 36.9296C27.0146 36.9013 27.0062 36.8718 26.9956 36.8432C27.0978 36.7962 27.1943 36.755 27.2876 36.7178C27.8023 36.5146 28.3347 36.3702 28.8702 36.2889C29.0564 36.2608 29.1926 36.1184 29.1926 35.9516V34.826C29.1926 34.6595 29.0564 34.5167 28.8702 34.4886C27.6587 34.3045 26.5249 33.8151 25.5996 33.0964C25.4972 33.0168 25.4039 32.9402 25.3159 32.865C25.2222 32.7832 25.1293 32.7007 25.0408 32.6138C25.032 32.6053 25.021 32.5963 25.0125 32.5877C24.8113 32.3879 24.6431 32.168 24.503 31.9363C24.145 31.3445 23.9889 30.6681 24.0742 29.9945C24.1884 29.0945 24.703 28.3129 25.5245 27.793C25.8939 27.559 26.3114 27.3624 26.7654 27.2087C31.297 25.6752 32.2478 23.0832 32.4473 22.0596C35.4445 22.8653 36.6896 25.2329 36.7025 25.2576C36.7457 25.3419 36.8261 25.4077 36.9247 25.4391C37.5717 25.6451 38.0063 26.1847 38.0063 26.7821C38.0063 27.3792 37.5717 27.9187 36.9247 28.1247C36.7707 28.1735 36.6683 28.3025 36.6683 28.4466V28.699C36.6683 28.8991 36.6549 29.098 36.6315 29.2953C36.6272 29.3327 36.6196 29.3692 36.6145 29.4064C36.5908 29.5756 36.5614 29.7438 36.521 29.9097C36.5157 29.9319 36.5096 29.9537 36.5041 29.9757C36.1962 31.1744 35.4619 32.2747 34.3849 33.1073C34.3595 33.127 34.338 33.1496 34.32 33.1738C33.4337 33.8368 32.3426 34.3034 31.1233 34.4886ZM39.1873 30.9627C38.1823 32.0395 36.7872 32.5621 35.8033 32.8109C36.8365 31.6801 37.445 30.2461 37.445 28.699V28.6719C38.2555 28.3166 38.783 27.5848 38.783 26.7821C38.783 25.945 38.2096 25.1851 37.3404 24.8488C37.0051 24.2711 35.4862 21.9723 32.2004 21.2923C32.0862 21.2689 31.9653 21.292 31.8724 21.3559C31.7794 21.42 31.7248 21.5177 31.7233 21.6213C31.7229 21.6534 31.6186 24.8327 26.487 26.5695C25.9712 26.744 25.4949 26.9686 25.0709 27.2371C24.0689 27.8713 23.4405 28.8234 23.3021 29.9183C23.2848 30.0547 23.2767 30.1913 23.2755 30.3275C23.2752 30.3659 23.2791 30.404 23.2799 30.4423C23.2822 30.5388 23.2856 30.6351 23.2956 30.7309C23.301 30.7813 23.3104 30.8309 23.318 30.881C23.3303 30.9642 23.343 31.0471 23.3613 31.1292C23.3732 31.1836 23.3887 31.2369 23.4033 31.2907C23.424 31.3674 23.4456 31.4437 23.4712 31.5192C23.4902 31.5745 23.5116 31.6289 23.5332 31.6834C23.5617 31.7558 23.5918 31.8275 23.625 31.8984C23.6506 31.9528 23.6775 32.0065 23.7058 32.0599C23.7422 32.129 23.7809 32.1969 23.8219 32.2642C23.8535 32.3164 23.8858 32.368 23.9201 32.419C23.9644 32.485 24.0119 32.5493 24.0606 32.6132C24.0981 32.6623 24.1353 32.7112 24.1751 32.7589C24.1912 32.7782 24.2049 32.7987 24.2214 32.8178C23.2376 32.5724 21.828 32.0495 20.8119 30.96C21.2906 29.2506 21.3323 27.441 20.9276 25.6982C20.8085 25.1834 20.7733 24.699 20.8233 24.258C21.3023 20.0306 25.3231 16.7557 30.0057 16.7557C30.0455 16.7557 30.0861 16.7557 30.1259 16.7564C34.8282 16.8122 38.7204 19.9658 39.1793 24.0919C39.2264 24.5151 39.1953 24.9805 39.0876 25.4742L39.02 25.7811C38.6461 27.4881 38.7041 29.2774 39.1873 30.9627Z"/><path stroke="#168A59" stroke-width=".4" d="M39.9674 30.8874C39.4869 29.2724 39.4232 27.5513 39.7823 25.9112L39.8498 25.6043C39.9723 25.0453 40.0065 24.5138 39.9522 24.025C39.4547 19.5516 35.2348 16.1326 30.1365 16.0717C30.0925 16.0714 30.0497 16.071 30.0061 16.071C24.9291 16.071 20.5688 19.6158 20.0504 24.1898C19.9928 24.6993 20.0318 25.2529 20.1714 25.854C20.5609 27.5329 20.5059 29.2961 20.0129 30.953C19.9821 31.0553 20.0072 31.1639 20.08 31.2478C21.805 33.2348 24.5862 33.6307 25.1945 33.6952C26.1231 34.3887 27.2309 34.8788 28.4159 35.1078V35.6701C27.9259 35.7651 27.4408 35.9071 26.9698 36.0933C26.7752 36.1702 26.5746 36.2608 26.3387 36.3789C26.3384 36.379 26.3384 36.3793 26.338 36.3794C24.0005 37.5495 22.5485 39.7331 22.5485 42.0785V43.7287C22.5485 43.9179 22.7222 44.071 22.9369 44.071H37.0567C37.2713 44.071 37.445 43.9179 37.445 43.7287V42.0785C37.445 41.1465 37.2217 40.2408 36.781 39.387C36.024 37.921 34.6898 36.7513 33.0237 36.0933C32.5527 35.9071 32.0677 35.7651 31.5777 35.6701V35.1081C32.808 34.8728 33.9091 34.3758 34.8191 33.6954C35.4534 33.6266 38.2075 33.2221 39.92 31.2498C39.9928 31.1659 40.0179 31.0573 39.9871 30.955L39.9674 30.8874ZM36.6683 43.3864H23.3252V42.0785C23.3252 40.1215 24.4558 38.2894 26.3061 37.2006C26.3103 37.2104 26.3162 37.2194 26.3205 37.2292C26.3429 37.2809 26.3713 37.3295 26.3962 37.3802C26.4453 37.4801 26.4952 37.5794 26.5532 37.6746C26.5871 37.7303 26.6258 37.783 26.6628 37.837C26.721 37.9221 26.7807 38.0061 26.8462 38.0868C26.8894 38.1402 26.9357 38.1912 26.9821 38.2426C27.0502 38.318 27.1207 38.3914 27.1951 38.462C27.2463 38.5106 27.2986 38.5577 27.3527 38.604C27.4312 38.671 27.5127 38.7345 27.5967 38.7962C27.654 38.8382 27.7109 38.8801 27.7708 38.9195C27.8607 38.979 27.9547 39.0332 28.0501 39.0864C28.1106 39.1202 28.1694 39.1554 28.2319 39.1866C28.3393 39.2401 28.4513 39.2864 28.5642 39.332C28.6203 39.3546 28.6741 39.3805 28.7316 39.4011C28.9042 39.463 29.0816 39.517 29.265 39.5595L32.6665 40.3471C32.8538 40.3905 33.0435 40.4206 33.2339 40.4446C33.2887 40.4514 33.3433 40.4566 33.3983 40.4619C33.55 40.4765 33.7018 40.4851 33.8539 40.4876C33.8856 40.4881 33.9171 40.4929 33.9487 40.4929C33.9664 40.4929 33.9838 40.4915 34.0015 40.4913C34.0358 40.491 34.0699 40.4891 34.1044 40.4881C34.2108 40.4853 34.317 40.4797 34.4228 40.471C34.4643 40.4676 34.5057 40.4639 34.5472 40.4596C34.6555 40.4483 34.7634 40.4337 34.8707 40.4163C34.9012 40.4114 34.9317 40.4076 34.9623 40.4022C35.0982 40.3779 35.2331 40.349 35.3666 40.315C35.3937 40.3081 35.4202 40.2995 35.4471 40.2921C35.5531 40.2634 35.6582 40.2319 35.7621 40.1971C35.8029 40.1833 35.8435 40.1688 35.8839 40.1542C35.9785 40.1199 36.0718 40.0829 36.1641 40.0436C36.1882 40.0334 36.2132 40.0254 36.2371 40.0148C36.5235 40.6764 36.6683 41.3691 36.6683 42.0785V43.3864ZM31.1233 34.4886C30.9371 34.5171 30.801 34.6595 30.801 34.826V35.9516C30.801 36.1184 30.9371 36.2608 31.1233 36.2889C31.6588 36.3702 32.1913 36.5146 32.7059 36.7178C34.0902 37.2647 35.2192 38.2057 35.917 39.3868C35.9028 39.3933 35.8894 39.401 35.8749 39.4074C35.8258 39.429 35.7752 39.4477 35.7253 39.4676C35.6483 39.4982 35.571 39.5284 35.4923 39.5549C35.439 39.573 35.3848 39.5887 35.3307 39.6048C35.2532 39.6279 35.1752 39.6498 35.0963 39.6689C35.0402 39.6825 34.9839 39.6946 34.9274 39.7062C34.8487 39.7224 34.7694 39.7365 34.6898 39.7487C34.6325 39.7575 34.5751 39.7658 34.5172 39.7725C34.4366 39.7819 34.3559 39.7885 34.2747 39.7939C34.2174 39.7977 34.1604 39.8019 34.1031 39.8037C34.0189 39.8064 33.9347 39.8052 33.8503 39.8035C33.7961 39.8024 33.742 39.8027 33.6878 39.7998C33.5949 39.7948 33.5022 39.7849 33.4096 39.7745C33.3643 39.7695 33.3188 39.7667 33.2737 39.7604C33.1362 39.741 32.9993 39.7166 32.8637 39.6852L29.4622 38.8976C29.3092 38.8621 29.1611 38.8172 29.0172 38.7653C28.9688 38.7478 28.9237 38.7253 28.8765 38.706C28.7834 38.6681 28.6901 38.6302 28.6017 38.5857C28.548 38.5587 28.4982 38.5273 28.4466 38.498C28.3694 38.4543 28.2922 38.4109 28.2194 38.3623C28.1675 38.3276 28.1191 38.2894 28.0694 38.2523C28.0031 38.2026 27.9369 38.1526 27.8747 38.0988C27.8269 38.0574 27.7822 38.0131 27.737 37.9693C27.6799 37.9138 27.624 37.8577 27.5715 37.7987C27.5292 37.7512 27.4898 37.702 27.4505 37.6524C27.4025 37.5914 27.3563 37.5292 27.3132 37.4651C27.2778 37.4126 27.2444 37.3591 27.2125 37.3047C27.1736 37.2384 27.1378 37.1705 27.1041 37.1015C27.0766 37.0449 27.05 36.9879 27.0261 36.9296C27.0146 36.9013 27.0062 36.8718 26.9956 36.8432C27.0978 36.7962 27.1943 36.755 27.2876 36.7178C27.8023 36.5146 28.3347 36.3702 28.8702 36.2889C29.0564 36.2608 29.1926 36.1184 29.1926 35.9516V34.826C29.1926 34.6595 29.0564 34.5167 28.8702 34.4886C27.6587 34.3045 26.5249 33.8151 25.5996 33.0964C25.4972 33.0168 25.4039 32.9402 25.3159 32.865C25.2222 32.7832 25.1293 32.7007 25.0408 32.6138C25.032 32.6053 25.021 32.5963 25.0125 32.5877C24.8113 32.3879 24.6431 32.168 24.503 31.9363C24.145 31.3445 23.9889 30.6681 24.0742 29.9945C24.1884 29.0945 24.703 28.3129 25.5245 27.793C25.8939 27.559 26.3114 27.3624 26.7654 27.2087C31.297 25.6752 32.2478 23.0832 32.4473 22.0596C35.4445 22.8653 36.6896 25.2329 36.7025 25.2576C36.7457 25.3419 36.8261 25.4077 36.9247 25.4391C37.5717 25.6451 38.0063 26.1847 38.0063 26.7821C38.0063 27.3792 37.5717 27.9187 36.9247 28.1247C36.7707 28.1735 36.6683 28.3025 36.6683 28.4466V28.699C36.6683 28.8991 36.6549 29.098 36.6315 29.2953C36.6272 29.3327 36.6196 29.3692 36.6145 29.4064C36.5908 29.5756 36.5614 29.7438 36.521 29.9097C36.5157 29.9319 36.5096 29.9537 36.5041 29.9757C36.1962 31.1744 35.4619 32.2747 34.3849 33.1073C34.3595 33.127 34.338 33.1496 34.32 33.1738C33.4337 33.8368 32.3426 34.3034 31.1233 34.4886ZM39.1873 30.9627C38.1823 32.0395 36.7872 32.5621 35.8033 32.8109C36.8365 31.6801 37.445 30.2461 37.445 28.699V28.6719C38.2555 28.3166 38.783 27.5848 38.783 26.7821C38.783 25.945 38.2096 25.1851 37.3404 24.8488C37.0051 24.2711 35.4862 21.9723 32.2004 21.2923C32.0862 21.2689 31.9653 21.292 31.8724 21.3559C31.7794 21.42 31.7248 21.5177 31.7233 21.6213C31.7229 21.6534 31.6186 24.8327 26.487 26.5695C25.9712 26.744 25.4949 26.9686 25.0709 27.2371C24.0689 27.8713 23.4405 28.8234 23.3021 29.9183C23.2848 30.0547 23.2767 30.1913 23.2755 30.3275C23.2752 30.3659 23.2791 30.404 23.2799 30.4423C23.2822 30.5388 23.2856 30.6351 23.2956 30.7309C23.301 30.7813 23.3104 30.8309 23.318 30.881C23.3303 30.9642 23.343 31.0471 23.3613 31.1292C23.3732 31.1836 23.3887 31.2369 23.4033 31.2907C23.424 31.3674 23.4456 31.4437 23.4712 31.5192C23.4902 31.5745 23.5116 31.6289 23.5332 31.6834C23.5617 31.7558 23.5918 31.8275 23.625 31.8984C23.6506 31.9528 23.6775 32.0065 23.7058 32.0599C23.7422 32.129 23.7809 32.1969 23.8219 32.2642C23.8535 32.3164 23.8858 32.368 23.9201 32.419C23.9644 32.485 24.0119 32.5493 24.0606 32.6132C24.0981 32.6623 24.1353 32.7112 24.1751 32.7589C24.1912 32.7782 24.2049 32.7987 24.2214 32.8178C23.2376 32.5724 21.828 32.0495 20.8119 30.96C21.2906 29.2506 21.3323 27.441 20.9276 25.6982C20.8085 25.1834 20.7733 24.699 20.8233 24.258C21.3023 20.0306 25.3231 16.7557 30.0057 16.7557C30.0455 16.7557 30.0861 16.7557 30.1259 16.7564C34.8282 16.8122 38.7204 19.9658 39.1793 24.0919C39.2264 24.5151 39.1953 24.9805 39.0876 25.4742L39.02 25.7811C38.6461 27.4881 38.7041 29.2774 39.1873 30.9627Z" mask="url(#path-2-outside-1)"/></svg>