<svg xmlns="http://www.w3.org/2000/svg" width="18" height="18" fill="none" viewBox="0 0 18 18"><path fill="#FBBB00" d="M3.98878 10.8765L3.36229 13.2153L1.07248 13.2638C0.388157 11.9945 0 10.5423 0 8.99909C0 7.50682 0.362917 6.09959 1.00621 4.86049H1.0067L3.04528 5.23423L3.9383 7.26058C3.7514 7.80548 3.64953 8.39042 3.64953 8.99909C3.6496 9.65969 3.76926 10.2926 3.98878 10.8765Z"/><path fill="#518EF8" d="M17.8432 7.31796C17.9466 7.86233 18.0005 8.42453 18.0005 8.9991C18.0005 9.64338 17.9327 10.2718 17.8037 10.8781C17.3656 12.9409 16.2209 14.7422 14.6352 16.0169L14.6348 16.0164L12.0671 15.8854L11.7036 13.6168C12.7558 12.9998 13.5781 12.0341 14.0113 10.8781H9.19922V7.31796H14.0815H17.8432Z"/><path fill="#28B446" d="M14.6381 16.0164L14.6386 16.0169C13.0964 17.2565 11.1373 17.9982 9.00476 17.9982C5.57768 17.9982 2.5981 16.0827 1.07812 13.2638L3.99443 10.8765C4.7544 12.9048 6.71097 14.3486 9.00476 14.3486C9.99069 14.3486 10.9144 14.0821 11.707 13.6168L14.6381 16.0164Z"/><path fill="#F14336" d="M14.7487 2.07176L11.8334 4.4585C11.0131 3.94576 10.0434 3.64956 9.00461 3.64956C6.65891 3.64956 4.66574 5.15962 3.94385 7.26059L1.01221 4.8605H1.01172C2.50944 1.97288 5.5266 0 9.00461 0C11.1881 0 13.1902 0.77779 14.7487 2.07176Z"/></svg>