<svg xmlns="http://www.w3.org/2000/svg" width="60" height="61" fill="none" viewBox="0 0 60 61"><path fill="#EAF7ED" d="M7.58572 50.323C1.99496 43.7798 -0.947548 34.9415 0.27359 25.9036C1.48002 16.8799 6.8648 7.67093 15.2804 3.23751C23.6959 -1.21017 35.1423 -0.868042 44.2788 3.60815C53.4299 8.07008 60.2713 16.6518 59.9917 24.2927C59.7269 31.9336 55.2381 40.3853 49 47.071C42.7619 53.7426 34.7745 58.6482 28.095 59.8599C21.4302 61.0858 13.1765 56.852 7.58572 50.323Z"/><path fill="#168A59" d="M34.5204 22.1074C34.5204 21.8137 34.4059 21.5374 34.1982 21.3297C33.7694 20.901 33.0717 20.9009 32.6428 21.3297C32.4941 21.4784 32.4941 21.7195 32.6428 21.8682C32.7915 22.017 33.0326 22.017 33.1813 21.8683C33.3132 21.7363 33.5277 21.7364 33.6596 21.8682C33.7234 21.9321 33.7586 22.0171 33.7586 22.1074C33.7586 22.1977 33.7234 22.2826 33.6596 22.3465C33.5108 22.4952 33.5108 22.7363 33.6596 22.885C33.734 22.9594 33.8314 22.9966 33.9289 22.9966C34.0263 22.9966 34.1239 22.9594 34.1982 22.8851C34.4059 22.6773 34.5204 22.4012 34.5204 22.1074Z"/><path fill="#168A59" d="M42.3677 27.8318C42.7354 26.9195 42.9338 25.9405 42.9449 24.9347C42.9668 22.9556 42.2635 21.0954 40.9571 19.6545C41.3445 19.2874 41.8175 19.0157 42.3305 18.8667C42.5325 18.808 42.6487 18.5967 42.59 18.3948C42.5313 18.1928 42.32 18.0766 42.1181 18.1353C41.4821 18.32 40.8965 18.6585 40.4185 19.116C38.1666 17.0751 34.9744 16.6104 32.2432 17.7064C31.7233 17.2947 31.0842 17.071 30.4148 17.071C30.4 17.071 30.385 17.0711 30.3702 17.0713C29.5989 17.0828 28.8736 17.3896 28.328 17.9352C27.4006 18.8626 27.2092 20.2523 27.7893 21.3722C27.5592 21.3616 27.3239 21.3963 27.0966 21.4817C25.3924 22.1212 22.9018 23.801 21.4265 25.3057C20.6158 26.1326 20.1887 27.2728 20.2547 28.4342C20.2741 28.7751 20.3065 29.1536 20.3504 29.5615C19.352 30.4861 18.4482 31.6533 17.8537 32.7918C17.4594 33.547 16.8659 34.9536 17.3223 35.888C17.324 35.8916 17.3259 35.8955 17.3278 35.8993C16.6124 37.8486 17.0871 40.0294 18.5644 41.5066C19.5866 42.5289 20.9456 43.0711 22.3318 43.071C22.9487 43.071 23.5711 42.9632 24.1714 42.7429C24.1752 42.7449 24.1792 42.747 24.183 42.7488C24.4064 42.8579 24.6733 42.9116 24.9758 42.9116C25.7278 42.9116 26.6997 42.5797 27.7697 41.9433C28.7598 41.3544 29.7232 40.5671 30.508 39.7209C30.9174 39.7649 31.2964 39.797 31.6368 39.8164C31.7152 39.8208 31.7934 39.823 31.8715 39.823C32.9505 39.823 33.9943 39.4006 34.7653 38.6446C35.6277 37.799 36.5723 36.5997 37.357 35.354C37.4691 35.1761 37.4157 34.941 37.2378 34.8288C37.0598 34.7167 36.8246 34.7701 36.7126 34.9481C35.9581 36.1458 35.0541 37.2948 34.2321 38.1008C33.558 38.7617 32.6281 39.11 31.6801 39.056C31.5012 39.0458 31.3107 39.0319 31.1102 39.0144C31.2115 38.8842 31.3082 38.7535 31.399 38.6229C31.877 37.9353 32.1242 37.1205 32.114 36.2667C32.0966 34.8152 31.9158 32.3162 31.4605 29.6558C31.456 29.6298 31.4513 29.6031 31.4468 29.5769C33.9004 30.0686 35.9535 30.7246 37.4089 31.4843C37.8505 31.7149 38.0516 32.2405 37.8765 32.707C37.792 32.9321 37.6852 33.1785 37.5589 33.4395C37.4674 33.6289 37.5467 33.8566 37.736 33.9482C37.7894 33.974 37.8459 33.9863 37.9016 33.9863C38.043 33.9863 38.179 33.9071 38.2446 33.7712C38.3809 33.4893 38.497 33.2214 38.5895 32.9747C38.6749 32.7474 38.7095 32.5123 38.699 32.2822C39.1234 32.5021 39.5865 32.6115 40.0487 32.6115C40.8058 32.6115 41.5602 32.319 42.136 31.7432C42.6816 31.1976 42.9884 30.4723 42.9998 29.701C43.0098 29.017 42.7866 28.3626 42.3677 27.8318ZM28.8666 18.4737C29.5649 17.7755 30.6057 17.6429 31.4351 18.0839C30.7545 18.4495 30.1142 18.9197 29.5391 19.4949C29.1085 19.9254 28.7311 20.3981 28.4101 20.9063C28.0506 20.0977 28.2105 19.1298 28.8666 18.4737ZM19.1029 40.968C17.9206 39.7857 17.4877 38.0776 17.9345 36.496C18.5148 36.8693 19.6686 37.3887 22.0259 38.0454C22.3061 39.0497 22.5899 39.9312 22.8616 40.6368C23.1374 41.3529 23.375 41.8227 23.5777 42.1358C21.9955 42.5839 20.286 42.1511 19.1029 40.968ZM30.7736 38.188C29.9702 39.3437 28.7018 40.5027 27.3804 41.2887C26.1423 42.0251 25.0452 42.3221 24.5172 42.0644C24.5054 42.0586 24.4927 42.0508 24.4795 42.0415C24.4655 42.0281 24.4505 42.0159 24.4347 42.0049C24.1224 41.7188 23.4991 40.5517 22.707 37.6535C22.7042 37.6412 22.7009 37.6291 22.697 37.6172C22.6072 37.2877 22.5153 36.936 22.4214 36.5609C22.3703 36.3568 22.1636 36.2327 21.9595 36.2839C21.7555 36.3349 21.6315 36.5417 21.6825 36.7457C21.7199 36.8954 21.7576 37.0424 21.7954 37.1881C18.906 36.3504 18.2118 35.7998 18.0508 35.6156C18.0481 35.6123 18.0453 35.6092 18.0425 35.606C18.0209 35.58 18.0108 35.5625 18.0065 35.5537C17.6009 34.7231 18.6045 32.4063 20.4661 30.5099C20.6479 31.8547 20.9272 33.4176 21.2729 34.9967C21.3179 35.2022 21.5211 35.3321 21.7264 35.2873C21.9319 35.2423 22.0619 35.0393 22.017 34.8339C21.4795 32.3782 21.1049 29.9696 21.0152 28.3909C20.9613 27.4432 21.3094 26.513 21.9704 25.8389C23.3794 24.4017 25.7486 22.801 27.3642 22.1946C27.8306 22.0194 28.3563 22.2205 28.5869 22.6622C29.1878 23.8134 30.0038 26.1458 30.5939 29.1207C30.596 29.1554 30.6027 29.1891 30.6137 29.2211C31.0246 31.3207 31.3217 33.7341 31.3522 36.2755C31.3606 36.9701 31.1605 37.6314 30.7736 38.188ZM38.3213 31.2721C38.173 31.0849 37.9846 30.9256 37.7612 30.8089C36.1609 29.9736 33.9879 29.2885 31.2993 28.7715C30.9091 26.7495 30.2667 24.2341 29.2621 22.3098C29.1455 22.0865 28.9862 21.898 28.7989 21.7497C29.1374 21.1209 29.5664 20.5447 30.0776 20.0335C32.8883 17.2228 37.4089 17.1702 40.1549 19.9162C42.9008 22.6621 42.8482 27.1827 40.0375 29.9934C39.5263 30.5047 38.9501 30.9336 38.3213 31.2721ZM41.5973 31.2045C40.9412 31.8605 39.9734 32.0204 39.1647 31.6609C39.673 31.34 40.1456 30.9625 40.5762 30.532C41.1446 29.9635 41.6182 29.326 41.9889 28.6392C42.4277 29.468 42.2946 30.5071 41.5973 31.2045Z"/><path fill="#168A59" d="M37.9654 25.5519C37.6716 25.5519 37.3954 25.6664 37.1877 25.8741C37.039 26.0228 37.039 26.2639 37.1878 26.4126C37.3365 26.5613 37.5776 26.5614 37.7263 26.4126C37.7902 26.3487 37.8751 26.3136 37.9654 26.3136C38.0557 26.3136 38.1407 26.3487 38.2045 26.4126C38.2684 26.4765 38.3036 26.5614 38.3036 26.6517C38.3036 26.7421 38.2684 26.827 38.2045 26.8909C38.0558 27.0396 38.0559 27.2807 38.2045 27.4294C38.2789 27.5038 38.3764 27.5409 38.4738 27.5409C38.5713 27.5409 38.6688 27.5038 38.7432 27.4294C38.9509 27.2216 39.0653 26.9455 39.0653 26.6517C39.0653 26.3579 38.9509 26.0817 38.7432 25.8741C38.5353 25.6663 38.2592 25.5519 37.9654 25.5519Z"/><path fill="#168A59" d="M35.6095 25.133C35.4273 25.1454 35.2487 25.0789 35.1199 24.9501C34.991 24.8213 34.9244 24.6428 34.9369 24.4605C34.9513 24.2507 34.7929 24.0689 34.5831 24.0545C34.3729 24.0407 34.1915 24.1985 34.1771 24.4083C34.1495 24.8103 34.2969 25.2041 34.5813 25.4886C34.8433 25.7505 35.1976 25.8961 35.5658 25.8961C35.5977 25.8961 35.6297 25.895 35.6617 25.8928C35.8715 25.8784 36.0299 25.6966 36.0155 25.4868C36.001 25.277 35.8194 25.119 35.6095 25.133Z"/></svg>