<svg width="18" height="18" viewBox="0 0 18 18" fill="none" xmlns="http://www.w3.org/2000/svg">
<path d="M9 18C4.03354 18 0 13.9665 0 9C0 4.03354 4.03354 0 9 0C13.9665 0 18 4.03354 18 9C18 13.9665 13.9665 18 9 18ZM9 0.823171C4.5 0.823171 0.823171 4.47256 0.823171 9C0.823171 13.5274 4.5 17.1768 9 17.1768C13.5 17.1768 17.1768 13.5 17.1768 9C17.1768 4.5 13.5 0.823171 9 0.823171Z" fill="#26B14F"/>
<path d="M10.1801 11.5793H7.82031V12.4024H10.1801V11.5793Z" fill="#26B14F"/>
<path d="M8.99848 6.69513C9.37733 6.69513 9.68445 6.38801 9.68445 6.00916C9.68445 5.6303 9.37733 5.32318 8.99848 5.32318C8.61962 5.32318 8.3125 5.6303 8.3125 6.00916C8.3125 6.38801 8.61962 6.69513 8.99848 6.69513Z" fill="#26B14F"/>
<path d="M9.43921 12.1555H8.61604V8.42378H7.82031V7.60061H9.43921V12.1555Z" fill="#26B14F"/>
</svg>
