<svg xmlns="http://www.w3.org/2000/svg" width="24" height="24" fill="none" viewBox="0 0 24 24"><circle cx="12" cy="12" r="11.5" stroke="#091F0E"/><path fill="#091F0E" d="M13.7299 7.38379H10.2684C8.67552 7.38379 7.38379 8.67552 7.38379 10.2684V13.7299C7.38379 15.3228 8.67552 16.6146 10.2684 16.6146H13.7299C15.3228 16.6146 16.6146 15.3228 16.6146 13.7299V10.2684C16.6146 8.67552 15.3228 7.38379 13.7299 7.38379ZM15.7492 13.7299C15.7492 14.8434 14.8434 15.7492 13.7299 15.7492H10.2684C9.15494 15.7492 8.24917 14.8434 8.24917 13.7299V10.2684C8.24917 9.15494 9.15494 8.24917 10.2684 8.24917H13.7299C14.8434 8.24917 15.7492 9.15494 15.7492 10.2684V13.7299Z"/><path fill="#091F0E" d="M11.9991 9.69189C10.7247 9.69189 9.69141 10.7252 9.69141 11.9996C9.69141 13.274 10.7247 14.3073 11.9991 14.3073C13.2735 14.3073 14.3068 13.274 14.3068 11.9996C14.3068 10.7252 13.2735 9.69189 11.9991 9.69189ZM11.9991 13.4419C11.2041 13.4419 10.5568 12.7946 10.5568 11.9996C10.5568 11.204 11.2041 10.5573 11.9991 10.5573C12.7941 10.5573 13.4414 11.204 13.4414 11.9996C13.4414 12.7946 12.7941 13.4419 11.9991 13.4419Z"/><path fill="#091F0E" d="M14.4803 9.82641C14.65 9.82641 14.7877 9.68874 14.7877 9.51892C14.7877 9.3491 14.65 9.21143 14.4803 9.21143C14.3105 9.21143 14.1729 9.3491 14.1729 9.51892C14.1729 9.68874 14.3105 9.82641 14.4803 9.82641Z"/></svg>