<svg xmlns="http://www.w3.org/2000/svg" width="80" height="80" fill="none" viewBox="0 0 80 80"><path fill="#FEFAF5" d="M10.1143 67.0026C2.65994 58.2783 -1.2634 46.4939 0.364784 34.4434C1.97335 22.4118 9.15307 10.1332 20.3738 4.22195C31.5946 -1.70829 46.8564 -1.25212 59.0383 4.71613C71.2399 10.6654 80.3617 22.1077 79.989 32.2955C79.6359 42.4834 69.7883 51.4168 61.4708 60.3311C53.1533 69.2265 46.366 78.1028 37.46 79.7184C28.5736 81.3531 17.5686 75.7079 10.1143 67.0026Z"/><mask id="path-2-outside-1" width="44" height="42" x="18" y="19" fill="#000" maskUnits="userSpaceOnUse"><rect width="44" height="42" x="18" y="19" fill="#fff"/><path d="M59.3346 42.1722H59.2752L55.1452 31.8823C56.1564 30.6252 55.5573 28.72 54.049 28.2935L43.1138 25.2018C42.8865 24.6799 42.5422 24.2239 42.115 23.8699V22.2401C42.115 21.0049 41.1419 20 39.9457 20C38.7496 20 37.7766 21.0049 37.7766 22.2401V23.8699C37.3493 24.2239 37.0049 24.6799 36.7776 25.2019L25.8423 28.2936C24.2803 28.7352 23.7176 30.7337 24.8197 31.9692L20.7244 42.1722C19.6667 42.1722 19 43.005 19 43.8918V44.4845C19 45.4326 19.747 46.2041 20.6652 46.2041H21.0742C23.3259 50.1536 28.8582 50.1468 31.1064 46.2041H31.5156C32.4338 46.2041 33.1808 45.4328 33.1808 44.4845V43.8918C33.1808 43.0078 32.5172 42.1722 31.4562 42.1722L27.5558 32.4542L37.7765 29.5645V50.3152H37.5798C36.7203 50.3152 36.0208 51.0373 36.0208 51.9251C36.0208 52.801 36.0111 52.8597 36.0564 53.0765H34.5206C33.6024 53.0765 32.8554 53.8479 32.8554 54.7963V55.9697C31.952 55.9875 31.2221 56.7505 31.2221 57.6878V58.2805C31.2221 59.2286 31.969 60 32.8873 60H38.5102C38.85 60 39.1253 59.7156 39.1253 59.3648C39.1253 59.0139 38.8499 58.7295 38.5102 58.7295H32.8873C32.6475 58.7295 32.4524 58.5281 32.4524 58.2805V57.6878C32.4524 57.4401 32.6475 57.2386 32.8873 57.2386C33.4029 57.2386 46.1719 57.2386 47.0041 57.2386C47.2438 57.2386 47.4389 57.4401 47.4389 57.6878V58.2805C47.4389 58.5281 47.2438 58.7295 47.0041 58.7295H41.381C41.0412 58.7295 40.7658 59.0139 40.7658 59.3648C40.7658 59.7156 41.0413 60 41.381 60H47.0041C47.9222 60 48.6693 59.2287 48.6693 58.2805V57.6878C48.6693 56.7507 47.9395 55.9876 47.0361 55.9697V54.7963C47.0361 53.8481 46.2892 53.0765 45.3708 53.0765H43.8349C43.8797 52.8625 43.8704 52.8121 43.8704 51.9251C43.8704 51.0375 43.171 50.3152 42.3112 50.3152H42.1148V41.5287C42.1148 41.1778 41.8394 40.8935 41.4996 40.8935C41.1598 40.8935 40.8845 41.1778 40.8845 41.5287V50.3154H39.0067V30.1196C39.599 30.2943 40.2805 30.2968 40.8845 30.1195V38.5641C40.8845 38.915 41.1598 39.1993 41.4996 39.1993C41.8394 39.1993 42.1148 38.9149 42.1148 38.5641V29.5645L52.4325 32.4818L48.5434 42.1721C47.4855 42.1721 46.8191 43.0051 46.8191 43.8916V44.4843C46.8191 45.4325 47.5661 46.2038 48.4844 46.2038H48.8936C51.1447 50.1525 56.6769 50.1475 58.9257 46.2038H59.3348C60.253 46.2038 61 45.4325 61 44.4843V43.8916C60.9998 42.9436 60.253 42.1722 59.3346 42.1722ZM25.4751 33.6545V42.1722H22.0563L25.4751 33.6545ZM22.6589 46.3051H29.5217C27.6979 48.4268 24.4808 48.4251 22.6589 46.3051ZM31.5128 43.4427C31.5128 43.4427 31.5128 43.4427 31.5155 43.4427C31.7553 43.4427 31.9504 43.6442 31.9504 43.8918V44.4845C31.9504 44.7321 31.7553 44.9335 31.5155 44.9335H20.6652C20.4255 44.9335 20.2304 44.7321 20.2304 44.4845V43.8918C20.2304 43.6442 20.4255 43.4427 20.6652 43.4427C20.9542 43.4427 31.2617 43.4427 31.5128 43.4427ZM30.1242 42.1722H26.7055V33.6544L30.1242 42.1722ZM26.5003 31.4182C26.2707 31.4408 26.0782 31.3793 25.8879 31.2553C25.221 30.7859 25.4026 29.7351 26.1673 29.5188L36.4738 26.605C36.4639 27.2433 36.6194 27.8968 36.9515 28.4805C26.1711 31.5286 26.6359 31.4051 26.5003 31.4182ZM39.0068 22.2401H39.0069C39.0069 21.7054 39.4281 21.2706 39.9456 21.2706C40.4635 21.2706 40.8845 21.7055 40.8845 22.2401V23.2143C40.2783 23.0382 39.6086 23.0383 39.0068 23.2142V22.2401ZM45.371 54.3471C45.6108 54.3471 45.8059 54.5486 45.8059 54.7963V55.9681H34.0859V54.7962C34.0859 54.5485 34.281 54.347 34.5207 54.347C35.0569 54.3471 44.9573 54.3471 45.371 54.3471ZM42.3114 51.5858C42.4927 51.5858 42.6402 51.738 42.6402 51.9252V52.7373C42.6402 52.9244 42.4927 53.0766 42.3114 53.0766H37.5798C37.3986 53.0766 37.2512 52.9244 37.2512 52.7373V51.9252C37.2512 51.738 37.3986 51.5858 37.5798 51.5858C38.1444 51.5858 41.7582 51.5858 42.3114 51.5858ZM40.091 28.9769C39.2218 29.035 38.4141 28.5705 37.994 27.8042C36.8759 25.7566 39.1492 23.4138 41.1415 24.7098C42.9823 25.9138 42.2384 28.8385 40.091 28.9769ZM54.5247 33.6545L57.9435 42.1722H54.5247V33.6545ZM42.9401 28.4807C43.2716 27.8914 43.4277 27.2504 43.4177 26.6051L53.724 29.519C54.2234 29.6602 54.5185 30.1946 54.3819 30.7102C54.2546 31.1899 53.7884 31.483 53.4025 31.4037C53.3486 31.3924 53.2945 31.3888 53.2416 31.3923C53.1774 31.3756 43.0479 28.5111 42.9401 28.4807ZM53.2943 33.654V42.1722H49.8755L53.2943 33.654ZM50.4781 46.3051H57.3409C55.5172 48.4269 52.3001 48.4251 50.4781 46.3051ZM59.7695 44.4845C59.7695 44.7321 59.5744 44.9335 59.3346 44.9335H48.4843C48.2444 44.9335 48.0494 44.7321 48.0494 44.4845V43.8918C48.0494 43.6442 48.2444 43.4427 48.4843 43.4427C48.7734 43.4427 58.6132 43.4427 58.8643 43.4427C58.8649 43.4426 58.8656 43.4426 58.866 43.4427H59.3348C59.5746 43.4427 59.7696 43.6442 59.7696 43.8918V44.4845H59.7695Z"/></mask><path fill="#FDA57D" d="M59.3346 42.1722H59.2752L55.1452 31.8823C56.1564 30.6252 55.5573 28.72 54.049 28.2935L43.1138 25.2018C42.8865 24.6799 42.5422 24.2239 42.115 23.8699V22.2401C42.115 21.0049 41.1419 20 39.9457 20C38.7496 20 37.7766 21.0049 37.7766 22.2401V23.8699C37.3493 24.2239 37.0049 24.6799 36.7776 25.2019L25.8423 28.2936C24.2803 28.7352 23.7176 30.7337 24.8197 31.9692L20.7244 42.1722C19.6667 42.1722 19 43.005 19 43.8918V44.4845C19 45.4326 19.747 46.2041 20.6652 46.2041H21.0742C23.3259 50.1536 28.8582 50.1468 31.1064 46.2041H31.5156C32.4338 46.2041 33.1808 45.4328 33.1808 44.4845V43.8918C33.1808 43.0078 32.5172 42.1722 31.4562 42.1722L27.5558 32.4542L37.7765 29.5645V50.3152H37.5798C36.7203 50.3152 36.0208 51.0373 36.0208 51.9251C36.0208 52.801 36.0111 52.8597 36.0564 53.0765H34.5206C33.6024 53.0765 32.8554 53.8479 32.8554 54.7963V55.9697C31.952 55.9875 31.2221 56.7505 31.2221 57.6878V58.2805C31.2221 59.2286 31.969 60 32.8873 60H38.5102C38.85 60 39.1253 59.7156 39.1253 59.3648C39.1253 59.0139 38.8499 58.7295 38.5102 58.7295H32.8873C32.6475 58.7295 32.4524 58.5281 32.4524 58.2805V57.6878C32.4524 57.4401 32.6475 57.2386 32.8873 57.2386C33.4029 57.2386 46.1719 57.2386 47.0041 57.2386C47.2438 57.2386 47.4389 57.4401 47.4389 57.6878V58.2805C47.4389 58.5281 47.2438 58.7295 47.0041 58.7295H41.381C41.0412 58.7295 40.7658 59.0139 40.7658 59.3648C40.7658 59.7156 41.0413 60 41.381 60H47.0041C47.9222 60 48.6693 59.2287 48.6693 58.2805V57.6878C48.6693 56.7507 47.9395 55.9876 47.0361 55.9697V54.7963C47.0361 53.8481 46.2892 53.0765 45.3708 53.0765H43.8349C43.8797 52.8625 43.8704 52.8121 43.8704 51.9251C43.8704 51.0375 43.171 50.3152 42.3112 50.3152H42.1148V41.5287C42.1148 41.1778 41.8394 40.8935 41.4996 40.8935C41.1598 40.8935 40.8845 41.1778 40.8845 41.5287V50.3154H39.0067V30.1196C39.599 30.2943 40.2805 30.2968 40.8845 30.1195V38.5641C40.8845 38.915 41.1598 39.1993 41.4996 39.1993C41.8394 39.1993 42.1148 38.9149 42.1148 38.5641V29.5645L52.4325 32.4818L48.5434 42.1721C47.4855 42.1721 46.8191 43.0051 46.8191 43.8916V44.4843C46.8191 45.4325 47.5661 46.2038 48.4844 46.2038H48.8936C51.1447 50.1525 56.6769 50.1475 58.9257 46.2038H59.3348C60.253 46.2038 61 45.4325 61 44.4843V43.8916C60.9998 42.9436 60.253 42.1722 59.3346 42.1722ZM25.4751 33.6545V42.1722H22.0563L25.4751 33.6545ZM22.6589 46.3051H29.5217C27.6979 48.4268 24.4808 48.4251 22.6589 46.3051ZM31.5128 43.4427C31.5128 43.4427 31.5128 43.4427 31.5155 43.4427C31.7553 43.4427 31.9504 43.6442 31.9504 43.8918V44.4845C31.9504 44.7321 31.7553 44.9335 31.5155 44.9335H20.6652C20.4255 44.9335 20.2304 44.7321 20.2304 44.4845V43.8918C20.2304 43.6442 20.4255 43.4427 20.6652 43.4427C20.9542 43.4427 31.2617 43.4427 31.5128 43.4427ZM30.1242 42.1722H26.7055V33.6544L30.1242 42.1722ZM26.5003 31.4182C26.2707 31.4408 26.0782 31.3793 25.8879 31.2553C25.221 30.7859 25.4026 29.7351 26.1673 29.5188L36.4738 26.605C36.4639 27.2433 36.6194 27.8968 36.9515 28.4805C26.1711 31.5286 26.6359 31.4051 26.5003 31.4182ZM39.0068 22.2401H39.0069C39.0069 21.7054 39.4281 21.2706 39.9456 21.2706C40.4635 21.2706 40.8845 21.7055 40.8845 22.2401V23.2143C40.2783 23.0382 39.6086 23.0383 39.0068 23.2142V22.2401ZM45.371 54.3471C45.6108 54.3471 45.8059 54.5486 45.8059 54.7963V55.9681H34.0859V54.7962C34.0859 54.5485 34.281 54.347 34.5207 54.347C35.0569 54.3471 44.9573 54.3471 45.371 54.3471ZM42.3114 51.5858C42.4927 51.5858 42.6402 51.738 42.6402 51.9252V52.7373C42.6402 52.9244 42.4927 53.0766 42.3114 53.0766H37.5798C37.3986 53.0766 37.2512 52.9244 37.2512 52.7373V51.9252C37.2512 51.738 37.3986 51.5858 37.5798 51.5858C38.1444 51.5858 41.7582 51.5858 42.3114 51.5858ZM40.091 28.9769C39.2218 29.035 38.4141 28.5705 37.994 27.8042C36.8759 25.7566 39.1492 23.4138 41.1415 24.7098C42.9823 25.9138 42.2384 28.8385 40.091 28.9769ZM54.5247 33.6545L57.9435 42.1722H54.5247V33.6545ZM42.9401 28.4807C43.2716 27.8914 43.4277 27.2504 43.4177 26.6051L53.724 29.519C54.2234 29.6602 54.5185 30.1946 54.3819 30.7102C54.2546 31.1899 53.7884 31.483 53.4025 31.4037C53.3486 31.3924 53.2945 31.3888 53.2416 31.3923C53.1774 31.3756 43.0479 28.5111 42.9401 28.4807ZM53.2943 33.654V42.1722H49.8755L53.2943 33.654ZM50.4781 46.3051H57.3409C55.5172 48.4269 52.3001 48.4251 50.4781 46.3051ZM59.7695 44.4845C59.7695 44.7321 59.5744 44.9335 59.3346 44.9335H48.4843C48.2444 44.9335 48.0494 44.7321 48.0494 44.4845V43.8918C48.0494 43.6442 48.2444 43.4427 48.4843 43.4427C48.7734 43.4427 58.6132 43.4427 58.8643 43.4427C58.8649 43.4426 58.8656 43.4426 58.866 43.4427H59.3348C59.5746 43.4427 59.7696 43.6442 59.7696 43.8918V44.4845H59.7695Z"/><path stroke="#FDA57D" stroke-width=".512" d="M59.3346 42.1722H59.2752L55.1452 31.8823C56.1564 30.6252 55.5573 28.72 54.049 28.2935L43.1138 25.2018C42.8865 24.6799 42.5422 24.2239 42.115 23.8699V22.2401C42.115 21.0049 41.1419 20 39.9457 20C38.7496 20 37.7766 21.0049 37.7766 22.2401V23.8699C37.3493 24.2239 37.0049 24.6799 36.7776 25.2019L25.8423 28.2936C24.2803 28.7352 23.7176 30.7337 24.8197 31.9692L20.7244 42.1722C19.6667 42.1722 19 43.005 19 43.8918V44.4845C19 45.4326 19.747 46.2041 20.6652 46.2041H21.0742C23.3259 50.1536 28.8582 50.1468 31.1064 46.2041H31.5156C32.4338 46.2041 33.1808 45.4328 33.1808 44.4845V43.8918C33.1808 43.0078 32.5172 42.1722 31.4562 42.1722L27.5558 32.4542L37.7765 29.5645V50.3152H37.5798C36.7203 50.3152 36.0208 51.0373 36.0208 51.9251C36.0208 52.801 36.0111 52.8597 36.0564 53.0765H34.5206C33.6024 53.0765 32.8554 53.8479 32.8554 54.7963V55.9697C31.952 55.9875 31.2221 56.7505 31.2221 57.6878V58.2805C31.2221 59.2286 31.969 60 32.8873 60H38.5102C38.85 60 39.1253 59.7156 39.1253 59.3648C39.1253 59.0139 38.8499 58.7295 38.5102 58.7295H32.8873C32.6475 58.7295 32.4524 58.5281 32.4524 58.2805V57.6878C32.4524 57.4401 32.6475 57.2386 32.8873 57.2386C33.4029 57.2386 46.1719 57.2386 47.0041 57.2386C47.2438 57.2386 47.4389 57.4401 47.4389 57.6878V58.2805C47.4389 58.5281 47.2438 58.7295 47.0041 58.7295H41.381C41.0412 58.7295 40.7658 59.0139 40.7658 59.3648C40.7658 59.7156 41.0413 60 41.381 60H47.0041C47.9222 60 48.6693 59.2287 48.6693 58.2805V57.6878C48.6693 56.7507 47.9395 55.9876 47.0361 55.9697V54.7963C47.0361 53.8481 46.2892 53.0765 45.3708 53.0765H43.8349C43.8797 52.8625 43.8704 52.8121 43.8704 51.9251C43.8704 51.0375 43.171 50.3152 42.3112 50.3152H42.1148V41.5287C42.1148 41.1778 41.8394 40.8935 41.4996 40.8935C41.1598 40.8935 40.8845 41.1778 40.8845 41.5287V50.3154H39.0067V30.1196C39.599 30.2943 40.2805 30.2968 40.8845 30.1195V38.5641C40.8845 38.915 41.1598 39.1993 41.4996 39.1993C41.8394 39.1993 42.1148 38.9149 42.1148 38.5641V29.5645L52.4325 32.4818L48.5434 42.1721C47.4855 42.1721 46.8191 43.0051 46.8191 43.8916V44.4843C46.8191 45.4325 47.5661 46.2038 48.4844 46.2038H48.8936C51.1447 50.1525 56.6769 50.1475 58.9257 46.2038H59.3348C60.253 46.2038 61 45.4325 61 44.4843V43.8916C60.9998 42.9436 60.253 42.1722 59.3346 42.1722ZM25.4751 33.6545V42.1722H22.0563L25.4751 33.6545ZM22.6589 46.3051H29.5217C27.6979 48.4268 24.4808 48.4251 22.6589 46.3051ZM31.5128 43.4427C31.5128 43.4427 31.5128 43.4427 31.5155 43.4427C31.7553 43.4427 31.9504 43.6442 31.9504 43.8918V44.4845C31.9504 44.7321 31.7553 44.9335 31.5155 44.9335H20.6652C20.4255 44.9335 20.2304 44.7321 20.2304 44.4845V43.8918C20.2304 43.6442 20.4255 43.4427 20.6652 43.4427C20.9542 43.4427 31.2617 43.4427 31.5128 43.4427ZM30.1242 42.1722H26.7055V33.6544L30.1242 42.1722ZM26.5003 31.4182C26.2707 31.4408 26.0782 31.3793 25.8879 31.2553C25.221 30.7859 25.4026 29.7351 26.1673 29.5188L36.4738 26.605C36.4639 27.2433 36.6194 27.8968 36.9515 28.4805C26.1711 31.5286 26.6359 31.4051 26.5003 31.4182ZM39.0068 22.2401H39.0069C39.0069 21.7054 39.4281 21.2706 39.9456 21.2706C40.4635 21.2706 40.8845 21.7055 40.8845 22.2401V23.2143C40.2783 23.0382 39.6086 23.0383 39.0068 23.2142V22.2401ZM45.371 54.3471C45.6108 54.3471 45.8059 54.5486 45.8059 54.7963V55.9681H34.0859V54.7962C34.0859 54.5485 34.281 54.347 34.5207 54.347C35.0569 54.3471 44.9573 54.3471 45.371 54.3471ZM42.3114 51.5858C42.4927 51.5858 42.6402 51.738 42.6402 51.9252V52.7373C42.6402 52.9244 42.4927 53.0766 42.3114 53.0766H37.5798C37.3986 53.0766 37.2512 52.9244 37.2512 52.7373V51.9252C37.2512 51.738 37.3986 51.5858 37.5798 51.5858C38.1444 51.5858 41.7582 51.5858 42.3114 51.5858ZM40.091 28.9769C39.2218 29.035 38.4141 28.5705 37.994 27.8042C36.8759 25.7566 39.1492 23.4138 41.1415 24.7098C42.9823 25.9138 42.2384 28.8385 40.091 28.9769ZM54.5247 33.6545L57.9435 42.1722H54.5247V33.6545ZM42.9401 28.4807C43.2716 27.8914 43.4277 27.2504 43.4177 26.6051L53.724 29.519C54.2234 29.6602 54.5185 30.1946 54.3819 30.7102C54.2546 31.1899 53.7884 31.483 53.4025 31.4037C53.3486 31.3924 53.2945 31.3888 53.2416 31.3923C53.1774 31.3756 43.0479 28.5111 42.9401 28.4807ZM53.2943 33.654V42.1722H49.8755L53.2943 33.654ZM50.4781 46.3051H57.3409C55.5172 48.4269 52.3001 48.4251 50.4781 46.3051ZM59.7695 44.4845C59.7695 44.7321 59.5744 44.9335 59.3346 44.9335H48.4843C48.2444 44.9335 48.0494 44.7321 48.0494 44.4845V43.8918C48.0494 43.6442 48.2444 43.4427 48.4843 43.4427C48.7734 43.4427 58.6132 43.4427 58.8643 43.4427C58.8649 43.4426 58.8656 43.4426 58.866 43.4427H59.3348C59.5746 43.4427 59.7696 43.6442 59.7696 43.8918V44.4845H59.7695Z" mask="url(#path-2-outside-1)"/></svg>