<svg xmlns="http://www.w3.org/2000/svg" width="114" height="113" fill="none" viewBox="0 0 114 113"><path fill="#F0EFF3" d="M16.8098 59.8396C16.2807 48.3766 20.4176 36.6654 29.1002 28.152C37.7558 19.6416 50.9609 14.356 63.4474 16.5775C75.9456 18.7841 87.7134 28.5128 93.6664 40.7023C99.6465 52.8888 99.8233 67.521 93.2752 75.3346C86.7425 83.1603 73.4849 84.1674 61.4467 86.0988C49.4203 88.0151 38.6134 90.8557 30.5911 86.6641C22.5727 82.4995 17.3505 71.2876 16.8098 59.8396Z"/><path fill="#7D84AF" d="M57.3218 60.0994C57.0816 60.0994 56.8412 60.0074 56.658 59.8233L50.4192 53.5576C50.0526 53.1894 50.0526 52.5924 50.4192 52.2241C50.7858 51.8559 51.3802 51.856 51.7469 52.2241L57.3218 57.8232L58.4813 56.6586L51.1076 49.253L49.2843 51.0843C48.9177 51.4524 48.3233 51.4524 47.9566 51.0843C47.59 50.7161 47.59 50.1191 47.9566 49.7508L50.4438 47.253C50.6198 47.0762 50.8586 46.9768 51.1076 46.9768C51.3565 46.9768 51.5954 47.0762 51.7714 47.253L60.4727 55.9919C60.8393 56.3601 60.8393 56.9571 60.4727 57.3253L57.9856 59.8232C57.8023 60.0074 57.562 60.0994 57.3218 60.0994Z"/><path fill="#7D84AF" d="M59.1859 56.9753C58.9456 56.9753 58.7054 56.8832 58.5221 56.6992L51.0679 49.2128C50.7013 48.8446 50.7013 48.2476 51.0679 47.8793L58.5221 40.3931C58.8888 40.0249 59.483 40.0249 59.8498 40.3931L66.4329 47.0046C66.7995 47.3728 66.7995 47.9697 66.4329 48.3379C66.0663 48.7061 65.472 48.7062 65.1052 48.338L59.1859 42.3931L53.0593 48.5461L59.1859 54.6991L63.5282 50.3381C63.8949 49.9699 64.4891 49.9699 64.8559 50.3381C65.2225 50.7062 65.2225 51.3032 64.8559 51.6715L59.8498 56.6993C59.6663 56.8833 59.4262 56.9753 59.1859 56.9753Z"/><path fill="#7D84AF" d="M67.2632 50.1153C67.0142 50.1153 66.7755 50.0159 66.5994 49.8391L60.346 43.5586C59.9794 43.1904 59.9794 42.5934 60.346 42.2252C60.7126 41.8571 61.3071 41.8571 61.6737 42.2253L67.2633 47.839L68.4155 46.6818L61.0417 39.2762L59.2257 41.1001C58.859 41.4683 58.2648 41.4683 57.898 41.1001C57.5314 40.7319 57.5314 40.135 57.898 39.7667L60.3778 37.2762C60.5539 37.0994 60.7926 37 61.0416 37C61.2905 37 61.5293 37.0994 61.7054 37.2762L70.4067 46.0151C70.7733 46.3832 70.7733 46.9802 70.4067 47.3485L67.9269 49.839C67.7509 50.0159 67.5122 50.1153 67.2632 50.1153Z"/><path fill="#7D84AF" d="M64.7697 57.6016C64.5207 57.6016 64.2819 57.5022 64.1059 57.3254L61.0025 54.2085C60.6359 53.8403 60.6359 53.2433 61.0025 52.8752L63.4896 50.3772C63.6657 50.2004 63.9044 50.1011 64.1534 50.1011C64.4024 50.1011 64.6411 50.2004 64.8172 50.3772L67.9207 53.4941C68.0967 53.6709 68.1957 53.9108 68.1957 54.1608C68.1957 54.4109 68.0967 54.6506 67.9207 54.8275L65.4335 57.3253C65.2574 57.5022 65.0187 57.6016 64.7697 57.6016ZM62.9939 53.5418L64.7697 55.3254L65.9293 54.1608L64.1535 52.3773L62.9939 53.5418Z"/><path fill="#7D84AF" d="M75.3265 69.4572C75.3178 69.4572 75.309 69.4571 75.3004 69.4569C75.0424 69.4497 74.7988 69.3362 74.6267 69.143L73.0703 67.3952C72.7247 67.0071 72.7578 66.411 73.1443 66.0639C73.5305 65.7167 74.1242 65.75 74.4699 66.1381L75.3645 67.1429L77.6951 64.8021L67.2921 55.458L66.0605 56.6948L71.3407 62.6243C71.6864 63.0124 71.6533 63.6085 71.2668 63.9556C70.8805 64.3028 70.2869 64.2695 69.9412 63.8814L64.0691 57.2873C63.737 56.9143 63.7528 56.3458 64.105 55.992L66.5922 53.4942C66.9444 53.1405 67.5106 53.1245 67.8818 53.458L79.6866 64.0613C79.879 64.234 79.9921 64.4787 79.9992 64.7378C80.0064 64.9969 79.9072 65.2475 79.7247 65.4308L75.9903 69.1813C75.814 69.3581 75.5751 69.4572 75.3265 69.4572Z"/><path fill="#7D84AF" d="M79.0612 76.9999L67.7959 76.9999C67.2775 76.9999 66.8571 76.5778 66.8571 76.0571C66.8571 75.5365 67.2775 75.1143 67.7959 75.1143L79.0612 75.1143C79.5796 75.1143 80 75.5365 80 76.0571C80 76.5778 79.5796 76.9999 79.0612 76.9999ZM63.102 76.9999L34.9388 76.9999C34.4203 76.9999 34 76.5778 34 76.0571C34 75.5365 34.4203 75.1143 34.9388 75.1143L63.102 75.1143C63.6204 75.1143 64.0408 75.5365 64.0408 76.0571C64.0408 76.5778 63.6204 76.9999 63.102 76.9999Z"/><path fill="#7D84AF" d="M63.1024 77.0001L36.8167 77.0001C36.2982 77.0001 35.8779 76.578 35.8779 76.0573L35.8779 74.1716C35.8779 73.651 36.2982 73.2288 36.8167 73.2288C37.3352 73.2288 37.7555 73.651 37.7555 74.1716L37.7555 75.1144L63.1024 75.1144C63.6208 75.1144 64.0412 75.5366 64.0412 76.0573C64.0412 76.578 63.6208 77.0001 63.1024 77.0001ZM63.1024 73.3501C62.584 73.3501 62.1636 72.928 62.1636 72.4073L62.1636 71.9559C62.1636 70.5783 61.0476 69.4574 59.6759 69.4574L40.2432 69.4574C39.5327 69.4574 38.8544 69.7639 38.3821 70.298C38.0379 70.6874 37.4445 70.7227 37.0568 70.3771C36.669 70.0313 36.6338 69.4354 36.9781 69.046C37.8064 68.1091 38.9964 67.5718 40.2432 67.5718L59.6759 67.5718C62.083 67.5718 64.0412 69.5385 64.0412 71.9559L64.0412 72.4073C64.0412 72.9281 63.6208 73.3501 63.1024 73.3501Z"/><path fill="#7D84AF" d="M58.408 69.4572L41.5101 69.4572C40.9916 69.4572 40.5713 69.0351 40.5713 68.5144L40.5713 67.0766C40.5713 64.7502 42.4559 62.8574 44.7723 62.8574L49.4796 62.8574C49.9981 62.8574 50.4184 63.2796 50.4184 63.8003C50.4184 64.321 49.9981 64.7431 49.4796 64.7431L44.7723 64.7431C43.4912 64.7431 42.4488 65.79 42.4488 67.0766L42.4488 67.5716L57.4692 67.5716L57.4692 67.0766C57.4692 65.79 56.4269 64.7431 55.1458 64.7431L54.1735 64.7431C53.655 64.7431 53.2347 64.321 53.2347 63.8003C53.2347 63.2796 53.655 62.8574 54.1735 62.8574L55.1458 62.8574C57.4622 62.8574 59.3468 64.7502 59.3468 67.0766L59.3468 68.5144C59.3468 69.0351 58.9264 69.4572 58.408 69.4572Z"/><path fill="#7D84AF" d="M41.5097 58.1433C39.9568 58.1433 38.6934 56.8745 38.6934 55.3148C38.6934 53.7552 39.9568 52.4863 41.5097 52.4863C43.0626 52.4863 44.326 53.7552 44.326 55.3148C44.326 56.8745 43.0626 58.1433 41.5097 58.1433ZM41.5097 54.372C40.992 54.372 40.5709 54.7949 40.5709 55.3148C40.5709 55.8348 40.992 56.2577 41.5097 56.2577C42.0273 56.2577 42.4485 55.8348 42.4485 55.3148C42.4485 54.7949 42.0273 54.372 41.5097 54.372Z"/><path fill="#7D84AF" d="M75.3066 48.7151C73.7536 48.7151 72.4902 47.4462 72.4902 45.8866C72.4902 44.327 73.7536 43.0581 75.3066 43.0581C76.8595 43.0581 78.1229 44.327 78.1229 45.8866C78.1229 47.4462 76.8595 48.7151 75.3066 48.7151ZM75.3066 44.9438C74.7889 44.9438 74.3678 45.3667 74.3678 45.8866C74.3678 46.4066 74.7889 46.8294 75.3066 46.8294C75.8242 46.8294 76.2453 46.4066 76.2453 45.8866C76.2453 45.3667 75.8242 44.9438 75.3066 44.9438Z"/><path fill="#7D84AF" d="M57.4698 73.2287L36.8167 73.2287C36.2982 73.2287 35.8779 72.8066 35.8779 72.2858C35.8779 71.7652 36.2982 71.343 36.8167 71.343L57.4698 71.343C57.9882 71.343 58.4085 71.7652 58.4085 72.2858C58.4085 72.8066 57.9882 73.2287 57.4698 73.2287Z"/></svg>