<svg width="60" height="60" viewBox="0 0 60 60" fill="none" xmlns="http://www.w3.org/2000/svg">
<path d="M7.58572 50.252C1.99496 43.7088 -0.947548 34.8704 0.27359 25.8325C1.48002 16.8089 6.8648 7.59988 15.2804 3.16646C23.6959 -1.28122 35.1423 -0.939087 44.2788 3.5371C53.4299 7.99903 60.2713 16.5808 59.9917 24.2217C59.7269 31.8625 55.2381 40.3142 49 47C42.7619 53.6715 34.7745 58.5771 28.095 59.7888C21.4302 61.0148 13.1765 56.7809 7.58572 50.252Z" fill="#EAF7ED"/>
<path d="M18.3681 40.3001C18.1432 40.3001 17.95 40.4623 17.95 40.675C17.95 40.8878 18.1432 41.05 18.3681 41.05H41.6319C41.8568 41.05 42.05 40.8878 42.05 40.675C42.05 40.4623 41.8568 40.3001 41.6319 40.3001H40.8367V35.9644H41.6319C41.8568 35.9644 42.05 35.8022 42.05 35.5895C42.05 35.3767 41.8568 35.2145 41.6319 35.2145H38.7191V28.3512H39.1356C39.3605 28.3512 39.5537 28.1889 39.5537 27.9762C39.5537 23.4403 35.487 19.7393 30.4181 19.5453V18.8035H35.2334C35.4583 18.8035 35.6515 18.6413 35.6515 18.4285V15.7447C35.6515 15.5319 35.4583 15.3697 35.2334 15.3697H30.4181V15.325C30.4181 15.1122 30.2248 14.95 30 14.95C29.7752 14.95 29.5819 15.1122 29.5819 15.325V19.5453C24.513 19.7393 20.4463 23.4403 20.4463 27.9762C20.4463 28.1889 20.6395 28.3512 20.8644 28.3512H21.2809V35.2145H18.3681C18.1432 35.2145 17.95 35.3767 17.95 35.5895C17.95 35.8022 18.1432 35.9644 18.3681 35.9644H19.1633V40.3001H18.3681ZM25.1168 35.9644V40.3001H22.9761V35.9644H25.1168ZM37.0239 35.9644V40.3001H34.8832V35.9644H37.0239ZM34.047 40.3001H31.9065V35.9644H34.047V40.3001ZM28.9296 40.3001V35.9644H31.0704V40.3001H28.9296ZM28.0935 40.3001H25.953V35.9644H28.0935V40.3001ZM40.0006 40.3001H37.86V35.9644H40.0006V40.3001ZM34.8153 16.1196V18.0535H30.4181V16.1196H34.8153ZM30 20.2852C34.6699 20.2852 38.4851 23.5391 38.7074 27.6012H21.2926C21.5149 23.5391 25.3301 20.2852 30 20.2852ZM22.117 28.3512H37.883V35.2145H22.117V28.3512ZM19.9994 35.9644H22.14V40.3001H19.9994V35.9644Z" fill="#168A59" stroke="#168A59" stroke-width="0.1"/>
<path d="M24.3436 30.0528C24.1188 30.0528 23.9256 30.215 23.9256 30.4278V33.3612C23.9256 33.5739 24.1188 33.7362 24.3436 33.7362C24.5685 33.7362 24.7617 33.5739 24.7617 33.3612V30.4278C24.7617 30.215 24.5685 30.0528 24.3436 30.0528Z" fill="#168A59" stroke="#168A59" stroke-width="0.1"/>
<path d="M27.1728 30.0528C26.9479 30.0528 26.7547 30.215 26.7547 30.4278V33.3612C26.7547 33.5739 26.9479 33.7362 27.1728 33.7362C27.3976 33.7362 27.5908 33.5739 27.5908 33.3612V30.4278C27.5908 30.215 27.3976 30.0528 27.1728 30.0528Z" fill="#168A59" stroke="#168A59" stroke-width="0.1"/>
<path d="M29.9999 30.0528C29.7751 30.0528 29.5818 30.215 29.5818 30.4278V33.3612C29.5818 33.5739 29.7751 33.7362 29.9999 33.7362C30.2247 33.7362 30.418 33.5739 30.418 33.3612V30.4278C30.418 30.215 30.2247 30.0528 29.9999 30.0528Z" fill="#168A59" stroke="#168A59" stroke-width="0.1"/>
<path d="M32.828 30.0528C32.6032 30.0528 32.41 30.215 32.41 30.4278V33.3612C32.41 33.5739 32.6032 33.7362 32.828 33.7362C33.0529 33.7362 33.2461 33.5739 33.2461 33.3612V30.4278C33.2461 30.215 33.0529 30.0528 32.828 30.0528Z" fill="#168A59" stroke="#168A59" stroke-width="0.1"/>
<path d="M35.6561 30.0528C35.4313 30.0528 35.2381 30.215 35.2381 30.4278V33.3612C35.2381 33.5739 35.4313 33.7362 35.6561 33.7362C35.881 33.7362 36.0742 33.5739 36.0742 33.3612V30.4278C36.0742 30.215 35.881 30.0528 35.6561 30.0528Z" fill="#168A59" stroke="#168A59" stroke-width="0.1"/>
</svg>
