<svg width="12" height="11" viewBox="0 0 12 11" fill="none" xmlns="http://www.w3.org/2000/svg">
<path d="M11.7342 2.1654C11.5638 1.7388 11.319 1.3572 11.0064 1.032C10.6944 0.7068 10.3296 0.4524 9.921 0.2754C9.4992 0.0924 9.0468 0 8.5776 0C8.3556 0 8.1306 0.021 7.9086 0.063C7.6896 0.1044 7.4712 0.1662 7.2606 0.2466C7.0506 0.327 6.846 0.4266 6.6528 0.5424C6.4584 0.6588 6.2742 0.7932 6.105 0.9414C6.075 0.9678 6.0372 0.981 5.9994 0.981C5.9616 0.981 5.9244 0.9678 5.8938 0.9414C5.7246 0.7932 5.5404 0.6594 5.3466 0.5424C5.1534 0.4266 4.9494 0.327 4.7394 0.2466C4.5288 0.1662 4.3104 0.1044 4.0914 0.063C3.8694 0.021 3.6444 0 3.4224 0C2.9532 0 2.5008 0.093 2.079 0.2754C1.6704 0.4524 1.3056 0.7068 0.9936 1.032C0.681 1.3572 0.4362 1.7382 0.2658 2.1654C0.0894 2.607 0 3.0804 0 3.5724C0 4.0464 0.0762 4.5012 0.2268 4.9248C0.3774 5.3484 0.597 5.727 0.8802 6.051C0.9678 6.1506 1.0566 6.2406 1.1238 6.2988C1.1268 6.3012 1.1298 6.3042 1.1328 6.3072L1.4274 6.603C1.566 6.7266 5.4588 10.206 5.7108 10.4508C5.7828 10.5198 5.8764 10.5576 5.9742 10.5576C6.0672 10.5576 6.1566 10.5234 6.225 10.4622C6.225 10.4622 6.225 10.4622 6.2256 10.4616L10.2918 6.8364C10.3062 6.8232 10.5792 6.5736 10.7844 6.3792C10.7868 6.3774 10.7886 6.375 10.791 6.3732C11.5596 5.7216 12 4.701 12 3.5724C12 3.0804 11.9106 2.607 11.7342 2.1654Z" fill="#FE2222"/>
</svg>
