<svg xmlns="http://www.w3.org/2000/svg" width="14" height="12" fill="none" viewBox="0 0 14 12"><path fill="#747A76" d="M3.63883 3.43296e-05C2.70391 3.43296e-05 1.77401 0.354286 1.06531 1.0654C-0.352112 2.48759 -0.356184 4.77022 1.0596 6.19348L6.73055 11.8956C6.86785 12.0348 7.1287 12.0348 7.26599 11.8956C9.15773 9.99747 11.0452 8.09719 12.9369 6.19899C14.3544 4.77679 14.3544 2.49313 12.9369 1.07092C11.5195 -0.351294 9.20156 -0.351326 7.78415 1.07092L7.00116 1.84924L6.21816 1.0654C5.45401 0.295723 4.50725 -0.00369278 3.63886 3.43296e-05H3.63883ZM3.63883 0.695555C4.37558 0.695555 5.1162 0.982511 5.68843 1.55668L6.73626 2.611C6.87356 2.75015 7.13441 2.75015 7.2717 2.611L8.31377 1.5622C9.45823 0.413842 11.2628 0.413867 12.4072 1.5622C13.5517 2.71053 13.5517 4.56491 12.4072 5.71323C10.6055 7.52113 8.80286 9.33155 7.0011 11.1394L1.59499 5.70772C0.451315 4.55798 0.450541 2.70498 1.59499 1.55668C2.1672 0.982513 2.90207 0.695555 3.63883 0.695555Z"/></svg>