<svg width="60" height="61" viewBox="0 0 60 61" fill="none" xmlns="http://www.w3.org/2000/svg">
<path d="M7.58572 50.323C1.99496 43.7798 -0.947548 34.9415 0.27359 25.9036C1.48002 16.8799 6.8648 7.67093 15.2804 3.23751C23.6959 -1.21017 35.1423 -0.868042 44.2788 3.60815C53.4299 8.07008 60.2713 16.6518 59.9917 24.2927C59.7269 31.9336 55.2381 40.3853 49 47.071C42.7619 53.7426 34.7745 58.6482 28.095 59.8599C21.4302 61.0858 13.1765 56.852 7.58572 50.323Z" fill="#EAF7ED"/>
<path d="M44.4237 27.0048L31.0849 18.3713C30.4666 17.9711 29.5331 17.9708 28.9143 18.3713L15.5763 27.0048C15.2101 27.2418 15 27.596 15 27.9766C15 28.3572 15.2101 28.7114 15.5763 28.9484L21.0598 32.4977V36.8786C21.0598 39.07 25.5574 40.2168 29.9998 40.2168C34.4426 40.2168 38.9398 39.07 38.9398 36.8786V32.4977L41.5473 30.8097V37.9376C41.4072 38.047 41.2847 38.1968 41.1897 38.3864L40.1601 40.4364C39.9627 40.8303 39.9638 41.2413 40.1642 41.5636C40.3642 41.886 40.7326 42.071 41.1748 42.071H43.0373C43.4795 42.071 43.8479 41.886 44.0479 41.5636C44.2483 41.2413 44.2494 40.83 44.052 40.4364L43.0224 38.3864C42.9274 38.1968 42.8049 38.047 42.6648 37.9376V30.0867L44.4237 28.9484C44.7899 28.7114 45 28.3572 45 27.9766C45 27.596 44.7899 27.2418 44.4237 27.0048ZM43.0522 40.9346C43.0567 40.9427 43.06 40.9509 43.063 40.9579C43.0556 40.9583 43.0466 40.9587 43.0373 40.9587H41.1748C41.1655 40.9587 41.1565 40.9583 41.1491 40.9579C41.1521 40.9505 41.1558 40.9427 41.1599 40.9346L42.1061 39.0503L43.0522 40.9346ZM37.8223 36.8786C37.8223 37.7858 34.7749 39.1041 29.9998 39.1041C25.2247 39.1041 22.1773 37.7858 22.1773 36.8786V29.4603C22.1773 28.553 25.2247 27.2348 29.9998 27.2348C34.7749 27.2348 37.8223 28.553 37.8223 29.4603V36.8786ZM43.8147 28.0152L41.5823 29.4603H41.5473V29.4829L38.9398 31.1706V29.4603C38.9398 27.2685 34.4426 26.122 29.9998 26.122C25.5574 26.122 21.0598 27.2685 21.0598 29.4603V31.1706L16.1853 28.0152C16.1629 28.0007 16.1466 27.9874 16.135 27.9766C16.1466 27.9658 16.1629 27.9525 16.1853 27.938L29.5234 19.3046C29.7685 19.1466 30.2311 19.1458 30.4759 19.3046L43.8147 27.9376C43.8374 27.9521 43.8534 27.9655 43.865 27.9762C43.8534 27.9874 43.8371 28.0007 43.8147 28.0152Z" fill="#168A59"/>
<path d="M36.6585 34.7869C35.0151 34.1129 32.5871 33.7261 29.9979 33.7261C27.4094 33.7261 24.9818 34.1129 23.3372 34.7873C23.1469 34.8655 23.0563 35.0821 23.1346 35.2717C23.1938 35.4149 23.3327 35.5013 23.4791 35.5013C23.5264 35.5013 23.5745 35.4924 23.6207 35.4735C25.1788 34.8344 27.5032 34.4679 29.9979 34.4679C32.4936 34.4679 34.8176 34.834 36.3747 35.4731C36.5658 35.5502 36.7826 35.4608 36.8612 35.2713C36.9394 35.0818 36.8489 34.8652 36.6585 34.7869Z" fill="#168A59"/>
</svg>
