<svg width="104" height="103" viewBox="0 0 104 103" fill="none" xmlns="http://www.w3.org/2000/svg">
<path d="M87.3497 70.0031C81.7955 80.0446 72.1368 87.8533 60.2811 90.5568C48.4501 93.272 34.433 90.8569 24.9605 82.4236C15.4703 73.9969 10.5426 59.5453 11.8571 46.0438C13.147 32.5305 20.6613 19.9739 30.3322 16.7483C39.9963 13.5044 51.8169 19.5915 63.0829 24.2524C74.3311 28.92 85.0246 32.1614 89.6623 39.9343C94.3109 47.6822 92.886 59.9682 87.3497 70.0031Z" fill="#FFEDED"/>
<path d="M51.1123 52.4844L51.1126 52.4844L60.2619 54.3102L51.1123 52.4844ZM51.1123 52.4844C51.0383 52.4698 50.9621 52.4698 50.8881 52.4844L50.8879 52.4844M51.1123 52.4844L50.8879 52.4844M50.8879 52.4844L41.7386 54.3102L50.8879 52.4844ZM61.8544 49.7724L69.7005 52.2836L61.8544 49.7724ZM61.8544 49.7724C61.8542 49.7724 61.8541 49.7723 61.854 49.7723M61.8544 49.7724L61.854 49.7723M61.854 49.7723C61.7968 49.7536 61.7377 49.7447 61.6786 49.7447L59.1957 49.7447L59.1957 45.1L59.3871 45.1C59.7048 45.1 59.9621 44.8428 59.9621 44.525L59.9621 44.2036C59.9621 39.7805 56.364 36.182 51.941 36.182L51.5752 36.182L51.5752 32.475C51.5752 32.1572 51.318 31.9 51.0002 31.9C50.6825 31.9 50.4252 32.1572 50.4252 32.475L50.4252 36.182L50.0595 36.182C45.6364 36.182 42.0384 39.7805 42.0384 44.2036L42.0384 44.525C42.0384 44.8428 42.2956 45.1 42.6134 45.1L42.8047 45.1L42.8047 49.7447L40.3219 49.7447C40.2627 49.7447 40.2037 49.7536 40.1465 49.7723C40.1464 49.7723 40.1462 49.7724 40.1461 49.7724L32.2999 52.2836C32.2999 52.2836 32.2999 52.2836 32.2998 52.2836C32.0616 52.3595 31.9 52.5813 31.9 52.8311L31.9 55.5916C31.9 55.9094 32.1572 56.1667 32.475 56.1667L33.101 56.1667L33.101 66.4098L32.475 66.4098C32.1572 66.4098 31.9 66.667 31.9 66.9848L31.9 69.525C31.9 69.8428 32.1572 70.1 32.475 70.1L69.5255 70.1C69.8432 70.1 70.1005 69.8428 70.1005 69.525L70.1005 66.9848C70.1005 66.667 69.8432 66.4098 69.5255 66.4098L69.0452 66.4098L69.0452 56.1667L69.5255 56.1667C69.8432 56.1667 70.1005 55.9094 70.1005 55.5916L70.1005 52.8311C70.1005 52.5814 69.9389 52.3595 69.7007 52.2836L61.854 49.7723ZM60.7247 55.0166L68.9505 55.0166L68.9505 53.2506L61.5888 50.8947L40.4117 50.8947L33.05 53.2506L33.05 55.0166L41.2758 55.0166L41.2758 54.874C41.2758 54.6001 41.4694 54.3637 41.7385 54.3102L60.7247 55.0166ZM60.7247 55.0166L60.7247 54.874C60.7247 54.6001 60.531 54.3637 60.262 54.3102L60.7247 55.0166ZM50.0595 37.332L51.941 37.332C55.6448 37.332 58.6737 40.278 58.8073 43.95L43.1932 43.95C43.3267 40.278 46.3557 37.332 50.0595 37.332ZM43.9547 45.1L58.0457 45.1L58.0457 49.7447L43.9547 49.7447L43.9547 45.1ZM34.251 56.1667L41.2758 56.1667L41.2758 56.6998C41.2758 57.0176 41.533 57.2748 41.8508 57.2748L42.6192 57.2748L42.6192 66.4098L34.251 66.4098L34.251 56.1667ZM54.2745 66.4098L54.2745 57.2748L58.3769 57.2748L58.3769 66.4098L54.2745 66.4098ZM47.8716 57.2748L47.8716 66.4098L43.7692 66.4098L43.7692 57.2748L47.8716 57.2748ZM49.0216 57.2748L53.1245 57.2748L53.1245 66.4098L49.0216 66.4098L49.0216 57.2748ZM42.4258 56.1248L42.4258 55.3457L51.0002 53.6345L59.5747 55.3457L59.5747 56.1248L42.4258 56.1248ZM33.05 68.95L33.05 67.5598L68.9505 67.5598L68.9505 68.95L33.05 68.95ZM67.8951 66.4098L59.5269 66.4098L59.5269 57.2748L60.1497 57.2748C60.4674 57.2748 60.7247 57.0176 60.7247 56.6998L60.7247 56.1667L67.8951 56.1667L67.8951 66.4098Z" fill="#E99D66" stroke="#E99D66" stroke-width="0.2"/>
<path d="M46.0238 46.1854C45.7061 46.1854 45.4488 46.4426 45.4488 46.7604L45.4488 48.2072C45.4488 48.525 45.7061 48.7822 46.0238 48.7822C46.3416 48.7822 46.5988 48.525 46.5988 48.2072L46.5988 46.7604C46.5988 46.4426 46.3416 46.1854 46.0238 46.1854Z" fill="#E99D66" stroke="#E99D66" stroke-width="0.2"/>
<path d="M48.5121 46.1854C48.1943 46.1854 47.9371 46.4426 47.9371 46.7604L47.9371 48.2072C47.9371 48.525 48.1943 48.7822 48.5121 48.7822C48.8299 48.7822 49.0871 48.525 49.0871 48.2072L49.0871 46.7604C49.0871 46.4426 48.8299 46.1854 48.5121 46.1854Z" fill="#E99D66" stroke="#E99D66" stroke-width="0.2"/>
<path d="M51.0004 46.1854C50.6826 46.1854 50.4254 46.4426 50.4254 46.7604L50.4254 48.2072C50.4254 48.525 50.6826 48.7822 51.0004 48.7822C51.3182 48.7822 51.5754 48.525 51.5754 48.2072L51.5754 46.7604C51.5754 46.4426 51.3182 46.1854 51.0004 46.1854Z" fill="#E99D66" stroke="#E99D66" stroke-width="0.2"/>
<path d="M53.4887 46.1854C53.1709 46.1854 52.9137 46.4426 52.9137 46.7604L52.9137 48.2072C52.9137 48.525 53.1709 48.7822 53.4887 48.7822C53.8065 48.7822 54.0637 48.525 54.0637 48.2072L54.0637 46.7604C54.0637 46.4426 53.8065 46.1854 53.4887 46.1854Z" fill="#E99D66" stroke="#E99D66" stroke-width="0.2"/>
<path d="M55.977 46.1854C55.6592 46.1854 55.402 46.4426 55.402 46.7604L55.402 48.2072C55.402 48.525 55.6592 48.7822 55.977 48.7822C56.2947 48.7822 56.552 48.525 56.552 48.2072L56.552 46.7604C56.552 46.4426 56.2947 46.1854 55.977 46.1854Z" fill="#E99D66" stroke="#E99D66" stroke-width="0.2"/>
<path d="M39.4407 57.0355L37.0258 57.0355C36.708 57.0355 36.4508 57.2927 36.4508 57.6105L36.4508 60.025C36.4508 60.3427 36.708 60.6 37.0258 60.6L39.4407 60.6C39.7585 60.6 40.0157 60.3427 40.0157 60.025L40.0157 57.6105C40.0157 57.2927 39.7585 57.0355 39.4407 57.0355ZM38.8657 59.45L37.6008 59.45L37.6008 58.1855L38.8657 58.1855L38.8657 59.45Z" fill="#E99D66" stroke="#E99D66" stroke-width="0.2"/>
<path d="M39.4407 61.7225L37.0258 61.7225C36.708 61.7225 36.4508 61.9797 36.4508 62.2975L36.4508 64.7124C36.4508 65.0302 36.708 65.2874 37.0258 65.2874L39.4407 65.2874C39.7585 65.2874 40.0157 65.0302 40.0157 64.7124L40.0157 62.2975C40.0157 61.9797 39.7585 61.7225 39.4407 61.7225ZM38.8657 64.1374L37.6008 64.1374L37.6008 62.8725L38.8657 62.8725L38.8657 64.1374Z" fill="#E99D66" stroke="#E99D66" stroke-width="0.2"/>
<path d="M62.5043 60.6L64.9188 60.6C65.2365 60.6 65.4938 60.3427 65.4938 60.025L65.4938 57.6105C65.4938 57.2927 65.2365 57.0355 64.9188 57.0355L62.5043 57.0355C62.1865 57.0355 61.9293 57.2927 61.9293 57.6105L61.9293 60.025C61.9293 60.3427 62.1865 60.6 62.5043 60.6ZM63.0793 58.1855L64.3438 58.1855L64.3438 59.45L63.0793 59.45L63.0793 58.1855Z" fill="#E99D66" stroke="#E99D66" stroke-width="0.2"/>
<path d="M62.5043 65.2874L64.9188 65.2874C65.2365 65.2874 65.4938 65.0302 65.4938 64.7124L65.4938 62.2975C65.4938 61.9797 65.2365 61.7225 64.9188 61.7225L62.5043 61.7225C62.1865 61.7225 61.9293 61.9797 61.9293 62.2975L61.9293 64.7124C61.9293 65.0302 62.1865 65.2874 62.5043 65.2874ZM63.0793 62.8725L64.3438 62.8725L64.3438 64.1374L63.0793 64.1374L63.0793 62.8725Z" fill="#E99D66" stroke="#E99D66" stroke-width="0.2"/>
</svg>
