<svg width="136" height="22" viewBox="0 0 136 22" fill="none" xmlns="http://www.w3.org/2000/svg">
<path d="M0.0151405 8.69206C0.508829 7.8281 1.19999 7.40847 1.24936 7.38378C1.32342 7.33441 1.42215 7.30973 1.49621 7.30973H6.01346C5.19887 6.76667 4.31023 5.90272 3.64375 4.54507C3.61907 4.4957 3.59438 4.44634 3.59438 4.39697C0.212616 4.96471 -0.0835972 7.3591 0.0151405 8.69206Z" fill="white"/>
<path d="M14.3902 2.37279C14.1434 2.24937 12.9215 2.2 12.65 2.2H6.6C5.29534 2.2 4.97123 3.18948 4.54462 3.8195C4.50407 3.87937 4.5221 3.95862 4.56784 4.01463C4.58848 4.0399 4.60427 4.06788 4.61521 4.1007C6.17033 7.16157 8.78688 7.30968 8.81157 7.30968C9.0831 7.33436 9.28057 7.55652 9.28057 7.80337C9.28057 8.07489 9.05841 8.29705 8.78688 8.29705H1.75182C1.55434 8.44516 1.15939 8.79074 0.887863 9.35849L1.40624 9.18569H4.24495C11.5022 13.4561 11.6256 19.8 11.6256 19.8C15.032 17.529 14.8839 13.7523 14.8839 13.7523L19.2807 16.7606C19.4237 16.8585 19.6212 16.7824 19.6616 16.6138C20.3351 13.8038 19.9188 11.9617 19.3739 10.8475C19.2461 10.5861 19.7153 9.92236 19.9905 10.017L20.9344 10.3414C21.137 10.4111 21.3268 10.2115 21.2433 10.0141C19.0779 4.89751 16.0033 2.73821 14.3902 2.37279ZM8.1204 5.6805C7.77482 5.58177 7.57734 5.23619 7.70077 4.91529L7.82419 4.52034C7.82419 4.52034 8.16977 3.3108 9.62615 3.53296C10.9344 3.75512 10.2186 6.22356 8.1204 5.6805Z" fill="white"/>
<path d="M33.8627 7.128C33.9842 7.128 34.0827 7.0295 34.0827 6.908V5.984C34.0827 5.8625 33.9842 5.764 33.8627 5.764H31.1787C31.0572 5.764 30.9587 5.6655 30.9587 5.544V3.3C30.9587 3.1785 30.8602 3.08 30.7387 3.08H29.6827C29.5612 3.08 29.4627 3.1785 29.4627 3.3V5.544C29.4627 5.6655 29.3642 5.764 29.2427 5.764H28.1647C28.0432 5.764 27.9447 5.8625 27.9447 5.984V6.908C27.9447 7.0295 28.0432 7.128 28.1647 7.128H29.2427C29.3642 7.128 29.4627 7.2265 29.4627 7.348V13.222C29.4627 15.444 30.4967 16.698 32.5867 16.698C33.1558 16.698 33.6899 16.5405 34.1421 16.3191C34.2365 16.2729 34.28 16.1637 34.2484 16.0634L33.9977 15.2672C33.9601 15.1477 33.8306 15.0842 33.7116 15.1234C33.3123 15.2548 32.9447 15.334 32.6087 15.334C31.6187 15.334 30.9587 14.982 30.9587 13.046V7.348C30.9587 7.2265 31.0572 7.128 31.1787 7.128H33.8627Z" fill="white"/>
<path d="M36.8308 0.22C36.8308 0.098497 36.7323 0 36.6108 0H35.5548C35.4333 0 35.3348 0.0984973 35.3348 0.22V16.28C35.3348 16.4015 35.4333 16.5 35.5548 16.5H36.6108C36.7323 16.5 36.8308 16.4015 36.8308 16.28V9.42543C36.8308 9.39032 36.8391 9.35573 36.8555 9.32468C37.565 7.98165 38.8514 6.864 40.4388 6.864C42.8368 6.864 43.2108 8.91 43.2108 10.934V16.28C43.2108 16.4015 43.3093 16.5 43.4308 16.5H44.4868C44.6083 16.5 44.7068 16.4015 44.7068 16.28V10.692C44.7068 7.458 43.7168 5.5 40.6588 5.5C39.2797 5.5 38.1311 6.00721 37.2901 7.00879C37.1466 7.17968 36.8308 7.08486 36.8308 6.86173V0.22Z" fill="white"/>
<path d="M56.0068 11.506C56.1189 11.506 56.2133 11.4218 56.224 11.3102C56.2455 11.0869 56.2697 10.7772 56.2697 10.516C56.2697 7.854 54.2677 5.5 51.4957 5.5C48.5697 5.5 46.2377 7.898 46.2377 11.066C46.2377 14.212 48.1517 16.764 51.6717 16.764C53.2391 16.764 55.0308 15.9891 55.9277 14.4982C55.9867 14.4001 55.9538 14.2742 55.8576 14.2121L55.1731 13.7701C55.0648 13.7001 54.9201 13.7387 54.8535 13.8491C54.0807 15.1304 52.9205 15.488 51.5617 15.488C49.3178 15.488 47.9702 13.7159 47.7539 11.7397C47.7401 11.6134 47.8412 11.506 47.9682 11.506H56.0068ZM54.7774 9.9997C54.7912 10.1247 54.6904 10.23 54.5647 10.23H48.0342C47.8993 10.23 47.7959 10.1094 47.8227 9.97729C48.2013 8.10696 49.5158 6.776 51.4957 6.776C53.2437 6.776 54.5885 8.288 54.7774 9.9997Z" fill="white"/>
<path d="M67.1345 16.5C67.256 16.5 67.3545 16.4015 67.3545 16.28V14.652C67.3545 14.5305 67.256 14.432 67.1345 14.432H60.5345C60.413 14.432 60.3145 14.3335 60.3145 14.212V9.812C60.3145 9.6905 60.413 9.592 60.5345 9.592H67.1345C67.256 9.592 67.3545 9.4935 67.3545 9.372V7.744C67.3545 7.6225 67.256 7.524 67.1345 7.524H60.5345C60.413 7.524 60.3145 7.4255 60.3145 7.304V3.388C60.3145 3.2665 60.413 3.168 60.5345 3.168H67.1345C67.256 3.168 67.3545 3.0695 67.3545 2.948V1.32C67.3545 1.1985 67.256 1.1 67.1345 1.1H58.1805C58.059 1.1 57.9605 1.1985 57.9605 1.32V16.28C57.9605 16.4015 58.059 16.5 58.1805 16.5H67.1345Z" fill="white"/>
<path d="M79.2802 22C79.4017 22 79.5002 21.9015 79.5002 21.78V5.588C79.5002 5.4665 79.4017 5.368 79.2802 5.368H77.5566C77.4381 5.368 77.3409 5.46186 77.3367 5.58028L77.3191 6.08167C77.3122 6.27887 77.0618 6.37455 76.9113 6.24687C76.0469 5.51319 74.8808 5.104 73.7802 5.104C70.4802 5.104 68.2802 7.92 68.2802 10.912C68.2802 14.168 70.5902 16.764 73.7362 16.764C74.796 16.764 75.9621 16.3694 76.7806 15.5927C76.9363 15.445 77.2342 15.5485 77.2342 15.7632V21.78C77.2342 21.9015 77.3327 22 77.4542 22H79.2802ZM77.2342 12.6924C77.2342 12.7225 77.228 12.7525 77.2157 12.7799C76.6323 14.072 75.242 14.718 74.1102 14.718C71.9322 14.718 70.5902 12.936 70.5902 10.956C70.5902 9.13 71.7342 7.15 74.1542 7.15C75.2343 7.15 76.4416 7.68028 77.1931 8.69917C77.2201 8.73584 77.2342 8.78047 77.2342 8.82602V12.6924Z" fill="white"/>
<path d="M91.3556 16.5C91.4771 16.5 91.5756 16.4015 91.5756 16.28V5.588C91.5756 5.4665 91.4771 5.368 91.3556 5.368H89.5296C89.4081 5.368 89.3096 5.4665 89.3096 5.588V12.6751C89.3096 12.7162 89.2982 12.7566 89.276 12.7912C88.5473 13.9287 87.3774 14.718 86.2076 14.718C85.3056 14.718 84.7116 14.388 84.3816 13.86C83.8976 13.09 83.8536 11.968 83.8536 10.956V5.588C83.8536 5.4665 83.7551 5.368 83.6336 5.368H81.8076C81.6861 5.368 81.5876 5.4665 81.5876 5.588V11.154C81.5876 12.826 81.8076 14.3 82.5776 15.356C83.2376 16.236 84.2716 16.764 85.7456 16.764C86.9555 16.764 88.1025 16.2442 88.9332 15.298C89.0752 15.1363 89.3717 15.2236 89.3798 15.4387L89.4117 16.2882C89.4161 16.4065 89.5132 16.5 89.6315 16.5H91.3556Z" fill="white"/>
<path d="M95.8298 16.5C95.9514 16.5 96.0498 16.4015 96.0498 16.28V5.588C96.0498 5.4665 95.9514 5.368 95.8298 5.368H94.0038C93.8823 5.368 93.7838 5.4665 93.7838 5.588V16.28C93.7838 16.4015 93.8823 16.5 94.0038 16.5H95.8298ZM95.8298 3.344C95.9514 3.344 96.0498 3.2455 96.0498 3.124V1.21C96.0498 1.0885 95.9514 0.99 95.8298 0.99H94.0038C93.8823 0.99 93.7838 1.0885 93.7838 1.21V3.124C93.7838 3.2455 93.8823 3.344 94.0038 3.344H95.8298Z" fill="white"/>
<path d="M100.509 0.22C100.509 0.0984972 100.411 0 100.289 0H98.4631C98.3416 0 98.2431 0.0984973 98.2431 0.22V16.28C98.2431 16.4015 98.3416 16.5 98.4631 16.5H100.289C100.411 16.5 100.509 16.4015 100.509 16.28V0.22Z" fill="white"/>
<path d="M104.748 16.5C104.87 16.5 104.968 16.4015 104.968 16.28V5.588C104.968 5.4665 104.87 5.368 104.748 5.368H102.922C102.801 5.368 102.702 5.4665 102.702 5.588V16.28C102.702 16.4015 102.801 16.5 102.922 16.5H104.748ZM104.748 3.344C104.87 3.344 104.968 3.2455 104.968 3.124V1.21C104.968 1.0885 104.87 0.99 104.748 0.99H102.922C102.801 0.99 102.702 1.0885 102.702 1.21V3.124C102.702 3.2455 102.801 3.344 102.922 3.344H104.748Z" fill="white"/>
<path d="M107.382 0C107.26 0 107.162 0.0984973 107.162 0.22V16.28C107.162 16.4015 107.26 16.5 107.382 16.5H109.105C109.224 16.5 109.321 16.4061 109.325 16.2877L109.343 15.7863C109.35 15.5891 109.6 15.4935 109.751 15.6211C110.615 16.3548 111.781 16.764 112.882 16.764C116.182 16.764 118.382 13.948 118.382 10.956C118.382 7.7 116.072 5.104 112.926 5.104C111.866 5.104 110.7 5.49862 109.881 6.27526C109.726 6.42301 109.428 6.31949 109.428 6.10484V0.22C109.428 0.098497 109.329 0 109.208 0H107.382ZM109.428 9.17562C109.428 9.14553 109.434 9.11555 109.446 9.08812C110.03 7.79604 111.42 7.15 112.552 7.15C114.73 7.15 116.072 8.932 116.072 10.912C116.072 12.738 114.928 14.718 112.508 14.718C111.428 14.718 110.22 14.1877 109.469 13.1688C109.442 13.1322 109.428 13.0875 109.428 13.042V9.17562Z" fill="white"/>
<path d="M121.863 5.57965C121.859 5.46148 121.762 5.368 121.643 5.368H119.919C119.798 5.368 119.699 5.4665 119.699 5.588V16.28C119.699 16.4015 119.798 16.5 119.919 16.5H121.745C121.867 16.5 121.965 16.4015 121.965 16.28V9.07842C121.965 9.04014 121.975 9.00229 121.994 8.96925C122.608 7.92201 123.434 7.304 124.495 7.304C124.798 7.304 125.044 7.33876 125.282 7.42509C125.42 7.47533 125.58 7.40078 125.61 7.25639L125.972 5.46147C125.995 5.34724 125.925 5.23419 125.811 5.20933C125.47 5.13481 125.142 5.104 124.737 5.104C123.801 5.104 122.978 5.64324 122.348 6.4596C122.213 6.63513 121.9 6.55284 121.892 6.33133L121.863 5.57965Z" fill="white"/>
<path d="M134.864 16.5C134.986 16.5 135.084 16.4015 135.084 16.28V9.746C135.084 6.864 133.83 5.104 130.64 5.104C129.154 5.104 127.528 5.54218 126.332 6.07743C126.229 6.12338 126.181 6.24062 126.218 6.34686L126.705 7.7409C126.75 7.86922 126.899 7.92653 127.02 7.86488C127.923 7.40545 129.115 6.996 130.288 6.996C132.07 6.996 132.818 7.942 132.818 9.57V9.63293C132.818 9.77133 132.692 9.87523 132.556 9.85084C131.778 9.71156 131.156 9.658 130.64 9.658C128.22 9.658 125.712 10.538 125.712 13.332C125.712 15.708 127.604 16.764 129.672 16.764C130.842 16.764 131.769 16.4727 132.551 15.7651C132.697 15.6326 132.949 15.7208 132.96 15.9178L132.982 16.2929C132.989 16.4092 133.085 16.5 133.202 16.5H134.864ZM132.818 13.6256C132.818 13.6905 132.79 13.7522 132.74 13.7935C131.926 14.4645 131.047 14.96 130.002 14.96C128.902 14.96 127.934 14.476 127.934 13.222C127.934 11.638 129.628 11.286 130.926 11.286C131.433 11.286 131.959 11.3234 132.641 11.4498C132.744 11.4689 132.818 11.5595 132.818 11.6644V13.6256Z" fill="white"/>
</svg>
