<svg width="40" height="40" viewBox="0 0 40 40" fill="none" xmlns="http://www.w3.org/2000/svg">
<rect width="40" height="40" rx="4" fill="#F5F4FB"/>
<ellipse cx="20" cy="20.5" rx="6" ry="4.5" fill="#7D6DE9" fill-opacity="0.39"/>
<path d="M20.0392 16.3719C20.1978 16.3719 20.35 16.3089 20.4621 16.1967C20.5743 16.0846 20.6373 15.9324 20.6373 15.7738C20.6373 15.6152 20.5743 15.4631 20.4621 15.3509C20.35 15.2388 20.1978 15.1758 20.0392 15.1758C19.093 15.1758 18.168 15.4564 17.3812 15.9821C16.5944 16.5078 15.9812 17.255 15.6191 18.1292C15.257 19.0035 15.1622 19.9654 15.3468 20.8935C15.5314 21.8216 15.9871 22.6741 16.6562 23.3432C17.3253 24.0123 18.1778 24.4679 19.1059 24.6526C20.0339 24.8372 20.9959 24.7424 21.8701 24.3803C22.7444 24.0182 23.4916 23.405 24.0173 22.6182C24.543 21.8314 24.8236 20.9064 24.8236 19.9601C24.8236 19.8015 24.7606 19.6494 24.6484 19.5373C24.5363 19.4251 24.3842 19.3621 24.2255 19.3621C24.0669 19.3621 23.9148 19.4251 23.8027 19.5373C23.6905 19.6494 23.6275 19.8015 23.6275 19.9601C23.6275 20.6698 23.4171 21.3636 23.0228 21.9537C22.6285 22.5438 22.0681 23.0037 21.4124 23.2753C20.7567 23.5468 20.0353 23.6179 19.3392 23.4794C18.6431 23.341 18.0038 22.9992 17.502 22.4974C17.0001 21.9956 16.6584 21.3562 16.5199 20.6602C16.3815 19.9641 16.4525 19.2426 16.7241 18.587C16.9957 17.9313 17.4556 17.3709 18.0457 16.9766C18.6358 16.5823 19.3295 16.3719 20.0392 16.3719Z" fill="#7D6DE9"/>
<path d="M31.4498 16.408C31.4008 16.2585 31.2949 16.1343 31.155 16.0623C31.0151 15.9903 30.8525 15.9762 30.7023 16.0232C30.5522 16.0702 30.4265 16.1744 30.3527 16.3133C30.2788 16.4523 30.2626 16.6147 30.3075 16.7655C31.0314 19.0723 30.9607 21.5553 30.1067 23.8172C29.2527 26.0791 27.6647 27.9892 25.5969 29.242C23.529 30.4948 21.1007 31.0179 18.7005 30.7276C16.3002 30.4373 14.0667 29.3504 12.3571 27.6407C10.6476 25.931 9.56083 23.6974 9.2707 21.2971C8.98058 18.8968 9.50385 16.4686 10.7568 14.4008C12.0098 12.3331 13.92 10.7453 16.182 9.89147C18.444 9.03764 20.927 8.9671 23.2338 9.69114C23.3092 9.71642 23.3889 9.72641 23.4682 9.72051C23.5475 9.71461 23.6249 9.69295 23.6957 9.65679C23.7665 9.62063 23.8295 9.5707 23.8808 9.50993C23.9321 9.44916 23.9708 9.37876 23.9945 9.30286C24.0183 9.22695 24.0267 9.14707 24.0192 9.06788C24.0117 8.9887 23.9885 8.9118 23.951 8.84169C23.9134 8.77158 23.8623 8.70966 23.8005 8.65957C23.7387 8.60948 23.6675 8.57221 23.5912 8.54996C21.0293 7.74645 18.2719 7.82533 15.7602 8.77396C13.2484 9.7226 11.1274 11.4862 9.73627 13.7826C8.34517 16.0791 7.76441 18.7757 8.08688 21.4412C8.40935 24.1067 9.61643 26.5871 11.515 28.4856C13.4136 30.384 15.8941 31.5909 18.5596 31.9132C21.2251 32.2355 23.9217 31.6546 26.2181 30.2633C28.5144 28.8721 30.2779 26.7509 31.2263 24.239C32.1748 21.7272 32.2535 18.9699 31.4498 16.408Z" fill="#7D6DE9"/>
<path d="M21.1775 12.2685C21.1789 12.1044 21.1179 11.9459 21.0069 11.8252C20.8958 11.7044 20.7431 11.6303 20.5794 11.6179C20.4007 11.6021 20.222 11.5875 20.0386 11.5875C18.3827 11.5875 16.7639 12.0786 15.3871 12.9986C14.0102 13.9186 12.9371 15.2262 12.3033 16.7561C11.6696 18.286 11.5038 19.9694 11.8269 21.5936C12.15 23.2177 12.9474 24.7095 14.1183 25.8805C15.2892 27.0514 16.7811 27.8488 18.4052 28.1719C20.0293 28.4949 21.7128 28.3291 23.2427 27.6954C24.7726 27.0617 26.0802 25.9886 27.0002 24.6117C27.9202 23.2348 28.4112 21.6161 28.4112 19.9601C28.4112 19.7438 28.398 19.5277 28.3715 19.313C28.3641 19.2299 28.3394 19.1491 28.2992 19.076C28.2589 19.0029 28.2038 18.9389 28.1375 18.8882C28.0712 18.8375 27.995 18.8011 27.9139 18.7813C27.8328 18.7616 27.7484 18.7589 27.6662 18.7735C27.584 18.7881 27.5057 18.8196 27.4363 18.866C27.3669 18.9125 27.308 18.9728 27.2631 19.0433C27.2183 19.1137 27.1886 19.1927 27.1759 19.2753C27.1632 19.3578 27.1679 19.442 27.1895 19.5227C27.2023 19.6675 27.2152 19.8118 27.2152 19.9601C27.2152 21.3795 26.7943 22.767 26.0057 23.9472C25.2171 25.1274 24.0963 26.0472 22.785 26.5904C21.4736 27.1336 20.0307 27.2757 18.6386 26.9988C17.2465 26.7219 15.9677 26.0384 14.9641 25.0347C13.9604 24.0311 13.2769 22.7523 13 21.3602C12.7231 19.9681 12.8652 18.5251 13.4084 17.2138C13.9516 15.9025 14.8714 14.7816 16.0516 13.9931C17.2317 13.2045 18.6193 12.7836 20.0386 12.7836C20.187 12.7836 20.3307 12.797 20.4755 12.8093L20.5876 12.8192C20.6627 12.8225 20.7376 12.8108 20.8081 12.7847C20.8786 12.7587 20.9432 12.7189 20.9981 12.6676C21.053 12.6163 21.0972 12.5546 21.128 12.4861C21.1588 12.4176 21.1756 12.3436 21.1775 12.2685Z" fill="#7D6DE9"/>
<path d="M23.6272 13.3816V15.5261L19.6161 19.5372C19.5594 19.5925 19.5143 19.6584 19.4833 19.7313C19.4523 19.8041 19.4361 19.8824 19.4356 19.9616C19.4351 20.0408 19.4503 20.1193 19.4803 20.1925C19.5104 20.2657 19.5547 20.3323 19.6107 20.3883C19.6667 20.4443 19.7332 20.4886 19.8065 20.5186C19.8797 20.5487 19.9582 20.5639 20.0374 20.5634C20.1166 20.5629 20.1948 20.5467 20.2677 20.5157C20.3405 20.4847 20.4065 20.4396 20.4618 20.3829L24.4729 16.3718H26.6174C26.696 16.3718 26.7737 16.3563 26.8463 16.3263C26.9188 16.2962 26.9848 16.2521 27.0403 16.1966L30.6285 12.6083C30.7122 12.5247 30.7691 12.4181 30.7922 12.3021C30.8153 12.1861 30.8034 12.0659 30.7582 11.9566C30.7129 11.8473 30.6363 11.7539 30.5379 11.6882C30.4396 11.6225 30.324 11.5874 30.2057 11.5874H28.4116V9.79329C28.4116 9.67502 28.3765 9.5594 28.3108 9.46107C28.245 9.36273 28.1516 9.28609 28.0424 9.24083C27.9331 9.19557 27.8129 9.18373 27.6969 9.2068C27.5809 9.22987 27.4743 9.28682 27.3907 9.37044L23.8024 12.9587C23.7469 13.0142 23.7028 13.0801 23.6727 13.1527C23.6427 13.2252 23.6272 13.303 23.6272 13.3816ZM24.8233 13.6292L27.2155 11.237V12.1855C27.2154 12.264 27.2309 12.3418 27.2609 12.4144C27.2909 12.487 27.335 12.5529 27.3905 12.6085C27.4461 12.664 27.512 12.708 27.5846 12.7381C27.6572 12.7681 27.735 12.7836 27.8135 12.7835H28.762L26.3698 15.1757H24.8233V13.6292Z" fill="#7D6DE9"/>
</svg>
