<svg width="137" height="45" viewBox="0 0 137 45" fill="none" xmlns="http://www.w3.org/2000/svg">
<path opacity="0.95" d="M5.56592 0.00146724H131.435C132.875 -0.0320297 134.27 0.517581 135.313 1.52979C136.357 2.542 136.963 3.93421 137 5.40115V39.5988C136.963 41.0658 136.357 42.458 135.313 43.4702C134.27 44.4824 132.875 45.032 131.435 44.9985H5.56592C4.12527 45.0323 2.73029 44.4828 1.68689 43.4705C0.643488 42.4583 0.0368455 41.066 0 39.5988V5.40115C0.0368455 3.93404 0.643488 2.5417 1.68689 1.52946C2.73029 0.517222 4.12527 -0.0322779 5.56592 0.00146724Z" fill="black"/>
<path d="M12.5331 14.0767C12.5243 14.1273 12.5201 14.1786 12.5204 14.23V34.6786C12.5116 34.7762 12.5342 34.8739 12.5848 34.9573C12.6353 35.0406 12.7111 35.1049 12.8007 35.1405L23.8255 24.7606L12.534 14.0767H12.5331ZM12.9404 13.6397C13.1468 13.608 13.3576 13.6498 13.5373 13.758L22.708 18.778L27.4348 21.3646L24.26 24.3532L12.9395 13.637L12.9404 13.6397ZM26.8724 27.6475L24.5294 28.9297L22.708 29.9265L14.1695 34.601L24.2482 25.1634L26.8733 27.6484L26.8724 27.6475ZM27.423 27.3463L27.4611 27.3251C27.4611 27.3251 31.495 25.1172 32.0311 24.8243C32.5671 24.5315 32.5154 24.1287 32.0628 23.9005C31.7099 23.7204 29.1102 22.2912 27.9809 21.6695L24.6827 24.7578L27.423 27.3463Z" fill="white"/>
<path d="M93.1604 28.4484L92.2987 29.2567C92.0991 29.3658 91.9014 29.4914 91.7036 29.5819C91.1505 29.8187 90.5546 29.9339 89.9547 29.92C89.1016 29.9587 88.2593 29.7132 87.5555 29.2207C86.975 28.7866 86.5051 28.2172 86.1852 27.5601C85.8653 26.9031 85.7047 26.1775 85.7168 25.4442C85.7139 24.8941 85.8192 24.349 86.0266 23.841C86.2339 23.3331 86.5391 22.8726 86.924 22.4867C87.309 22.1009 87.7659 21.7975 88.2679 21.5944C88.7699 21.3914 89.3068 21.2928 89.8468 21.3046C90.4988 21.2962 91.1406 21.4697 91.7027 21.8062C92.3284 22.2135 92.7795 22.8468 92.9654 23.579L88.7284 25.2807L87.3405 25.3878C87.7941 27.665 89.3361 28.9907 91.0523 28.9907C91.7778 28.9745 92.4889 28.7812 93.1259 28.4272C93.1259 28.4272 93.2429 28.3662 93.1595 28.4493L93.1604 28.4484ZM90.5716 23.8802C90.9117 23.7554 91.0886 23.6474 91.0886 23.3961C91.029 22.9633 90.817 22.5673 90.4922 22.2818C90.1673 21.9963 89.7516 21.8407 89.3225 21.8441C89.0223 21.8612 88.7288 21.9412 88.4603 22.079C88.1918 22.2168 87.954 22.4094 87.7618 22.6449C87.5697 22.8804 87.4272 23.1537 87.3433 23.4478C87.2594 23.7419 87.2359 24.0504 87.2743 24.3541C87.2743 24.658 87.3097 24.9823 87.3278 25.3056L90.5716 23.8802ZM84.3181 28.3514C84.3181 29.0452 84.4423 29.1533 85.0329 29.2078C85.3404 29.2438 85.6469 29.2595 85.9508 29.3002L85.2859 29.6937H82.1202C82.5356 29.1579 82.6064 29.1043 82.6064 28.7477V28.3486L82.5991 17.7248H81.2013L82.5474 17.0781H85.1163C84.886 17.1643 84.6867 17.3195 84.5449 17.5234C84.403 17.7272 84.3252 17.9701 84.3217 18.22V28.3542L84.3181 28.3514ZM79.4062 22.1822C79.816 22.4572 80.1485 22.8362 80.3708 23.2819C80.5931 23.7276 80.6977 24.2245 80.6742 24.7238C80.6506 25.2231 80.4999 25.7076 80.2366 26.1295C79.9734 26.5515 79.6069 26.8963 79.173 27.1301C79.0345 27.2325 78.9183 27.363 78.8318 27.5134C78.7453 27.6639 78.6904 27.8309 78.6705 28.004C78.6819 28.161 78.7302 28.3129 78.8114 28.4468C78.8925 28.5807 79.0041 28.6928 79.1367 28.7736L79.7844 29.2715C80.2185 29.5301 80.5832 29.894 80.8459 30.3308C81.1086 30.7676 81.2612 31.2637 81.2902 31.7751C81.2902 33.4555 79.6574 35.1507 76.5733 35.1507C73.9745 35.1507 72.7182 33.9174 72.7182 32.5954C72.737 32.1398 72.8751 31.6976 73.1182 31.3146C73.3612 30.9316 73.7004 30.6217 74.1006 30.417C75.1668 29.8837 76.3379 29.6033 77.5258 29.5967C77.2045 29.2726 77.0122 28.8389 76.986 28.3791C76.9933 28.1358 77.0553 27.8975 77.1675 27.6826C76.9715 27.701 76.7738 27.7204 76.5942 27.7204C76.2159 27.7432 75.8371 27.6878 75.4804 27.5577C75.1237 27.4276 74.7965 27.2254 74.5184 26.9632C74.2404 26.7011 74.0172 26.3844 73.8623 26.0323C73.7074 25.6801 73.624 25.2997 73.6171 24.9139C73.6272 24.4539 73.7352 24.0015 73.9336 23.5881C74.132 23.1747 74.4161 22.8101 74.7664 22.5194C75.6927 21.823 76.8277 21.4756 77.9775 21.5364H81.6739L80.5246 22.1831H79.4107L79.4062 22.1822ZM78.1444 30.0937C78.0063 30.0768 77.8671 30.0703 77.728 30.0743C77.0856 30.0853 76.4475 30.1832 75.8304 30.3653C75.4073 30.4655 75.0272 30.702 74.7466 31.0396C74.466 31.3773 74.2999 31.7982 74.2729 32.2397C74.2729 33.5331 75.522 34.4569 77.4541 34.4569C79.1903 34.4569 80.1119 33.6199 80.1119 32.4929C80.1119 31.569 79.5159 31.0757 78.1435 30.0909L78.1444 30.0937ZM78.6515 26.6525C78.8079 26.4771 78.9283 26.2716 79.0054 26.048C79.0825 25.8244 79.1148 25.5874 79.1005 25.3509C79.1005 24.0695 78.3349 22.075 76.85 22.075C76.6126 22.0778 76.3785 22.1318 76.1632 22.2336C75.9479 22.3354 75.7562 22.4825 75.6009 22.6653C75.3231 23.0437 75.1842 23.5091 75.2081 23.9809C75.2081 25.1735 75.9057 27.1523 77.4396 27.1523C77.8898 27.1421 78.3208 26.9638 78.6515 26.6525ZM68.2271 29.92C67.6631 29.945 67.0999 29.854 66.5712 29.6524C66.0424 29.4509 65.559 29.1429 65.1497 28.7469C64.7403 28.3509 64.4135 27.875 64.1887 27.3475C63.964 26.8201 63.8458 26.2519 63.8414 25.677C63.8576 25.0761 63.9918 24.4847 64.2361 23.9376C64.4803 23.3904 64.8297 22.8986 65.2636 22.4912C65.6974 22.0838 66.207 21.7689 66.7623 21.5653C67.3175 21.3616 67.9072 21.2733 68.4965 21.3055C69.0546 21.2884 69.6103 21.3856 70.1308 21.5912C70.6513 21.7968 71.1259 22.1067 71.5267 22.5026C71.9274 22.8984 72.2461 23.3721 72.4639 23.8956C72.6816 24.4191 72.794 24.9818 72.7944 25.5504C72.7865 26.1461 72.6609 26.734 72.4251 27.2792C72.1892 27.8243 71.8479 28.3155 71.4215 28.7233C70.9952 29.1311 70.4925 29.4473 69.9435 29.6529C69.3945 29.8585 68.8114 29.9494 68.2271 29.92ZM70.4613 28.4641C70.8562 27.8773 71.0477 27.1732 71.0056 26.4631C71.0056 24.8742 70.2491 21.8441 68.0122 21.8441C67.4166 21.8478 66.8412 22.0646 66.3867 22.4566C66.0936 22.7359 65.8667 23.0794 65.7229 23.461C65.5792 23.8427 65.5223 24.2526 65.5567 24.6598C65.5567 26.4428 66.4375 29.3824 68.6236 29.3824C68.9789 29.383 69.3296 29.3005 69.6487 29.1413C69.9678 28.9821 70.2467 28.7504 70.464 28.4641H70.4613ZM58.651 29.92C58.0869 29.9453 57.5236 29.8544 56.9947 29.653C56.4658 29.4515 55.9823 29.1435 55.5729 28.7475C55.1635 28.3514 54.8368 27.8754 54.6121 27.3478C54.3874 26.8203 54.2694 26.252 54.2652 25.677C54.2815 25.076 54.4159 24.4845 54.6603 23.9373C54.9047 23.3901 55.2542 22.8982 55.6883 22.4908C56.1223 22.0834 56.6321 21.7686 57.1875 21.565C57.7429 21.3614 58.3328 21.2732 58.9222 21.3055C59.4803 21.2879 60.0361 21.3847 60.5567 21.5902C61.0773 21.7956 61.5521 22.1055 61.9528 22.5015C62.3535 22.8974 62.672 23.3714 62.8894 23.8951C63.1068 24.4189 63.2186 24.9818 63.2182 25.5504C63.2104 26.146 63.0848 26.7339 62.849 27.2789C62.6132 27.824 62.272 28.3151 61.8457 28.723C61.4194 29.1308 60.9168 29.447 60.368 29.6526C59.8191 29.8583 59.2351 29.9492 58.651 29.92ZM60.8861 28.4641C61.2797 27.8768 61.4711 27.1731 61.4303 26.4631C61.4303 24.8742 60.6711 21.8441 58.4369 21.8441C57.8418 21.8477 57.267 22.0645 56.8132 22.4566C56.5198 22.7357 56.2925 23.079 56.1486 23.4607C56.0047 23.8424 55.9478 24.2525 55.9823 24.6598C55.9823 26.4428 56.8676 29.3824 59.051 29.3824C59.4061 29.3826 59.7566 29.3 60.0755 29.1408C60.3944 28.9816 60.6732 28.7501 60.8906 28.4641H60.8861ZM53.0796 29.3879L50.6595 29.9422C49.737 30.1121 48.8029 30.2088 47.8656 30.2314C43.1977 30.2314 41.4189 26.8133 41.4189 24.1407C41.4189 20.875 43.9388 17.8477 48.2548 17.8477C49.1299 17.8497 50.001 17.9674 50.8464 18.1978C51.6484 18.4009 52.4057 18.7559 53.0787 19.2445L51.6718 20.5664L51.0795 20.6985L51.5022 20.0288C51.0399 19.523 50.479 19.1211 49.8555 18.8488C49.232 18.5765 48.5595 18.4397 47.8811 18.4472C47.2466 18.436 46.6167 18.5582 46.0307 18.8063C45.4447 19.0544 44.9154 19.423 44.4757 19.889C44.036 20.3549 43.6955 20.9083 43.4754 21.5145C43.2554 22.1207 43.1605 22.7666 43.1968 23.4118C43.1801 24.2192 43.3231 25.0218 43.6175 25.7716C43.9119 26.5215 44.3516 27.2033 44.9103 27.7764C45.469 28.3494 46.1354 28.802 46.8696 29.1072C47.6037 29.4123 48.3908 29.5637 49.1837 29.5524C49.9208 29.5713 50.6534 29.4286 51.3316 29.1339V26.4234L48.7764 26.5601L50.1307 25.8368H53.7173L53.2783 26.2562C53.2332 26.2861 53.1948 26.3255 53.1659 26.3717C53.1369 26.4179 53.118 26.4698 53.1104 26.5241C53.0923 26.6775 53.076 27.1643 53.076 27.3361V29.3879H53.0796ZM98.3825 28.5306V33.073H97.4755V21.5143H98.3825V22.8307C98.7203 22.3597 99.1622 21.9762 99.6725 21.7112C100.183 21.4463 100.747 21.3073 101.32 21.3055C103.579 21.3055 105.1 23.0025 105.1 25.689C105.1 28.3579 103.579 30.09 101.32 30.09C100.744 30.0851 100.177 29.9412 99.6669 29.6702C99.1563 29.3991 98.7162 29.0086 98.3825 28.5306ZM104.166 25.7592C104.166 23.7129 103.097 22.1563 101.199 22.1563C100.633 22.2023 100.086 22.3825 99.6009 22.6825C99.1157 22.9825 98.7063 23.3939 98.4052 23.8838V27.6234C98.704 28.1185 99.1122 28.5358 99.5972 28.8419C100.082 29.1481 100.631 29.3347 101.199 29.387C103.097 29.3815 104.166 27.8082 104.166 25.7592ZM106.343 18.3068H107.277V29.921H106.343V18.3068ZM117.434 32.2748C117.671 32.3641 117.92 32.4113 118.173 32.4143C118.73 32.4143 119.118 32.1889 119.466 31.3917L120.131 29.9006L116.542 21.4616H117.558L120.636 28.7745L123.685 21.4616H124.715L120.339 31.6697C120.189 32.1283 119.9 32.5264 119.513 32.8065C119.127 33.0865 118.662 33.2339 118.188 33.2273C117.882 33.2253 117.577 33.1847 117.281 33.1063L117.437 32.2748H117.434ZM114.863 29.9099C114.803 29.618 114.756 29.3611 114.722 29.1459C114.693 28.9285 114.679 28.7093 114.678 28.49C114.333 28.9728 113.878 29.3626 113.351 29.6253C112.783 29.935 112.145 30.0897 111.501 30.0743C110.752 30.1227 110.011 29.8882 109.421 29.4156C109.174 29.1916 108.98 28.9144 108.852 28.6043C108.723 28.2941 108.665 27.9587 108.68 27.6225C108.683 27.247 108.784 26.879 108.973 26.5564C109.162 26.2339 109.432 25.9686 109.755 25.7878C110.597 25.2838 111.565 25.0393 112.541 25.0839H114.678V24.0381C114.691 23.7687 114.641 23.5 114.533 23.2537C114.425 23.0073 114.262 22.79 114.057 22.6191C113.549 22.2451 112.929 22.0623 112.303 22.1018C111.709 22.0749 111.122 22.2388 110.625 22.5702C110.431 22.6976 110.272 22.8721 110.161 23.0779C110.05 23.2837 109.991 23.5143 109.99 23.749H109.052L109.033 23.7037C109.026 23.3706 109.104 23.0413 109.259 22.7479C109.414 22.4544 109.64 22.2067 109.917 22.0288C110.629 21.5196 111.487 21.2655 112.355 21.3064C113.216 21.2639 114.067 21.5149 114.772 22.0196C115.076 22.2581 115.318 22.5685 115.477 22.9237C115.636 23.279 115.708 23.6685 115.686 24.0584V28.2091C115.684 28.4988 115.701 28.7884 115.738 29.0757C115.777 29.3573 115.837 29.6353 115.919 29.9071H114.863V29.9099ZM111.611 29.3057C112.281 29.3233 112.942 29.1444 113.516 28.7902C114.039 28.499 114.448 28.0318 114.671 27.4682V25.8442H112.526C111.81 25.8146 111.102 26.0045 110.494 26.3892C110.26 26.5187 110.062 26.7079 109.921 26.9383C109.78 27.1687 109.7 27.4325 109.689 27.7038C109.681 27.9243 109.723 28.1436 109.812 28.3447C109.901 28.5459 110.034 28.7236 110.201 28.8641C110.602 29.1789 111.101 29.3357 111.607 29.3057H111.611ZM41.4217 10.4839C41.4894 9.88809 41.7267 9.32541 42.1044 8.86517C42.4821 8.40493 42.9837 8.06723 43.5475 7.89365C44.1113 7.72006 44.7126 7.71818 45.2774 7.88821C45.8422 8.05825 46.3458 8.39279 46.7263 8.85064L45.91 9.28483C45.7289 9.0632 45.5017 8.88526 45.245 8.76384C44.9882 8.64243 44.7081 8.58057 44.425 8.58273C44.1714 8.56878 43.9176 8.60762 43.6792 8.69686C43.4408 8.7861 43.2228 8.92388 43.0384 9.10179C42.854 9.27971 42.7072 9.49402 42.6068 9.73166C42.5065 9.96929 42.4547 10.2253 42.4547 10.4839C42.4547 10.7426 42.5065 10.9986 42.6068 11.2362C42.7072 11.4739 42.854 11.6882 43.0384 11.8661C43.2228 12.044 43.4408 12.1818 43.6792 12.271C43.9176 12.3603 44.1714 12.3991 44.425 12.3852C44.9181 12.389 45.3978 12.2222 45.7857 11.9122V11.0992H44.0695V10.2862H46.7817V12.2521C46.4731 12.5651 46.1058 12.8116 45.7017 12.977C45.2976 13.1423 44.865 13.2232 44.4296 13.2147C44.0535 13.2487 43.6746 13.2038 43.3162 13.0829C42.9578 12.962 42.6276 12.7677 42.3457 12.5118C42.0639 12.256 41.8365 11.9441 41.6776 11.5953C41.5187 11.2465 41.4316 10.8683 41.4217 10.4839ZM48.0761 13.1334V7.84184H52.0528V8.65941H49.0948V10.0239H51.992V10.8415H49.0948V12.3196H52.0528V13.1371L48.0761 13.1334ZM54.7568 13.1334V8.65941H53.0261V7.84184H57.4899V8.65941H55.7592V13.1334H54.7568ZM61.0611 7.84092H62.0353V13.1334H61.0611V7.84092ZM64.821 13.1334V8.65941H63.0903V7.84184H67.5541V8.65941H65.8224V13.1334H64.821ZM70.8813 10.4876C70.8206 9.87808 70.9427 9.2641 71.2315 8.7266C71.5202 8.1891 71.9621 7.75331 72.4988 7.47664C73.0356 7.19997 73.6421 7.09541 74.2383 7.17673C74.8346 7.25805 75.3927 7.52144 75.8391 7.9322C76.2855 8.34295 76.5992 8.8818 76.7389 9.47773C76.8786 10.0737 76.8378 10.6987 76.6217 11.2706C76.4057 11.8424 76.0247 12.3341 75.5288 12.681C75.0329 13.0279 74.4455 13.2137 73.8439 13.2138C73.4706 13.2467 73.0946 13.201 72.7394 13.0794C72.3843 12.9579 72.0574 12.7632 71.7793 12.5075C71.5012 12.2518 71.2779 11.9404 71.123 11.5929C70.9682 11.2454 70.8853 10.8692 70.8795 10.4876H70.8813ZM75.7506 10.447C75.7614 10.0611 75.659 9.68074 75.4563 9.3545C75.2537 9.02826 74.9601 8.771 74.6132 8.61563C74.2662 8.46026 73.8816 8.41385 73.5085 8.48233C73.1355 8.55081 72.791 8.73106 72.5191 9.00003C72.2473 9.26901 72.0604 9.61448 71.9824 9.99223C71.9043 10.37 71.9387 10.7629 72.0812 11.1206C72.2236 11.4783 72.4676 11.7847 72.7819 12.0004C73.0963 12.2161 73.4666 12.3314 73.8457 12.3316C74.095 12.3469 74.3446 12.309 74.5788 12.2205C74.8129 12.132 75.0263 11.9947 75.2054 11.8174C75.3845 11.6402 75.5253 11.4268 75.6188 11.191C75.7124 10.9552 75.7566 10.7021 75.7487 10.4479L75.7506 10.447ZM81.9242 13.1334L78.9435 9.34581V13.1334H77.9458V7.84184H78.9735L81.8934 11.5075V7.84184H82.8912V13.1344L81.9242 13.1334Z" fill="white"/>
</svg>
