<svg width="60" height="60" viewBox="0 0 60 60" fill="none" xmlns="http://www.w3.org/2000/svg">
<path d="M7.58572 50.252C1.99496 43.7088 -0.947548 34.8704 0.27359 25.8325C1.48002 16.8089 6.8648 7.59988 15.2804 3.16646C23.6959 -1.28122 35.1423 -0.939087 44.2788 3.5371C53.4299 7.99903 60.2713 16.5808 59.9917 24.2217C59.7269 31.8625 55.2381 40.3142 49 47C42.7619 53.6715 34.7745 58.5771 28.095 59.7888C21.4302 61.0148 13.1765 56.7809 7.58572 50.252Z" fill="#EAF7ED"/>
<path d="M26.0616 25.1098C26.3412 24.8019 26.6801 24.5562 27.057 24.3881C27.4338 24.2201 27.8406 24.1332 28.2519 24.133H31.7518C32.1631 24.1332 32.5699 24.2201 32.9467 24.3881C33.3236 24.5562 33.6625 24.8019 33.9421 25.1098C34.0838 24.7891 34.2576 24.4842 34.4607 24.2C33.8385 23.6111 33.0485 23.2402 32.2056 23.1411C32.6013 22.7037 32.8635 22.158 32.9602 21.5708C33.0569 20.9836 32.9839 20.3803 32.7501 19.8349C32.5162 19.2894 32.1318 18.8253 31.6437 18.4994C31.1556 18.1736 30.585 18 30.0018 18C29.4187 18 28.8481 18.1736 28.36 18.4994C27.8719 18.8253 27.4875 19.2894 27.2536 19.8349C27.0198 20.3803 26.9468 20.9836 27.0435 21.5708C27.1402 22.158 27.4024 22.7037 27.7981 23.1411C26.9552 23.2402 26.1652 23.6111 25.543 24.2C25.7461 24.4842 25.9199 24.7891 26.0616 25.1098ZM30.0018 19.0281C30.3974 19.0281 30.7841 19.1479 31.1129 19.3722C31.4418 19.5966 31.6982 19.9155 31.8495 20.2886C32.0009 20.6618 32.0405 21.0723 31.9633 21.4684C31.8862 21.8645 31.6957 22.2284 31.416 22.5139C31.1363 22.7995 30.78 22.994 30.392 23.0728C30.0041 23.1516 29.6019 23.1111 29.2365 22.9566C28.8711 22.802 28.5587 22.5403 28.339 22.2045C28.1192 21.8687 28.0019 21.4739 28.0019 21.0701C28.0025 20.5287 28.2134 20.0097 28.5884 19.6269C28.9633 19.2441 29.4716 19.0287 30.0018 19.0281Z" fill="#168A59"/>
<path d="M42.4562 23.1403C42.8517 22.7028 43.1138 22.1571 43.2103 21.5699C43.3068 20.9828 43.2336 20.3796 42.9997 19.8342C42.7658 19.2888 42.3813 18.8249 41.8932 18.4991C41.4051 18.1734 40.8345 17.9999 40.2514 18C39.6683 18.0001 39.0978 18.1737 38.6098 18.4996C38.1218 18.8254 37.7373 19.2895 37.5035 19.8349C37.2698 20.3804 37.1967 20.9836 37.2934 21.5707C37.3901 22.1578 37.6522 22.7035 38.0479 23.1409C37.1324 23.249 36.2815 23.6763 35.6387 24.3506C34.9959 25.0249 34.6006 25.9049 34.5195 26.8422C34.8927 26.3183 35.3819 25.892 35.9473 25.5981C36.2148 25.1512 36.5901 24.7817 37.0373 24.5252C37.4846 24.2687 37.9888 24.1336 38.5018 24.133H42.0017C42.7971 24.1339 43.5596 24.4569 44.122 25.0311C44.6844 25.6053 45.0007 26.3839 45.0016 27.1959L45.0022 31.7903H43.5017V30.2589C43.5017 30.1235 43.449 29.9936 43.3552 29.8979C43.2615 29.8022 43.1343 29.7484 43.0017 29.7484C42.8691 29.7484 42.7419 29.8022 42.6481 29.8979C42.5544 29.9936 42.5017 30.1235 42.5017 30.2589V31.2879C42.7626 31.4893 43.0038 31.7162 43.2217 31.9654C43.2517 31.9994 43.2816 32.0335 43.3107 32.0684C43.3732 32.1436 43.4345 32.2198 43.4928 32.2986C43.6148 32.4624 43.7269 32.6336 43.8284 32.8113H45.0016C45.2667 32.811 45.5209 32.7034 45.7084 32.512C45.8959 32.3206 46.0013 32.061 46.0016 31.7903V27.1959C46.0002 26.1938 45.6383 25.2271 44.9847 24.4794C44.3311 23.7317 43.4313 23.2552 42.4562 23.1403ZM40.2518 19.0281C40.6473 19.0281 41.034 19.1479 41.3629 19.3722C41.6918 19.5966 41.9481 19.9155 42.0995 20.2886C42.2509 20.6618 42.2905 21.0723 42.2133 21.4684C42.1361 21.8645 41.9456 22.2284 41.6659 22.5139C41.3863 22.7995 41.0299 22.994 40.642 23.0728C40.254 23.1516 39.8519 23.1111 39.4864 22.9566C39.121 22.802 38.8087 22.5403 38.5889 22.2045C38.3691 21.8687 38.2519 21.4739 38.2519 21.0701C38.2525 20.5287 38.4634 20.0097 38.8383 19.6269C39.2132 19.2441 39.7216 19.0287 40.2518 19.0281Z" fill="#168A59"/>
<path d="M16.6909 32.0685C16.72 32.0337 16.7499 31.9995 16.7799 31.9655C16.9978 31.7163 17.2389 31.4894 17.4999 31.288V30.259C17.4999 30.1236 17.4472 29.9938 17.3534 29.898C17.2597 29.8023 17.1325 29.7485 16.9999 29.7485C16.8673 29.7485 16.7401 29.8023 16.6464 29.898C16.5526 29.9938 16.4999 30.1236 16.4999 30.259V31.7905H15V27.196C15.0009 26.384 15.3172 25.6054 15.8796 25.0312C16.442 24.457 17.2045 24.134 17.9999 24.1331H21.4997C22.0127 24.1338 22.517 24.2688 22.9643 24.5253C23.4115 24.7818 23.7868 25.1513 24.0542 25.5982C24.6196 25.8921 25.1089 26.3185 25.4821 26.8424C25.401 25.9051 25.0057 25.025 24.3629 24.3507C23.7201 23.6764 22.8692 23.2492 21.9537 23.141C22.3493 22.7036 22.6115 22.158 22.7082 21.5708C22.8049 20.9837 22.7318 20.3805 22.498 19.835C22.2642 19.2896 21.8798 18.8256 21.3918 18.4997C20.9038 18.1738 20.3333 18.0002 19.7502 18.0001C19.167 18 18.5965 18.1735 18.1084 18.4993C17.6203 18.825 17.2358 19.289 17.0019 19.8343C16.7679 20.3797 16.6948 20.9829 16.7913 21.5701C16.8878 22.1572 17.1499 22.703 17.5454 23.1405C16.5703 23.2553 15.6705 23.7319 15.0169 24.4795C14.3633 25.2272 14.0014 26.1939 14 27.196V31.7905C14.0003 32.0611 14.1057 32.3207 14.2932 32.5121C14.4807 32.7035 14.7348 32.8111 15 32.8114H16.1732C16.2747 32.6337 16.3867 32.4625 16.5088 32.2988C16.567 32.22 16.6284 32.1437 16.6909 32.0685ZM19.7498 19.0282C20.1453 19.0282 20.532 19.148 20.8609 19.3724C21.1898 19.5967 21.4461 19.9156 21.5975 20.2888C21.7489 20.6619 21.7885 21.0724 21.7113 21.4685C21.6341 21.8646 21.4437 22.2285 21.164 22.5141C20.8843 22.7996 20.5279 22.9941 20.14 23.0729C19.752 23.1517 19.3499 23.1113 18.9845 22.9567C18.619 22.8021 18.3067 22.5404 18.0869 22.2046C17.8672 21.8688 17.7499 21.474 17.7499 21.0702C17.7505 20.5288 17.9614 20.0098 18.3363 19.627C18.7112 19.2442 19.2196 19.0288 19.7498 19.0282Z" fill="#168A59"/>
<path d="M39.9571 31.3081C40.3526 30.8706 40.6146 30.3249 40.7112 29.7377C40.8077 29.1506 40.7345 28.5474 40.5006 28.002C40.2667 27.4567 39.8822 26.9927 39.3942 26.6669C38.9061 26.3412 38.3356 26.1677 37.7525 26.1677C37.1694 26.1677 36.5989 26.3413 36.1109 26.6671C35.6229 26.9929 35.2384 27.4569 35.0046 28.0023C34.7707 28.5477 34.6976 29.1509 34.7942 29.738C34.8908 30.3252 35.1529 30.8708 35.5484 31.3083C35.0038 31.3723 34.478 31.5505 34.0039 31.8316C34.3521 32.0114 34.6786 32.2321 34.9768 32.4891C35.3053 32.3652 35.6526 32.3015 36.0027 32.3007H39.5026C40.2979 32.3016 41.0605 32.6246 41.6229 33.1988C42.1853 33.773 42.5016 34.5516 42.5025 35.3636L42.5031 39.958H41.0025V38.4266C41.0025 38.2912 40.9499 38.1613 40.8561 38.0656C40.7623 37.9699 40.6352 37.9161 40.5026 37.9161C40.37 37.9161 40.2428 37.9699 40.149 38.0656C40.0553 38.1613 40.0026 38.2912 40.0026 38.4266V39.958H36.7527V40.979H42.5025C42.7676 40.9787 43.0218 40.8711 43.2093 40.6797C43.3967 40.4883 43.5022 40.2287 43.5025 39.958V35.3636C43.501 34.3615 43.1391 33.3948 42.4855 32.6471C41.8319 31.8994 40.9322 31.4229 39.9571 31.3081ZM37.7527 27.1958C38.1482 27.1958 38.5349 27.3156 38.8638 27.5399C39.1926 27.7643 39.449 28.0832 39.6004 28.4563C39.7517 28.8295 39.7913 29.24 39.7142 29.6361C39.637 30.0322 39.4465 30.3961 39.1668 30.6816C38.8871 30.9672 38.5308 31.1617 38.1428 31.2405C37.7549 31.3193 37.3528 31.2788 36.9873 31.1243C36.6219 30.9697 36.3095 30.708 36.0898 30.3722C35.87 30.0364 35.7527 29.6416 35.7527 29.2378C35.7533 28.6964 35.9642 28.1774 36.3392 27.7946C36.7141 27.4118 37.2224 27.1964 37.7527 27.1958Z" fill="#168A59"/>
<path d="M20.496 32.3007H23.9958C24.346 32.3015 24.6933 32.3652 25.0217 32.4891C25.3199 32.2321 25.6464 32.0115 25.9946 31.8316C25.5206 31.5505 24.9948 31.3723 24.4501 31.3083C24.8457 30.8708 25.1077 30.3252 25.2043 29.738C25.3009 29.1509 25.2278 28.5477 24.994 28.0023C24.7602 27.4569 24.3757 26.9929 23.8877 26.6671C23.3996 26.3413 22.8292 26.1677 22.2461 26.1677C21.6629 26.1677 21.0925 26.3412 20.6044 26.6669C20.1163 26.9927 19.7318 27.4567 19.4979 28.002C19.264 28.5474 19.1909 29.1505 19.2874 29.7377C19.3839 30.3249 19.646 30.8706 20.0415 31.3081C19.0664 31.4229 18.1666 31.8994 17.513 32.6471C16.8594 33.3948 16.4975 34.3615 16.4961 35.3636V39.958C16.4964 40.2287 16.6018 40.4883 16.7893 40.6797C16.9768 40.8711 17.2309 40.9787 17.4961 40.979H23.2459V39.958H19.996V38.4266C19.996 38.2912 19.9433 38.1613 19.8495 38.0656C19.7558 37.9699 19.6286 37.9161 19.496 37.9161C19.3634 37.9161 19.2362 37.9699 19.1424 38.0656C19.0487 38.1613 18.996 38.2912 18.996 38.4266V39.958H17.4961V35.3636C17.4969 34.5516 17.8133 33.773 18.3757 33.1988C18.9381 32.6246 19.7006 32.3016 20.496 32.3007ZM22.2459 27.1958C22.6414 27.1958 23.0281 27.3156 23.357 27.5399C23.6859 27.7643 23.9422 28.0832 24.0936 28.4563C24.245 28.8295 24.2846 29.24 24.2074 29.6361C24.1302 30.0322 23.9398 30.3961 23.6601 30.6816C23.3804 30.9672 23.024 31.1617 22.6361 31.2405C22.2481 31.3193 21.846 31.2788 21.4806 31.1243C21.1151 30.9697 20.8028 30.708 20.583 30.3722C20.3633 30.0364 20.246 29.6416 20.246 29.2378C20.2466 28.6964 20.4575 28.1774 20.8324 27.7946C21.2073 27.4118 21.7157 27.1964 22.2459 27.1958Z" fill="#168A59"/>
<path d="M32.2072 32.329C32.6026 31.8916 32.8647 31.3459 32.9612 30.7587C33.0578 30.1716 32.9846 29.5685 32.7507 29.0231C32.5169 28.4777 32.1324 28.0138 31.6443 27.688C31.1563 27.3622 30.5858 27.1887 30.0027 27.1887C29.4196 27.1887 28.8492 27.3622 28.3611 27.688C27.8731 28.0138 27.4886 28.4777 27.2547 29.0231C27.0208 29.5685 26.9477 30.1716 27.0442 30.7587C27.1408 31.3459 27.4028 31.8916 27.7983 32.329C26.8232 32.4439 25.9234 32.9204 25.2698 33.6681C24.6162 34.4158 24.2544 35.3825 24.2529 36.3846V40.979C24.2532 41.2497 24.3587 41.5093 24.5461 41.7007C24.7336 41.8921 24.9878 41.9997 25.2529 42H34.7526C35.0177 41.9997 35.2719 41.8921 35.4593 41.7007C35.6468 41.5093 35.7522 41.2497 35.7525 40.979V36.3846C35.7511 35.3825 35.3892 34.4157 34.7356 33.6681C34.082 32.9204 33.1822 32.4439 32.2072 32.329ZM30.0027 28.2168C30.3983 28.2168 30.7849 28.3366 31.1138 28.5609C31.4427 28.7853 31.6991 29.1042 31.8504 29.4773C32.0018 29.8505 32.0414 30.261 31.9642 30.6571C31.8871 31.0532 31.6966 31.4171 31.4169 31.7026C31.1372 31.9882 30.7808 32.1827 30.3929 32.2615C30.0049 32.3403 29.6028 32.2998 29.2374 32.1453C28.872 31.9907 28.5596 31.729 28.3398 31.3932C28.1201 31.0574 28.0028 30.6626 28.0028 30.2588C28.0034 29.7174 28.2143 29.1984 28.5892 28.8156C28.9642 28.4328 29.4725 28.2174 30.0027 28.2168ZM34.7532 40.979H33.2526V39.4476C33.2526 39.3122 33.1999 39.1823 33.1062 39.0866C33.0124 38.9909 32.8852 38.9371 32.7526 38.9371C32.62 38.9371 32.4929 38.9909 32.3991 39.0866C32.3053 39.1823 32.2527 39.3122 32.2527 39.4476V40.979H27.7528V39.4476C27.7528 39.3122 27.7001 39.1823 27.6064 39.0866C27.5126 38.9909 27.3854 38.9371 27.2528 38.9371C27.1202 38.9371 26.993 38.9909 26.8993 39.0866C26.8055 39.1823 26.7528 39.3122 26.7528 39.4476V40.979H25.2529V36.3846C25.2538 35.5726 25.5701 34.794 26.1325 34.2198C26.6949 33.6456 27.4574 33.3226 28.2528 33.3217H31.7527C32.548 33.3226 33.3105 33.6456 33.8729 34.2198C34.4353 34.794 34.7517 35.5726 34.7526 36.3846L34.7532 40.979Z" fill="#168A59"/>
</svg>
