<svg width="60" height="61" viewBox="0 0 60 61" fill="none" xmlns="http://www.w3.org/2000/svg">
<path d="M7.58572 50.323C1.99496 43.7798 -0.947548 34.9415 0.27359 25.9036C1.48002 16.8799 6.8648 7.67093 15.2804 3.23751C23.6959 -1.21017 35.1423 -0.868042 44.2788 3.60815C53.4299 8.07008 60.2713 16.6518 59.9917 24.2927C59.7269 31.9336 55.2381 40.3853 49 47.071C42.7619 53.7426 34.7745 58.6482 28.095 59.8599C21.4302 61.0858 13.1765 56.852 7.58572 50.323Z" fill="#EAF7ED"/>
<path d="M26.2135 33.515H40.9446C41.1969 33.515 41.4 33.3097 41.4 33.0546V28.0924C41.4 27.8373 41.1969 27.6319 40.9446 27.6319H33.1744V27.0782H33.239C33.7529 27.0782 34.1714 26.655 34.1714 26.1355V25.0062C34.1714 24.4866 33.7529 24.0635 33.239 24.0635H32.9682L31.688 23.1613V20.3395C31.6911 20.3364 31.6942 20.3364 31.6972 20.3333C33.0728 20.3768 34.4237 20.467 35.7131 20.607C35.7285 20.6102 35.747 20.6102 35.7624 20.6102C36.7902 20.6102 37.6272 19.7639 37.6272 18.6968C37.6272 17.6608 36.7933 16.8146 35.7224 16.8146H35.7193C34.4884 16.9359 33.2359 17.0106 31.9834 17.0479C31.5403 16.4599 30.8448 16.071 30.054 16.071C29.2692 16.071 28.5738 16.4568 28.1306 17.0448C26.8936 17.0075 25.6165 16.9328 24.2963 16.8115C23.2685 16.8115 22.4345 17.6577 22.4345 18.7248C22.4345 19.7608 23.2685 20.607 24.3394 20.607C24.3394 20.607 24.3425 20.607 24.3456 20.607C25.718 20.4639 27.0844 20.3737 28.4138 20.3333C28.4291 20.3457 28.4415 20.3582 28.4568 20.3706V23.1613L27.1674 24.0635H26.8751C26.3612 24.0635 25.9427 24.4866 25.9427 25.0062V26.1355C25.9427 26.6519 26.355 27.0688 26.8597 27.0782V27.635H25.8565C23.7978 27.635 22.1545 28.2884 20.9759 29.5733C18.7387 32.0155 19.0033 35.839 19.0157 36.0008C19.0341 36.2404 19.2311 36.4239 19.468 36.4239H23.8193C23.9455 36.4239 24.0655 36.371 24.1517 36.2777C24.2378 36.1844 24.2809 36.0599 24.2717 35.9324C24.2717 35.9199 24.2102 34.7315 24.8472 34.0377C25.1703 33.6862 25.6165 33.515 26.2135 33.515ZM32.4112 17.9564C33.5467 17.9159 34.6792 17.8413 35.7624 17.7324C36.2886 17.7324 36.7163 18.1648 36.7163 18.7248C36.7163 19.2475 36.3009 19.6768 35.7839 19.6893C34.6607 19.5679 33.4913 19.4902 32.3035 19.4404C32.4173 19.151 32.482 18.843 32.482 18.5257C32.485 18.3297 32.4543 18.1399 32.4112 17.9564ZM24.2963 19.6893C23.7701 19.6893 23.3424 19.2568 23.3424 18.6968C23.3424 18.1648 23.7701 17.7324 24.2532 17.7293C25.4165 17.8382 26.5704 17.9035 27.7029 17.9439C27.6567 18.1306 27.626 18.3235 27.626 18.5257C27.626 18.843 27.6906 19.1542 27.8045 19.4404C26.6382 19.4902 25.4565 19.5648 24.2963 19.6893ZM39.2428 28.5528H40.4891V32.5973H39.2428V28.5528ZM30.054 16.9888C30.891 16.9888 31.5742 17.6764 31.5742 18.5257C31.5742 18.899 31.4449 19.2475 31.211 19.5213C31.208 19.5244 31.2049 19.5275 31.2018 19.5306C31.131 19.6115 31.0541 19.6893 30.9648 19.7546C30.9556 19.7608 30.9525 19.7733 30.9433 19.7795C30.9187 19.8013 30.9002 19.823 30.8818 19.8479C30.8633 19.8697 30.8479 19.8915 30.8356 19.9195C30.8233 19.9444 30.8141 19.9724 30.8079 20.0004C30.7987 20.0315 30.7925 20.0595 30.7894 20.0906C30.7894 20.103 30.7833 20.1124 30.7833 20.1248V23.3977C30.7833 23.547 30.8571 23.6902 30.9772 23.7742L31.3803 24.0604H28.7646L29.1708 23.7773C29.2939 23.6902 29.3677 23.5502 29.3677 23.4008V20.1497C29.3677 20.1373 29.3616 20.1248 29.3616 20.1124C29.3585 20.0813 29.3523 20.0502 29.3431 20.019C29.3339 19.991 29.3277 19.9662 29.3123 19.9382C29.3 19.9133 29.2816 19.8915 29.2662 19.8666C29.2477 19.8417 29.2262 19.8199 29.2015 19.7982C29.1923 19.7888 29.1862 19.7795 29.1769 19.7702C29.0815 19.7017 28.9923 19.6208 28.9154 19.5306L28.9123 19.5275C28.6753 19.2537 28.5399 18.8959 28.5399 18.5226C28.5368 17.6795 29.2169 16.9888 30.054 16.9888ZM26.8474 26.1355L26.872 24.9813L33.2636 25.0062V26.1355L33.239 26.1604L26.8474 26.1355ZM32.2665 27.0782V27.6319H27.7644V27.0782H32.2665ZM24.1825 33.4093C23.5762 34.0657 23.4131 34.9555 23.3731 35.503H19.9081C19.9081 34.4919 20.0773 31.9035 21.6406 30.1955C22.6407 29.1035 24.0563 28.5528 25.8534 28.5528H38.335V32.5973H26.2135C25.3641 32.5973 24.681 32.871 24.1825 33.4093Z" fill="#168A59"/>
<path d="M21.8188 36.8035C21.6619 36.8315 21.5326 36.9435 21.4742 37.0928C21.4711 37.1022 21.1234 38.0262 20.631 38.8226C20.4894 39.0528 20.3356 39.2582 20.1879 39.4542C19.8217 39.9457 19.4432 40.4528 19.3724 41.2275C19.3139 41.8591 19.3631 42.7488 19.9324 43.3804C20.3448 43.8377 20.948 44.0711 21.7204 44.0711C23.2683 44.0711 24.1914 42.9791 24.1914 41.1497C24.1914 40.1977 23.6775 38.5986 22.2404 36.9497C22.1358 36.8284 21.9758 36.7724 21.8188 36.8035ZM21.7204 43.1533C21.2126 43.1533 20.8372 43.0226 20.6064 42.7613C20.2402 42.3568 20.2433 41.6817 20.2771 41.3115C20.3233 40.7951 20.5725 40.4653 20.9141 40.008C21.0649 39.8057 21.2372 39.5724 21.4034 39.308C21.6527 38.9035 21.865 38.4773 22.025 38.132C23.0067 39.4573 23.2836 40.6208 23.2836 41.1466C23.2836 42.4782 22.7574 43.1533 21.7204 43.1533Z" fill="#168A59"/>
<path d="M21.966 40.7826C22.0583 41.0595 22.0706 41.4702 21.9291 41.6569C21.9014 41.6942 21.8152 41.8093 21.4736 41.7906C21.2274 41.772 21.0059 41.9649 20.9905 42.2169C20.972 42.4689 21.1628 42.6898 21.4121 42.7053C21.4613 42.7084 21.5106 42.7115 21.5598 42.7115C22.1476 42.7115 22.4768 42.4471 22.6522 42.2169C23.0677 41.6693 22.96 40.8698 22.8307 40.484C22.7507 40.2444 22.4922 40.1169 22.2553 40.1978C22.0122 40.2818 21.886 40.5431 21.966 40.7826Z" fill="#168A59"/>
</svg>
