<svg width="20" height="20" viewBox="0 0 20 20" fill="none" xmlns="http://www.w3.org/2000/svg">
<path d="M0.548356 10.1283C-0.209045 10.538 -0.177624 11.1379 0.616437 11.4619L2.96916 12.4216C3.76387 12.7468 4.96642 12.5693 5.64003 12.0274L15.8568 3.72111C16.5284 3.17649 16.6004 3.2568 16.0171 3.90063L7.94038 12.813C7.35515 13.4548 7.52797 14.243 8.3253 14.5609L8.6009 14.6716C9.39823 14.9894 10.6977 15.5233 11.4898 15.8553L14.0991 16.9506C14.8918 17.2826 15.7389 16.8912 15.9641 16.0409L19.941 0.971011C20.1655 0.120673 19.7295 -0.240383 18.9721 0.168589L0.548356 10.1283Z" fill="#9FA3A3"/>
<path d="M7.00488 19.9944C6.9584 20.1381 8.61395 17.523 8.61395 17.523C9.082 16.786 8.81623 15.9067 8.02544 15.5733L6.21998 14.8114C5.42919 14.478 5.05017 14.8694 5.37748 15.684C5.37748 15.684 7.05267 19.8466 7.00488 19.9944Z" fill="#9FA3A3"/>
</svg>
