<svg xmlns="http://www.w3.org/2000/svg" width="60" height="60" fill="none" viewBox="0 0 60 60"><path fill="#EAF7ED" d="M7.58572 50.252C1.99496 43.7088 -0.947548 34.8704 0.27359 25.8325C1.48002 16.8089 6.8648 7.59988 15.2804 3.16646C23.6959 -1.28122 35.1423 -0.939087 44.2788 3.5371C53.4299 7.99903 60.2713 16.5808 59.9917 24.2217C59.7269 31.8625 55.2381 40.3142 49 47C42.7619 53.6715 34.7745 58.5771 28.095 59.7888C21.4302 61.0148 13.1765 56.7809 7.58572 50.252Z"/><path fill="#168A59" d="M31.6151 31.9141L29.0824 34.2002L28.34 33.5301C28.1653 33.3724 27.9033 33.3724 27.7287 33.5301C27.554 33.6878 27.554 33.9242 27.7287 34.0819L28.7767 35.0279C28.864 35.1067 28.995 35.1461 29.0824 35.1461C29.1697 35.1461 29.3007 35.1067 29.388 35.0279L32.2265 32.4659C32.4011 32.3082 32.4011 32.0717 32.2265 31.9141C32.0518 31.7564 31.7461 31.7564 31.6151 31.9141Z"/><path fill="#168A59" d="M22.3144 45H37.6856C37.9476 45 38.1223 44.8423 38.1223 44.6058V24.1886H39.5633C39.8253 24.1886 40 24.0309 40 23.7945V21.8631C40 21.6266 39.8253 21.4689 39.5633 21.4689H35.8515C35.8079 18.158 34.1485 17.015 33.7991 16.8179C33.9301 16.5026 33.7991 16.1084 33.4934 15.9113L32.1834 15.123C31.7904 14.8865 31.31 15.0048 31.048 15.3595L30.8297 15.596C30.5677 15.9508 30.6987 16.3843 31.0917 16.6208L32.4017 17.4091C32.6638 17.5668 32.9694 17.5668 33.2314 17.4486L33.2751 17.488C33.2751 17.488 34.8908 18.3551 34.9345 21.4689H20.4367C20.1747 21.4689 20 21.6266 20 21.8631V23.7945C20 24.0309 20.1747 24.1886 20.4367 24.1886H21.8777V44.6058C21.8777 44.8423 22.0524 45 22.3144 45ZM37.2052 44.2117H22.7511V24.1886H37.2489V44.2117H37.2052ZM20.8734 22.2572H39.083V23.4003H20.8734V22.2572Z"/><path fill="#168A59" d="M25.8078 39.2059H34.1047C34.3667 39.2059 34.5414 39.0483 34.5414 38.8118V28.1696C34.5414 27.9331 34.3667 27.7754 34.1047 27.7754H25.8078C25.5458 27.7754 25.3711 27.9331 25.3711 28.1696V38.8118C25.3711 39.0088 25.5894 39.2059 25.8078 39.2059ZM26.2445 28.5637H33.668V38.4176H26.2445V28.5637Z"/></svg>