<svg width="12" height="12" viewBox="0 0 12 12" fill="none" xmlns="http://www.w3.org/2000/svg">
<path d="M9.5595 8.02724C9.05608 8.02724 8.614 8.27184 8.3323 8.6608L3.88075 6.48631C3.93613 6.32942 3.97276 6.16897 3.97276 5.98956C3.97276 5.81328 3.93739 5.63709 3.88225 5.49228L8.3322 3.33907C8.61391 3.72811 9.05602 3.97276 9.5595 3.97276C10.4013 3.97276 11.0709 3.30319 11.0709 2.46138C11.0709 1.61957 10.4013 0.95 9.5595 0.95C8.71769 0.95 8.04812 1.61957 8.04812 2.46138C8.04812 2.59563 8.06521 2.74827 8.10038 2.87337L3.62308 5.02987C3.34444 4.70241 2.94394 4.47818 2.46138 4.47818C1.61957 4.47818 0.95 5.14775 0.95 5.98956C0.95 6.83137 1.61957 7.50094 2.46138 7.50094C2.94388 7.50094 3.34435 7.27676 3.62298 6.94937L8.10043 9.12647C8.06522 9.2516 8.04812 9.40431 8.04812 9.53862C8.04812 10.3804 8.71769 11.05 9.5595 11.05C10.4013 11.05 11.0709 10.3804 11.0709 9.53862C11.0709 8.69681 10.4013 8.02724 9.5595 8.02724ZM9.5595 1.44666C10.1164 1.44666 10.5533 1.88356 10.5533 2.4405C10.5533 2.99744 10.1164 3.43434 9.5595 3.43434C9.00256 3.43434 8.56566 2.99744 8.56566 2.4405C8.56566 1.88356 9.00256 1.44666 9.5595 1.44666ZM2.46138 6.9834C1.90444 6.9834 1.46754 6.5465 1.46754 5.98956C1.46754 5.43262 1.90444 4.99572 2.46138 4.99572C3.01831 4.99572 3.45522 5.43262 3.45522 5.98956C3.45522 6.5465 3.01831 6.9834 2.46138 6.9834ZM9.5595 10.5325C9.00256 10.5325 8.56566 10.0956 8.56566 9.53862C8.56566 8.98169 9.00256 8.54478 9.5595 8.54478C10.1164 8.54478 10.5533 8.98169 10.5533 9.53862C10.5533 10.0956 10.1164 10.5325 9.5595 10.5325Z" fill="black" stroke="black" stroke-width="0.1"/>
</svg>
