<svg width="90" height="90" viewBox="0 0 90 90" fill="none" xmlns="http://www.w3.org/2000/svg">
<path d="M12.0285 68.1342C5.70023 58.5617 3.25157 46.3851 6.34518 34.6251C9.41698 22.8816 18.0482 11.5761 29.9091 7.08541C41.7724 2.57589 56.8631 4.9001 68.2212 12.3171C79.6012 19.7177 87.251 32.1922 85.6318 42.2575C84.0321 52.3251 73.1634 59.9835 63.8155 67.8107C54.47 75.619 46.6454 83.596 37.6085 84.1073C28.5888 84.6399 18.3591 77.6879 12.0285 68.1342Z" fill="#F2FCFC"/>
<path d="M47.6662 47.3862C47.4833 47.3862 47.2924 47.4478 47.1691 47.5904L43.7153 50.7079L42.7617 49.8472C42.4685 49.5825 42.0276 49.5825 41.7344 49.8472C41.5878 49.9795 41.5088 50.1509 41.5088 50.3284C41.5088 50.5059 41.5878 50.6774 41.7344 50.8097L43.2016 52.134C43.3502 52.2681 43.5653 52.3325 43.7153 52.3325C43.8654 52.3325 44.0805 52.2681 44.229 52.134L48.2028 48.5472C48.3494 48.4149 48.4284 48.2435 48.4284 48.066C48.4284 47.8885 48.3494 47.717 48.2028 47.5847C48.0538 47.4502 47.8537 47.3862 47.6662 47.3862Z" fill="#00BBBB" stroke="#00BBBB" stroke-width="0.255882"/>
<path d="M49.9602 25.1684L49.9602 25.1683L49.9568 25.1663L48.1227 24.0626C47.5143 23.6965 46.7729 23.88 46.3686 24.4216L46.0676 24.7476L46.067 24.7471L46.0587 24.7584C45.8528 25.0371 45.7983 25.3531 45.8776 25.6472C45.9562 25.9391 46.1635 26.1989 46.4624 26.3788L48.2965 27.4824C48.677 27.7114 49.1153 27.7247 49.4985 27.5773L49.4994 27.5781L49.511 27.5885L49.5244 27.5958L49.5244 27.5958L49.5245 27.5958L49.5247 27.5959L49.525 27.5961L49.5285 27.598L49.5447 27.6075C49.5595 27.6164 49.5819 27.6304 49.611 27.65C49.6692 27.6891 49.7539 27.7507 49.8565 27.8382C50.0615 28.0134 50.3382 28.2929 50.6178 28.7067C51.1648 29.5164 51.7269 30.8468 51.7779 32.9286H31.6114C31.4026 32.9286 31.2172 32.9916 31.0824 33.1133C30.9464 33.236 30.8721 33.4095 30.8721 33.6083V36.3122C30.8721 36.511 30.9464 36.6845 31.0824 36.8073C31.2172 36.9289 31.4026 36.992 31.6114 36.992H33.5009V65.4482C33.5009 65.647 33.5752 65.8205 33.7112 65.9432C33.846 66.0649 34.0314 66.1279 34.2402 66.1279H55.7598C55.9686 66.1279 56.154 66.0649 56.2888 65.9432C56.4247 65.8205 56.4991 65.647 56.4991 65.4482V36.992H58.3886C58.5974 36.992 58.7828 36.9289 58.9176 36.8073C59.0536 36.6845 59.1279 36.511 59.1279 36.3122V33.6083C59.1279 33.4095 59.0536 33.236 58.9176 33.1133C58.7828 32.9916 58.5974 32.9286 58.3886 32.9286H53.3178C53.2211 28.5716 51.1297 26.8977 50.4742 26.4887C50.6157 26.0078 50.4032 25.454 49.9602 25.1684ZM55.0205 64.7684H34.9795V36.992H55.0205V64.7684ZM32.3506 34.2881H57.5882V35.6325H32.3506V34.2881Z" fill="#00BBBB" stroke="#00BBBB" stroke-width="0.255882"/>
<path d="M39.1309 58.0161H50.7466C50.9554 58.0161 51.1408 57.9531 51.2756 57.8314C51.4115 57.7087 51.4859 57.5352 51.4859 57.3364V42.4373C51.4859 42.2385 51.4115 42.065 51.2756 41.9423C51.1408 41.8206 50.9554 41.7576 50.7466 41.7576H39.1309C38.9221 41.7576 38.7367 41.8206 38.6019 41.9423C38.466 42.065 38.3916 42.2385 38.3916 42.4373V57.3364C38.3916 57.5208 38.492 57.6909 38.6249 57.8107C38.7585 57.9314 38.9408 58.0161 39.1309 58.0161ZM39.8702 43.1171H50.0073V56.6566H39.8702V43.1171Z" fill="#00BBBB" stroke="#00BBBB" stroke-width="0.255882"/>
</svg>
