<svg width="16" height="16" viewBox="0 0 16 16" fill="none" xmlns="http://www.w3.org/2000/svg">
<path d="M4.55724 2.20564L4.55724 2.20565L4.55779 2.2053C5.54324 1.58404 6.6785 1.24136 7.8565 1.24136C11.2408 1.24136 14.004 4.00454 14.004 7.38883C14.004 10.7731 11.2408 13.5363 7.8565 13.5363C7.47995 13.5363 7.10318 13.4954 6.74613 13.4336L7.03527 12.8553C7.03531 12.8552 7.03536 12.8551 7.03541 12.855C7.19244 12.5629 6.96802 12.2034 6.63085 12.2257C6.63075 12.2257 6.63064 12.2257 6.63054 12.2257L3.98842 12.3116L3.98842 12.3116L3.98785 12.3116C3.62909 12.3341 3.44948 12.7162 3.65113 13.0075L3.65113 13.0075L3.65134 13.0078L5.19832 15.1564L5.19854 15.1566C5.40024 15.4256 5.80465 15.3815 5.93988 15.089C5.93992 15.0889 5.93997 15.0888 5.94001 15.0888L6.2553 14.4582C6.789 14.5851 7.32294 14.6486 7.87799 14.6486C9.8168 14.6486 11.6264 13.8945 13.0051 12.5159C14.3837 11.1373 15.1377 9.32765 15.1377 7.38883L15.1377 7.38862C15.1162 5.4285 14.3622 3.61892 12.9836 2.24027C11.605 0.86164 9.79532 0.1076 7.8565 0.1076C6.45649 0.1076 5.1209 0.495277 3.9576 1.24917C3.68967 1.40576 3.62448 1.76157 3.77926 2.02692C3.93574 2.29516 4.29177 2.36049 4.55724 2.20564Z" fill="white" stroke="white" stroke-width="0.0379747"/>
<path d="M7.34033 7.5933C7.3426 7.59482 7.34504 7.59607 7.34762 7.59707C7.34802 7.59806 7.34848 7.59907 7.34899 7.60009C7.35146 7.60503 7.35546 7.61055 7.36182 7.61478C7.36409 7.6163 7.36653 7.61756 7.36911 7.61856C7.36951 7.61955 7.36996 7.62056 7.37047 7.62158C7.37294 7.62652 7.37694 7.63203 7.3833 7.63627C7.38755 7.6391 7.39235 7.64103 7.3976 7.64203L7.40983 7.65425C7.41048 7.6572 7.41157 7.66081 7.41344 7.66455C7.41591 7.66949 7.41992 7.675 7.42627 7.67924C7.43052 7.68207 7.43532 7.684 7.44057 7.685L7.45729 7.70171L7.47071 7.68829L7.45729 7.70171L7.47877 7.7232L7.50026 7.74468L7.51369 7.73126L7.50026 7.74469L7.52175 7.76617L7.52161 7.76631L7.52378 7.76793L10.3599 9.89504L10.3599 9.89512L10.3615 9.89613C10.4702 9.96136 10.5812 10.0063 10.6936 10.0063C10.8708 10.0063 11.0273 9.93949 11.1387 9.78359C11.3163 9.5394 11.2725 9.18368 11.0272 9.00517C11.0272 9.00513 11.0271 9.00509 11.0271 9.00506L8.4136 7.03425V2.40275C8.4136 2.09146 8.16875 1.84661 7.85746 1.84661C7.54617 1.84661 7.30133 2.09146 7.30133 2.40275V7.366V7.38748V7.40897V7.43046V7.45194V7.47343V7.49491V7.5164V7.53789H7.32031L7.30133 7.5379L7.30133 7.53792L7.30133 7.53796L7.30133 7.53805L7.30133 7.53825L7.30134 7.53876L7.30142 7.54016L7.30192 7.54436C7.30246 7.54762 7.30358 7.55226 7.30602 7.55712C7.30848 7.56206 7.31249 7.56757 7.31884 7.57181C7.32112 7.57333 7.32356 7.57459 7.32614 7.57558C7.32654 7.57657 7.32699 7.57758 7.3275 7.57861C7.32997 7.58354 7.33397 7.58906 7.34033 7.5933Z" fill="white" stroke="white" stroke-width="0.0379747"/>
<path d="M2.54908 4.30057C2.69682 4.04468 2.60915 3.71747 2.35327 3.56973C2.09738 3.42199 1.77017 3.50966 1.62243 3.76555C1.47469 4.02144 1.56236 4.34864 1.81825 4.49638C2.07414 4.64412 2.40134 4.55645 2.54908 4.30057Z" fill="white" stroke="white" stroke-width="0.0379747"/>
<path d="M1.17423 7.90188C1.46972 7.90188 1.70925 7.66234 1.70925 7.36686C1.70925 7.07138 1.46972 6.83184 1.17423 6.83184C0.878751 6.83184 0.639216 7.07138 0.639216 7.36686C0.639216 7.66234 0.878752 7.90188 1.17423 7.90188Z" fill="white" stroke="white" stroke-width="0.0379747"/>
<path d="M2.34155 11.162C2.59744 11.0142 2.68511 10.687 2.53736 10.4311C2.38962 10.1752 2.06242 10.0876 1.80653 10.2353C1.55064 10.383 1.46297 10.7103 1.61071 10.9661C1.75845 11.222 2.08566 11.3097 2.34155 11.162Z" fill="white" stroke="white" stroke-width="0.0379747"/>
</svg>
