<svg width="18" height="14" viewBox="0 0 18 14" fill="none" xmlns="http://www.w3.org/2000/svg">
<path fill-rule="evenodd" clip-rule="evenodd" d="M0.5 2H17.5C17.7761 2 18 1.77614 18 1.5V0.5C18 0.223858 17.7761 0 17.5 0H0.5C0.223858 0 0 0.223858 0 0.5V1.5C0 1.77614 0.223858 2 0.5 2ZM6 7.5V6.5C6 6.22386 6.22386 6 6.5 6H17.5C17.7761 6 18 6.22386 18 6.5V7.5C18 7.77614 17.7761 8 17.5 8H6.5C6.22386 8 6 7.77614 6 7.5ZM12 12.5V13.5C12 13.7761 12.2239 14 12.5 14H17.5C17.7761 14 18 13.7761 18 13.5V12.5C18 12.2239 17.7761 12 17.5 12H12.5C12.2239 12 12 12.2239 12 12.5Z" fill="white"/>
</svg>
