<svg width="24" height="24" viewBox="0 0 24 24" fill="none" xmlns="http://www.w3.org/2000/svg">
<circle cx="12" cy="12" r="11.5" stroke="#091F0E"/>
<path d="M16.6146 9.19599C16.2713 9.34657 15.9055 9.44637 15.5242 9.49484C15.9165 9.26061 16.2159 8.89253 16.3567 8.44887C15.9909 8.66695 15.5871 8.82099 15.1567 8.90695C14.8094 8.53714 14.3144 8.30811 13.7744 8.30811C12.7267 8.30811 11.8832 9.15849 11.8832 10.201C11.8832 10.351 11.8959 10.4952 11.9271 10.6325C10.3538 10.5558 8.96167 9.80176 8.02648 8.65311C7.86321 8.93637 7.76744 9.26061 7.76744 9.60964C7.76744 10.265 8.10494 10.846 8.60802 11.1823C8.30398 11.1766 8.00571 11.0883 7.75302 10.9493C7.75302 10.955 7.75302 10.9625 7.75302 10.97C7.75302 11.8896 8.40898 12.6535 9.26917 12.8295C9.11514 12.8716 8.94725 12.8918 8.77302 12.8918C8.65187 12.8918 8.52956 12.8848 8.41475 12.8595C8.65994 13.6089 9.35571 14.1598 10.183 14.1777C9.53917 14.6814 8.72167 14.9848 7.83667 14.9848C7.68148 14.9848 7.53264 14.9779 7.38379 14.9589C8.22206 15.4995 9.21552 15.8081 10.2869 15.8081C13.7692 15.8081 15.673 12.9235 15.673 10.4231C15.673 10.3395 15.6701 10.2587 15.6661 10.1785C16.0417 9.91195 16.3573 9.57907 16.6146 9.19599Z" fill="#091F0E"/>
</svg>
