<svg width="24" height="24" viewBox="0 0 24 24" fill="none" xmlns="http://www.w3.org/2000/svg">
<g clip-path="url(#clip0)">
<path d="M12.0018 23.9998C18.6292 23.9998 24.0017 18.6273 24.0017 11.9999C24.0017 5.37254 18.6292 0 12.0018 0C5.37449 0 0.00195312 5.37254 0.00195312 11.9999C0.00195312 18.6273 5.37449 23.9998 12.0018 23.9998Z" fill="#55ACEE"/>
<path d="M19.3518 8.62399C18.8375 8.85202 18.2844 9.00625 17.7043 9.07513C18.2966 8.72025 18.7511 8.15874 18.9657 7.48856C18.4114 7.81734 17.7973 8.05585 17.1442 8.18441C16.621 7.62718 15.8755 7.27893 15.0501 7.27893C13.4663 7.27893 12.1818 8.56346 12.1818 10.1472C12.1818 10.3721 12.2072 10.5909 12.2564 10.8009C9.8726 10.6814 7.75896 9.53953 6.34417 7.80365C6.09732 8.22719 5.95571 8.72025 5.95571 9.24583C5.95571 10.2407 6.46246 11.119 7.23168 11.6333C6.76172 11.6185 6.31914 11.4895 5.93261 11.2741C5.93239 11.2863 5.93239 11.2985 5.93239 11.3105C5.93239 12.7003 6.92151 13.8594 8.23342 14.1227C7.99298 14.1886 7.73907 14.2235 7.47789 14.2235C7.29264 14.2235 7.11317 14.2057 6.93819 14.1724C7.30312 15.3117 8.36219 16.141 9.61762 16.1643C8.63578 16.9337 7.39917 17.3921 6.05496 17.3921C5.82394 17.3921 5.59506 17.3787 5.37109 17.3519C6.63979 18.1661 8.14785 18.6407 9.76757 18.6407C15.0434 18.6407 17.9286 14.2701 17.9286 10.4794C17.9286 10.3552 17.9259 10.2313 17.9203 10.1085C18.4812 9.70424 18.9674 9.1992 19.3518 8.62399Z" fill="white"/>
</g>
<defs>
<clipPath id="clip0">
<rect width="24" height="24" fill="white"/>
</clipPath>
</defs>
</svg>
