<svg width="40" height="40" viewBox="0 0 40 40" fill="none" xmlns="http://www.w3.org/2000/svg">
<rect width="40" height="40" rx="4" fill="#FCF4E9"/>
<ellipse cx="20" cy="20.3" rx="6" ry="4.5" fill="#FCB749" fill-opacity="0.39"/>
<path d="M8.47156 31.9301C8.732 31.9301 8.94313 31.7189 8.94313 31.4585C8.94313 31.1981 8.732 30.9869 8.47156 30.9869C8.21113 30.9869 8 31.1981 8 31.4585C8 31.7189 8.21113 31.9301 8.47156 31.9301Z" fill="#FCB749"/>
<path d="M20.5155 19.9695C20.7755 19.9695 20.9862 19.7587 20.9862 19.4988C20.9862 19.2389 20.7755 19.0282 20.5155 19.0282C20.2556 19.0282 20.0449 19.2389 20.0449 19.4988C20.0449 19.7587 20.2556 19.9695 20.5155 19.9695Z" fill="#FCB749"/>
<path d="M26.6783 13.5327C26.2999 13.1544 25.7969 12.946 25.2619 12.946C24.7268 12.946 24.2238 13.1545 23.8455 13.5327C23.0645 14.3138 23.0645 15.5846 23.8455 16.3655C24.2361 16.7561 24.7489 16.9512 25.2619 16.9512C25.7747 16.9512 26.2878 16.756 26.6783 16.3655C27.4592 15.5845 27.4592 14.3137 26.6783 13.5327ZM26.0128 15.7C25.5987 16.114 24.925 16.114 24.511 15.7C24.097 15.286 24.097 14.6123 24.511 14.1982C24.7116 13.9976 24.9782 13.8872 25.2619 13.8872C25.5455 13.8872 25.8121 13.9976 26.0127 14.1982C26.4268 14.6123 26.4268 15.286 26.0128 15.7Z" fill="#FCB749"/>
<path d="M13.8787 27.2868C13.6461 27.1709 13.3636 27.2656 13.2477 27.4983L12.6872 28.624C12.4434 29.1134 11.9532 29.4407 11.4077 29.478L10.7557 29.5226C10.6455 29.53 10.5731 29.4751 10.5396 29.4416C10.506 29.4081 10.451 29.3354 10.4585 29.2253L10.5031 28.5734C10.5405 28.028 10.8678 27.5377 11.3571 27.2939L12.4828 26.7334C12.7155 26.6175 12.8102 26.335 12.6943 26.1024C12.5785 25.8697 12.296 25.775 12.0633 25.8909L10.9376 26.4514C10.1505 26.8434 9.62418 27.6318 9.56408 28.5091L9.51946 29.161C9.49536 29.5129 9.62455 29.8577 9.87393 30.1071C10.1035 30.3367 10.4141 30.4645 10.7366 30.4645C10.7643 30.4645 10.7922 30.4635 10.82 30.4616L11.4719 30.417C12.3493 30.3569 13.1377 29.8307 13.5297 29.0435L14.0902 27.9178C14.2061 27.6851 14.1114 27.4026 13.8787 27.2868Z" fill="#FCB749"/>
<path d="M31.6753 8.38343C31.4545 8.16588 31.1503 8.05212 30.8413 8.07222L30.4031 8.10016C26.4741 8.35099 22.7971 10.2475 20.3149 13.3035L19.2834 14.5733L16.5842 14.494C16.5796 14.4939 16.575 14.4938 16.5705 14.4938C14.4298 14.4938 12.4172 15.3275 10.9034 16.8411L8.13884 19.6058C8.00736 19.7373 7.96559 19.9339 8.03234 20.1075C8.09909 20.281 8.26175 20.3991 8.44747 20.4085L14.2995 20.7092L14.0609 21.003C13.9407 21.151 13.9217 21.357 14.0129 21.5245C14.1045 21.6931 14.2006 21.859 14.3009 22.0222L12.9131 23.6697C12.7944 23.8106 12.7689 24.0077 12.8476 24.1742C13.1507 24.8148 13.5531 25.3903 14.0436 25.8849C14.546 26.3915 15.1334 26.8058 15.7896 27.1163C15.8537 27.1467 15.9225 27.1615 15.9908 27.1615C16.0968 27.1615 16.2019 27.1257 16.2874 27.0564C16.5864 26.8139 16.9311 26.5262 17.2644 26.248C17.502 26.0498 17.7451 25.8469 17.9723 25.6599C18.108 25.7415 18.2453 25.8206 18.3846 25.8964C18.4551 25.9348 18.5324 25.9537 18.6094 25.9537C18.7119 25.9537 18.8137 25.9203 18.898 25.8549L19.2188 25.6059L19.5207 31.4827C19.5303 31.6684 19.6483 31.8311 19.8218 31.8978C19.8767 31.9189 19.9338 31.9292 19.9906 31.9292C20.1131 31.9292 20.2335 31.8813 20.3234 31.7913L23.0881 29.0267C24.6018 27.5129 25.4354 25.5004 25.4354 23.3596V20.7817L26.526 19.9354C29.7946 17.399 31.7852 13.5743 31.9875 9.44187L31.9987 9.21284C32.014 8.90327 31.8961 8.60102 31.6753 8.38343ZM9.55278 19.5229L11.569 17.5067C12.9033 16.1724 14.6769 15.4369 16.5637 15.435L18.5364 15.493L15.0344 19.8045L9.55278 19.5229ZM16.6614 25.5254C16.4158 25.7303 16.1639 25.9405 15.9302 26.1327C15.4781 25.8879 15.0692 25.5824 14.7118 25.222C14.3657 24.8731 14.0711 24.4757 13.8335 24.038L14.8496 22.8317C15.1568 23.2439 15.4931 23.6343 15.8564 24.0001C15.8566 24.0004 15.8569 24.0006 15.8572 24.0009C16.26 24.4063 16.694 24.779 17.1536 25.1154C16.9913 25.2501 16.825 25.3889 16.6614 25.5254ZM24.4943 23.3596C24.4943 25.2489 23.7586 27.0251 22.4226 28.3611L20.4064 30.3773L20.1251 24.9027L24.4943 21.5122L24.4943 23.3596ZM31.0476 9.39588C30.8587 13.2536 29.0004 16.824 25.9491 19.1918L18.5682 24.9195C17.9561 24.5618 17.3856 24.1395 16.8634 23.6611L19.3518 21.1726C19.5356 20.9889 19.5356 20.6909 19.3518 20.5071C19.168 20.3233 18.87 20.3233 18.6863 20.5071L16.2002 22.9931C15.7431 22.4871 15.3383 21.9365 14.9936 21.3476L21.0455 13.8969C23.3626 11.0441 26.7952 9.27363 30.463 9.03954L30.9012 9.0116C30.9586 9.00804 30.9971 9.03654 31.0148 9.05398C31.0324 9.07137 31.0617 9.1092 31.0588 9.1669L31.0476 9.39588Z" fill="#FCB749"/>
</svg>
