<svg width="29" height="29" viewBox="0 0 29 29" fill="none" xmlns="http://www.w3.org/2000/svg">
<path d="M14.2404 28.3311C21.8091 28.3311 27.9649 22.1754 27.9649 14.6066C27.9649 7.03786 21.8091 0.882143 14.2404 0.882143C6.67165 0.882143 0.515932 7.03786 0.515932 14.6066C0.515932 22.1754 6.67165 28.3311 14.2404 28.3311ZM14.2404 2.25775C21.0514 2.25775 26.5893 7.79563 26.5893 14.6066C26.5893 21.4176 21.0514 26.9555 14.2404 26.9555C7.42941 26.9555 1.89154 21.4176 1.89154 14.6066C1.89154 7.79563 7.42941 2.25775 14.2404 2.25775Z" fill="white" stroke="white" stroke-width="0.276729"/>
<path d="M15.42 14.0802L11.596 17.9042L11.596 17.9042L11.5948 17.9055C11.3217 18.1858 11.3199 18.6395 11.596 18.9157C11.7337 19.0533 11.9208 19.1252 12.1018 19.1252C12.2828 19.1252 12.4699 19.0533 12.6076 18.9157L16.9373 14.586C17.0744 14.4489 17.1468 14.2678 17.1468 14.0802C17.1468 13.8926 17.0744 13.7116 16.9373 13.5745L12.6076 9.24473C12.3263 8.96343 11.8774 8.96343 11.596 9.24473C11.3147 9.52603 11.3147 9.97494 11.596 10.2562L15.42 14.0802Z" fill="white" stroke="white" stroke-width="0.276729"/>
</svg>
