<svg width="24" height="24" viewBox="0 0 24 24" fill="none" xmlns="http://www.w3.org/2000/svg">
<path d="M12 24C18.6274 24 24 18.6274 24 12C24 5.37258 18.6274 0 12 0C5.37258 0 0 5.37258 0 12C0 18.6274 5.37258 24 12 24Z" fill="#4CAF50"/>
<path d="M7.29206 15.9103L7.37415 15.6657L7.22222 15.457C6.51533 14.4862 6.09961 13.2911 6.09961 12.0001C6.09961 8.74648 8.7455 6.10004 11.9981 6.10004H12.0013C15.2538 6.10004 17.8997 8.74724 17.8997 12.0001C17.8997 15.2529 15.2538 17.9002 12.0013 17.9002C10.8007 17.9002 9.68905 17.5434 8.75657 16.9257L8.55663 16.7933L8.32819 16.8663L6.80839 17.3521L7.29206 15.9103Z" fill="#4CAF50" stroke="white"/>
<path d="M15.3555 14.3248C15.2361 14.6619 14.7623 14.9415 14.3843 15.0232C14.1257 15.0782 13.788 15.1221 12.6511 14.6508C11.1968 14.0483 10.2603 12.5705 10.1873 12.4746C10.1174 12.3788 9.59961 11.6921 9.59961 10.982C9.59961 10.2719 9.96024 9.92609 10.1056 9.77763C10.225 9.65577 10.4223 9.6001 10.6116 9.6001C10.6728 9.6001 10.7279 9.60319 10.7774 9.60566C10.9227 9.61185 10.9957 9.62051 11.0916 9.85C11.211 10.1376 11.5017 10.8478 11.5364 10.9208C11.5716 10.9938 11.6069 11.0927 11.5574 11.1886C11.511 11.2876 11.4702 11.3315 11.3972 11.4156C11.3242 11.4998 11.2549 11.5641 11.1819 11.6544C11.1151 11.733 11.0397 11.8171 11.1238 11.9624C11.2079 12.1047 11.4986 12.5792 11.9267 12.9602C12.4791 13.452 12.9269 13.6091 13.0872 13.6759C13.2065 13.7254 13.3488 13.7136 13.436 13.6209C13.5468 13.5015 13.6835 13.3035 13.8226 13.1087C13.9216 12.9689 14.0466 12.9516 14.1777 13.001C14.3113 13.0474 15.0184 13.3969 15.1637 13.4693C15.3091 13.5423 15.405 13.5769 15.4402 13.6382C15.4749 13.6994 15.4749 13.9871 15.3555 14.3248Z" fill="#FAFAFA"/>
</svg>
